<svg width="114" height="114" viewBox="0 0 114 114" fill="none" xmlns="http://www.w3.org/2000/svg">
<circle cx="56.5368" cy="56.5368" r="56.5368" fill="#00A2C3"/>
<path d="M71.1716 35H41.4716C34.7722 35 29.3216 40.8187 29.3216 47.9706V60.9412C29.3216 68.093 34.7722 73.9118 41.4716 73.9118H45.5216V82.5588C45.5216 83.1418 45.8503 83.6671 46.3545 83.8905C46.5219 83.964 46.6974 84 46.8716 84C47.2232 84 47.5675 83.8537 47.826 83.5777L56.8805 73.9118H71.1716C77.8709 73.9118 83.3216 68.093 83.3216 60.9412V47.9706C83.3216 40.8187 77.8709 35 71.1716 35ZM69.8216 49.4118C69.8216 50.2073 69.2168 50.8529 68.4716 50.8529H44.1716C43.4264 50.8529 42.8216 50.2073 42.8216 49.4118C42.8216 48.6162 43.4264 47.9706 44.1716 47.9706H68.4716C69.2168 47.9706 69.8216 48.6162 69.8216 49.4118ZM64.4216 59.5C64.4216 60.2955 63.8168 60.9412 63.0716 60.9412H44.1716C43.4264 60.9412 42.8216 60.2955 42.8216 59.5C42.8216 58.7045 43.4264 58.0588 44.1716 58.0588H63.0716C63.8168 58.0588 64.4216 58.7045 64.4216 59.5Z" fill="white"/>
</svg>
