<svg width="208" height="111" viewBox="0 0 208 111" fill="none" xmlns="http://www.w3.org/2000/svg">
<g clip-path="url(#clip0_50_145)">
<path d="M90.1572 60.8323C90.1572 60.733 90.1572 60.6338 90.2068 60.5594C90.6038 59.7407 91.0007 58.9468 91.3729 58.1281C91.4969 57.8552 91.621 57.8552 91.8443 57.9792C92.6878 58.4754 93.5065 58.9964 94.35 59.4926C94.5236 59.5918 94.5485 59.7158 94.4492 59.8895C94.0275 60.6834 93.6553 61.5021 93.2584 62.3208C93.0847 62.6681 92.911 62.7178 92.5637 62.4697C91.8691 61.9983 91.1248 61.5765 90.4053 61.13C90.2565 61.0307 90.1572 60.9563 90.182 60.8075" fill="#2B2B2B"/>
<path d="M39.2981 51.9007C38.2561 50.3874 37.9832 48.6507 38.1569 46.8893C38.3306 45.0038 38.9012 43.2175 39.5958 41.4561C39.6703 41.2576 39.7943 40.9351 40.092 41.0591C40.4145 41.1832 40.4642 41.5305 40.3897 41.8034C40.2161 42.4981 40.1168 43.1927 39.8935 43.8874C39.4222 45.3015 39.2733 46.7156 39.7447 48.1794C40.0672 49.1717 40.7867 49.8416 41.6302 50.3874C42.7218 51.1069 43.9374 51.4046 45.2275 51.5534C46.9642 51.7519 48.676 51.6527 50.3878 51.2309C52.3974 50.7347 54.4069 50.1641 56.342 49.395C58.3267 48.6011 60.1874 47.5839 61.9241 46.3187C62.0977 46.1946 62.0729 46.0458 62.0233 45.8473C61.7504 44.9046 61.279 44.0859 60.8325 43.2423C60.2122 42.1011 59.6664 40.9351 59.071 39.7691C58.9222 39.4714 58.6741 39.2233 58.7237 38.8511C58.7733 38.4294 58.9222 38.0572 59.0462 37.6603C59.1951 37.1641 59.3687 36.6679 59.5176 36.1717C59.6168 35.8988 59.7161 35.8244 59.9393 36.0725C60.4851 36.6679 61.1302 37.1641 61.5519 37.8836C61.8 38.3301 62.0233 38.8015 61.8248 39.3225C61.7504 39.521 61.8496 39.6946 61.9489 39.8683C62.4203 40.8359 62.9909 41.7786 63.3134 42.8454C63.6855 44.061 63.6359 45.3015 63.3134 46.5172C63.1397 47.187 62.9412 47.8569 62.5443 48.4523C61.9985 49.271 61.2046 49.8168 60.3859 50.3378C59.5176 50.8836 58.6245 51.4046 57.7313 51.9256C56.8382 52.2977 56.0195 52.7691 55.1016 53.0668C53.2161 53.687 51.3306 54.3568 49.3706 54.7538C48.1798 55.0019 46.9642 55.0763 45.7733 55.0019C43.5405 54.8778 41.4565 54.2824 39.8687 52.5954C39.6703 52.3969 39.5214 52.1736 39.3477 51.9504" fill="#2B2B2B"/>
<path d="M95.5159 26.1491C95.367 26.9182 95.0693 27.6129 94.5979 28.2331C94.4243 28.4564 94.1266 28.4316 93.8785 28.506C92.4644 28.8782 91.0751 29.3991 89.6857 29.8457C87.3537 30.5652 85.0464 31.3591 82.7144 32.0537C80.8537 32.5995 79.0178 33.1701 77.1819 33.7904C74.3289 34.7827 71.451 35.7007 68.6476 36.8171C68.3251 36.9411 68.3002 36.7427 68.3499 36.5442C68.4243 36.048 68.5731 35.5766 68.6476 35.0804C68.7468 34.5098 69.0693 34.2617 69.6151 34.0881C70.7315 33.7408 71.7983 33.2942 72.9147 32.9717C74.8995 32.4259 76.7602 31.5575 78.7201 30.9621C81.7964 30.0194 84.8976 29.1014 87.9739 28.1091C89.5617 27.5881 91.1495 27.0919 92.7621 26.6205C93.5808 26.3724 94.3747 26.1243 95.1686 25.8514C95.4415 25.7522 95.5903 25.777 95.5407 26.1243" fill="#2B2B2B"/>
<path d="M97.8232 36.5939C97.9969 35.9489 98.1458 35.3039 98.3194 34.6588C98.369 34.4603 98.6419 34.4355 98.8156 34.3611C100.751 33.592 102.76 33.071 104.72 32.3764C105.663 32.0539 106.556 31.6569 107.499 31.3592C110.575 30.4164 113.651 29.4489 116.753 28.5061C118.762 27.8859 120.747 27.2657 122.756 26.6455C123.401 26.447 124.071 26.2733 124.716 26.0252C125.014 25.9012 125.064 26.0252 125.064 26.2485C125.064 26.4718 125.064 26.4718 125.039 26.5462C124.84 27.0176 124.642 27.5138 124.443 27.9852C124.295 28.3573 123.972 28.5061 123.6 28.6054C122.484 28.9031 121.367 29.2752 120.276 29.6226C118.837 30.0939 117.373 30.4909 115.959 30.9871C113.726 31.7561 111.468 32.3764 109.211 33.0958C107.151 33.7657 105.117 34.51 103.058 35.2046C101.47 35.7256 99.8824 36.321 98.2946 36.8916C97.9225 37.0157 97.8232 36.9661 97.8481 36.5939" fill="#2B2B2B"/>
<path d="M65.3969 49.5443C65.5706 48.7504 65.5706 47.9317 65.4713 47.1378C65.3473 45.8477 65.3225 44.5328 65.1488 43.2427C65.0248 42.3992 65.0248 41.5557 64.9503 40.7122C64.8511 39.4717 64.6774 38.2561 64.603 37.0156C64.5534 36.2465 64.479 35.4775 64.4045 34.7084C64.3053 33.7656 64.2805 32.8229 64.1068 31.9049C63.9331 30.8878 64.1068 29.8458 63.958 28.8286C63.9331 28.6301 64.0324 28.4069 64.1316 28.2084C64.4541 27.5137 64.8015 26.8191 65.124 26.1244C65.1736 26.0004 65.1736 25.8267 65.3969 25.8515C65.5954 25.8515 65.6946 25.9756 65.769 26.1244C65.9179 26.5214 66.0667 26.9431 66.2404 27.3401C66.5629 28.134 66.9847 28.903 67.1335 29.7962C67.3072 30.7141 67.2576 31.5576 66.7614 32.3515C66.4637 32.7981 66.5133 33.2943 66.6125 33.7408C66.7366 34.3859 66.687 35.0557 66.7366 35.7007C66.811 36.4946 66.8358 37.2885 66.8854 38.0824C66.9599 39.695 67.0591 41.3076 67.1583 42.8954C67.2328 44.0862 67.2576 45.2771 67.208 46.4431C67.1583 47.5347 66.9103 48.6263 66.2404 49.5939C66.1412 49.7427 66.0171 49.842 65.9179 49.966C65.8187 50.0901 65.6946 50.2389 65.4961 50.0901C65.2977 49.966 65.2728 49.7923 65.3969 49.5939" fill="#2B2B2B"/>
<path d="M48.701 29.275C47.4357 29.0021 46.2448 28.754 45.0292 29.0021C44.8555 29.0269 44.6819 29.0021 44.5082 29.0765C44.3593 29.1262 44.0864 29.151 43.9872 29.0765C43.8632 28.9277 43.888 28.6796 43.9872 28.4811C44.3593 27.712 44.7563 26.943 45.1036 26.1491C45.2773 25.7521 45.6246 25.8265 45.8727 25.7769C47.3364 25.5288 48.8002 25.7025 50.2143 26.1243C50.9338 26.3227 51.2811 26.9926 50.9586 27.6376C50.512 28.5307 50.1399 29.4735 49.5197 30.2922C48.5521 31.5575 47.2868 32.3017 45.7735 32.6491C45.178 32.7731 44.5578 32.8475 43.9872 33.0708C43.888 33.1204 43.7391 33.0708 43.6399 33.0956C43.4414 33.0956 43.2429 33.0956 43.1933 32.8972C43.1437 32.7483 43.3422 32.6491 43.491 32.5498C44.7315 31.7063 46.0464 30.9869 47.3364 30.2178C47.783 29.9449 48.2544 29.6968 48.7258 29.2998" fill="#2B2B2B"/>
<path d="M48.6514 39.3477C48.8995 39.4717 49.1476 39.6206 49.3957 39.7694C49.9911 40.1167 50.5865 40.4889 51.1819 40.861C51.4548 41.0347 51.5789 41.1835 51.3804 41.5557C50.9586 42.3744 50.5121 43.1683 50.1151 43.987C50.0159 44.1606 49.9663 44.2103 49.8174 44.111C48.9739 43.59 48.1552 43.0442 47.3117 42.548C47.138 42.4488 47.0884 42.3744 47.2125 42.1759C47.6342 41.3324 48.056 40.4393 48.4777 39.5957C48.5273 39.4965 48.5273 39.3477 48.701 39.3725" fill="#2B2B2B"/>
<path d="M167.289 26.1243C167.19 26.3724 167.14 26.6701 167.016 26.943C166.842 27.2655 166.743 27.6129 166.594 27.9354C166.42 28.3075 166.048 28.4068 165.676 28.506C164.188 28.9029 162.749 29.4487 161.26 29.8953C158.928 30.6396 156.596 31.4087 154.239 32.1033C152.006 32.7732 149.773 33.4926 147.565 34.2369C145.233 35.0308 142.901 35.8743 140.594 36.693C140.048 36.8915 140.073 36.8915 140.123 36.3457C140.172 35.7503 140.396 35.2045 140.495 34.6339C140.544 34.361 140.793 34.3113 141.016 34.2121C142.976 33.443 144.985 32.8972 146.97 32.2274C148.062 31.8552 149.128 31.3839 150.245 31.0365C153.321 30.069 156.422 29.2006 159.499 28.1835C161.186 27.6377 162.898 27.1415 164.585 26.5957C165.378 26.3476 166.222 26.1739 166.991 25.8266C167.214 25.7274 167.314 25.8266 167.338 26.0747" fill="#2B2B2B"/>
<path d="M183.737 34.6585C182.72 34.4104 181.777 34.2119 180.81 34.2616C180.338 34.2616 179.867 34.3856 179.396 34.4352C178.949 34.46 178.8 34.2864 178.974 33.8894C179.321 33.0459 179.718 32.2024 180.165 31.4085C180.338 31.086 180.835 31.1356 181.182 31.1108C182.472 30.9868 183.762 31.1108 185.027 31.4333C186.044 31.6814 186.268 32.3513 185.896 33.1452C185.325 34.3856 184.754 35.6509 183.663 36.5936C182.844 37.3131 181.901 37.6852 180.909 37.9581C180.214 38.1566 179.47 38.231 178.775 38.4543C178.552 38.5287 178.354 38.4047 178.23 38.3055C178.031 38.1566 178.279 38.0574 178.354 37.9829C178.999 37.5612 179.644 37.1394 180.314 36.7425C181.306 36.1471 182.323 35.6013 183.291 34.981C183.44 34.8818 183.514 34.7577 183.737 34.6585Z" fill="#2B2B2B"/>
<path d="M198.623 29.5974C198.623 29.002 198.796 28.5306 199.044 28.1089C199.317 27.6127 199.466 27.0669 199.814 26.5955C200.409 25.752 201.352 25.4047 202.096 25.876C202.642 26.2234 202.89 26.7692 202.989 27.3894C203.287 29.002 202.691 30.3913 201.897 31.7062C200.98 33.2196 199.888 34.5841 198.399 35.5516C197.308 36.2711 196.117 36.8417 194.926 37.4123C194.876 37.4371 194.802 37.4619 194.752 37.4619C194.628 37.4619 194.455 37.5364 194.38 37.4123C194.306 37.2386 194.455 37.1394 194.579 37.0402C194.926 36.7673 195.298 36.5192 195.621 36.2463C196.216 35.7749 196.836 35.3283 197.407 34.8073C198.3 33.9886 199.243 33.2196 200.086 32.3512C200.632 31.8054 201.104 31.1852 201.575 30.5898C202.096 29.9199 201.724 28.0841 200.731 27.8608C200.384 27.7864 200.111 27.9352 199.863 28.1585C199.764 28.2577 199.814 28.357 199.863 28.481C200.21 29.002 200.632 29.4238 201.228 29.5974C201.525 29.6967 201.501 29.7711 201.401 29.9944C201.153 30.565 200.731 30.9867 200.384 31.4829C200.285 31.6318 200.111 31.6566 199.987 31.5822C199.268 31.1852 198.499 30.4657 198.573 29.647" fill="#2B2B2B"/>
<path d="M161.086 34.0633C161.979 34.5595 162.847 35.0309 163.666 35.6015C163.914 35.7751 163.989 35.6759 164.088 35.5022C164.46 34.7332 164.857 33.9641 165.229 33.195C165.353 32.9221 165.477 32.8725 165.725 33.0461C166.519 33.5423 167.363 33.9889 168.157 34.5347C168.405 34.7083 168.355 34.8076 168.256 34.9812C167.834 35.8248 167.412 36.6435 167.015 37.487C166.866 37.7847 166.718 37.7599 166.519 37.6358C165.849 37.2141 165.155 36.7923 164.485 36.3457C164.162 36.1473 163.989 36.0728 163.815 36.5194C163.492 37.2885 163.071 38.008 162.699 38.7522C162.599 38.9507 162.525 39.0003 162.326 38.9011C161.483 38.3801 160.664 37.8839 159.821 37.3877C159.647 37.2885 159.672 37.1644 159.746 36.966C160.069 36.1473 160.54 35.403 160.887 34.6091C160.962 34.4603 161.036 34.2866 161.111 34.1129" fill="#2B2B2B"/>
<path d="M153.296 41.4808C152.825 42.3987 152.354 43.3167 151.907 44.2346C151.833 44.4083 151.808 44.3835 151.659 44.2842C150.865 43.788 150.046 43.3167 149.228 42.8205C148.979 42.6716 148.905 42.4483 149.054 42.1754C149.451 41.3071 149.947 40.5132 150.27 39.6201C150.319 39.4961 150.394 39.4464 150.542 39.5457C151.287 40.017 152.081 40.4388 152.825 40.935C153.147 41.1583 153.271 41.0838 153.42 40.7613C153.768 40.017 154.115 39.2976 154.462 38.5533C154.562 38.3548 154.636 38.2308 154.884 38.3796C155.678 38.8758 156.497 39.3224 157.266 39.8434C157.563 40.0419 157.588 40.1907 157.439 40.4884C157.018 41.2823 156.621 42.0762 156.249 42.8701C156.125 43.143 156 43.143 155.777 43.019C154.934 42.5228 154.115 42.0018 153.271 41.5056" fill="#2B2B2B"/>
<path d="M131.911 34.4849C131.861 34.5593 131.836 34.6337 131.811 34.6833C131.39 35.5269 130.943 36.3704 130.546 37.2139C130.422 37.462 130.323 37.462 130.099 37.3379C129.306 36.8417 128.512 36.3456 127.718 35.8742C127.47 35.7253 127.445 35.6013 127.569 35.378C127.991 34.5097 128.412 33.6165 128.834 32.7482C128.909 32.5994 128.933 32.5746 129.082 32.6738C129.975 33.1452 130.819 33.7158 131.712 34.2368C131.811 34.2864 131.911 34.3608 131.935 34.4849" fill="#2B2B2B"/>
<path d="M154.462 37.2883C154.462 37.2387 154.462 37.2883 154.438 37.3627C154.016 38.2558 153.569 39.149 153.073 39.9925C152.974 40.1413 152.949 40.1413 152.825 40.0669C151.982 39.5459 151.138 39.0249 150.294 38.5039C150.146 38.4047 150.046 38.3055 150.17 38.0822C150.617 37.3131 150.964 36.4696 151.361 35.6509C151.485 35.378 151.634 35.2539 151.932 35.4524C152.726 35.9486 153.569 36.3951 154.338 36.941C154.413 36.9906 154.537 37.0154 154.462 37.2883Z" fill="#2B2B2B"/>
<path d="M207.876 44.3094C207.628 42.9449 206.338 41.8285 204.974 41.9773C204.081 42.0517 203.212 42.2502 202.418 42.6472C201.103 43.2922 200.012 44.2349 198.945 45.2025C198.126 45.9468 197.308 46.6911 196.216 47.0136C195.571 47.212 194.926 47.4105 194.256 47.1376C193.388 46.7903 193.214 46.0212 193.09 45.2273C193.09 45.0537 193.04 44.9296 192.941 44.7807C192.792 44.9048 192.569 44.7807 192.445 44.9544C192.371 45.0785 192.222 45.1529 192.147 45.3017C191.924 45.6987 191.676 46.0708 191.477 46.4678C191.006 47.4105 190.311 47.9563 189.22 48.0308C188.327 48.0804 187.533 47.4353 187.533 46.567C187.533 45.6987 187.533 46.1701 187.533 45.9716C187.533 45.8227 187.582 45.6491 187.384 45.5746C187.235 45.525 187.086 45.5498 186.913 45.6491C186.516 45.8972 186.317 46.2941 186.069 46.6414C185.523 47.4105 184.903 48.0804 184.01 48.4773C183.216 48.8494 182.373 49.0231 181.628 48.4773C180.834 47.9067 180.462 47.088 180.611 46.0708C180.636 45.8724 180.537 45.7235 180.413 45.5995C180.289 45.4754 180.165 45.5995 180.04 45.6491C179.743 45.7979 179.445 45.9468 179.172 46.1453C178.453 46.6414 177.758 47.1872 177.014 47.6586C174.93 48.9735 172.672 49.693 170.166 49.3704C168.033 49.0975 166.668 47.9563 165.924 45.9468C165.477 44.7311 165.403 43.4411 165.13 42.1758C164.981 41.5556 165.056 40.8857 164.808 40.2903C164.758 40.1662 164.808 39.9926 164.634 39.9678C164.485 39.9678 164.411 40.1166 164.336 40.2655C164.063 40.7617 163.766 41.2578 163.443 41.7292C163.021 42.3495 162.897 43.0193 162.972 43.7388C163.096 44.7559 163.17 45.7979 163.344 46.8151C163.443 47.3857 163.344 47.9315 163.493 48.5021C163.592 48.8246 163.493 49.0975 163.071 49.2216C162.5 49.3704 161.955 49.4201 161.409 49.2216C160.317 48.8246 159.672 48.0307 159.35 46.9391C159.325 46.8151 159.374 46.5918 159.126 46.567C158.928 46.567 158.779 46.6414 158.655 46.7903C158.456 47.0632 158.283 47.3361 158.084 47.6338C157.663 48.3285 157.266 49.0231 156.596 49.5689C155.405 50.5613 153.321 49.817 153.147 48.4277C153.123 48.1548 153.147 47.9067 153.073 47.6338C153.048 47.4849 152.998 47.2865 152.899 47.2369C152.825 47.1872 152.651 47.3361 152.527 47.4353C152.13 47.8075 151.808 48.2292 151.535 48.6758C150.865 49.7426 149.972 50.4869 148.682 50.7846C147.168 51.1071 145.308 49.9162 145.829 48.0804C145.903 47.8075 146.002 47.5346 145.903 47.2617C145.878 47.1624 145.853 46.9888 145.605 47.1128C145.109 47.3609 144.563 47.5346 144.042 47.7827C142.504 48.4525 140.991 49.1968 139.329 49.6185C138.51 49.8418 137.716 50.0403 136.873 50.1395C136.103 50.214 135.359 50.2388 134.615 50.1395C133.697 50.0155 132.829 49.817 132.01 49.4201C131.737 49.296 131.712 49.172 131.911 48.9487C132.432 48.4029 132.804 47.7827 133.077 47.0632C133.523 45.8972 133.747 44.7311 133.35 43.4659C133.002 42.3495 132.258 41.5556 131.439 40.8113C131.191 40.588 130.844 40.4391 130.472 40.4391C129.703 40.4391 129.182 40.8113 128.735 41.4067C128.09 42.275 127.594 43.193 127.495 44.2598C127.371 45.6739 127.495 47.0632 128.189 48.3533C128.338 48.6262 128.264 48.775 127.991 48.8743C127.668 49.0231 127.346 49.2216 127.023 49.3704C125.659 50.0403 124.294 50.7846 122.731 50.9582C122.384 50.983 122.161 51.1567 122.037 51.5288C121.813 52.2731 121.54 52.9926 121.317 53.712C121.193 54.109 121.367 54.3323 121.838 54.3571C122.012 54.3571 122.186 54.3571 122.334 54.3571C123.227 54.5556 124.096 54.754 124.964 54.9773C125.981 55.2502 126.949 55.5975 127.619 56.4907C125.758 57.4334 123.823 58.2273 121.838 58.8227C120.374 59.2693 118.861 59.567 117.323 59.6911C116.132 59.7903 114.941 59.9391 113.726 59.7903C112.336 59.6166 111.046 59.2445 109.855 58.525C108.789 57.88 108.044 57.0117 107.647 55.8456C107.3 54.8781 107.374 53.8857 107.598 52.8933C107.672 52.5956 107.771 52.3972 107.995 52.2731L106.754 52.6949C106.68 52.943 106.605 53.0918 106.556 53.2655C106.233 54.3323 106.184 55.4239 106.184 56.5155C106.184 58.401 106.903 59.9143 108.317 61.13C109.93 62.5193 111.84 63.0651 113.899 63.1891C115.413 63.2636 116.901 63.0651 118.39 62.8418C119.779 62.6433 121.119 62.2712 122.434 61.775C123.699 61.3285 124.915 60.7827 126.13 60.2369C126.775 59.9391 127.395 59.6166 127.941 59.1701C128.834 58.401 129.231 57.3342 129.554 56.2426C129.827 55.3246 129.678 54.4315 129.182 53.6128C128.81 52.9926 128.214 52.5708 127.594 52.1987C128.115 51.8514 128.611 51.5536 129.107 51.2063C129.231 51.1319 129.231 51.1071 129.331 51.2311C129.926 51.901 130.645 52.422 131.464 52.7693C133.151 53.4888 134.888 53.588 136.699 53.3399C138.46 53.0918 140.123 52.4964 141.735 51.8265C142.628 51.4544 143.472 51.0078 144.464 50.6853C144.34 50.983 144.514 51.2063 144.514 51.4544C144.514 52.1243 144.787 52.7197 145.233 53.1911C146.598 54.6052 149.103 54.2578 150.369 52.6204C150.84 52.025 151.237 51.4048 151.708 50.7598C151.832 51.4048 151.956 51.9754 152.353 52.422C152.974 53.0918 153.743 53.3399 154.686 53.2407C155.802 53.1414 156.596 52.6204 157.142 51.6777C157.415 51.2063 157.712 50.7101 157.985 50.214C158.184 50.5117 158.357 50.7846 158.531 51.0327C159.325 52.1491 160.317 52.8685 161.756 52.5956C162.624 52.422 163.394 52.025 163.939 51.2559C164.311 50.7349 164.535 50.1147 164.832 49.5441C164.882 49.5689 164.882 49.5689 164.907 49.5937C164.932 49.6433 164.956 49.693 164.981 49.7426C165.701 50.9582 166.644 51.8762 168.058 52.3475C169.397 52.7941 170.737 52.8685 172.126 52.6949C173.342 52.546 174.483 52.1243 175.55 51.5785C176.741 50.983 177.857 50.2636 178.924 49.4449C179.197 49.2216 179.321 49.2464 179.42 49.6433C179.619 50.5365 180.016 51.3304 180.834 51.8265C181.901 52.4964 183.266 52.1243 184.184 51.504C185.027 50.9334 185.523 50.0651 186.168 49.2712C186.218 49.4449 186.268 49.5689 186.292 49.7178C186.491 50.6357 187.235 51.4048 188.227 51.4048C189.344 51.4048 190.212 50.9086 190.832 49.9411C191.155 49.4449 191.329 48.8743 191.701 48.4029C191.974 49.3456 192.371 50.1643 193.388 50.462C194.504 50.7598 195.546 50.5117 196.514 49.9411C197.779 49.1968 198.697 48.0308 199.863 47.1624C200.756 46.4678 201.624 45.7483 202.691 45.3514C204.105 44.8056 205.594 45.3514 205.966 46.9888C206.115 47.6586 205.817 48.0059 205.197 47.8819C204.056 47.6586 203.212 46.9888 202.468 46.1701C202.294 45.9716 202.195 45.9716 201.997 46.1204C201.327 46.6414 200.632 47.1376 199.937 47.6338C199.714 47.7827 199.739 47.8819 199.838 48.0804C200.533 49.2464 201.5 50.1643 202.766 50.6853C203.659 51.0575 204.527 50.9582 205.321 50.338C205.892 49.8914 206.363 49.3704 206.71 48.7502C207.455 47.3609 208.124 45.9468 207.802 44.2846L207.876 44.3094ZM130.596 47.2369C130.497 47.3113 130.447 47.3113 130.373 47.2369C129.653 46.443 129.157 45.525 128.958 44.6319C128.909 44.1357 129.182 44.0117 129.405 43.8876C129.777 43.6891 130.149 43.7884 130.447 44.0613C131.042 44.5575 131.514 45.1529 131.886 45.8475C131.96 45.9716 131.936 46.0708 131.836 46.1701C131.464 46.567 131.042 46.9143 130.596 47.2369Z" fill="#2B2B2B"/>
<path d="M108.242 52.1985C109.185 51.8512 110.103 51.4542 110.996 51.0077C111.865 50.5859 112.758 50.2138 113.552 49.668C114.544 48.9733 115.115 47.9561 115.536 46.8397C115.884 45.8722 116.033 44.8798 115.71 43.8626C115.214 42.3493 114.172 41.2328 113.055 40.1661C112.907 40.0172 112.857 40.1164 112.807 40.2405C112.534 40.9599 112.311 41.7042 111.939 42.3741C111.617 42.9943 111.84 43.3664 112.212 43.7882C112.832 44.4828 113.477 45.1775 113.899 46.0458C114.073 46.3932 113.973 46.4924 113.725 46.6661C112.038 47.708 110.227 48.4523 108.366 49.0973C105.017 50.2882 101.569 51.0573 98.0459 51.4542C96.5325 51.6279 95.0192 51.6527 93.481 51.7023C92.5631 51.7519 91.6203 51.7271 90.7024 51.6527C89.586 51.5535 88.4696 51.4542 87.378 51.1813C85.6661 50.7348 84.2272 49.8416 83.1356 48.4523C82.2425 47.2863 81.7959 45.9218 81.5974 44.458C81.4486 43.168 81.2253 41.9027 80.9524 40.6374C80.6795 39.3474 80.481 38.0573 80.0841 36.792C80.0344 36.668 80.0344 36.4447 79.9104 36.4199C79.7615 36.3951 79.6871 36.5687 79.6127 36.6928C79.2902 37.3626 78.9428 38.0573 78.5955 38.7271C78.4466 39.0248 78.397 39.3722 78.4467 39.6699C78.6699 40.7615 78.918 41.8283 79.0917 42.9447C79.2902 44.1603 79.5631 45.3512 79.7864 46.5668C79.9352 47.4351 80.0593 48.3035 80.1833 49.1718C80.2577 49.7424 80.1089 50.0401 79.7615 50.4122C78.4715 51.7519 76.9581 52.7443 75.2959 53.5134C74.2043 54.0096 73.0631 54.3321 71.8722 54.1832C71.0287 54.084 70.3093 53.7615 69.8875 52.9428C69.7635 52.7195 69.8131 52.5954 69.9867 52.4714C70.9295 51.7767 71.7482 50.958 72.6661 50.2882C74.105 49.2214 74.8245 47.7577 74.9982 46.0706C75.147 44.6813 75.147 43.2424 74.5268 41.9027C74.2539 41.3073 74.1795 40.7119 74.4028 40.1164C74.5516 39.7195 74.4772 39.3474 74.2539 39.0248C73.8321 38.4046 73.4104 37.8092 72.9638 37.189C72.7902 36.9657 72.6165 36.8912 72.4925 37.2386C72.2196 38.0077 71.9218 38.8015 71.6738 39.5706C71.5993 39.7691 71.5993 40.0668 71.6738 40.2405C71.8722 40.6126 71.9467 41.0096 72.0707 41.4065C72.5421 42.9695 73.1375 44.4828 73.5841 46.0458C73.6337 46.2195 73.6337 46.3187 73.5096 46.4428C72.7405 47.2119 71.9467 47.9313 71.0783 48.6012C70.0363 49.3951 68.9447 50.0897 67.8283 50.7348C67.3321 51.0325 66.836 51.4294 66.2157 51.5038C66.1909 51.5287 66.1661 51.5783 66.1165 51.5783C64.1566 52.4466 62.1967 53.3149 60.1375 53.9351C59.2196 54.3073 58.3016 54.6546 57.3589 54.9027C55.8455 55.3244 54.357 55.7214 52.8436 56.0687C51.6528 56.3416 50.4619 56.4905 49.2959 56.8874C49.147 56.937 48.9238 56.8626 48.9982 57.1355C49.0478 57.334 49.147 57.458 49.3703 57.458C50.6852 57.458 51.9753 57.4828 53.2654 57.6317C54.0096 57.7061 54.7539 57.7806 55.4734 57.8302C56.8379 57.9542 58.1776 57.979 59.5173 57.4828C60.9314 56.9619 62.3703 56.4905 63.7348 55.8703C64.9753 55.2996 66.2654 54.8283 67.4314 54.1088C67.8531 53.8607 68.2253 53.563 68.7215 53.4141C68.7215 53.8855 68.7215 54.3569 68.7215 54.8035C68.7463 55.7958 69.5898 57.0363 70.607 57.3588C71.9715 57.8302 73.3112 57.6069 74.5764 57.0611C75.9409 56.4657 77.1566 55.647 78.3226 54.7042C79.7615 53.563 80.7787 52.1489 81.3493 50.3874C81.4238 50.4619 81.4734 50.4867 81.4982 50.5363C82.1928 51.8015 83.21 52.7939 84.4753 53.4638C85.815 54.1584 87.2291 54.605 88.7673 54.7538C90.1318 54.9027 91.5211 54.9027 92.8856 54.9275C94.6967 54.9275 96.5077 54.8035 98.3188 54.5802C99.7081 54.4065 101.073 54.1832 102.437 53.8607C103.901 53.5382 105.34 53.1661 106.804 52.6203L108.044 52.1985C108.094 52.1737 108.143 52.1489 108.193 52.1241L108.242 52.1985Z" fill="#2B2B2B"/>
<path d="M37.6352 80.6794V80.0096L38.7268 79.7615V73.3359L37.6352 73.0878V72.418H41.2573C42.1752 72.418 42.9195 72.5668 43.4653 72.8893C44.0111 73.2119 44.284 73.708 44.284 74.4275C44.284 75.147 44.1352 75.2462 43.8126 75.5935C43.5149 75.9409 43.1428 76.1642 42.721 76.2634C43.3661 76.4122 43.8871 76.6603 44.284 77.0325C44.681 77.4046 44.8546 77.8512 44.8546 78.397C44.8546 78.9428 44.5569 79.6622 43.9615 80.084C43.3661 80.5058 42.597 80.729 41.6791 80.729H37.6104L37.6352 80.6794ZM40.6619 75.9657H40.8355C41.2573 75.9657 41.6046 75.8416 41.9023 75.5935C42.2 75.3455 42.3241 74.9733 42.3241 74.5267C42.3241 73.6832 41.8031 73.2615 40.7611 73.2615H40.6619V75.9905V75.9657ZM40.6619 79.8359H41.0836C42.2993 79.8359 42.9195 79.3397 42.9195 78.3474C42.9195 77.355 42.7707 77.5038 42.4729 77.2309C42.1752 76.958 41.7287 76.834 41.1333 76.834H40.6619V79.8607V79.8359Z" fill="#2B2B2B"/>
<path d="M48.874 80.6795V80.0097L50.0401 79.7368L52.8683 72.3188H53.8855L56.5401 79.7368L57.6813 80.0097V80.6795H53.6622V80.0097L54.5057 79.8112L53.9847 78.3971H51.5038L50.9828 79.7864L51.9752 80.0345V80.7043H48.874V80.6795ZM51.8263 77.5784H53.687L52.7691 75.0479L51.8263 77.5784Z" fill="#2B2B2B"/>
<path d="M61.9482 80.6794V80.0096L63.0398 79.7615V73.3359L61.9482 73.0878V72.418H65.496C66.9349 72.418 68.0265 72.7901 68.7956 73.5592C69.5647 74.3283 69.9368 75.3206 69.9368 76.5611C69.9368 77.8016 69.5398 78.8932 68.7211 79.6126C67.9273 80.3321 66.8356 80.7042 65.496 80.7042H61.9482V80.6794ZM64.975 79.7863H65.3223C66.1906 79.7863 66.8357 79.5134 67.2822 78.9428C67.7288 78.3722 67.9521 77.5783 67.9521 76.5363C67.9521 75.4943 67.7288 74.7004 67.2822 74.1298C66.8357 73.584 66.1658 73.2863 65.3223 73.2863H64.975V79.7615V79.7863Z" fill="#2B2B2B"/>
<path d="M74.5762 80.6794V80.0096L75.6678 79.7615V73.3359L74.5762 73.0878V72.418H78.2727C79.3643 72.418 80.183 72.6164 80.7288 73.0134C81.2746 73.4103 81.5475 73.9809 81.5475 74.7004C81.5475 75.4199 81.3987 75.6432 81.1258 75.9905C80.8529 76.3626 80.4559 76.6107 79.9598 76.7596L81.622 79.7615L82.7632 80.0344V80.6546H79.8853L77.9998 77.0573H77.5781V79.7119L78.6201 79.96V80.6298H74.5762V80.6794ZM77.6029 76.2634H77.9502C78.496 76.2634 78.9178 76.1145 79.2155 75.8416C79.5132 75.5687 79.662 75.1718 79.662 74.7004C79.662 74.229 79.5132 73.9313 79.2155 73.6584C78.9178 73.3855 78.496 73.2615 77.9502 73.2615H77.6277V76.2634H77.6029Z" fill="#2B2B2B"/>
<path d="M86.4346 80.6795V80.0097L87.6006 79.7368L90.4288 72.3188H91.446L94.1006 79.7368L95.2418 80.0097V80.6795H91.2227V80.0097L92.0663 79.8112L91.5453 78.3971H89.0643L88.5433 79.7864L89.5357 80.0345V80.7043H86.4346V80.6795ZM89.3869 77.5784H91.2475L90.3296 75.0479L89.3869 77.5784Z" fill="#2B2B2B"/>
<path d="M99.5088 80.6794V80.0096L100.6 79.7615V73.3359L99.5088 73.0878V72.418H101.543L106.629 77.9752V73.3359L105.537 73.0878V72.418H108.688V73.0878L107.597 73.3359V80.7042H106.455L101.543 75.3206V79.7615L102.635 80.0096V80.6794H99.5088Z" fill="#2B2B2B"/>
<path d="M119.803 80.6794V80.0096L120.894 79.7615V73.3359L119.803 73.0878V72.418H123.921V73.0878L122.829 73.3359V76.0649H125.782V73.3359L124.69 73.0878V72.418H128.808V73.0878L127.717 73.3359V79.7615L128.808 80.0096V80.6794H124.69V80.0096L125.782 79.7615V76.9332H122.829V79.7615L123.921 80.0096V80.6794H119.803Z" fill="#2B2B2B"/>
<path d="M133.473 76.5365C133.473 75.2713 133.82 74.2293 134.539 73.4106C135.234 72.6167 136.251 72.2197 137.566 72.2197C138.881 72.2197 139.873 72.6167 140.568 73.4106C141.263 74.2045 141.635 75.2464 141.635 76.5365C141.635 77.8266 141.288 78.8686 140.568 79.6625C139.849 80.4564 138.856 80.8533 137.566 80.8533C136.276 80.8533 135.259 80.4564 134.564 79.6873C133.845 78.8934 133.497 77.8514 133.497 76.5365H133.473ZM137.566 80.0346C138.261 80.0346 138.782 79.7369 139.129 79.1167C139.476 78.4964 139.65 77.6529 139.65 76.5365C139.65 75.4201 139.476 74.5518 139.104 73.9564C138.757 73.3361 138.236 73.0384 137.541 73.0384C136.847 73.0384 136.326 73.3361 135.978 73.9564C135.631 74.5766 135.457 75.4201 135.457 76.5365C135.457 77.6529 135.631 78.5212 135.978 79.1167C136.326 79.7369 136.847 80.0346 137.541 80.0346H137.566Z" fill="#2B2B2B"/>
<path d="M146.597 80.3074V78.1242H147.267L147.862 79.7864C148.184 79.9105 148.606 79.9601 149.102 79.9601C149.599 79.9601 150.095 79.8609 150.492 79.6872C150.889 79.4887 151.087 79.2158 151.087 78.8437C151.087 78.4715 151.087 78.67 151.062 78.5956C151.062 78.5212 151.013 78.4467 150.963 78.3723C150.913 78.2979 150.864 78.2483 150.814 78.1738C150.765 78.1242 150.69 78.0498 150.591 77.9754C150.492 77.9009 150.417 77.8513 150.343 77.8017C150.268 77.7521 150.169 77.7025 150.02 77.628C149.871 77.5536 149.648 77.4296 149.301 77.2807L148.879 77.0822C148.11 76.7101 147.539 76.3131 147.192 75.8914C146.845 75.4696 146.671 74.9735 146.671 74.3532C146.671 73.733 146.944 73.1872 147.465 72.7902C148.011 72.3933 148.705 72.1948 149.549 72.1948C150.392 72.1948 151.36 72.3189 152.129 72.567V74.7502H151.459L150.889 73.1624C150.566 73.088 150.244 73.0631 149.946 73.0631C149.475 73.0631 149.078 73.1376 148.755 73.3112C148.433 73.4849 148.259 73.7082 148.259 74.0059C148.259 74.3036 148.383 74.5021 148.656 74.7006C148.929 74.8742 149.4 75.1223 150.07 75.42L150.318 75.5192C151.112 75.8914 151.707 76.2883 152.104 76.7349C152.476 77.1815 152.675 77.7025 152.675 78.3475C152.675 78.9925 152.526 79.4143 152.228 79.7864C151.931 80.1586 151.534 80.4315 151.062 80.5803C150.591 80.754 150.02 80.8284 149.425 80.8284C148.457 80.8284 147.515 80.6547 146.597 80.2826V80.3074Z" fill="#2B2B2B"/>
<path d="M157.464 80.6794V80.0096L158.555 79.7615V73.3359L157.464 73.0878V72.418H160.813C161.954 72.418 162.847 72.6164 163.468 73.0134C164.088 73.4103 164.41 74.0802 164.41 74.9981C164.41 75.9161 164.311 75.8912 164.113 76.2386C163.914 76.5859 163.641 76.8588 163.294 77.0573C162.947 77.2558 162.575 77.4046 162.153 77.5038C161.731 77.6031 161.284 77.6527 160.788 77.6527H160.491V79.7615L161.93 80.0096V80.6794H157.464ZM160.491 76.7844H160.739C161.21 76.7844 161.632 76.6355 161.954 76.3378C162.302 76.0401 162.451 75.5935 162.451 74.9981C162.451 74.4027 162.302 74.0058 161.979 73.708C161.657 73.4103 161.284 73.2615 160.813 73.2615H160.491V76.7844Z" fill="#2B2B2B"/>
<path d="M168.9 80.6794V80.0096L169.992 79.7615V73.3359L168.9 73.0878V72.418H173.019V73.0878L171.927 73.3359V79.7615L173.019 80.0096V80.6794H168.9Z" fill="#2B2B2B"/>
<path d="M177.558 74.8988V72.3931H184.827V74.8988H184.108L183.612 73.2862H182.148V79.7366L183.24 79.9847V80.6545H179.121V79.9847L180.213 79.7366V73.2862H178.724L178.228 74.8988H177.509H177.558Z" fill="#2B2B2B"/>
<path d="M188.301 80.6795V80.0097L189.467 79.7368L192.295 72.3188H193.312L195.967 79.7368L197.108 80.0097V80.6795H193.089V80.0097L193.932 79.8112L193.411 78.3971H190.931L190.41 79.7864L191.402 80.0345V80.7043H188.301V80.6795ZM191.253 77.5784H193.114L192.196 75.0479L191.253 77.5784Z" fill="#2B2B2B"/>
<path d="M201.376 80.6794V80.0096L202.468 79.7615V73.3359L201.376 73.0878V72.418H205.494V73.0878L204.403 73.3359V79.7863H206.561L207.355 78.1241H208.025L207.677 80.6794H201.401H201.376Z" fill="#2B2B2B"/>
<path d="M8.95611 63.9084C8.95611 66.3893 6.94656 68.3989 4.46565 68.3989C1.98473 68.3989 0 66.3893 0 63.9084C0 61.4275 2.00954 59.418 4.49046 59.418C6.97137 59.418 8.98092 61.4275 8.98092 63.9084H8.95611Z" fill="#0066A2"/>
<path d="M6.26693 51.9554C6.54814 50.2381 5.38401 48.6181 3.66676 48.3369C1.94952 48.0557 0.329448 49.2198 0.0482379 50.937C-0.232972 52.6543 0.931165 54.2744 2.64841 54.5556C4.36566 54.8368 5.98572 53.6726 6.26693 51.9554Z" fill="#0066A2"/>
<path d="M6.00337 41.2575C6.00337 42.2251 5.20948 43.019 4.24192 43.019C3.27436 43.019 2.48047 42.2251 2.48047 41.2575C2.48047 40.29 3.27436 39.4961 4.24192 39.4961C5.20948 39.4961 6.00337 40.29 6.00337 41.2575Z" fill="#0066A2"/>
<path d="M8.03826 33.6661C8.03826 34.2367 7.59169 34.6833 7.02108 34.6833C6.45047 34.6833 6.00391 34.2367 6.00391 33.6661C6.00391 33.0955 6.45047 32.6489 7.02108 32.6489C7.59169 32.6489 8.03826 33.0955 8.03826 33.6661Z" fill="#27A6DD"/>
<path d="M18.2687 44.3719C20.9592 43.2409 22.2234 40.1431 21.0924 37.4527C19.9615 34.7622 16.8636 33.498 14.1732 34.629C11.4828 35.7599 10.2186 38.8578 11.3495 41.5482C12.4805 44.2386 15.5783 45.5028 18.2687 44.3719Z" fill="#0066A2"/>
<path d="M25.3051 24.0403C25.3051 26.5212 23.2956 28.5307 20.8147 28.5307C18.3338 28.5307 16.3242 26.5212 16.3242 24.0403C16.3242 21.5593 18.3338 19.5498 20.8147 19.5498C23.2956 19.5498 25.3051 21.5593 25.3051 24.0403Z" fill="#008DC3"/>
<path d="M29.8211 13.496C29.8211 15.2326 28.4069 16.6467 26.6703 16.6467C24.9337 16.6467 23.5195 15.2326 23.5195 13.496C23.5195 11.7593 24.9337 10.3452 26.6703 10.3452C28.4069 10.3452 29.8211 11.7593 29.8211 13.496Z" fill="#0680C3"/>
<path d="M35.4564 7.303C36.3187 6.44072 36.3187 5.04268 35.4564 4.1804C34.5941 3.31811 33.196 3.31811 32.3338 4.1804C31.4715 5.04268 31.4715 6.44072 32.3338 7.303C33.196 8.16529 34.5941 8.16528 35.4564 7.303Z" fill="#0499AB"/>
<path d="M41.109 1.0916C41.109 1.68702 40.6128 2.18321 40.0174 2.18321C39.422 2.18321 38.9258 1.68702 38.9258 1.0916C38.9258 0.496183 39.422 0 40.0174 0C40.6128 0 41.109 0.496183 41.109 1.0916Z" fill="#10B3E7"/>
<path d="M15.6716 80.2228C16.3988 77.1706 14.5139 74.1067 11.4617 73.3796C8.40938 72.6524 5.34554 74.5373 4.61839 77.5896C3.89123 80.6419 5.77612 83.7057 8.82839 84.4328C11.8807 85.16 14.9445 83.2751 15.6716 80.2228Z" fill="#008DC3"/>
<path d="M22.8742 92.3644C22.8742 94.7957 20.9143 96.7556 18.483 96.7556C16.0517 96.7556 14.0918 94.7957 14.0918 92.3644C14.0918 89.9331 16.0517 87.9731 18.483 87.9731C20.9143 87.9731 22.8742 89.9331 22.8742 92.3644Z" fill="#0499AB"/>
<path d="M30.4156 101.618C30.4156 103.43 28.9271 104.918 27.116 104.918C25.305 104.918 23.8164 103.43 23.8164 101.618C23.8164 99.8074 25.305 98.3188 27.116 98.3188C28.9271 98.3188 30.4156 99.8074 30.4156 101.618Z" fill="#10B3E7"/>
<path d="M37.8853 107.531C38.1761 106.446 37.5321 105.33 36.4468 105.039C35.3615 104.749 34.246 105.393 33.9552 106.478C33.6644 107.563 34.3085 108.679 35.3937 108.969C36.479 109.26 37.5945 108.616 37.8853 107.531Z" fill="#10B3E7"/>
<path d="M44.632 109.582C44.632 110.153 44.1854 110.599 43.6148 110.599C43.0442 110.599 42.5977 110.153 42.5977 109.582C42.5977 109.012 43.0442 108.565 43.6148 108.565C44.1854 108.565 44.632 109.012 44.632 109.582Z" fill="#27A6DD"/>
<path d="M19.351 55.6223C19.351 58.1032 17.3415 60.1128 14.8606 60.1128C12.3797 60.1128 10.3701 58.1032 10.3701 55.6223C10.3701 53.1414 12.3797 51.1318 14.8606 51.1318C17.3415 51.1318 19.351 53.1414 19.351 55.6223Z" fill="#0680C3"/>
<path d="M20.0211 67.8035C20.0211 69.6394 18.5326 71.1031 16.7215 71.1031C14.9104 71.1031 13.4219 69.6146 13.4219 67.8035C13.4219 65.9925 14.9104 64.5039 16.7215 64.5039C18.5326 64.5039 20.0211 65.9925 20.0211 67.8035Z" fill="#008DC3"/>
<path d="M22.5513 76.6107C23.0227 77.6279 22.6009 78.8187 21.5838 79.2901C20.5666 79.7615 19.3757 79.3397 18.9044 78.3225C18.433 77.3054 18.8547 76.1145 19.8719 75.6431C20.8891 75.1718 22.0799 75.5935 22.5513 76.6107Z" fill="#0499AB"/>
<path d="M26.1989 83.9047C26.447 84.4009 26.1989 85.0211 25.7275 85.2444C25.2314 85.4925 24.6111 85.2444 24.3878 84.773C24.1398 84.2768 24.3878 83.6566 24.8592 83.4333C25.3306 83.21 25.9756 83.4333 26.1989 83.9047Z" fill="#27A6DD"/>
</g>
<defs>
<clipPath id="clip0_50_145">
<rect width="208" height="110.599" fill="white"/>
</clipPath>
</defs>
</svg>
