<svg width="110" height="107" viewBox="0 0 110 107" fill="none" xmlns="http://www.w3.org/2000/svg">
<path d="M54.5339 0C24.464 0 0 23.8424 0 53.1482C0 82.4519 24.464 106.296 54.5339 106.296C84.6015 106.296 109.068 82.4519 109.068 53.1482C109.068 23.8424 84.6059 0 54.5339 0ZM68.0959 55.0193H59.2237V85.8387H46.0768C46.0768 85.8387 46.0768 68.9989 46.0768 55.0193H39.8273V44.1268H46.0768V37.0813C46.0768 32.0354 48.537 24.1507 59.3445 24.1507L69.0866 24.1871V34.7606C69.0866 34.7606 63.1667 34.7606 62.0156 34.7606C60.8646 34.7606 59.2281 35.3215 59.2281 37.7278V44.1289H69.2448L68.0959 55.0193Z" fill="#063458"/>
</svg>
