<svg width="93" height="89" viewBox="0 0 93 89" fill="none" xmlns="http://www.w3.org/2000/svg">
<path d="M90.4616 2.08549C88.8066 0.559763 86.7739 -0.205648 84.607 0.0477922C82.4451 0.177006 80.2832 1.19087 78.7524 2.84581L50.1259 31.4724L0.000179291 81.4746L16.157 80.9677C22.5184 80.585 29.7692 77.4043 33.8393 73.334L43.3815 63.7918L40.33 58.8319L46.9449 52.217L51.6514 51.8343L89.6954 13.9188C91.3504 12.2638 92.3692 10.2312 92.4934 8.06421C92.7469 5.6489 91.9874 3.61122 90.4616 2.08549ZM37.5317 49.2849L51.0206 35.7961L56.6166 41.3921L49.7483 48.2605L45.166 48.6481L37.5317 49.2849ZM53.8183 33.0034L57.8886 29.0573L63.4847 34.6533L59.5385 38.5995L53.8183 33.0034ZM60.5625 26.3836L81.4255 5.52055C82.4443 4.50173 83.7166 3.86556 84.9889 3.74138H85.3716C86.3904 3.74138 87.28 4.12406 87.9162 4.7602C89.4419 6.28593 89.0593 9.21322 87.1508 11.1217L66.158 31.9847L60.5625 26.3836ZM35.4945 58.3206L38.546 63.2805L31.1707 70.6608C27.7365 74.095 21.2458 76.893 16.0329 77.1515L9.54223 77.405L33.4626 53.4847L41.0963 52.8485L35.4945 58.3206Z" fill="#008DC3"/>
<path d="M5.34162 84.9081H19.4666V88.725H5.34162V84.9081Z" fill="#008DC3"/>
<path d="M31.1698 84.9081H45.2947V88.725H31.1698V84.9081Z" fill="#008DC3"/>
<path d="M57.1228 84.9081H71.2478V88.725H57.1228V84.9081Z" fill="#008DC3"/>
</svg>
