<svg width="122" height="122" viewBox="0 0 122 122" fill="none" xmlns="http://www.w3.org/2000/svg">
<path d="M40.3252 1.22461C41.6541 7.7545 43.9205 12.8245 47.2002 16.332C50.5847 19.9515 54.9751 21.8282 60.2871 21.9951L60.7715 22.5479L61.5215 21.6611C69.752 11.9221 79.1231 8.41789 87.8955 9.18945C96.7062 9.96448 105.076 15.0678 111.21 22.8574C123.461 38.4143 126.639 64.4992 106.43 87.0547C88.6066 106.943 58.4674 110.056 36.915 94.2266L36.5156 93.9326L36.04 94.0732C32.4026 95.146 29.7201 94.8979 27.583 94.1943C25.3846 93.4705 23.7553 92.2795 22.0557 91.2695L22.0547 91.2686C18.8037 89.3385 14.851 89.9791 12.9434 92.2168C11.9522 93.3796 11.5587 94.9422 12.1211 96.6279C12.6327 98.1613 13.8998 99.7007 15.998 101.158L16.4287 101.448C22.5233 105.441 31.9257 110.028 32.4658 121H22.2051C21.842 118.313 20.305 116.237 18.3428 114.49C16.1851 112.569 13.3544 110.914 10.7988 109.244C4.85717 105.362 2.01411 100.425 1.38574 95.5439C0.754479 90.64 2.34421 85.6835 5.47168 81.7676C8.59721 77.8541 13.2332 75.0146 18.6387 74.3242C24.0302 73.6357 30.2684 75.0766 36.625 79.8682L37.1807 80.2861L37.7656 79.9121C44.582 75.5589 51.1677 74.3313 57.5986 76.0967L58.8438 76.4385L58.8633 75.1475C58.939 70.1823 62.6256 66.0047 67.5791 65.2891L68.9541 65.0898L68.3291 63.8496C66.29 59.8 65.8424 55.1394 67.0781 50.7832L67.2832 50.0596L66.6445 49.6611C62.6881 47.1948 60.2106 42.9547 60.0166 38.3223L59.9795 37.4355L59.0938 37.3672C41.6241 36.02 30.0742 21.6068 28.8301 4.08105C33.6474 2.88438 36.7404 2.11547 38.6465 1.6416C39.3651 1.46294 39.9152 1.32659 40.3252 1.22461ZM108.858 46.4033C104.683 50.2061 95.5399 54.6953 81.7373 53.2051L81.3584 53.1641L81.0479 53.3867C75.8924 57.0797 73.7352 62.6866 74.4111 69.9639C72.1536 70.0846 70.4592 70.6313 69.1523 71.5146C67.6398 72.5371 66.7607 73.9326 66.1064 75.3242C65.7818 76.0148 65.5014 76.7304 65.2344 77.3994C64.9626 78.0802 64.7021 78.72 64.4014 79.3213C63.8431 80.4374 63.1746 81.3604 62.1484 82.0176L61.9385 82.1455C60.9002 82.745 59.8485 82.9051 58.5977 82.8691C57.9621 82.8509 57.2904 82.7831 56.542 82.6992C55.8039 82.6165 54.9911 82.518 54.126 82.4521C50.5857 82.1828 46.1522 82.4511 40.0234 85.9941L38.6641 86.7803L39.9521 87.6797C54.0511 97.5251 72.5463 98.4725 87.5732 90.1846L88.2861 89.7832C103.439 81.0604 112.117 64.3872 110.527 47.0518L110.344 45.0508L108.858 46.4033ZM68.7627 85.8867C69.6175 85.8868 70.2986 86.5743 70.2988 87.4072C70.2988 88.2429 69.615 88.9286 68.7627 88.9287C67.9077 88.9287 67.2266 88.2404 67.2266 87.4072C67.2268 86.5717 67.9104 85.8867 68.7627 85.8867ZM76.7969 77.3311C78.3805 77.3313 79.6523 78.605 79.6523 80.165C79.6521 81.7251 78.3803 82.9978 76.7969 82.998C75.2132 82.998 73.9406 81.7251 73.9404 80.165C73.9404 78.6047 75.213 77.3311 76.7969 77.3311ZM88.9775 77.0117C89.8324 77.0119 90.5127 77.7001 90.5127 78.5332C90.5124 79.3686 89.8297 80.0536 88.9775 80.0537C88.1227 80.0537 87.4417 79.3662 87.4414 78.5332C87.4414 77.6975 88.1251 77.0117 88.9775 77.0117ZM94.8965 67.9395C95.9813 67.9397 96.8476 68.8098 96.8477 69.874C96.8477 70.9383 95.9814 71.8084 94.8965 71.8086C93.8114 71.8086 92.9443 70.9385 92.9443 69.874C92.9444 68.8097 93.8115 67.9395 94.8965 67.9395ZM84.3994 68.9473C84.9126 68.9475 85.3164 69.3576 85.3164 69.8535C85.3164 70.3495 84.9126 70.7596 84.3994 70.7598C83.886 70.7598 83.4814 70.3496 83.4814 69.8535C83.4814 69.3575 83.886 68.9473 84.3994 68.9473ZM22.2988 26.9189C34.0374 26.9189 43.6034 36.4377 43.6035 48.0928C43.6035 59.6186 34.2492 69.053 22.6904 69.2617H22.3047C10.5661 69.2617 1.00013 59.7433 1 48.0879C1 36.6144 10.2695 27.2123 21.75 26.9258L22.2988 26.9189ZM19.0664 34.1787C17.943 34.179 17.0225 35.0857 17.0225 36.2168V42.8418H10.3525C9.22895 42.8418 8.30762 43.7496 8.30762 44.8809V51.3076C8.30781 52.4387 9.2291 53.3457 10.3525 53.3457H17.0225V59.9707C17.0225 61.1018 17.9431 62.0095 19.0664 62.0098H25.5312C26.6548 62.0098 27.5762 61.1019 27.5762 59.9707V53.3457H34.2461C35.3696 53.3457 36.2908 52.4387 36.291 51.3076V44.8809C36.291 43.7496 35.3697 42.8418 34.2461 42.8418H27.5762V36.2168C27.5762 35.0855 26.6548 34.1787 25.5312 34.1787H19.0664Z" stroke="white" stroke-width="2"/>
</svg>
