<svg width="120" height="121" viewBox="0 0 120 121" fill="none" xmlns="http://www.w3.org/2000/svg">
<mask id="path-1-inside-1_6154_271" fill="white">
<path d="M70.6762 52.3143C71.2599 53.3586 72.0825 55.1011 72.1249 56.3053C72.1302 56.3959 72.1249 56.7476 72.0506 56.8329C71.9444 56.9554 71.5677 56.9501 71.3925 56.9501H63.9899C63.7989 56.9501 63.6344 56.9075 63.5017 56.8329C63.3584 56.7529 63.2364 56.6304 63.1461 56.4705C63.0559 56.316 63.0135 56.1455 63.0135 55.9803C63.0135 55.8151 63.0559 55.6446 63.1461 55.4901L66.8502 49.0532C66.9245 48.9253 67.1527 48.5683 67.2853 48.547C67.4498 48.5203 67.7788 48.7388 67.9274 48.8454C68.9675 49.5967 70.0448 51.1953 70.6762 52.3143ZM45.9789 55.2663L48.2183 59.1668C48.7542 60.0993 49.5502 60.7547 50.4417 61.0211C51.2589 61.2663 52.1716 61.181 53.0367 60.6801C53.8327 60.2165 54.4163 59.4972 54.6287 58.5914C54.8409 57.6856 54.6817 56.6625 54.1458 55.7353C53.7319 55.0159 53.976 54.0888 54.6924 53.6732C55.6051 53.1403 56.2524 52.3677 56.5285 51.4991C56.7938 50.6678 56.7142 49.73 56.1995 48.8349C55.6847 47.945 54.9206 47.4068 54.0715 47.2203C53.18 47.0232 52.1824 47.1937 51.275 47.7212L47.3322 50.0072C46.9767 50.215 46.5681 50.2576 46.1966 50.1564V50.1617L6.14853 39.3875L4.9917 43.7303L45.0357 54.5044C45.4549 54.6163 45.7879 54.8986 45.9789 55.2663ZM72.2194 68.5662C72.2619 67.6924 71.9435 66.8078 71.2165 66.0778C70.5054 65.3638 69.6458 65.0388 68.802 65.0654C67.8787 65.0921 66.9447 65.5183 66.1806 66.2857C65.5915 66.8771 64.6364 66.8771 64.0526 66.2857C63.3044 65.5343 62.3969 65.1134 61.4949 65.0707C60.6246 65.0281 59.7437 65.3478 59.0167 66.0778C58.3057 66.7919 57.982 67.655 58.0085 68.5022C58.035 69.4294 58.4596 70.3672 59.2237 71.1345L62.4448 74.3689C62.7738 74.6993 62.9171 75.1416 62.8799 75.5679V120.999H67.3587L67.3481 75.441C67.3481 75.0147 67.5232 74.6311 67.8045 74.3593L71.0097 71.1409C71.7526 70.3895 72.177 69.472 72.2194 68.5662ZM120 22.4271C120 34.8158 110.002 44.8542 97.6652 44.8542C85.3274 44.8542 75.3303 34.8152 75.3303 22.4271C75.3356 10.0384 85.3333 0 97.6652 0C110.003 0 120 10.0389 120 22.4271ZM112.879 18.6065C112.879 16.1821 110.915 14.2105 108.501 14.2105H105.853V11.5516C105.853 9.12716 103.889 7.1555 101.475 7.1555H93.8649C91.4505 7.1555 89.487 9.12702 89.487 11.5516V14.2105H86.839C84.4246 14.2105 82.461 16.182 82.461 18.6065V26.2476C82.461 28.672 84.4244 30.6437 86.839 30.6437H89.487V33.3026C89.487 35.727 91.4504 37.6987 93.8649 37.6987H101.475C103.889 37.6987 105.853 35.7271 105.853 33.3026V30.6437H108.501C110.915 30.6437 112.879 28.6722 112.879 26.2476V18.6065ZM79.6011 74.2043C80.4926 86.2681 80.2061 99.717 78.9856 118.638C78.9007 119.965 77.8075 120.994 76.4808 120.994L70.3623 120.999V76.0643L73.1377 73.2774C74.4166 71.9932 75.1436 70.3627 75.2178 68.7002C75.2974 67.0057 74.7031 65.3112 73.3446 63.9418C72.0126 62.6044 70.3676 62.0075 68.7173 62.0555C67.4597 62.0928 66.2073 62.5085 65.1142 63.2598C64.0529 62.5298 62.843 62.1142 61.6225 62.0609C59.935 61.9809 58.2475 62.5777 56.8837 63.9418C55.5518 65.2793 54.9574 66.9311 55.0052 68.5882C55.053 70.288 55.78 71.9612 57.0908 73.2773L59.8714 76.0694V121H53.2117C52.1027 121 51.1634 120.313 50.8238 119.258C47.799 109.879 46.3026 103.299 45.5597 98.2901C44.2171 89.301 45.2837 85.3738 44.2118 79.3851C43.108 73.2308 39.2024 70.6091 33.3174 70.4599C25.0285 70.2467 12.8342 69.2876 1.6376 65.11C0.417088 64.6571 -0.251504 63.3569 0.0881173 62.0942L4.21139 46.6417L43.6604 57.256L45.6238 60.6715C46.5525 62.2808 47.9747 63.4263 49.5879 63.9059C51.2542 64.4068 53.0531 64.1617 54.5442 63.2772C56.1785 62.3287 57.1815 60.89 57.5637 59.2808C57.8555 58.0552 57.7759 56.7337 57.3302 55.4762C58.3066 54.6343 59.0177 53.574 59.3891 52.4017C59.9038 50.7871 59.7658 48.9914 58.8001 47.3182C57.8343 45.6397 56.3537 44.6273 54.7034 44.265C53.1061 43.9133 51.355 44.1957 49.7895 45.0962L46.3721 47.0784L6.9231 36.4641L11.3223 19.9776C11.6725 18.6722 12.9833 17.8728 14.2993 18.1713C32.6021 22.2955 46.6583 27.0539 63.115 37.476C82.8443 44.2592 82.1922 62.5044 79.6029 74.2056L79.6011 74.2043ZM75.1224 56.2146C75.064 54.4349 74.1513 52.3728 73.2862 50.8382C72.4106 49.2823 71.1318 47.4439 69.6724 46.3942C68.8499 45.8028 67.8735 45.3978 66.8334 45.5523C65.6501 45.7335 64.8222 46.5434 64.2439 47.5451L60.5398 53.982C60.1737 54.6161 59.9933 55.2928 59.9933 55.9748C59.9933 56.6515 60.1737 57.3336 60.5398 57.9676C60.906 58.6017 61.3995 59.0973 61.9885 59.4383C62.5882 59.7846 63.2621 59.9711 63.9839 59.9711H71.3865C72.4691 59.9711 73.5517 59.6621 74.2892 58.8255C74.9525 58.0848 75.1542 57.1845 75.1224 56.2146ZM108.5 17.2315H102.838V11.546C102.838 10.7893 102.223 10.1712 101.469 10.1712H93.8594C93.1058 10.1712 92.4903 10.7893 92.4903 11.546V17.2315H86.8281C86.0746 17.2315 85.4591 17.8496 85.4591 18.6063V26.2474C85.4591 27.004 86.0746 27.6221 86.8281 27.6221H92.4903V33.3077C92.4903 34.0643 93.1059 34.6824 93.8594 34.6824H101.469C102.223 34.6824 102.838 34.0643 102.838 33.3077V27.6221H108.5C109.254 27.6221 109.869 27.004 109.869 26.2474V18.6063C109.864 17.8496 109.254 17.2315 108.5 17.2315Z"/>
</mask>
<path d="M70.6762 52.3143C71.2599 53.3586 72.0825 55.1011 72.1249 56.3053C72.1302 56.3959 72.1249 56.7476 72.0506 56.8329C71.9444 56.9554 71.5677 56.9501 71.3925 56.9501H63.9899C63.7989 56.9501 63.6344 56.9075 63.5017 56.8329C63.3584 56.7529 63.2364 56.6304 63.1461 56.4705C63.0559 56.316 63.0135 56.1455 63.0135 55.9803C63.0135 55.8151 63.0559 55.6446 63.1461 55.4901L66.8502 49.0532C66.9245 48.9253 67.1527 48.5683 67.2853 48.547C67.4498 48.5203 67.7788 48.7388 67.9274 48.8454C68.9675 49.5967 70.0448 51.1953 70.6762 52.3143ZM45.9789 55.2663L48.2183 59.1668C48.7542 60.0993 49.5502 60.7547 50.4417 61.0211C51.2589 61.2663 52.1716 61.181 53.0367 60.6801C53.8327 60.2165 54.4163 59.4972 54.6287 58.5914C54.8409 57.6856 54.6817 56.6625 54.1458 55.7353C53.7319 55.0159 53.976 54.0888 54.6924 53.6732C55.6051 53.1403 56.2524 52.3677 56.5285 51.4991C56.7938 50.6678 56.7142 49.73 56.1995 48.8349C55.6847 47.945 54.9206 47.4068 54.0715 47.2203C53.18 47.0232 52.1824 47.1937 51.275 47.7212L47.3322 50.0072C46.9767 50.215 46.5681 50.2576 46.1966 50.1564V50.1617L6.14853 39.3875L4.9917 43.7303L45.0357 54.5044C45.4549 54.6163 45.7879 54.8986 45.9789 55.2663ZM72.2194 68.5662C72.2619 67.6924 71.9435 66.8078 71.2165 66.0778C70.5054 65.3638 69.6458 65.0388 68.802 65.0654C67.8787 65.0921 66.9447 65.5183 66.1806 66.2857C65.5915 66.8771 64.6364 66.8771 64.0526 66.2857C63.3044 65.5343 62.3969 65.1134 61.4949 65.0707C60.6246 65.0281 59.7437 65.3478 59.0167 66.0778C58.3057 66.7919 57.982 67.655 58.0085 68.5022C58.035 69.4294 58.4596 70.3672 59.2237 71.1345L62.4448 74.3689C62.7738 74.6993 62.9171 75.1416 62.8799 75.5679V120.999H67.3587L67.3481 75.441C67.3481 75.0147 67.5232 74.6311 67.8045 74.3593L71.0097 71.1409C71.7526 70.3895 72.177 69.472 72.2194 68.5662ZM120 22.4271C120 34.8158 110.002 44.8542 97.6652 44.8542C85.3274 44.8542 75.3303 34.8152 75.3303 22.4271C75.3356 10.0384 85.3333 0 97.6652 0C110.003 0 120 10.0389 120 22.4271ZM112.879 18.6065C112.879 16.1821 110.915 14.2105 108.501 14.2105H105.853V11.5516C105.853 9.12716 103.889 7.1555 101.475 7.1555H93.8649C91.4505 7.1555 89.487 9.12702 89.487 11.5516V14.2105H86.839C84.4246 14.2105 82.461 16.182 82.461 18.6065V26.2476C82.461 28.672 84.4244 30.6437 86.839 30.6437H89.487V33.3026C89.487 35.727 91.4504 37.6987 93.8649 37.6987H101.475C103.889 37.6987 105.853 35.7271 105.853 33.3026V30.6437H108.501C110.915 30.6437 112.879 28.6722 112.879 26.2476V18.6065ZM79.6011 74.2043C80.4926 86.2681 80.2061 99.717 78.9856 118.638C78.9007 119.965 77.8075 120.994 76.4808 120.994L70.3623 120.999V76.0643L73.1377 73.2774C74.4166 71.9932 75.1436 70.3627 75.2178 68.7002C75.2974 67.0057 74.7031 65.3112 73.3446 63.9418C72.0126 62.6044 70.3676 62.0075 68.7173 62.0555C67.4597 62.0928 66.2073 62.5085 65.1142 63.2598C64.0529 62.5298 62.843 62.1142 61.6225 62.0609C59.935 61.9809 58.2475 62.5777 56.8837 63.9418C55.5518 65.2793 54.9574 66.9311 55.0052 68.5882C55.053 70.288 55.78 71.9612 57.0908 73.2773L59.8714 76.0694V121H53.2117C52.1027 121 51.1634 120.313 50.8238 119.258C47.799 109.879 46.3026 103.299 45.5597 98.2901C44.2171 89.301 45.2837 85.3738 44.2118 79.3851C43.108 73.2308 39.2024 70.6091 33.3174 70.4599C25.0285 70.2467 12.8342 69.2876 1.6376 65.11C0.417088 64.6571 -0.251504 63.3569 0.0881173 62.0942L4.21139 46.6417L43.6604 57.256L45.6238 60.6715C46.5525 62.2808 47.9747 63.4263 49.5879 63.9059C51.2542 64.4068 53.0531 64.1617 54.5442 63.2772C56.1785 62.3287 57.1815 60.89 57.5637 59.2808C57.8555 58.0552 57.7759 56.7337 57.3302 55.4762C58.3066 54.6343 59.0177 53.574 59.3891 52.4017C59.9038 50.7871 59.7658 48.9914 58.8001 47.3182C57.8343 45.6397 56.3537 44.6273 54.7034 44.265C53.1061 43.9133 51.355 44.1957 49.7895 45.0962L46.3721 47.0784L6.9231 36.4641L11.3223 19.9776C11.6725 18.6722 12.9833 17.8728 14.2993 18.1713C32.6021 22.2955 46.6583 27.0539 63.115 37.476C82.8443 44.2592 82.1922 62.5044 79.6029 74.2056L79.6011 74.2043ZM75.1224 56.2146C75.064 54.4349 74.1513 52.3728 73.2862 50.8382C72.4106 49.2823 71.1318 47.4439 69.6724 46.3942C68.8499 45.8028 67.8735 45.3978 66.8334 45.5523C65.6501 45.7335 64.8222 46.5434 64.2439 47.5451L60.5398 53.982C60.1737 54.6161 59.9933 55.2928 59.9933 55.9748C59.9933 56.6515 60.1737 57.3336 60.5398 57.9676C60.906 58.6017 61.3995 59.0973 61.9885 59.4383C62.5882 59.7846 63.2621 59.9711 63.9839 59.9711H71.3865C72.4691 59.9711 73.5517 59.6621 74.2892 58.8255C74.9525 58.0848 75.1542 57.1845 75.1224 56.2146ZM108.5 17.2315H102.838V11.546C102.838 10.7893 102.223 10.1712 101.469 10.1712H93.8594C93.1058 10.1712 92.4903 10.7893 92.4903 11.546V17.2315H86.8281C86.0746 17.2315 85.4591 17.8496 85.4591 18.6063V26.2474C85.4591 27.004 86.0746 27.6221 86.8281 27.6221H92.4903V33.3077C92.4903 34.0643 93.1059 34.6824 93.8594 34.6824H101.469C102.223 34.6824 102.838 34.0643 102.838 33.3077V27.6221H108.5C109.254 27.6221 109.869 27.004 109.869 26.2474V18.6063C109.864 17.8496 109.254 17.2315 108.5 17.2315Z" stroke="white" stroke-width="4" mask="url(#path-1-inside-1_6154_271)"/>
</svg>
