<svg width="109" height="102" viewBox="0 0 109 102" fill="none" xmlns="http://www.w3.org/2000/svg">
<path d="M54.2845 2.88867C53.2533 2.88985 52.2643 3.29836 51.5345 4.02539C50.8046 4.75265 50.3931 5.73928 50.3919 6.76855V6.76953C50.392 7.53731 50.6213 8.28768 51.0492 8.92578C51.4771 9.56389 52.0852 10.061 52.7962 10.3545C53.5073 10.6479 54.2896 10.7248 55.0443 10.5752C55.799 10.4256 56.4929 10.0562 57.0374 9.51367C57.5819 8.97111 57.9526 8.27936 58.1029 7.52637C58.2532 6.77329 58.176 5.99247 57.8812 5.2832C57.5863 4.57403 57.0867 3.96813 56.4466 3.54199C55.8067 3.11604 55.0547 2.88876 54.2855 2.88867H54.2845ZM53.0882 12.9199L52.7132 12.8232C51.2316 12.442 49.9407 11.5357 49.0824 10.2744C48.2241 9.01324 47.8566 7.48387 48.0492 5.97266C48.2418 4.46133 48.9814 3.07109 50.1292 2.06348C51.2771 1.05594 52.7552 0.5 54.2855 0.5C55.8156 0.500111 57.2931 1.05606 58.4408 2.06348C59.5886 3.07109 60.3282 4.46133 60.5208 5.97266C60.7135 7.48388 60.3459 9.01323 59.4876 10.2744C58.6293 11.5357 57.3385 12.442 55.8568 12.8232L55.4818 12.9199V41.9326C55.1804 42.1005 54.8808 42.2678 54.5726 42.4375C54.4779 42.4896 54.3806 42.543 54.2835 42.5967C54.1824 42.54 54.0785 42.4821 53.9974 42.4375C53.6892 42.2678 53.3896 42.1005 53.0882 41.9326V12.9199Z" fill="#008DC3" stroke="#008DC3"/>
<path d="M60.3504 51.9852C62.4455 53.96 63.7305 56.6439 63.9422 59.5174C64.1817 63.1025 62.3647 65.9046 59.8533 68.286C59.2806 67.8697 58.4315 67.2609 57.8846 66.8719C60.0094 64.9495 61.6378 62.7286 61.5682 59.9618L61.5545 59.6727C61.3734 56.9737 60.0503 54.9209 58.1746 53.2049C58.883 52.8047 59.8465 52.2648 60.3504 51.9852Z" fill="#008DC3" stroke="#008DC3"/>
<path d="M40.6277 24.6687C41.131 24.5516 41.6569 24.5717 42.1502 24.7253C42.6432 24.8789 43.086 25.1605 43.4324 25.5417V25.5427L43.4402 25.5495C45.4675 27.6882 46.7583 30.4145 47.1267 33.3327C47.4952 36.2511 46.9215 39.2108 45.489 41.7829L45.2762 42.1667L45.6287 42.4275C46.982 43.4314 48.3988 44.3467 49.8699 45.1687C49.131 45.6405 48.4104 46.1399 47.7068 46.6628C45.9005 45.6423 44.2131 44.4257 42.6785 43.031C40.5475 40.9518 39.0299 38.3301 38.2928 35.4509C37.555 32.5694 37.627 29.5408 38.4998 26.697L38.5027 26.6872C38.6439 26.193 38.9152 25.7453 39.2888 25.3904C39.6625 25.0354 40.1246 24.7858 40.6277 24.6687ZM40.8074 27.3269C40.1664 29.4278 40.0283 31.6495 40.4041 33.8132C40.7799 35.977 41.6593 38.0229 42.9715 39.7868L43.4715 40.4597L43.826 39.6989C44.7896 37.6302 45.0971 35.3175 44.7068 33.07C44.3164 30.8223 43.2467 28.7465 41.6414 27.1208L41.0525 26.5241L40.8074 27.3269Z" fill="#008DC3" stroke="#008DC3"/>
<path d="M54.282 55.676C54.7031 55.9948 55.1036 56.3393 55.4822 56.7073V63.0999C55.0976 63.4767 54.6973 63.8369 54.282 64.1799C53.8693 63.8376 53.4714 63.4781 53.0897 63.1018V56.7063C53.4656 56.3387 53.8632 55.9942 54.282 55.676Z" fill="#008DC3" stroke="#008DC3"/>
<path d="M54.2869 78.0561C54.5261 78.2561 54.7894 78.4885 55.0223 78.7006C55.2171 78.8781 55.3778 79.0306 55.4822 79.1293V99.7368C55.4822 100.052 55.3567 100.354 55.1326 100.578C54.9084 100.801 54.6038 100.927 54.2859 100.927C53.9681 100.927 53.6635 100.801 53.4393 100.578C53.2152 100.354 53.0897 100.052 53.0897 99.7368V79.1303C53.1943 79.0316 53.3558 78.8785 53.5516 78.7006C53.7847 78.4887 54.0477 78.2559 54.2869 78.0561Z" fill="#008DC3" stroke="#008DC3"/>
<path d="M48.6662 73.9597C49.3284 74.4635 49.986 74.94 50.6233 75.3933C50.4678 75.5325 50.3144 75.6741 50.1653 75.8201L49.8713 76.1169C48.7536 77.246 47.8947 78.6036 47.3537 80.0955C46.8128 81.5874 46.603 83.1789 46.7385 84.7595V84.7683L46.7404 84.7781C46.9556 86.5225 47.631 88.1769 48.6945 89.5759V93.1746C47.6414 92.2489 46.7427 91.1592 46.0344 89.946C45.1534 88.4372 44.5843 86.7681 44.3615 85.0369C44.1852 83.119 44.4276 81.1856 45.0725 79.3699C45.7189 77.5499 46.7549 75.8912 48.1076 74.5085L48.1145 74.5017C48.2842 74.321 48.4701 74.1417 48.6662 73.9597Z" fill="#008DC3" stroke="#008DC3"/>
<path d="M66.4232 24.7238C66.9177 24.5706 67.4445 24.5526 67.9486 24.6711H67.9496C68.4513 24.7879 68.9124 25.0373 69.2845 25.3918C69.6566 25.7462 69.9263 26.1934 70.0658 26.6867L70.0697 26.6974C70.9424 29.5411 71.0134 32.5699 70.2757 35.4513C69.5383 38.3315 68.0211 40.9548 65.889 43.0343C63.707 45.1312 60.7686 46.752 57.8529 48.3566C55.2365 49.7967 52.6275 51.2299 50.6351 52.9787C48.6278 54.7405 47.2039 56.8586 47.015 59.673C46.854 62.0695 47.9613 64.0653 49.5833 65.8019C51.198 67.5306 53.3789 69.0617 55.4662 70.5304L55.474 70.5363L55.4818 70.5412C57.2655 71.7016 58.9333 73.0301 60.4613 74.5089V74.5099C61.8139 75.8926 62.849 77.5513 63.4955 79.3712C64.1404 81.1871 64.3828 83.1203 64.2064 85.0382C63.9835 86.7694 63.4154 88.4387 62.5345 89.9474C61.8261 91.1606 60.9265 92.2492 59.8734 93.175V89.5851C60.9375 88.1831 61.6131 86.5256 61.8285 84.7785L61.8294 84.7697L61.8304 84.7599C61.9658 83.1795 61.756 81.5886 61.2152 80.0968C60.6743 78.605 59.8153 77.2474 58.6976 76.1183L58.6869 76.1076L58.1468 75.6066C56.8747 74.4522 55.5104 73.4011 54.0687 72.464C51.8154 70.8786 49.3512 69.1388 47.4935 67.0285C45.6418 64.9249 44.4275 62.491 44.6273 59.5148C44.8557 56.1131 46.4666 53.5783 48.7269 51.5011C50.9987 49.4134 53.8982 47.8108 56.682 46.2785L56.683 46.2794C58.8634 45.1582 60.9544 43.8715 62.9369 42.4308L63.2953 42.1701L63.0794 41.7834C61.6469 39.2113 61.0733 36.2515 61.4417 33.3332C61.8102 30.4148 63.1019 27.6886 65.1292 25.55L65.1361 25.5421C65.4836 25.1599 65.9285 24.8771 66.4232 24.7238ZM66.9242 27.1125C65.3205 28.7409 64.2524 30.8179 63.8626 33.0666C63.4729 35.3153 63.7807 37.629 64.7435 39.6994L65.097 40.4601L65.598 39.7873C66.9107 38.0217 67.7901 35.9733 68.1654 33.8078C68.5406 31.6425 68.4015 29.4195 67.7591 27.3175L67.513 26.5148L66.9242 27.1125Z" fill="#008DC3" stroke="#008DC3"/>
<path d="M34.3174 3.88855C34.9377 3.86681 35.5563 3.97268 36.1338 4.1991H36.1348C36.7229 4.42749 37.2585 4.77258 37.709 5.21277C38.103 5.59783 38.4248 6.04898 38.6602 6.5448L38.7559 6.76062C40.2836 10.467 43.2578 15.1472 48.6992 16.1063V18.5253C46.8229 18.2798 40.1328 16.7788 36.5449 7.6698L36.542 7.66394L36.4473 7.46082C36.3422 7.2634 36.2075 7.08266 36.0479 6.92468C35.8351 6.71406 35.5819 6.54832 35.3037 6.43738C35.0256 6.32651 34.7281 6.27206 34.4287 6.2782C34.1293 6.28439 33.8339 6.35123 33.5605 6.47351L33.5518 6.47742C21.6388 12.0911 9.54446 13.3494 3.3916 13.5985L2.28906 13.6425L3.0498 14.4423C4.32141 15.7784 5.6924 17.0173 7.15137 18.1473L7.28418 18.2489L7.45117 18.2518C8.31248 18.2632 18.6864 18.6812 27.5283 14.9657C27.6732 14.9048 27.829 14.873 27.9863 14.8719C28.1436 14.871 28.2997 14.9008 28.4453 14.9598C28.5909 15.0189 28.7233 15.1059 28.835 15.2157C28.9466 15.3255 29.0358 15.4557 29.0967 15.5995C29.1576 15.7434 29.1894 15.8985 29.1904 16.0546C29.1914 16.2105 29.1615 16.3651 29.1025 16.5096C29.0435 16.6543 28.956 16.786 28.8457 16.8973C28.7367 17.0074 28.6068 17.0943 28.4639 17.1552C23.4284 19.1198 18.1065 20.2578 12.7051 20.5223L10.7852 20.6161L12.5078 21.4696C15.5026 22.9535 18.7991 23.7329 22.1436 23.7469C25.4842 23.7609 28.7836 23.0111 31.7881 21.5555C32.0767 21.4233 32.4071 21.4105 32.7051 21.5204C33.0029 21.6303 33.2438 21.8539 33.376 22.1405C33.5081 22.427 33.521 22.754 33.4111 23.0497C33.3012 23.3453 33.0775 23.5855 32.7891 23.7177L32.7871 23.7196C30.4462 24.8074 27.955 25.5405 25.3965 25.8944L24.9189 25.9598L24.9668 26.4393C25.0231 27.003 25.2892 28.4757 26.5527 29.9344C27.7782 31.3492 29.8982 32.6964 33.5332 33.2264C33.5991 34.0471 33.7145 34.8628 33.877 35.6698C30.1371 35.2489 27.2686 34.0429 25.29 32.0927L25.2881 32.0897L25.0098 31.8075C23.6506 30.3663 22.7945 28.5219 22.5762 26.5497L22.5273 26.1083L22.084 26.1044L21.6201 26.0956C11.9197 25.8169 4.58088 19.509 1.29785 16.0712L1.2959 16.0682L1.1582 15.9149C0.850218 15.5468 0.639995 15.1063 0.549805 14.6337C0.446768 14.0937 0.504122 13.5354 0.714844 13.0272L0.717773 13.0204C0.923927 12.5037 1.27736 12.0582 1.73438 11.7382C2.19143 11.4181 2.73233 11.2379 3.29102 11.2196L3.29492 11.2186C9.25606 10.9775 20.9862 9.76418 32.5264 4.32605L32.5283 4.32507C33.0882 4.05885 33.6972 3.91034 34.3174 3.88855Z" fill="#008DC3" stroke="#008DC3"/>
<path d="M74.2525 3.88855C74.8728 3.91029 75.4825 4.0588 76.0425 4.32507L76.0435 4.32605C87.5839 9.76436 99.3147 10.9775 105.276 11.2186H105.278C105.834 11.2389 106.372 11.4191 106.828 11.7362C107.283 12.0532 107.637 12.4939 107.847 13.0057C108.057 13.5176 108.115 14.0794 108.013 14.6229C107.911 15.1661 107.654 15.6693 107.273 16.0712C103.938 19.5636 96.417 26.0179 86.4869 26.1044L86.0435 26.1083L85.9947 26.5497C85.7618 28.6532 84.8032 30.6111 83.2828 32.0897L83.2798 32.0927C81.3012 34.0429 78.433 35.2491 74.6929 35.6698C74.8554 34.8628 74.9708 34.0471 75.0367 33.2264C78.6722 32.6964 80.7926 31.3493 82.0181 29.9344C83.2816 28.4757 83.5477 27.003 83.6041 26.4393L83.6509 25.9598L83.1744 25.8944C80.6159 25.5405 78.1247 24.8074 75.7838 23.7196L75.7818 23.7177L75.6763 23.6639C75.4388 23.5253 75.2559 23.3084 75.1597 23.0497C75.0499 22.754 75.0627 22.427 75.1949 22.1405C75.3271 21.8539 75.5679 21.6303 75.8658 21.5204C76.1266 21.4242 76.4118 21.4221 76.6724 21.5116L76.7828 21.5555C79.7872 23.0111 83.0866 23.7609 86.4273 23.7469C89.7718 23.7329 93.0683 22.9535 96.063 21.4696L97.7857 20.6161L95.8658 20.5223C90.4641 20.2578 85.1418 19.12 80.106 17.1552C79.9634 17.0944 79.834 17.0072 79.7252 16.8973C79.6149 16.786 79.5274 16.6543 79.4683 16.5096C79.3492 16.2176 79.3512 15.89 79.4742 15.5995C79.5972 15.3091 79.8315 15.079 80.1255 14.9598C80.4198 14.8406 80.7498 14.8427 81.0425 14.9657C89.8844 18.6812 100.258 18.2632 101.12 18.2518L101.287 18.2489L101.419 18.1464C102.878 17.0164 104.25 15.7782 105.521 14.4423L106.282 13.6425L105.179 13.5985C99.2186 13.3571 87.6822 12.1689 76.1363 6.99109L75.0191 6.47742L75.0103 6.47351L74.8013 6.39246C74.589 6.32197 74.3667 6.28284 74.1422 6.2782C73.8428 6.27204 73.5452 6.32652 73.2672 6.43738C72.989 6.54831 72.7358 6.71409 72.523 6.92468C72.3102 7.13532 72.1423 7.38695 72.0289 7.66394H72.0279L72.0259 7.6698C68.4381 16.7787 61.7481 18.2797 59.8716 18.5253V16.1063C65.3131 15.1472 68.2873 10.4669 69.815 6.76062C70.0554 6.17967 70.4114 5.65297 70.8619 5.21277C71.3123 4.77261 71.848 4.42748 72.4361 4.1991H72.4371C73.0144 3.97273 73.6324 3.86688 74.2525 3.88855Z" fill="#008DC3" stroke="#008DC3"/>
</svg>
