<svg width="58" height="56" viewBox="0 0 58 56" fill="none" xmlns="http://www.w3.org/2000/svg">
<path d="M45.808 25.155L44.4757 27.4583L45.0663 29.6581L42.525 34.0633C41.3327 36.1288 38.3157 37.1364 36.0627 36.2995L43.3228 23.7188L45.808 25.155ZM43.152 21.7321L47.6132 24.307L48.9622 21.9701L44.5038 19.3952L43.152 21.7321ZM56.0343 4.57595C54.8085 3.86787 53.2243 4.29048 52.5163 5.51634L45.3206 17.9795L49.7791 20.5544L56.9776 8.09123C57.6856 6.8654 57.263 5.28126 56.0372 4.57603L56.0343 4.57595ZM9.06034 21.1947C9.07993 21.3851 9.10792 21.5726 9.13591 21.7601C11.0306 21.4494 12.9198 20.9065 14.7894 20.218C16.9332 19.4259 19.0351 18.452 21.0866 17.4249C21.3245 17.3045 21.596 17.3157 21.8199 17.4277C23.8686 18.4548 25.9676 19.426 28.1143 20.218C29.9839 20.9037 31.873 21.4466 33.7678 21.7601C33.7985 21.5698 33.8209 21.3823 33.8433 21.1892C33.8433 21.1724 33.8461 21.1584 33.8461 21.1416C33.8965 20.7022 33.9189 20.2516 33.9189 19.801V11.987H8.98175V19.801C8.98175 20.2516 9.00414 20.7022 9.05451 21.1416C9.05731 21.1584 9.05731 21.1752 9.06011 21.192L9.06034 21.1947ZM33.9187 7.23195C33.9187 5.24486 33.107 3.43682 31.7944 2.12423C30.4819 0.81163 28.6766 0 26.6867 0H16.2139C14.2268 0 12.416 0.81163 11.1034 2.12423C9.79359 3.43682 8.97916 5.24207 8.97916 7.23195V10.3498H33.9163V7.23195H33.9187ZM37.1904 18.6928C37.6662 17.8448 37.7614 16.8876 37.5235 16.0172C37.2856 15.1496 36.7118 14.3687 35.8666 13.8901C35.7659 13.8341 35.6651 13.7809 35.5587 13.7333V19.8011C35.5587 19.9242 35.5587 20.0474 35.5559 20.1677C35.7407 20.0894 35.917 19.9914 36.0849 19.8795C36.5299 19.5856 36.9105 19.1826 37.1932 18.69L37.1904 18.6928ZM21.4529 33.9066C20.006 33.9066 18.6065 33.6883 17.2883 33.2768V35.4683C17.2883 35.7817 17.112 36.0588 16.8517 36.1931C16.0037 36.7277 15.1445 37.2231 14.2797 37.6877C14.0894 37.7912 13.9019 37.8892 13.7088 37.9899L19.8436 47.7771C20.034 48.0737 20.2606 48.3032 20.5125 48.4628C20.8008 48.6419 21.1255 48.7314 21.4529 48.7314C21.7776 48.7314 22.1022 48.6419 22.3905 48.4628C22.6424 48.3032 22.8747 48.0765 23.0594 47.7771L29.1943 37.9899C29.0012 37.8892 28.8137 37.7912 28.6233 37.6877C27.7417 37.2147 26.8685 36.7081 25.9981 36.1595C25.749 36.0028 25.6174 35.7397 25.6174 35.4654H25.6146V33.274C24.2965 33.6854 22.897 33.9037 21.4529 33.9037L21.4529 33.9066ZM42.9051 56H0C1.29583 43.8929 4.65992 42.3088 10.3639 39.6248C10.7473 39.4457 11.1419 39.261 11.5841 39.0483C11.8108 38.9419 12.0319 38.8328 12.2503 38.7264L18.4607 48.6339C18.7854 49.1517 19.194 49.5519 19.6502 49.8402C20.21 50.1872 20.8341 50.3636 21.4526 50.3636C22.0711 50.3636 22.6925 50.1872 23.2522 49.8402C23.7084 49.5519 24.117 49.1517 24.4417 48.6339L30.6522 38.7264C30.8733 38.8328 31.0972 38.9419 31.3183 39.0483C31.7577 39.261 32.1523 39.4457 32.5385 39.6248C38.2423 42.3088 41.609 43.8929 42.9051 56ZM37.5259 47.3349H35.007V44.816H31.6625V47.3349H29.1436V50.6794H31.6625V53.1983H35.007V50.6794H37.5259V47.3349ZM33.4033 23.3521C31.4218 23.019 29.471 22.4621 27.5511 21.754C25.4884 20.9955 23.4509 20.0607 21.4526 19.0672C19.4515 20.0607 17.414 20.9955 15.3513 21.754C13.437 22.4593 11.4835 23.019 9.50191 23.3521C10.1008 25.3616 11.198 27.1612 12.6449 28.6081C13.812 29.7696 15.2002 30.71 16.7451 31.3425C16.7675 31.3537 16.7927 31.3593 16.8123 31.3677C18.2508 31.9498 19.8153 32.2689 21.4554 32.2689C23.0955 32.2689 24.66 31.9498 26.0958 31.3677C26.1182 31.3565 26.1378 31.3509 26.163 31.3425C27.7079 30.71 29.0989 29.7724 30.2632 28.6081C31.7101 27.1612 32.8045 25.3616 33.409 23.3521H33.4033ZM7.03607 20.0131C7.13962 20.0691 7.24038 20.1223 7.34953 20.1699C7.34673 20.0467 7.34393 19.9236 7.34393 19.8032V13.7355C7.15082 13.8222 6.9661 13.9258 6.78977 14.0433C6.35877 14.3372 5.98373 14.7318 5.71226 15.216C5.23087 16.0612 5.13851 17.0184 5.37641 17.8861C5.61989 18.7536 6.18804 19.5345 7.03327 20.0131L7.03607 20.0131Z" fill="url(#paint0_linear_6468_679)"/>
<defs>
<linearGradient id="paint0_linear_6468_679" x1="0" y1="28" x2="70.2561" y2="28.5038" gradientUnits="userSpaceOnUse">
<stop stop-color="#0499AB"/>
<stop offset="1" stop-color="#06646F" stop-opacity="0.6"/>
</linearGradient>
</defs>
</svg>
