<svg width="117" height="123" viewBox="0 0 117 123" fill="none" xmlns="http://www.w3.org/2000/svg">
<path d="M60.1852 1.03027C63.1816 1.03013 66.3886 0.876488 69.4615 1.25879C72.5137 1.63853 75.263 2.53419 77.3287 4.52344L77.3297 4.52539C79.3005 6.41682 79.604 9.52518 79.0504 12.4297C78.9281 13.0717 78.2509 14.9892 77.361 16.7383C76.9199 17.6052 76.4587 18.3667 76.0299 18.8809C75.8147 19.1389 75.6394 19.2949 75.5143 19.376C75.4789 19.3989 75.4524 19.4092 75.4371 19.416L74.2252 19.2373L74.2125 19.2354L73.7379 19.1777C71.3553 18.9193 68.8143 19.079 66.6041 19.0967H66.5953L40.9313 19.5303L39.8522 18.0742C37.865 15.0604 36.603 11.4023 37.2311 7.98535L37.2975 7.65527C37.8529 5.14599 39.6058 3.59402 41.9576 2.60547C44.3274 1.60949 47.1909 1.24058 49.7057 1.08203L60.1862 1.03125L60.1852 1.03027Z" stroke="white" stroke-width="2"/>
<path d="M32.597 12.1891C32.791 14.3185 33.6816 16.4169 34.805 18.3034C36.5334 21.2057 38.9383 23.8147 40.7669 25.6208L40.7689 25.6227L46.2054 30.9626C49.0393 33.7831 51.8943 37.0002 55.0325 39.736L37.1097 57.2878L37.1038 57.2936L35.1849 59.2018C34.8694 58.8839 34.4866 58.4849 34.0931 58.07C33.3023 57.2362 32.4478 56.3167 32.095 55.9596L32.0921 55.9557L29.8343 53.6803C24.5678 48.3135 19.5076 42.5006 18.5892 35.2096V35.2077L18.5579 34.8923C18.4573 33.3598 19.1372 32.4159 20.2318 30.7165L32.1175 12.7897L32.597 12.1891Z" stroke="white" stroke-width="2"/>
<path d="M17.6025 100.746L16.6729 100.68C13.1776 100.437 9.54714 100.607 6.15137 100.6H6.14941C4.62542 100.6 3.0788 100.692 1.80273 100.443H1.80176C1.38491 100.362 1.16831 100.257 1.06738 100.186C1.02082 100.154 1.00449 100.132 1.00195 100.129C0.992906 100.086 0.998742 99.83 1.3584 99.282C2.04616 98.2343 3.30937 97.1527 3.93164 96.5496L3.93555 96.5447L26.4668 74.4451L26.4707 74.4412L75.29 26.0574L75.2939 26.0535C77.9158 23.4272 80.068 21.2282 81.5361 18.7078C82.6601 16.7782 83.3693 14.688 83.6465 12.1053C83.9416 12.4604 84.2258 12.8025 84.4902 13.1512L84.8096 13.5897L94.5293 28.2547V28.2557C94.8967 28.836 95.3154 29.424 95.7051 29.9832C96.1026 30.5537 96.4795 31.1079 96.8037 31.6697C97.4541 32.7971 97.8355 33.8599 97.75 34.9608V34.9627C97.2426 41.7031 92.5317 47.5856 87.7158 52.532L22.7432 117.93C22.3226 118.34 21.7974 118.939 21.3281 119.436C20.8243 119.971 20.3219 120.461 19.8281 120.815C19.3231 121.178 18.9357 121.318 18.6504 121.317C18.4414 121.317 18.1471 121.24 17.7676 120.803C17.6849 120.599 17.6006 120.249 17.5479 119.731C17.4901 119.165 17.4742 118.496 17.4814 117.792C17.4886 117.09 17.5184 116.376 17.5469 115.719C17.5748 115.073 17.6025 114.462 17.6025 114.004V100.746Z" stroke="white" stroke-width="2"/>
<path d="M104.768 89.1547L104.775 89.1606L111.508 95.684C112.652 96.7927 113.786 97.7411 114.707 98.8295V98.8305C115.035 99.2198 115.236 99.7347 115.23 100.081C115.228 100.233 115.189 100.293 115.169 100.317C115.151 100.337 115.07 100.423 114.79 100.47L114.787 100.471C113.476 100.693 111.974 100.593 110.435 100.593H110.433C106.964 100.6 103.238 100.43 99.6717 100.673L98.8133 100.733L98.743 101.59C98.6366 102.894 98.6479 104.234 98.66 105.511L98.6678 106.764L98.6219 119.604C98.6068 119.94 98.6102 120.146 98.5878 120.434C98.5673 120.696 98.5315 120.868 98.4862 120.979C98.4616 121.037 98.314 121.215 97.954 121.327C97.6252 121.429 97.3696 121.393 97.2616 121.35L96.7206 120.971L61.2421 85.7514C61.3692 85.6231 61.4943 85.4958 61.6141 85.3695C61.9854 84.9785 62.3047 84.6278 62.6415 84.2934L62.6434 84.2914L77.9559 69.0004L77.9667 68.9897C78.9427 67.9851 80.0498 66.9162 81.0477 65.7729L104.768 89.1547Z" stroke="white" stroke-width="2"/>
</svg>
