<svg width="93" height="93" viewBox="0 0 93 93" fill="none" xmlns="http://www.w3.org/2000/svg">
<path d="M89.7871 26.9042C89.0189 26.9042 88.2822 27.2122 87.739 27.7605C87.1959 28.3088 86.8907 29.0524 86.8907 29.8278V45.9071H38.8528L22.3219 29.2229C21.7787 28.6751 21.0423 28.3673 20.2745 28.3673C19.5067 28.3673 18.7703 28.6751 18.2271 29.2229L9.53806 37.9935C8.9953 38.5417 8.69041 39.285 8.69041 40.0601C8.69041 40.8351 8.9953 41.5784 9.53806 42.1266L13.2816 45.9071H5.79271V28.366C5.79271 27.5906 5.48756 26.847 4.94439 26.2988C4.40122 25.7505 3.66452 25.4425 2.89636 25.4425C2.1282 25.4425 1.3915 25.7505 0.848323 26.2988C0.305151 26.847 0 27.5906 0 28.366L0 60.5247C0 61.3001 0.305151 62.0437 0.848323 62.5919C1.3915 63.1402 2.1282 63.4482 2.89636 63.4482H20.2745V75.1423H14.4818C12.6373 75.1421 10.8405 75.7344 9.35168 76.8334C7.86283 77.9325 6.75909 79.4812 6.20024 81.2556C5.6414 83.0299 5.65643 84.9376 6.24318 86.7028C6.82992 88.4679 7.95792 89.9987 9.46391 91.0737C10.9699 92.1487 12.7757 92.7121 14.62 92.6823C16.4643 92.6525 18.2513 92.031 19.7225 90.9079C21.1936 89.7848 22.2725 88.2183 22.8029 86.4351C23.3334 84.6519 23.2879 82.7447 22.673 80.9893H70.0104C69.3955 82.7447 69.3501 84.6519 69.8805 86.4351C70.411 88.2183 71.4898 89.7848 72.961 90.9079C74.4321 92.031 76.2191 92.6525 78.0634 92.6823C79.9077 92.7121 81.7135 92.1487 83.2195 91.0737C84.7255 89.9987 85.8535 88.4679 86.4402 86.7028C87.027 84.9376 87.042 83.0299 86.4832 81.2556C85.9243 79.4812 84.8206 77.9325 83.3317 76.8334C81.8429 75.7344 80.0462 75.1421 78.2016 75.1423H72.4089V69.2952H89.7871C90.5552 69.2952 91.2919 68.9872 91.8351 68.439C92.3783 67.8907 92.6834 67.1471 92.6834 66.3717V29.8278C92.6834 29.0524 92.3783 28.3088 91.8351 27.7605C91.2919 27.2122 90.5552 26.9042 89.7871 26.9042ZM14.4818 86.8363C13.9089 86.8363 13.349 86.6649 12.8727 86.3437C12.3964 86.0224 12.0251 85.5658 11.8059 85.0316C11.5867 84.4974 11.5293 83.9096 11.6411 83.3425C11.7528 82.7754 12.0287 82.2545 12.4338 81.8456C12.8388 81.4367 13.3549 81.1583 13.9167 81.0455C14.4786 80.9327 15.0609 80.9906 15.5902 81.2119C16.1194 81.4331 16.5718 81.8078 16.89 82.2886C17.2083 82.7694 17.3781 83.3346 17.3781 83.9128C17.3781 84.6882 17.073 85.4318 16.5298 85.9801C15.9866 86.5283 15.2499 86.8363 14.4818 86.8363ZM78.2016 80.9893C78.7745 80.9893 79.3345 81.1608 79.8108 81.482C80.2871 81.8033 80.6583 82.2598 80.8775 82.7941C81.0967 83.3283 81.1541 83.9161 81.0423 84.4832C80.9306 85.0503 80.6547 85.5712 80.2497 85.9801C79.8446 86.3889 79.3285 86.6674 78.7667 86.7802C78.2048 86.893 77.6225 86.8351 77.0932 86.6138C76.564 86.3925 76.1117 86.0178 75.7934 85.5371C75.4751 85.0563 75.3053 84.4911 75.3053 83.9128C75.3053 83.1375 75.6104 82.3939 76.1536 81.8456C76.6968 81.2973 77.4335 80.9893 78.2016 80.9893ZM20.2745 35.4245L30.6597 45.9071H21.4747L15.682 40.0601L20.2745 35.4245ZM5.79271 57.6012V51.7541H34.7563V57.6012H5.79271ZM66.6162 75.1423H26.0672V63.4482H34.7563V66.3717C34.7563 67.1471 35.0614 67.8907 35.6046 68.439C36.1478 68.9872 36.8845 69.2952 37.6526 69.2952H66.6162V75.1423ZM86.8907 63.4482H40.549V51.7541H86.8907V63.4482Z" fill="#008DC3"/>
<path d="M33.7031 23.873H37.916V28.0859C37.916 28.8308 38.2119 29.5451 38.7386 30.0719C39.2653 30.5986 39.9797 30.8945 40.7246 30.8945H51.9589C52.7038 30.8945 53.4182 30.5986 53.9449 30.0719C54.4716 29.5451 54.7675 28.8308 54.7675 28.0859V23.873H58.9804C59.7253 23.873 60.4397 23.5771 60.9664 23.0504C61.4931 22.5237 61.789 21.8093 61.789 21.0644V9.83006C61.789 9.08517 61.4931 8.3708 60.9664 7.84409C60.4397 7.31737 59.7253 7.02147 58.9804 7.02147H54.7675V2.80859C54.7675 2.0637 54.4716 1.34933 53.9449 0.822617C53.4182 0.295904 52.7038 0 51.9589 0L40.7246 0C39.9797 0 39.2653 0.295904 38.7386 0.822617C38.2119 1.34933 37.916 2.0637 37.916 2.80859V7.02147H33.7031C32.9582 7.02147 32.2439 7.31737 31.7171 7.84409C31.1904 8.3708 30.8945 9.08517 30.8945 9.83006V21.0644C30.8945 21.8093 31.1904 22.5237 31.7171 23.0504C32.2439 23.5771 32.9582 23.873 33.7031 23.873ZM36.5117 12.6386H40.7246C41.4695 12.6386 42.1838 12.3427 42.7106 11.816C43.2373 11.2893 43.5332 10.5749 43.5332 9.83006V5.61718H49.1504V9.83006C49.1504 10.5749 49.4463 11.2893 49.973 11.816C50.4997 12.3427 51.2141 12.6386 51.9589 12.6386H56.1718V18.2558H51.9589C51.2141 18.2558 50.4997 18.5517 49.973 19.0784C49.4463 19.6052 49.1504 20.3195 49.1504 21.0644V25.2773H43.5332V21.0644C43.5332 20.3195 43.2373 19.6052 42.7106 19.0784C42.1838 18.5517 41.4695 18.2558 40.7246 18.2558H36.5117V12.6386Z" fill="#008DC3"/>
</svg>
