<svg width="96" height="93" viewBox="0 0 96 93" fill="none" xmlns="http://www.w3.org/2000/svg">
<path d="M47.5087 0C32.7664 0 20.7584 11.4127 19.6378 25.8208H2.15949C1.02878 25.8209 0.000107974 26.8459 0 27.9725V90.3727C0.000107974 91.4994 1.02878 92.5243 2.15949 92.5244H92.8579C93.9886 92.5243 95.0172 91.4994 95.0173 90.3727V27.9725C95.0172 26.8459 93.9886 25.8209 92.8579 25.8208H75.3795C74.259 11.4127 62.2509 0 47.5087 0ZM47.5087 4.30346C60.6534 4.30346 71.263 14.875 71.263 27.9725C71.2631 29.0991 72.2918 30.1241 73.4225 30.1242H90.6984V88.221H59.3858V58.0967C59.3857 56.9701 58.3571 55.9451 57.2264 55.945H37.791C36.4856 55.9859 35.6581 57.1275 35.6315 58.0967V88.221H4.31897V30.1242H21.5949C22.7256 30.1241 23.7542 29.0991 23.7543 27.9725C23.7543 14.875 34.364 4.30346 47.5087 4.30346ZM47.5087 8.60693C46.316 8.60693 45.3492 9.57026 45.3492 10.7587V17.2139H38.8707C37.678 17.2139 36.7112 18.1772 36.7112 19.3656C36.7112 20.554 37.678 21.5173 38.8707 21.5173H45.3492V27.9725C45.3492 29.1609 46.316 30.1242 47.5087 30.1242C48.7014 30.1242 49.6682 29.1609 49.6682 27.9725V21.5173H56.1466C57.3393 21.5173 58.3061 20.554 58.3061 19.3656C58.3061 18.1772 57.3393 17.2139 56.1466 17.2139H49.6682V10.7587C49.6682 9.57026 48.7014 8.60693 47.5087 8.60693ZM10.7974 34.4277C9.66672 34.4278 8.63805 35.4528 8.63794 36.5794V49.4898C8.63805 50.6164 9.66672 51.6414 10.7974 51.6415H30.2328C31.3635 51.6414 32.3922 50.6164 32.3923 49.4898V36.5794C32.3922 35.4528 31.3635 34.4278 30.2328 34.4277H10.7974ZM37.791 34.4277C36.6603 34.4278 35.6316 35.4528 35.6315 36.5794V49.4898C35.6316 50.6164 36.6603 51.6414 37.791 51.6415H57.2264C58.3571 51.6414 59.3857 50.6164 59.3858 49.4898V36.5794C59.3857 35.4528 58.3571 34.4278 57.2264 34.4277H37.791ZM64.7846 34.4277C63.6538 34.4278 62.6252 35.4528 62.6251 36.5794V49.4898C62.6252 50.6164 63.6538 51.6414 64.7846 51.6415H84.2199C85.3506 51.6414 86.3793 50.6164 86.3794 49.4898V36.5794C86.3793 35.4528 85.3506 34.4278 84.2199 34.4277H64.7846ZM12.9569 38.7312H28.0733V47.3381H12.9569V38.7312ZM39.9505 38.7312H55.0669V47.3381H39.9505V38.7312ZM66.944 38.7312H82.0604V47.3381H66.944V38.7312ZM10.7974 55.945C9.66672 55.9451 8.63805 56.9701 8.63794 58.0967V71.0071C8.63805 72.1338 9.66672 73.1588 10.7974 73.1589H30.2328C31.3635 73.1588 32.3922 72.1338 32.3923 71.0071V58.0967C32.3922 56.9701 31.3635 55.9451 30.2328 55.945H10.7974ZM64.7846 55.945C63.6538 55.9451 62.6252 56.9701 62.6251 58.0967V71.0071C62.6252 72.1338 63.6538 73.1588 64.7846 73.1589H84.2199C85.3506 73.1588 86.3793 72.1338 86.3794 71.0071V58.0967C86.3793 56.9701 85.3506 55.9451 84.2199 55.945H64.7846ZM12.9569 60.2485H28.0733V68.8554H12.9569V60.2485ZM39.9505 60.2485H55.0669V88.221H39.9505V60.2485ZM66.944 60.2485H82.0604V68.8554H66.944V60.2485Z" fill="#008DC3"/>
</svg>
