<svg width="59" height="53" viewBox="0 0 59 53" fill="none" xmlns="http://www.w3.org/2000/svg">
<path d="M16.3626 44.7009C16.4611 44.6023 16.5253 44.474 16.5438 44.3364L16.895 41.761L23.7973 34.8574C24.5658 35.5313 25.542 35.8991 26.5784 35.8991C27.7107 35.8991 28.7709 35.4619 29.5666 34.6655L56.519 7.71382C58.1658 6.0663 58.1658 3.38699 56.519 1.74079L56.011 1.23284C55.2167 0.437851 54.1552 0 53.0242 0C51.8932 0 50.833 0.438512 50.0373 1.23284L47.9632 3.30696V3.30829L38.705 12.5671L23.8879 27.383C23.8879 27.3843 23.8879 27.3843 23.8866 27.3843L0.186888 51.084C0.0268312 51.244 -0.0353335 51.4755 0.019562 51.6924C0.0744575 51.9107 0.240465 52.0853 0.455417 52.1481C0.578436 52.1858 1.96736 52.5866 3.86093 52.5866C4.23395 52.5866 4.62615 52.5688 5.03158 52.5344H27.4667C27.8192 52.5344 28.1056 52.248 28.1056 51.8955C28.1056 51.5416 27.8192 51.2559 27.4667 51.2559H9.2936C10.0284 50.8432 10.7467 50.3167 11.42 49.6435L16.3626 44.7009ZM47.2139 5.86589L48.5042 4.57353C48.8396 4.80502 49.1531 5.06693 49.4427 5.35596C50.536 6.4499 51.2007 7.87718 51.3628 9.38119C51.087 8.16357 50.4759 7.02862 49.5704 6.12251C49.2807 5.83348 48.9672 5.57157 48.6319 5.34008L47.3415 6.63244L39.5589 14.4151C39.4207 14.2517 39.2917 14.083 39.1713 13.9064L47.2139 5.86589ZM1.92833 51.1501L21.8534 31.225C21.8647 32.2409 22.2317 33.1993 22.8938 33.9546L15.8394 41.0103C15.7395 41.1082 15.6754 41.2365 15.6582 41.3754L15.307 43.9495L10.5159 48.7406C7.68179 51.574 3.80602 51.4305 1.92833 51.1501Z" fill="url(#paint0_linear_6468_682)"/>
<path d="M42.9891 51.2566H40.5948C40.5876 51.2566 40.581 51.2566 40.5737 51.2572C40.5664 51.2566 40.5598 51.2566 40.5525 51.2566H38.4572H30.5344C30.1819 51.2566 29.8955 51.5423 29.8955 51.8955C29.8955 52.248 30.1819 52.5344 30.5344 52.5344H38.4572H40.5525C40.5598 52.5344 40.5664 52.5344 40.5737 52.5344C40.581 52.5344 40.5876 52.5344 40.5948 52.5344H42.9891C43.3416 52.5344 43.628 52.248 43.628 51.8955C43.628 51.5417 43.3423 51.2566 42.9891 51.2566Z" fill="url(#paint1_linear_6468_682)"/>
<path d="M58.008 51.2566H50.0852C49.732 51.2566 49.4463 51.5423 49.4463 51.8955C49.4463 52.248 49.732 52.5344 50.0852 52.5344H58.008C58.3605 52.5344 58.6469 52.248 58.6469 51.8955C58.6469 51.5417 58.3612 51.2566 58.008 51.2566Z" fill="url(#paint2_linear_6468_682)"/>
<defs>
<linearGradient id="paint0_linear_6468_682" x1="0" y1="26.2933" x2="70.7865" y2="26.838" gradientUnits="userSpaceOnUse">
<stop stop-color="#0499AB"/>
<stop offset="1" stop-color="#06646F" stop-opacity="0.6"/>
</linearGradient>
<linearGradient id="paint1_linear_6468_682" x1="29.8955" y1="51.8955" x2="46.6329" y2="53.1557" gradientUnits="userSpaceOnUse">
<stop stop-color="#0499AB"/>
<stop offset="1" stop-color="#06646F" stop-opacity="0.6"/>
</linearGradient>
<linearGradient id="paint2_linear_6468_682" x1="49.4463" y1="51.8955" x2="60.6951" y2="52.4629" gradientUnits="userSpaceOnUse">
<stop stop-color="#0499AB"/>
<stop offset="1" stop-color="#06646F" stop-opacity="0.6"/>
</linearGradient>
</defs>
</svg>
