<svg width="97" height="96" viewBox="0 0 97 96" fill="none" xmlns="http://www.w3.org/2000/svg">
<path d="M36.7281 31.9434C36.7281 36.833 38.0352 41.7173 40.5513 45.8828L40.7984 46.2842L40.8062 46.2959H40.8052C41.2877 47.1635 41.1856 48.2063 40.4956 48.9121L40.6167 48.9502L40.107 49.2334C39.1206 49.7804 37.76 49.5864 37.1724 48.5479L36.8833 48.083C33.9433 43.2579 32.4253 37.6913 32.4253 31.9434C32.4255 14.4388 46.5628 0.25 64.1304 0.25C81.6961 0.250169 95.9361 14.437 95.8345 31.9473C95.8345 39.4895 93.1078 46.7282 88.1685 52.46C87.8047 53.0455 87.1108 53.2568 86.5689 53.2568C86.1489 53.2568 85.7462 53.0755 85.3745 52.8213L85.2173 52.708C84.2885 52.0126 84.1921 50.6452 84.98 49.7461C89.2489 44.8002 91.6294 38.4717 91.6294 31.9434C91.6294 16.8087 79.3209 4.54395 64.1294 4.54395C49.0385 4.54418 36.6313 16.8091 36.7281 31.9414V31.9434Z" fill="#008DC3" stroke="#008DC3" stroke-width="0.5"/>
<path d="M90.7307 59.3094C90.7368 59.3288 90.747 59.3547 90.7609 59.3826C90.7721 59.4049 90.785 59.4252 90.7971 59.4442L90.8107 59.4451L90.8849 59.5555C91.9224 61.1064 92.2381 62.7713 91.9328 64.4344C91.6222 66.2019 90.4748 67.8614 88.9113 68.7947L88.9074 68.7967L56.2473 87.6609L56.2453 87.6619C54.1011 88.8811 51.6557 89.492 49.3088 89.492C47.672 89.492 46.1424 89.186 44.6203 88.6805L44.6154 88.6785L33.2941 84.6854V84.6844C32.2434 84.336 31.7013 83.0865 32.0344 81.9832L32.0363 81.9774C32.3836 80.9256 33.6409 80.3848 34.7482 80.7166L34.759 80.7205L46.1779 84.7127L46.1848 84.7156L46.6642 84.8846C49.0848 85.6586 51.7987 85.4027 54.0832 84.0369L54.0871 84.035L86.8342 65.1746C87.3977 64.8003 87.8398 64.2545 87.9279 63.6512C88.0172 63.0387 87.8451 62.5089 87.4767 61.949L87.3957 61.868C86.6437 61.1187 85.7374 60.8652 84.9474 61.1287L84.9387 61.1317V61.1307L63.1545 67.5008C61.8161 68.8142 59.9736 69.6258 58.1203 69.6258H57.6027L41.0734 68.5262L41.0666 68.5252C39.8534 68.4136 38.9204 67.52 39.0373 66.2567C39.1502 65.0385 40.1558 64.1159 41.3146 64.2332H41.3137L57.8361 65.3328H57.8469V65.3338C58.6346 65.4226 59.4476 65.0811 60.1017 64.45C60.1096 64.4304 60.1163 64.4108 60.1271 64.3934C60.142 64.3696 60.1611 64.351 60.175 64.3358V64.2811L60.2492 64.2078C60.6944 63.7642 60.8761 63.232 60.8762 62.5877V62.5721L60.8781 62.5565C60.9647 61.8478 60.7037 61.3147 60.3146 60.7293V60.7283C59.8617 60.1027 59.1321 59.736 58.3898 59.6414V59.6424L39.1555 57.4471H39.1535C36.0043 57.0563 32.7541 57.7419 29.9963 59.409L29.9953 59.408L25.09 62.4031L25.0891 62.4022C24.0726 63.067 22.7219 62.7381 22.1447 61.7264V61.7274C21.4667 60.7071 21.8044 59.3444 22.8342 58.7733L27.7326 55.784L27.7346 55.783L28.0695 55.5877C31.554 53.6018 35.6779 52.7634 39.6144 53.2537L39.6135 53.2547L58.8449 55.449L59.1935 55.4969C60.9238 55.7785 62.4582 56.6881 63.6213 58.1375L63.6262 58.1443C64.5163 59.3282 65.0267 60.7924 65.0724 62.3572L83.6945 56.9588L83.6965 56.9578C86.2936 56.2341 89.0006 57.0623 90.6701 59.1395L90.7248 59.2088V59.2967C90.7248 59.2847 90.7236 59.2871 90.7307 59.3094Z" fill="#008DC3" stroke="#008DC3" stroke-width="0.5"/>
<path d="M11.1328 59.6659C13.8564 58.4131 17.1139 59.5575 18.375 62.2831L28.3936 83.8466L28.5039 84.1024C29.578 86.763 28.4161 89.8483 25.7666 91.0653L25.7657 91.0643L18.0547 94.66L18.0469 94.663C17.3241 94.9727 16.4884 95.1824 15.7461 95.1825C15.1147 95.1825 14.4892 95.0755 13.8633 94.869L13.8516 94.8651C12.4948 94.3438 11.4427 93.4026 10.8116 92.0428L0.792999 70.4794V70.4784C0.169809 69.1267 0.0587274 67.6602 0.586945 66.2909C1.07768 65.0227 1.93897 64.0219 3.16898 63.3837L3.41995 63.2606L11.1319 59.6659H11.1328ZM13.4366 63.4335C13.2267 63.4335 13.086 63.4373 12.9473 63.5077L12.9395 63.5116L5.24319 67.0995C4.94293 67.2982 4.7368 67.454 4.66312 67.7421L4.65628 67.7675L4.64456 67.7909C4.49475 68.0924 4.48971 68.359 4.58304 68.5594L4.62894 68.6405L4.6387 68.6571L4.64749 68.6737L14.6553 90.2167C14.8302 90.4792 14.9715 90.6701 15.1983 90.7635L15.3018 90.7987L15.3282 90.8046L15.3516 90.8163C15.5309 90.9047 15.6684 90.9403 15.794 90.9403C15.9193 90.9403 16.0557 90.9053 16.2325 90.8173L16.2383 90.8143L23.9522 87.2186L23.959 87.2157L24.0606 87.1649C24.5462 86.8854 24.7642 86.2048 24.5313 85.6522L14.5127 64.0887L14.5069 64.076V64.0751C14.4327 63.8905 14.2784 63.7298 14.0762 63.6132C13.8735 63.4962 13.6404 63.4335 13.4366 63.4335Z" fill="#008DC3" stroke="#008DC3" stroke-width="0.5"/>
<path d="M16.5394 81.4277C17.8919 80.7103 19.417 81.2646 20.223 82.5693L20.3743 82.8418L20.3782 82.8486C21.0356 84.2744 20.3793 86.0171 18.9525 86.6748L18.9515 86.6758C17.5223 87.3298 15.7739 86.6775 15.1136 85.2549V85.2539C14.4563 83.828 15.1124 82.0853 16.5394 81.4277Z" fill="#008DC3" stroke="#008DC3" stroke-width="0.5"/>
<path d="M69.6385 13.328C70.8833 13.3282 71.7896 14.3442 71.7899 15.4725V24.3085H80.6581C81.903 24.3085 82.8092 25.3245 82.8094 26.453V37.3358C82.8094 38.5786 81.7886 39.4803 80.6581 39.4803H71.7899V48.3163C71.7898 49.5589 70.7689 50.4606 69.6385 50.4608H58.7206C57.4718 50.4608 56.5639 49.4448 56.5682 48.3114V39.4764H47.7C46.4552 39.4762 45.5487 38.4604 45.5487 37.3319V26.453C45.5489 25.2105 46.5698 24.3087 47.7 24.3085H56.5682V15.4725C56.5685 14.2299 57.5901 13.328 58.7206 13.328H69.6385ZM60.8719 26.3553C60.8719 27.5981 59.851 28.4998 58.7206 28.4999H49.8524V35.1864H58.7206C59.9656 35.1865 60.8719 36.2033 60.8719 37.3319V46.1669H67.5848V37.3319C67.5848 36.0891 68.6056 35.1865 69.7362 35.1864H78.6043V28.4999H69.7362C68.4911 28.4998 67.5848 27.484 67.5848 26.3553V17.5204H60.8719V26.3553Z" fill="#008DC3" stroke="#008DC3" stroke-width="0.5"/>
</svg>
