<svg width="76" height="76" viewBox="0 0 76 76" fill="none" xmlns="http://www.w3.org/2000/svg">
<path d="M37.7448 0.250977C47.69 0.251078 57.2281 4.20062 64.2605 11.2324C71.2929 18.2644 75.2439 27.8023 75.2439 37.7471C75.2439 45.3039 73.1984 53.4042 69.2546 59.8955C65.3097 66.3884 59.4519 71.2901 51.8288 72.3945L51.8249 72.3955C50.8479 72.5213 49.8637 72.5824 48.8786 72.582C45.6825 72.7501 42.5416 71.7035 40.0857 69.6514L40.0818 69.6494V69.6484C36.9572 66.9546 35.2214 62.423 34.8474 56.373C30.4375 55.6881 26.4105 53.4637 23.4841 50.0889C20.5133 46.6628 18.8752 42.2817 18.8698 37.7471V21.7842C18.8698 21.0124 19.1767 20.2724 19.7224 19.7266C20.2682 19.1807 21.009 18.874 21.781 18.874H29.7624C30.5344 18.874 31.2752 19.1807 31.821 19.7266C32.3666 20.2723 32.6735 21.0125 32.6735 21.7842C32.6735 22.5559 32.3666 23.296 31.821 23.8418C31.2752 24.3876 30.5344 24.6943 29.7624 24.6943H24.6911V37.7471C24.6911 41.2088 26.0664 44.5288 28.5144 46.9766C30.9623 49.4243 34.2829 50.7998 37.7448 50.7998C41.2066 50.7997 44.5265 49.4242 46.9743 46.9766C49.4223 44.5288 50.7976 41.2088 50.7976 37.7471V24.6943H45.7263C44.9544 24.6943 44.2145 24.3876 43.6687 23.8418C43.1228 23.296 42.8161 22.5561 42.8161 21.7842C42.8161 21.0123 43.1228 20.2724 43.6687 19.7266C44.2145 19.1808 44.9544 18.8741 45.7263 18.874H53.7087C54.4805 18.8741 55.2205 19.1808 55.7663 19.7266C56.3121 20.2724 56.6189 21.0123 56.6189 21.7842V37.7471L56.614 38.1719C56.5103 42.5547 54.8826 46.7698 52.0046 50.0889C49.0801 53.4615 45.0566 55.6856 40.6501 56.3721C40.5932 59.675 41.7914 62.8791 44.0066 65.3359C44.9916 66.0682 46.1246 66.5767 47.3269 66.8252C48.537 67.0753 49.7881 67.0567 50.99 66.7695L50.9997 66.7666L51.0095 66.7656C56.7378 65.8763 61.3385 61.8703 64.5144 56.4434C67.6896 51.0174 69.4226 44.1977 69.4226 37.7471C69.4265 32.3599 68.0559 27.0607 65.4411 22.3506C62.8264 17.6405 59.0536 13.675 54.4792 10.8291C49.9048 7.98316 44.6796 6.35031 39.2985 6.08594C33.9222 5.82188 28.5671 6.93189 23.739 9.31152C23.3947 9.51266 23.0128 9.64104 22.6169 9.68848C22.2195 9.73609 21.8166 9.70106 21.4333 9.58594C21.0501 9.47084 20.6947 9.27811 20.3894 9.01953C20.0841 8.76096 19.8355 8.44197 19.6589 8.08301C19.4823 7.72387 19.3814 7.33141 19.363 6.93164C19.3447 6.53201 19.4086 6.13247 19.5515 5.75879C19.6944 5.38508 19.9137 5.04527 20.1941 4.75977C20.4707 4.47802 20.8014 4.25518 21.1667 4.10547C26.3172 1.54747 31.994 0.228341 37.7448 0.250977Z" fill="url(#paint0_linear_6154_258)" stroke="url(#paint1_linear_6154_258)" stroke-width="0.5"/>
<path d="M12.7539 10.7546C13.1536 10.7313 13.554 10.7911 13.9297 10.9294C14.3054 11.0678 14.6484 11.2823 14.9375 11.5593C15.2265 11.8363 15.4561 12.1694 15.6104 12.5388C15.7646 12.9083 15.8403 13.3064 15.834 13.7068C15.8276 14.107 15.739 14.5017 15.5732 14.866C15.41 15.2247 15.1741 15.5449 14.8828 15.8103L14.8838 15.8113C10.0536 20.8466 7.02058 27.3359 6.25684 34.2712C5.50032 41.141 7.01287 48.0674 10.5586 53.9958C11.6046 53.6582 12.6951 53.4763 13.7949 53.4597H13.7969C16.2969 53.4469 18.7258 54.2945 20.6748 55.8601C22.6238 57.4257 23.9746 59.6145 24.501 62.0583C25.0274 64.5022 24.6971 67.0528 23.5654 69.282C22.4337 71.5111 20.5698 73.2831 18.2861 74.3005C16.0026 75.318 13.4386 75.519 11.0244 74.8699C8.61014 74.2206 6.49258 72.7606 5.02734 70.7351C3.56216 68.7096 2.83847 66.2418 2.97754 63.7458C3.1132 61.3121 4.0622 58.9969 5.66797 57.1677C1.41161 50.1347 -0.417133 41.8967 0.467773 33.7205C1.35887 25.488 4.94983 17.7814 10.6807 11.8044C10.935 11.497 11.2506 11.2458 11.6064 11.0652C11.9634 10.884 12.3542 10.778 12.7539 10.7546ZM15.7393 59.6667C14.8127 59.283 13.7932 59.1831 12.8096 59.3787C11.8259 59.5743 10.9221 60.0572 10.2129 60.7663C9.50365 61.4755 9.0199 62.3794 8.82422 63.363C8.62868 64.3465 8.72952 65.3663 9.11328 66.2927C9.49713 67.2192 10.1476 68.011 10.9814 68.5681C11.8154 69.1252 12.7959 69.4226 13.7988 69.4226C15.1437 69.4225 16.4338 68.8882 17.3848 67.9372C18.3355 66.9864 18.87 65.6969 18.8701 64.3523C18.8701 63.3495 18.5727 62.3687 18.0156 61.5349C17.4584 60.701 16.6659 60.0506 15.7393 59.6667Z" fill="url(#paint2_linear_6154_258)" stroke="url(#paint3_linear_6154_258)" stroke-width="0.5"/>
<defs>
<linearGradient id="paint0_linear_6154_258" x1="19.1198" y1="36.4253" x2="87.6038" y2="36.7984" gradientUnits="userSpaceOnUse">
<stop stop-color="#0499AB"/>
<stop offset="1" stop-color="#06646F" stop-opacity="0.6"/>
</linearGradient>
<linearGradient id="paint1_linear_6154_258" x1="19.1198" y1="36.4253" x2="87.6038" y2="36.7984" gradientUnits="userSpaceOnUse">
<stop stop-color="#0499AB"/>
<stop offset="1" stop-color="#06646F" stop-opacity="0.6"/>
</linearGradient>
<linearGradient id="paint2_linear_6154_258" x1="0.5" y1="42.9967" x2="29.9117" y2="43.074" gradientUnits="userSpaceOnUse">
<stop stop-color="#0499AB"/>
<stop offset="1" stop-color="#06646F" stop-opacity="0.6"/>
</linearGradient>
<linearGradient id="paint3_linear_6154_258" x1="0.5" y1="42.9967" x2="29.9117" y2="43.074" gradientUnits="userSpaceOnUse">
<stop stop-color="#0499AB"/>
<stop offset="1" stop-color="#06646F" stop-opacity="0.6"/>
</linearGradient>
</defs>
</svg>
