<svg width="110" height="109" viewBox="0 0 110 109" fill="none" xmlns="http://www.w3.org/2000/svg">
<mask id="path-1-inside-1_6154_270" fill="white">
<path d="M92.4609 58.9366C93.0367 59.686 92.8863 60.7547 92.1301 61.3252C91.8207 61.5594 91.4555 61.6701 91.0945 61.6701C90.5746 61.6701 90.0633 61.4402 89.7239 60.9974C88.7098 59.6732 87.6357 58.3831 86.5357 57.1569C85.904 56.4543 85.9642 55.3771 86.6732 54.7512C87.3821 54.1296 88.4692 54.1849 89.1008 54.8875C90.2653 56.1818 91.3953 57.5401 92.4652 58.9366L92.4609 58.9366ZM79.1841 50.2805C79.4978 50.5274 79.8759 50.6466 80.2497 50.6466C80.7568 50.6466 81.2638 50.4252 81.599 49.9994C82.1876 49.2628 82.0587 48.1898 81.3154 47.6066C78.4709 45.3797 75.4373 43.4382 72.3007 41.8372C71.4585 41.4029 70.4187 41.735 69.9847 42.5695C69.5507 43.4041 69.8816 44.4344 70.7237 44.8645C73.6628 46.3675 76.5115 48.1899 79.1799 50.2805L79.1841 50.2805ZM12.5878 50.6211C12.9616 50.6211 13.3355 50.5019 13.6534 50.2549C16.3218 48.1685 19.1705 46.3463 22.1139 44.8475C22.956 44.4175 23.2912 43.3914 22.8572 42.5525C22.4232 41.718 21.3877 41.3859 20.5455 41.8159C17.4002 43.4169 14.3666 45.3584 11.5265 47.581C10.7831 48.1644 10.6542 49.2373 11.2429 49.9739C11.5823 50.3997 12.0851 50.6211 12.5921 50.6211L12.5878 50.6211ZM30.995 41.2411C31.1496 41.2411 31.3086 41.2198 31.4676 41.1772C34.6343 40.2788 37.9643 39.6785 41.3717 39.3847C42.3171 39.3038 43.0174 38.4778 42.9358 37.5411C42.8542 36.6044 42.012 35.8976 41.0753 35.9912C37.4488 36.302 33.8997 36.945 30.5223 37.8987C29.6114 38.1584 29.0786 39.0995 29.3407 40.0063C29.5555 40.7557 30.243 41.2411 30.9907 41.2411L30.995 41.2411ZM51.4777 39.389C54.8765 39.6827 58.2109 40.2874 61.3819 41.1857C61.5409 41.2283 61.6956 41.2496 61.8545 41.2496C62.6022 41.2496 63.2897 40.7642 63.5045 40.0148C63.7666 39.1122 63.2381 38.1669 62.3229 37.9072C58.9413 36.9492 55.3921 36.3062 51.7743 35.9912C50.8247 35.906 49.9954 36.6043 49.9138 37.5411C49.8321 38.4778 50.5325 39.3038 51.4778 39.3847L51.4777 39.389ZM1.71669 61.6697C2.23661 61.6697 2.74793 61.4397 3.08738 60.9969C4.10143 59.6728 5.17559 58.3784 6.27986 57.1564C6.9115 56.4539 6.85134 55.3767 6.14236 54.7508C5.43339 54.1249 4.34631 54.1887 3.7147 54.887C2.55455 56.1771 1.42025 57.5396 0.350291 58.9319C-0.225484 59.6813 -0.0750943 60.75 0.681144 61.3205C0.990515 61.5547 1.35574 61.6697 1.72097 61.6697L1.71669 61.6697ZM12.029 76.6397C12.029 75.4518 11.8099 74.2895 11.4103 73.1908C6.7611 75.5411 3.5299 77.5125 2.67489 78.049C2.64481 78.066 2.61473 78.0873 2.58036 78.1043L0.934671 79.0538C1.72528 80.6718 3.11319 83.2648 5.16708 86.2538C6.37024 85.828 7.50025 85.1894 8.50135 84.3251C10.7443 82.3835 12.029 79.5818 12.029 76.6397ZM46.4035 63.0147C39.7693 63.0147 34.3719 68.3625 34.3719 74.9371C34.3719 81.5118 39.7686 86.8596 46.4035 86.8596C53.0384 86.8596 58.4351 81.5118 58.4351 74.9371C58.4351 74.1537 58.3492 73.3745 58.1945 72.6081C57.2063 73.0041 56.1278 73.234 54.9977 73.234C50.2584 73.234 46.4041 69.4148 46.4041 64.7184C46.4041 64.1393 46.4643 63.573 46.576 63.0238C46.5201 63.0238 46.4594 63.0147 46.4035 63.0147ZM25.7788 74.9371C25.7788 86.2077 35.0299 95.3746 46.4035 95.3746C57.7771 95.3746 67.0282 86.2075 67.0282 74.9371C67.0282 71.8843 66.3278 68.9933 65.1118 66.3874C64.5704 66.2128 64.0204 66.0425 63.4747 65.8722C63.2255 67.6775 62.4263 69.2997 61.2189 70.5601C61.6485 71.9864 61.8763 73.4511 61.8763 74.9371C61.8763 83.3888 54.9369 90.2646 46.4083 90.2646C37.8797 90.2646 30.9404 83.3883 30.9404 74.9371C30.9404 70.8198 32.5946 67.0857 35.2715 64.3266C32.7064 64.8843 30.167 65.5912 27.7006 66.3916C26.4845 68.9973 25.7842 71.8842 25.7842 74.937L25.7788 74.9371ZM90.2269 78.1049L90.1366 78.0538C88.6585 77.1298 80.1122 71.9183 69.392 67.8862C70.0881 70.1173 70.4662 72.4847 70.4662 74.9372C70.4662 88.0847 59.6727 98.7809 46.4041 98.7809C33.1355 98.7809 22.342 88.0853 22.342 74.9372C22.342 72.4847 22.7201 70.1173 23.4162 67.8905C20.2064 69.0998 17.19 70.4111 14.5002 71.6843C15.119 73.2511 15.467 74.9245 15.467 76.6404C15.467 80.5619 13.7526 84.3002 10.7621 86.8889C9.69646 87.8086 8.50194 88.5409 7.23014 89.0944C14.2082 98.1124 26.7075 109 46.3995 109C75.175 109 88.5981 85.7525 91.8684 79.0544L90.2227 78.1049L90.2269 78.1049ZM60.1324 64.9399C56.8196 64.0883 53.4423 63.4581 50.1079 63.1771C49.949 63.6668 49.8415 64.1777 49.8415 64.7185C49.8415 67.5371 52.1533 69.8279 54.9977 69.8279C57.7648 69.8279 60.0121 67.6521 60.1324 64.9399ZM46.4046 44.2811C15.45 44.2811 2.25898 71.1867 0.364811 75.4442L0.828872 75.176C3.48863 73.5197 26.4035 59.6097 46.4012 59.6097C66.4715 59.6097 89.416 73.5747 91.9691 75.1716L92.4418 75.4441C90.5468 71.182 77.3549 44.2811 46.4046 44.2811ZM62.3764 31.1542C61.7061 31.8184 61.7061 32.8957 62.3764 33.5641C65.5517 36.7149 69.7282 38.286 73.9042 38.286C78.0765 38.286 82.2529 36.7106 85.432 33.5641L94.0257 25.0485C94.3479 24.7291 94.5284 24.2948 94.5284 23.8435V18.7341L84.7187 9.01348L62.3764 31.1542ZM109.869 1.05168C109.603 0.413001 108.976 0 108.279 0H94.5297C94.0742 0 93.6359 0.178825 93.3136 0.498163L87.152 6.60391L96.4588 15.8263L109.496 2.90761C109.986 2.42222 110.136 1.69031 109.869 1.05168Z"/>
</mask>
<path d="M92.4609 58.9366C93.0367 59.686 92.8863 60.7547 92.1301 61.3252C91.8207 61.5594 91.4555 61.6701 91.0945 61.6701C90.5746 61.6701 90.0633 61.4402 89.7239 60.9974C88.7098 59.6732 87.6357 58.3831 86.5357 57.1569C85.904 56.4543 85.9642 55.3771 86.6732 54.7512C87.3821 54.1296 88.4692 54.1849 89.1008 54.8875C90.2653 56.1818 91.3953 57.5401 92.4652 58.9366L92.4609 58.9366ZM79.1841 50.2805C79.4978 50.5274 79.8759 50.6466 80.2497 50.6466C80.7568 50.6466 81.2638 50.4252 81.599 49.9994C82.1876 49.2628 82.0587 48.1898 81.3154 47.6066C78.4709 45.3797 75.4373 43.4382 72.3007 41.8372C71.4585 41.4029 70.4187 41.735 69.9847 42.5695C69.5507 43.4041 69.8816 44.4344 70.7237 44.8645C73.6628 46.3675 76.5115 48.1899 79.1799 50.2805L79.1841 50.2805ZM12.5878 50.6211C12.9616 50.6211 13.3355 50.5019 13.6534 50.2549C16.3218 48.1685 19.1705 46.3463 22.1139 44.8475C22.956 44.4175 23.2912 43.3914 22.8572 42.5525C22.4232 41.718 21.3877 41.3859 20.5455 41.8159C17.4002 43.4169 14.3666 45.3584 11.5265 47.581C10.7831 48.1644 10.6542 49.2373 11.2429 49.9739C11.5823 50.3997 12.0851 50.6211 12.5921 50.6211L12.5878 50.6211ZM30.995 41.2411C31.1496 41.2411 31.3086 41.2198 31.4676 41.1772C34.6343 40.2788 37.9643 39.6785 41.3717 39.3847C42.3171 39.3038 43.0174 38.4778 42.9358 37.5411C42.8542 36.6044 42.012 35.8976 41.0753 35.9912C37.4488 36.302 33.8997 36.945 30.5223 37.8987C29.6114 38.1584 29.0786 39.0995 29.3407 40.0063C29.5555 40.7557 30.243 41.2411 30.9907 41.2411L30.995 41.2411ZM51.4777 39.389C54.8765 39.6827 58.2109 40.2874 61.3819 41.1857C61.5409 41.2283 61.6956 41.2496 61.8545 41.2496C62.6022 41.2496 63.2897 40.7642 63.5045 40.0148C63.7666 39.1122 63.2381 38.1669 62.3229 37.9072C58.9413 36.9492 55.3921 36.3062 51.7743 35.9912C50.8247 35.906 49.9954 36.6043 49.9138 37.5411C49.8321 38.4778 50.5325 39.3038 51.4778 39.3847L51.4777 39.389ZM1.71669 61.6697C2.23661 61.6697 2.74793 61.4397 3.08738 60.9969C4.10143 59.6728 5.17559 58.3784 6.27986 57.1564C6.9115 56.4539 6.85134 55.3767 6.14236 54.7508C5.43339 54.1249 4.34631 54.1887 3.7147 54.887C2.55455 56.1771 1.42025 57.5396 0.350291 58.9319C-0.225484 59.6813 -0.0750943 60.75 0.681144 61.3205C0.990515 61.5547 1.35574 61.6697 1.72097 61.6697L1.71669 61.6697ZM12.029 76.6397C12.029 75.4518 11.8099 74.2895 11.4103 73.1908C6.7611 75.5411 3.5299 77.5125 2.67489 78.049C2.64481 78.066 2.61473 78.0873 2.58036 78.1043L0.934671 79.0538C1.72528 80.6718 3.11319 83.2648 5.16708 86.2538C6.37024 85.828 7.50025 85.1894 8.50135 84.3251C10.7443 82.3835 12.029 79.5818 12.029 76.6397ZM46.4035 63.0147C39.7693 63.0147 34.3719 68.3625 34.3719 74.9371C34.3719 81.5118 39.7686 86.8596 46.4035 86.8596C53.0384 86.8596 58.4351 81.5118 58.4351 74.9371C58.4351 74.1537 58.3492 73.3745 58.1945 72.6081C57.2063 73.0041 56.1278 73.234 54.9977 73.234C50.2584 73.234 46.4041 69.4148 46.4041 64.7184C46.4041 64.1393 46.4643 63.573 46.576 63.0238C46.5201 63.0238 46.4594 63.0147 46.4035 63.0147ZM25.7788 74.9371C25.7788 86.2077 35.0299 95.3746 46.4035 95.3746C57.7771 95.3746 67.0282 86.2075 67.0282 74.9371C67.0282 71.8843 66.3278 68.9933 65.1118 66.3874C64.5704 66.2128 64.0204 66.0425 63.4747 65.8722C63.2255 67.6775 62.4263 69.2997 61.2189 70.5601C61.6485 71.9864 61.8763 73.4511 61.8763 74.9371C61.8763 83.3888 54.9369 90.2646 46.4083 90.2646C37.8797 90.2646 30.9404 83.3883 30.9404 74.9371C30.9404 70.8198 32.5946 67.0857 35.2715 64.3266C32.7064 64.8843 30.167 65.5912 27.7006 66.3916C26.4845 68.9973 25.7842 71.8842 25.7842 74.937L25.7788 74.9371ZM90.2269 78.1049L90.1366 78.0538C88.6585 77.1298 80.1122 71.9183 69.392 67.8862C70.0881 70.1173 70.4662 72.4847 70.4662 74.9372C70.4662 88.0847 59.6727 98.7809 46.4041 98.7809C33.1355 98.7809 22.342 88.0853 22.342 74.9372C22.342 72.4847 22.7201 70.1173 23.4162 67.8905C20.2064 69.0998 17.19 70.4111 14.5002 71.6843C15.119 73.2511 15.467 74.9245 15.467 76.6404C15.467 80.5619 13.7526 84.3002 10.7621 86.8889C9.69646 87.8086 8.50194 88.5409 7.23014 89.0944C14.2082 98.1124 26.7075 109 46.3995 109C75.175 109 88.5981 85.7525 91.8684 79.0544L90.2227 78.1049L90.2269 78.1049ZM60.1324 64.9399C56.8196 64.0883 53.4423 63.4581 50.1079 63.1771C49.949 63.6668 49.8415 64.1777 49.8415 64.7185C49.8415 67.5371 52.1533 69.8279 54.9977 69.8279C57.7648 69.8279 60.0121 67.6521 60.1324 64.9399ZM46.4046 44.2811C15.45 44.2811 2.25898 71.1867 0.364811 75.4442L0.828872 75.176C3.48863 73.5197 26.4035 59.6097 46.4012 59.6097C66.4715 59.6097 89.416 73.5747 91.9691 75.1716L92.4418 75.4441C90.5468 71.182 77.3549 44.2811 46.4046 44.2811ZM62.3764 31.1542C61.7061 31.8184 61.7061 32.8957 62.3764 33.5641C65.5517 36.7149 69.7282 38.286 73.9042 38.286C78.0765 38.286 82.2529 36.7106 85.432 33.5641L94.0257 25.0485C94.3479 24.7291 94.5284 24.2948 94.5284 23.8435V18.7341L84.7187 9.01348L62.3764 31.1542ZM109.869 1.05168C109.603 0.413001 108.976 0 108.279 0H94.5297C94.0742 0 93.6359 0.178825 93.3136 0.498163L87.152 6.60391L96.4588 15.8263L109.496 2.90761C109.986 2.42222 110.136 1.69031 109.869 1.05168Z" stroke="white" stroke-width="4" mask="url(#path-1-inside-1_6154_270)"/>
</svg>
