<svg width="63" height="58" viewBox="0 0 63 58" fill="none" xmlns="http://www.w3.org/2000/svg">
<path d="M30.0714 7.60997V24.1474C30.2929 24.2706 30.5122 24.3932 30.739 24.5181C30.8371 24.5721 30.9406 24.6311 31.04 24.6859C31.1412 24.6301 31.2439 24.5731 31.3439 24.5181C31.5707 24.3932 31.79 24.2706 32.0115 24.1474V7.60997C32.926 7.37471 33.7229 6.81521 34.253 6.03635C34.783 5.25749 35.0098 4.31274 34.8908 3.37919C34.7718 2.44564 34.3152 1.58739 33.6066 0.965299C32.8979 0.343211 31.9859 0 31.0414 0C30.097 0 29.185 0.343211 28.4763 0.965299C27.7677 1.58739 27.3111 2.44564 27.1921 3.37919C27.0731 4.31274 27.2999 5.25749 27.8299 6.03635C28.36 6.81521 29.1569 7.37471 30.0714 7.60997ZM31.0415 1.93767C31.4252 1.93767 31.8003 2.05105 32.1193 2.26347C32.4384 2.47589 32.6871 2.77781 32.8339 3.13106C32.9808 3.4843 33.0192 3.873 32.9443 4.248C32.8695 4.623 32.6847 4.96746 32.4133 5.23782C32.142 5.50819 31.7963 5.6923 31.42 5.7669C31.0436 5.84149 30.6535 5.80321 30.299 5.65689C29.9445 5.51057 29.6415 5.26279 29.4283 4.94488C29.2151 4.62697 29.1013 4.2532 29.1013 3.87086C29.1019 3.35832 29.3065 2.86695 29.6702 2.50453C30.0339 2.14212 30.5271 1.93826 31.0415 1.93767Z" fill="url(#paint0_linear_75_489)"/>
<path d="M32.6416 38.2643C32.7601 38.3485 33.8467 39.1191 34.2511 39.4188C35.8011 37.9986 37.0015 36.2715 36.8499 34.0135C36.7185 32.2292 35.8949 30.566 34.5537 29.3765C34.4221 29.4492 33.2053 30.1238 32.7755 30.3733C33.9742 31.3786 34.8079 32.5595 34.914 34.1423C35.0239 35.7773 34.0163 37.0855 32.6416 38.2643Z" fill="url(#paint1_linear_75_489)"/>
<path d="M29.084 25.8128C28.0997 25.2909 27.1564 24.6957 26.2621 24.0322C27.1108 22.5082 27.4507 20.7546 27.2324 19.0253C27.014 17.296 26.2489 15.6808 25.0478 14.4137C24.8154 14.1578 24.5184 13.9686 24.1878 13.8656C23.8572 13.7627 23.5049 13.7498 23.1676 13.8282C22.8303 13.9067 22.5202 14.0736 22.2695 14.3118C22.0188 14.5499 21.8366 14.8506 21.7418 15.1826C21.2273 16.859 21.1852 18.6442 21.6201 20.3429C22.055 22.0416 22.9501 23.5885 24.2078 24.8145C25.1479 25.6696 26.1858 26.4112 27.3002 27.0241C27.8735 26.59 28.4689 26.1857 29.084 25.8128ZM24.8017 22.5809C24.078 21.6081 23.5931 20.4798 23.3859 19.2866C23.1786 18.0934 23.2548 16.8684 23.6083 15.7098C24.4854 16.598 25.0696 17.7317 25.2828 18.9595C25.4961 20.1873 25.3282 21.4507 24.8017 22.5809Z" fill="url(#paint2_linear_75_489)"/>
<path d="M30.0723 36.2042C30.3775 36.5116 30.7006 36.8008 31.04 37.0703C31.3807 36.8007 31.7054 36.5115 32.0124 36.2042V32.3059C31.7119 32.0046 31.3867 31.7288 31.0401 31.4814C30.6947 31.7286 30.371 32.0044 30.0723 32.3059V36.2042Z" fill="url(#paint3_linear_75_489)"/>
<path d="M31.0432 44.2681C30.6792 44.5472 30.0952 45.1016 30.0723 45.127V57.0334C30.0723 57.2897 30.1745 57.5356 30.3564 57.7169C30.5383 57.8981 30.7851 58 31.0423 58C31.2996 58 31.5464 57.8981 31.7283 57.7169C31.9102 57.5356 32.0124 57.2897 32.0124 57.0334V45.1268C31.9894 45.1014 31.4076 44.5475 31.0432 44.2681Z" fill="url(#paint4_linear_75_489)"/>
<path d="M27.3052 42.407C26.5027 43.2272 25.8885 44.2113 25.5049 45.2911C25.1214 46.371 24.9776 47.5209 25.0837 48.6615C25.2157 49.6904 25.5535 50.6825 26.077 51.5791C26.6005 52.4756 27.2991 53.2585 28.1315 53.8814V51.1271C27.5195 50.3514 27.1322 49.4235 27.0115 48.4442C26.9376 47.5816 27.0521 46.7134 27.3473 45.8992C27.6425 45.0851 28.1113 44.3443 28.7214 43.728C28.9383 43.5024 29.1687 43.2901 29.4114 43.0923C28.8963 42.7292 28.3549 42.341 27.812 41.9211C27.6343 42.0813 27.4601 42.2421 27.3052 42.407Z" fill="url(#paint5_linear_75_489)"/>
<path d="M38.9206 13.8296C38.5826 13.7501 38.2294 13.7624 37.8978 13.8651C37.5661 13.9679 37.2682 14.1574 37.0351 14.4139C35.834 15.6809 35.0689 17.2961 34.8506 19.0254C34.6323 20.7547 34.9721 22.5084 35.8209 24.0324C34.699 24.8477 33.5158 25.5758 32.2818 26.2103C29.1064 27.9582 25.5072 29.9393 25.2336 34.0138C24.9918 37.6168 28.1915 39.8686 30.7625 41.6776C31.6901 42.2805 32.5601 42.967 33.3616 43.7286C33.9717 44.3449 34.4405 45.0856 34.7357 45.8998C35.0309 46.714 35.1454 47.5822 35.0715 48.4447C34.9507 49.4253 34.5634 50.3544 33.9515 51.1317V53.882C34.7839 53.2591 35.4825 52.4762 36.006 51.5796C36.5295 50.683 36.8673 49.691 36.9994 48.6621C37.1054 47.5215 36.9616 46.3715 36.5781 45.2917C36.1945 44.2118 35.5803 43.2278 34.7778 42.4075C33.8892 41.5468 32.9193 40.7735 31.8816 40.0984C29.4817 38.4097 27.0002 36.6637 27.1695 34.1427C27.3723 31.1211 30.2129 29.5577 33.2199 27.9025C34.8795 26.9893 36.5953 26.0449 37.8754 24.8147C39.1329 23.5886 40.028 22.0418 40.4629 20.3431C40.8977 18.6444 40.8556 16.8594 40.3411 15.183C40.2474 14.8514 40.0662 14.551 39.8164 14.3129C39.5665 14.0749 39.2572 13.908 38.9206 13.8296ZM37.2812 22.5811C36.7552 21.45 36.5874 20.1861 36.8003 18.9576C37.0132 17.7292 37.5967 16.5945 38.4729 15.7047C38.8273 16.864 38.904 18.0898 38.6971 19.284C38.4901 20.4781 38.0052 21.6073 37.2812 22.5811Z" fill="url(#paint6_linear_75_489)"/>
<path d="M28.134 10.9079V8.96704C25.0236 8.5423 23.3136 5.90889 22.4265 3.7565C22.2742 3.38849 22.0486 3.05506 21.7634 2.77633C21.4782 2.4976 21.1392 2.27937 20.767 2.13482C20.4003 1.99106 20.008 1.924 19.6142 1.9378C19.2205 1.95161 18.8338 2.04598 18.4782 2.21504C11.9276 5.30197 5.26255 5.9927 1.87251 6.1298C1.4976 6.14205 1.13443 6.26305 0.827539 6.47797C0.520644 6.69288 0.283366 6.99237 0.144805 7.3397C0.00283397 7.6819 -0.0358144 8.05795 0.0336004 8.42172C0.103015 8.78549 0.277475 9.12116 0.535581 9.38757C2.45741 11.4 6.82798 15.1629 12.6258 15.2134C12.7663 16.4824 13.3443 17.6636 14.2614 18.5553C15.5224 19.7984 17.3639 20.5195 19.7348 20.7213C19.5817 20.0736 19.4845 19.414 19.4442 18.7498C15.1131 18.2082 14.6186 15.6603 14.5617 15.0904C16.0529 14.8842 17.5048 14.4569 18.8692 13.8229C19.103 13.7158 19.2845 13.5206 19.3738 13.2801C19.4632 13.0397 19.453 12.7738 19.3455 12.5408C19.238 12.3079 19.0421 12.127 18.8008 12.038C18.5595 11.949 18.2926 11.9592 18.0588 12.0662C16.3784 12.8814 14.5326 13.3013 12.6637 13.2934C10.7948 13.2856 8.95258 12.8503 7.27914 12.0211C10.4002 11.8683 13.4755 11.2112 16.3851 10.0755C16.5024 10.0261 16.6089 9.95425 16.6984 9.86391C16.7879 9.77357 16.8587 9.66656 16.9066 9.54897C16.9546 9.43138 16.9789 9.30553 16.9781 9.1786C16.9773 9.05166 16.9513 8.92614 16.9018 8.80918C16.8523 8.69222 16.7802 8.58613 16.6895 8.49696C16.5988 8.40778 16.4914 8.33728 16.3734 8.28946C16.2554 8.24165 16.1291 8.21746 16.0017 8.21829C15.8743 8.21911 15.7484 8.24493 15.631 8.29426C10.638 10.3924 4.7652 10.1576 4.26464 10.151C3.44173 9.51364 2.66836 8.81516 1.95114 8.06157C5.48852 7.91833 12.447 7.19575 19.3078 3.96274C19.4292 3.90841 19.5603 3.87899 19.6934 3.87624C19.8264 3.87348 19.9587 3.89746 20.0822 3.94672C20.2058 3.99598 20.3181 4.06953 20.4125 4.16298C20.5069 4.25642 20.5815 4.36786 20.6317 4.49063C23.1003 10.7579 28.0961 10.9079 28.134 10.9079Z" fill="url(#paint7_linear_75_489)"/>
<path d="M33.9502 10.9079V8.96704C37.0606 8.5423 38.7706 5.90889 39.6577 3.7565C39.81 3.38849 40.0355 3.05506 40.3208 2.77633C40.606 2.4976 40.945 2.27937 41.3172 2.13482C41.6838 1.99106 42.0762 1.924 42.4699 1.9378C42.8637 1.95161 43.2504 2.04598 43.606 2.21504C50.1566 5.30196 56.8216 5.99269 60.2117 6.12979C60.5842 6.14337 60.9449 6.26371 61.2506 6.47638C61.5562 6.68906 61.7939 6.98505 61.935 7.32889C62.0761 7.67272 62.1147 8.0498 62.0461 8.41494C61.9776 8.78007 61.8049 9.11777 61.5486 9.38756C59.6268 11.4 55.2562 15.1629 49.4583 15.2133C49.3179 16.4824 48.7398 17.6636 47.8228 18.5553C46.5618 19.7984 44.7203 20.5195 42.3493 20.7213C42.5025 20.0736 42.5997 19.414 42.64 18.7498C46.971 18.2082 47.4656 15.6603 47.5225 15.0904C46.0313 14.8842 44.5794 14.4569 43.2149 13.8229C42.9812 13.7158 42.7996 13.5206 42.7103 13.2801C42.621 13.0397 42.6312 12.7737 42.7387 12.5408C42.8461 12.3078 43.0421 12.127 43.2834 12.038C43.5247 11.949 43.7916 11.9591 44.0254 12.0662C45.7058 12.8814 47.5516 13.3012 49.4205 13.2934C51.2894 13.2856 53.1316 12.8503 54.805 12.0211C51.684 11.8683 48.6086 11.2112 45.6991 10.0755C45.5817 10.0261 45.4753 9.95424 45.3858 9.8639C45.2963 9.77356 45.2255 9.66655 45.1775 9.54896C45.0806 9.31148 45.0823 9.04537 45.1823 8.80917C45.2823 8.57297 45.4724 8.38602 45.7107 8.28945C45.9491 8.19289 46.2161 8.19461 46.4532 8.29425C51.4461 10.3924 57.319 10.1576 57.8195 10.151C58.6424 9.51364 59.4158 8.81516 60.133 8.06157C56.5956 7.91833 49.6372 7.19575 42.7763 3.96274C42.6549 3.90841 42.5238 3.87899 42.3908 3.87624C42.2577 3.87348 42.1255 3.89745 42.0019 3.94672C41.8784 3.99598 41.7661 4.06953 41.6716 4.16298C41.5772 4.25642 41.5027 4.36786 41.4524 4.49063C38.9839 10.7579 33.988 10.9079 33.9502 10.9079Z" fill="url(#paint8_linear_75_489)"/>
<defs>
<linearGradient id="paint0_linear_75_489" x1="27.1611" y1="12.343" x2="36.6735" y2="12.3639" gradientUnits="userSpaceOnUse">
<stop stop-color="#0499AB"/>
<stop offset="1" stop-color="#06646F" stop-opacity="0.6"/>
</linearGradient>
<linearGradient id="paint1_linear_75_489" x1="32.6416" y1="34.3976" x2="37.8157" y2="34.4129" gradientUnits="userSpaceOnUse">
<stop stop-color="#0499AB"/>
<stop offset="1" stop-color="#06646F" stop-opacity="0.6"/>
</linearGradient>
<linearGradient id="paint2_linear_75_489" x1="21.3223" y1="20.4008" x2="30.8358" y2="20.4399" gradientUnits="userSpaceOnUse">
<stop stop-color="#0499AB"/>
<stop offset="1" stop-color="#06646F" stop-opacity="0.6"/>
</linearGradient>
<linearGradient id="paint3_linear_75_489" x1="30.0723" y1="34.2759" x2="32.4503" y2="34.2817" gradientUnits="userSpaceOnUse">
<stop stop-color="#0499AB"/>
<stop offset="1" stop-color="#06646F" stop-opacity="0.6"/>
</linearGradient>
<linearGradient id="paint4_linear_75_489" x1="30.0723" y1="51.134" x2="32.4504" y2="51.1364" gradientUnits="userSpaceOnUse">
<stop stop-color="#0499AB"/>
<stop offset="1" stop-color="#06646F" stop-opacity="0.6"/>
</linearGradient>
<linearGradient id="paint5_linear_75_489" x1="25.0498" y1="47.9013" x2="30.3958" y2="47.915" gradientUnits="userSpaceOnUse">
<stop stop-color="#0499AB"/>
<stop offset="1" stop-color="#06646F" stop-opacity="0.6"/>
</linearGradient>
<linearGradient id="paint6_linear_75_489" x1="25.2207" y1="33.8299" x2="44.2683" y2="33.8816" gradientUnits="userSpaceOnUse">
<stop stop-color="#0499AB"/>
<stop offset="1" stop-color="#06646F" stop-opacity="0.6"/>
</linearGradient>
<linearGradient id="paint7_linear_75_489" x1="0" y1="11.3287" x2="34.4807" y2="11.6904" gradientUnits="userSpaceOnUse">
<stop stop-color="#0499AB"/>
<stop offset="1" stop-color="#06646F" stop-opacity="0.6"/>
</linearGradient>
<linearGradient id="paint8_linear_75_489" x1="33.9502" y1="11.3286" x2="68.4248" y2="11.6903" gradientUnits="userSpaceOnUse">
<stop stop-color="#0499AB"/>
<stop offset="1" stop-color="#06646F" stop-opacity="0.6"/>
</linearGradient>
</defs>
</svg>
