<svg width="74" height="104" viewBox="0 0 74 104" fill="none" xmlns="http://www.w3.org/2000/svg">
<mask id="path-1-inside-1_6154_274" fill="white">
<path d="M62.8873 103.5C58.229 105.264 47.8704 101.184 35.8713 96.4534C33.0452 95.3383 30.1232 94.1864 27.1055 93.0467C27.0576 93.0345 27.0097 93.01 26.9738 92.9977L26.842 92.9487L26.2193 92.7159C25.9439 92.6056 25.6565 92.4953 25.3811 92.385C25.2973 92.3482 25.2254 92.3115 25.1416 92.2747C25.0577 92.2379 24.9739 92.2012 24.8901 92.1644C24.8422 92.1399 24.8063 92.1276 24.7584 92.1031C24.6626 92.0664 24.5668 92.0174 24.471 91.9683C24.3752 91.9193 24.2794 91.8826 24.1836 91.8335C24.1596 91.8213 24.1476 91.8213 24.1237 91.809C24.0159 91.76 23.9081 91.6987 23.8004 91.6497C23.7405 91.6252 23.6926 91.5885 23.6327 91.564C23.5728 91.5272 23.5129 91.5027 23.4411 91.4659C23.3573 91.4292 23.2734 91.3801 23.2016 91.3311C23.1417 91.2944 23.0699 91.2576 23.01 91.2208C22.9381 91.1841 22.8663 91.1473 22.7944 91.0983C22.7226 91.0615 22.6627 91.0248 22.5909 90.9757C22.5549 90.9512 22.507 90.9267 22.4711 90.9022C22.3753 90.8409 22.2795 90.7919 22.1717 90.7307C22.04 90.6571 21.9203 90.5714 21.7885 90.4978C21.537 90.3385 21.2856 90.167 21.0341 89.9954C20.9503 89.9341 20.8784 89.8851 20.7946 89.8238C20.6988 89.7503 20.591 89.6768 20.4952 89.6033C20.4114 89.542 20.3395 89.493 20.2557 89.4317C20.1839 89.3827 20.124 89.3337 20.0521 89.2846C20.0042 89.2479 19.9563 89.2111 19.9084 89.1744C19.8246 89.1131 19.7408 89.0518 19.6569 88.9783C19.621 88.9538 19.5851 88.9293 19.5611 88.8925C19.4893 88.8312 19.4055 88.77 19.3336 88.7087C19.2737 88.6597 19.2258 88.6107 19.166 88.5739C19.1061 88.5249 19.0462 88.4636 18.9744 88.4146C18.9265 88.3778 18.8786 88.3288 18.8307 88.292C18.7468 88.2185 18.663 88.145 18.5792 88.0715C18.4714 87.9734 18.3517 87.8754 18.2439 87.7651C17.9205 87.4588 17.5972 87.1524 17.2859 86.8215C17.1781 86.7112 17.0823 86.601 16.9745 86.5029C16.8787 86.4049 16.7949 86.3068 16.6991 86.2088C16.6871 86.1966 16.6632 86.172 16.6512 86.1598C16.5913 86.0985 16.5314 86.0373 16.4835 85.9637C16.4236 85.9025 16.3757 85.8412 16.3159 85.7799C16.268 85.7186 16.2081 85.6574 16.1602 85.5961C16.1482 85.5838 16.1362 85.5716 16.1243 85.5471C16.6751 84.7873 17.9924 83.5251 20.2677 84.3094C21.7287 84.8118 22.531 85.7431 23.3812 86.748C24.5668 88.145 25.92 89.7258 28.8898 89.7258C29.0335 89.7258 29.1772 89.7258 29.3209 89.7135L29.2012 87.2627C27.0816 87.3607 26.3271 86.4784 25.1775 85.1427C24.2554 84.052 23.0938 82.7041 21.0221 81.9933C18.0163 80.964 15.8369 82.2262 14.6034 83.5864C14.4477 83.3658 14.304 83.1575 14.1603 82.9369C14.0526 82.7653 13.9448 82.606 13.837 82.4345C13.7891 82.361 13.7532 82.2997 13.7053 82.2262C13.6933 82.2139 13.6933 82.2016 13.6813 82.1894C13.6095 82.0791 13.5376 81.9566 13.4778 81.8463C13.3101 81.5522 13.1425 81.2581 12.9748 80.9517C12.9149 80.8414 12.8551 80.7311 12.8072 80.6208C12.7952 80.5963 12.7832 80.5841 12.7712 80.5596C12.7233 80.4615 12.6754 80.3757 12.6275 80.2777C12.6036 80.2287 12.5796 80.1674 12.5437 80.1184C12.4958 80.0204 12.4479 79.9346 12.412 79.8366C12.4 79.812 12.388 79.7753 12.376 79.7508C12.3162 79.6405 12.2683 79.5302 12.2204 79.4077C12.1485 79.2484 12.0767 79.089 12.0048 78.9297C11.9449 78.7949 11.8851 78.6479 11.8252 78.5131C11.7773 78.4028 11.7414 78.2925 11.6935 78.1945C11.6575 78.1087 11.6216 78.0107 11.5857 77.9249C11.5138 77.7411 11.442 77.5573 11.3701 77.3612C11.3462 77.2877 11.3103 77.2019 11.2863 77.1284C11.2743 77.0916 11.2504 77.0426 11.2384 76.9936C11.2025 76.8955 11.1666 76.7975 11.1306 76.6872C11.0827 76.5647 11.0468 76.4299 11.0109 76.3073C10.9749 76.1848 10.927 76.05 10.8911 75.9274C10.8672 75.8294 10.8312 75.7436 10.8073 75.6456C10.7953 75.5966 10.7833 75.5598 10.7714 75.5108C10.7474 75.425 10.7235 75.327 10.6995 75.2412C10.6875 75.2044 10.6756 75.1554 10.6636 75.1186C10.6396 75.0206 10.6157 74.9348 10.5917 74.8368C10.5798 74.7878 10.5678 74.751 10.5558 74.702C10.5319 74.604 10.5079 74.5059 10.484 74.4079C10.472 74.3711 10.46 74.3344 10.46 74.2854C10.4361 74.1873 10.4121 74.1015 10.3882 74.0035C10.2924 73.5991 10.2085 73.1825 10.1367 72.7781C10.1127 72.6433 10.0888 72.5085 10.0648 72.3737C10.0409 72.2634 10.0289 72.1653 10.0169 72.0551C10.005 71.9815 9.99299 71.9203 9.98101 71.8467C9.96903 71.7977 9.96903 71.7487 9.95706 71.6997C9.94508 71.6016 9.92113 71.4914 9.90916 71.3811C9.89718 71.3198 9.89719 71.2585 9.88521 71.1973C9.84928 70.9154 9.81336 70.6213 9.78941 70.3272C9.52595 67.4597 9.72953 64.6535 10.3403 61.9943C11.418 63.1952 12.867 65.1436 13.5975 67.4965C15.1064 72.3982 18.4475 75.1799 22.6986 75.1799C23.1896 75.1799 23.6926 75.1432 24.1955 75.0696L23.8602 72.6433C18.5433 73.4275 16.5075 68.7954 15.8848 66.7612C14.7711 63.1339 12.2802 60.4257 11.1187 59.3106C12.2802 56.0019 14.1244 52.9628 16.5793 50.3281C16.8428 52.779 17.693 56.2837 20.3515 58.367C22.519 60.0703 24.4829 60.2296 25.92 60.3522C27.345 60.4747 27.7641 60.5482 28.1473 61.3938L30.3268 60.3644C29.3449 58.1832 27.6324 58.0361 26.1116 57.9136C24.7823 57.8033 23.4172 57.693 21.8005 56.4308C19.0103 54.2495 18.8426 49.5439 18.8546 48.1469C19.9923 47.1788 21.2257 46.2842 22.5549 45.4754C23.1657 45.1078 23.7884 44.7524 24.4231 44.4216L24.6985 44.2745C24.8063 44.2255 24.914 44.1642 25.0098 44.1152C25.3332 43.9559 25.6565 43.7966 25.9918 43.6495C26.2193 43.5392 26.4469 43.4412 26.6744 43.3432C27.0097 43.1961 27.357 43.0491 27.6803 42.9265C28.7102 42.5221 29.7161 42.179 30.6981 41.9094C30.8657 41.8604 31.0334 41.8236 31.201 41.7746C31.8596 41.6031 32.5063 41.4683 33.141 41.3702C33.3446 41.3335 33.5481 41.309 33.7517 41.2844C33.9553 41.2599 34.1589 41.2354 34.3505 41.2109C34.5541 41.1864 34.7457 41.1742 34.9492 41.1619C35.9192 41.1006 36.8653 41.1129 37.7754 41.2109C37.9071 41.2232 38.0508 41.2354 38.1825 41.2599C38.3861 41.2844 38.5777 41.3212 38.7813 41.3457C38.913 41.3702 39.0447 41.3947 39.1765 41.4192C39.2124 41.4192 39.2363 41.4315 39.2723 41.4438L39.3681 41.4683C42.9127 42.2403 46.0023 44.3235 48.553 47.669C49.2236 48.5513 49.8224 49.4703 50.3373 50.3772C49.6428 50.8796 48.7566 51.6516 47.9662 52.7177C47.0322 53.9677 46.1101 55.8058 45.9065 58.2689C45.3437 60.4135 44.0983 63.7466 42.0146 64.9476C40.2183 65.9769 37.0688 68.244 36.1587 71.7977C35.6198 73.93 35.9911 76.099 37.2724 78.2557L39.3202 76.9813C38.3861 75.4128 38.1107 73.881 38.4819 72.4227C39.1884 69.6532 42.0146 67.766 43.1881 67.0921C44.6012 66.2833 45.667 64.9108 46.4693 63.4525C47.4154 66.8225 48.4692 68.8322 49.4991 70.3885C49.2715 71.957 48.4333 76.4789 46.2658 78.8685C42.9247 82.557 43.9546 88.145 45.6191 89.8483L47.3076 88.1082C46.625 87.4097 45.5353 83.2678 48.0141 80.5351C49.8583 78.5008 50.8762 75.4127 51.4151 73.1089C52.3132 74.4569 53.0198 75.9397 53.4269 78.7214C53.87 81.7115 53.1395 83.5619 52.4809 85.1917C51.5588 87.52 50.6846 89.7136 54.2772 92.9119L55.8459 91.0615C53.5467 89.015 53.858 88.2308 54.6963 86.123C54.7202 86.0618 54.7442 85.9882 54.7801 85.927C54.8759 86.074 54.9717 86.2211 55.0675 86.3681C56.5045 88.5126 58.1332 89.7258 59.8935 89.9586L60.2049 87.5323C58.0733 87.2382 56.3369 84.003 55.7741 82.6305C55.9776 81.4296 56.0375 80.0326 55.798 78.366C55.1753 74.1628 53.87 72.3614 52.4929 70.462C51.6546 69.3101 50.8044 68.1337 49.99 66.2833C51.93 67.4965 54.6244 68.8567 57.7619 69.5429C63.0909 70.7071 63.6178 73.7339 64.0369 76.1603L64.0848 76.4544L66.4439 76.0132L66.396 75.7314C65.941 73.0844 65.1626 68.6606 58.2649 67.1533C53.4509 66.0995 49.6547 63.1707 48.6488 62.3251C48.3015 60.9404 48.2057 59.715 48.2776 58.6488C48.3135 58.2199 48.3614 57.8033 48.4453 57.4111C48.9602 54.9358 50.4092 53.404 51.463 52.5829C53.0317 55.9651 53.6185 58.8081 53.6425 58.8817L54.816 58.6366L54.373 58.7346L55.9896 58.3915C55.9417 58.1587 54.9717 53.4285 52.1097 48.6493C56.1692 49.6419 60.0612 51.7374 63.3783 54.7274L63.4382 54.7765C69.294 60.0703 72.7069 67.4229 73.0782 75.4863C73.8206 90.8777 66.1685 102.25 62.8873 103.5Z"/>
</mask>
<path d="M62.8873 103.5C58.229 105.264 47.8704 101.184 35.8713 96.4534C33.0452 95.3383 30.1232 94.1864 27.1055 93.0467C27.0576 93.0345 27.0097 93.01 26.9738 92.9977L26.842 92.9487L26.2193 92.7159C25.9439 92.6056 25.6565 92.4953 25.3811 92.385C25.2973 92.3482 25.2254 92.3115 25.1416 92.2747C25.0577 92.2379 24.9739 92.2012 24.8901 92.1644C24.8422 92.1399 24.8063 92.1276 24.7584 92.1031C24.6626 92.0664 24.5668 92.0174 24.471 91.9683C24.3752 91.9193 24.2794 91.8826 24.1836 91.8335C24.1596 91.8213 24.1476 91.8213 24.1237 91.809C24.0159 91.76 23.9081 91.6987 23.8004 91.6497C23.7405 91.6252 23.6926 91.5885 23.6327 91.564C23.5728 91.5272 23.5129 91.5027 23.4411 91.4659C23.3573 91.4292 23.2734 91.3801 23.2016 91.3311C23.1417 91.2944 23.0699 91.2576 23.01 91.2208C22.9381 91.1841 22.8663 91.1473 22.7944 91.0983C22.7226 91.0615 22.6627 91.0248 22.5909 90.9757C22.5549 90.9512 22.507 90.9267 22.4711 90.9022C22.3753 90.8409 22.2795 90.7919 22.1717 90.7307C22.04 90.6571 21.9203 90.5714 21.7885 90.4978C21.537 90.3385 21.2856 90.167 21.0341 89.9954C20.9503 89.9341 20.8784 89.8851 20.7946 89.8238C20.6988 89.7503 20.591 89.6768 20.4952 89.6033C20.4114 89.542 20.3395 89.493 20.2557 89.4317C20.1839 89.3827 20.124 89.3337 20.0521 89.2846C20.0042 89.2479 19.9563 89.2111 19.9084 89.1744C19.8246 89.1131 19.7408 89.0518 19.6569 88.9783C19.621 88.9538 19.5851 88.9293 19.5611 88.8925C19.4893 88.8312 19.4055 88.77 19.3336 88.7087C19.2737 88.6597 19.2258 88.6107 19.166 88.5739C19.1061 88.5249 19.0462 88.4636 18.9744 88.4146C18.9265 88.3778 18.8786 88.3288 18.8307 88.292C18.7468 88.2185 18.663 88.145 18.5792 88.0715C18.4714 87.9734 18.3517 87.8754 18.2439 87.7651C17.9205 87.4588 17.5972 87.1524 17.2859 86.8215C17.1781 86.7112 17.0823 86.601 16.9745 86.5029C16.8787 86.4049 16.7949 86.3068 16.6991 86.2088C16.6871 86.1966 16.6632 86.172 16.6512 86.1598C16.5913 86.0985 16.5314 86.0373 16.4835 85.9637C16.4236 85.9025 16.3757 85.8412 16.3159 85.7799C16.268 85.7186 16.2081 85.6574 16.1602 85.5961C16.1482 85.5838 16.1362 85.5716 16.1243 85.5471C16.6751 84.7873 17.9924 83.5251 20.2677 84.3094C21.7287 84.8118 22.531 85.7431 23.3812 86.748C24.5668 88.145 25.92 89.7258 28.8898 89.7258C29.0335 89.7258 29.1772 89.7258 29.3209 89.7135L29.2012 87.2627C27.0816 87.3607 26.3271 86.4784 25.1775 85.1427C24.2554 84.052 23.0938 82.7041 21.0221 81.9933C18.0163 80.964 15.8369 82.2262 14.6034 83.5864C14.4477 83.3658 14.304 83.1575 14.1603 82.9369C14.0526 82.7653 13.9448 82.606 13.837 82.4345C13.7891 82.361 13.7532 82.2997 13.7053 82.2262C13.6933 82.2139 13.6933 82.2016 13.6813 82.1894C13.6095 82.0791 13.5376 81.9566 13.4778 81.8463C13.3101 81.5522 13.1425 81.2581 12.9748 80.9517C12.9149 80.8414 12.8551 80.7311 12.8072 80.6208C12.7952 80.5963 12.7832 80.5841 12.7712 80.5596C12.7233 80.4615 12.6754 80.3757 12.6275 80.2777C12.6036 80.2287 12.5796 80.1674 12.5437 80.1184C12.4958 80.0204 12.4479 79.9346 12.412 79.8366C12.4 79.812 12.388 79.7753 12.376 79.7508C12.3162 79.6405 12.2683 79.5302 12.2204 79.4077C12.1485 79.2484 12.0767 79.089 12.0048 78.9297C11.9449 78.7949 11.8851 78.6479 11.8252 78.5131C11.7773 78.4028 11.7414 78.2925 11.6935 78.1945C11.6575 78.1087 11.6216 78.0107 11.5857 77.9249C11.5138 77.7411 11.442 77.5573 11.3701 77.3612C11.3462 77.2877 11.3103 77.2019 11.2863 77.1284C11.2743 77.0916 11.2504 77.0426 11.2384 76.9936C11.2025 76.8955 11.1666 76.7975 11.1306 76.6872C11.0827 76.5647 11.0468 76.4299 11.0109 76.3073C10.9749 76.1848 10.927 76.05 10.8911 75.9274C10.8672 75.8294 10.8312 75.7436 10.8073 75.6456C10.7953 75.5966 10.7833 75.5598 10.7714 75.5108C10.7474 75.425 10.7235 75.327 10.6995 75.2412C10.6875 75.2044 10.6756 75.1554 10.6636 75.1186C10.6396 75.0206 10.6157 74.9348 10.5917 74.8368C10.5798 74.7878 10.5678 74.751 10.5558 74.702C10.5319 74.604 10.5079 74.5059 10.484 74.4079C10.472 74.3711 10.46 74.3344 10.46 74.2854C10.4361 74.1873 10.4121 74.1015 10.3882 74.0035C10.2924 73.5991 10.2085 73.1825 10.1367 72.7781C10.1127 72.6433 10.0888 72.5085 10.0648 72.3737C10.0409 72.2634 10.0289 72.1653 10.0169 72.0551C10.005 71.9815 9.99299 71.9203 9.98101 71.8467C9.96903 71.7977 9.96903 71.7487 9.95706 71.6997C9.94508 71.6016 9.92113 71.4914 9.90916 71.3811C9.89718 71.3198 9.89719 71.2585 9.88521 71.1973C9.84928 70.9154 9.81336 70.6213 9.78941 70.3272C9.52595 67.4597 9.72953 64.6535 10.3403 61.9943C11.418 63.1952 12.867 65.1436 13.5975 67.4965C15.1064 72.3982 18.4475 75.1799 22.6986 75.1799C23.1896 75.1799 23.6926 75.1432 24.1955 75.0696L23.8602 72.6433C18.5433 73.4275 16.5075 68.7954 15.8848 66.7612C14.7711 63.1339 12.2802 60.4257 11.1187 59.3106C12.2802 56.0019 14.1244 52.9628 16.5793 50.3281C16.8428 52.779 17.693 56.2837 20.3515 58.367C22.519 60.0703 24.4829 60.2296 25.92 60.3522C27.345 60.4747 27.7641 60.5482 28.1473 61.3938L30.3268 60.3644C29.3449 58.1832 27.6324 58.0361 26.1116 57.9136C24.7823 57.8033 23.4172 57.693 21.8005 56.4308C19.0103 54.2495 18.8426 49.5439 18.8546 48.1469C19.9923 47.1788 21.2257 46.2842 22.5549 45.4754C23.1657 45.1078 23.7884 44.7524 24.4231 44.4216L24.6985 44.2745C24.8063 44.2255 24.914 44.1642 25.0098 44.1152C25.3332 43.9559 25.6565 43.7966 25.9918 43.6495C26.2193 43.5392 26.4469 43.4412 26.6744 43.3432C27.0097 43.1961 27.357 43.0491 27.6803 42.9265C28.7102 42.5221 29.7161 42.179 30.6981 41.9094C30.8657 41.8604 31.0334 41.8236 31.201 41.7746C31.8596 41.6031 32.5063 41.4683 33.141 41.3702C33.3446 41.3335 33.5481 41.309 33.7517 41.2844C33.9553 41.2599 34.1589 41.2354 34.3505 41.2109C34.5541 41.1864 34.7457 41.1742 34.9492 41.1619C35.9192 41.1006 36.8653 41.1129 37.7754 41.2109C37.9071 41.2232 38.0508 41.2354 38.1825 41.2599C38.3861 41.2844 38.5777 41.3212 38.7813 41.3457C38.913 41.3702 39.0447 41.3947 39.1765 41.4192C39.2124 41.4192 39.2363 41.4315 39.2723 41.4438L39.3681 41.4683C42.9127 42.2403 46.0023 44.3235 48.553 47.669C49.2236 48.5513 49.8224 49.4703 50.3373 50.3772C49.6428 50.8796 48.7566 51.6516 47.9662 52.7177C47.0322 53.9677 46.1101 55.8058 45.9065 58.2689C45.3437 60.4135 44.0983 63.7466 42.0146 64.9476C40.2183 65.9769 37.0688 68.244 36.1587 71.7977C35.6198 73.93 35.9911 76.099 37.2724 78.2557L39.3202 76.9813C38.3861 75.4128 38.1107 73.881 38.4819 72.4227C39.1884 69.6532 42.0146 67.766 43.1881 67.0921C44.6012 66.2833 45.667 64.9108 46.4693 63.4525C47.4154 66.8225 48.4692 68.8322 49.4991 70.3885C49.2715 71.957 48.4333 76.4789 46.2658 78.8685C42.9247 82.557 43.9546 88.145 45.6191 89.8483L47.3076 88.1082C46.625 87.4097 45.5353 83.2678 48.0141 80.5351C49.8583 78.5008 50.8762 75.4127 51.4151 73.1089C52.3132 74.4569 53.0198 75.9397 53.4269 78.7214C53.87 81.7115 53.1395 83.5619 52.4809 85.1917C51.5588 87.52 50.6846 89.7136 54.2772 92.9119L55.8459 91.0615C53.5467 89.015 53.858 88.2308 54.6963 86.123C54.7202 86.0618 54.7442 85.9882 54.7801 85.927C54.8759 86.074 54.9717 86.2211 55.0675 86.3681C56.5045 88.5126 58.1332 89.7258 59.8935 89.9586L60.2049 87.5323C58.0733 87.2382 56.3369 84.003 55.7741 82.6305C55.9776 81.4296 56.0375 80.0326 55.798 78.366C55.1753 74.1628 53.87 72.3614 52.4929 70.462C51.6546 69.3101 50.8044 68.1337 49.99 66.2833C51.93 67.4965 54.6244 68.8567 57.7619 69.5429C63.0909 70.7071 63.6178 73.7339 64.0369 76.1603L64.0848 76.4544L66.4439 76.0132L66.396 75.7314C65.941 73.0844 65.1626 68.6606 58.2649 67.1533C53.4509 66.0995 49.6547 63.1707 48.6488 62.3251C48.3015 60.9404 48.2057 59.715 48.2776 58.6488C48.3135 58.2199 48.3614 57.8033 48.4453 57.4111C48.9602 54.9358 50.4092 53.404 51.463 52.5829C53.0317 55.9651 53.6185 58.8081 53.6425 58.8817L54.816 58.6366L54.373 58.7346L55.9896 58.3915C55.9417 58.1587 54.9717 53.4285 52.1097 48.6493C56.1692 49.6419 60.0612 51.7374 63.3783 54.7274L63.4382 54.7765C69.294 60.0703 72.7069 67.4229 73.0782 75.4863C73.8206 90.8777 66.1685 102.25 62.8873 103.5Z" stroke="white" stroke-width="4" mask="url(#path-1-inside-1_6154_274)"/>
<path d="M18.4199 1.51172V1.51562C18.1921 4.45999 17.8979 8.5393 17.7041 12.3604C17.5129 16.1312 17.4141 19.7295 17.5908 21.7197C17.7146 25.9438 18.3378 30.0032 19.4512 33.7969L19.4521 33.8008C19.5406 34.0983 19.6162 34.3389 19.6816 34.5957L19.6895 34.627C19.7847 34.956 19.8803 35.2852 19.9756 35.6143V35.6152C20.0602 35.9121 20.1402 36.1932 20.208 36.459L20.21 36.4658L20.2119 36.4736C20.3953 37.1492 20.5706 37.7688 20.7373 38.4023L20.7393 38.4102L20.7412 38.4189C21.0932 39.6696 21.4041 40.8802 21.6826 42.0303C21.6659 42.0402 21.6505 42.0505 21.6348 42.0596C21.5712 42.093 21.5236 42.1239 21.4961 42.1445C21.2734 42.2738 21.0234 42.4293 20.8711 42.5195L20.8643 42.5234L20.8584 42.5273C15.607 45.7441 11.6485 50.014 9.15137 55.2256C6.87847 59.9536 5.95114 65.2945 6.43359 70.6621L6.43457 70.6699C6.44029 70.7285 6.44612 70.7907 6.45215 70.8555C6.45809 70.9193 6.46446 70.9859 6.4707 71.0498L6.47266 71.0703L6.47559 71.0908C6.47569 71.0917 6.47588 71.0956 6.47656 71.1035C6.4775 71.1144 6.47797 71.1279 6.47949 71.1504C6.48206 71.1885 6.48697 71.2579 6.49609 71.335V71.3359C6.51676 71.5157 6.54195 71.7442 6.57812 71.9678H6.5791C6.59043 72.072 6.60644 72.1956 6.63477 72.3379V72.3389C6.64613 72.4086 6.65689 72.4824 6.66895 72.5596C6.6808 72.6354 6.69351 72.7149 6.70605 72.792L6.70703 72.791C6.72619 72.9386 6.75536 73.0835 6.77148 73.166C6.7872 73.2576 6.80428 73.362 6.82422 73.4717L6.89844 73.8359C6.90681 73.8823 6.91305 73.9218 6.91797 73.9453C6.92274 73.9681 6.92547 73.9814 6.92773 73.9932C6.92969 74.0033 6.93066 74.0078 6.93066 74.0078L6.93164 74.0186L6.93359 74.0303C6.946 74.1064 6.96484 74.1972 6.99512 74.3047C6.9972 74.3172 7.0014 74.3375 7.00586 74.3594C7.00826 74.3712 7.01211 74.3846 7.01562 74.3994V74.4004C7.02756 74.4554 7.03885 74.5105 7.05078 74.5654C7.06273 74.6205 7.07496 74.6754 7.08691 74.7305L7.08887 74.7383C7.1079 74.8227 7.12672 74.9036 7.14453 74.9795C7.16261 75.0566 7.17943 75.1293 7.19629 75.2041V75.2031C7.2319 75.375 7.28448 75.5388 7.30859 75.6211L7.3125 75.6348L7.31738 75.6494C7.31583 75.6447 7.31414 75.641 7.31348 75.6387C7.31517 75.6455 7.31743 75.6544 7.32227 75.6758C7.32632 75.6937 7.33379 75.7247 7.3418 75.7568C7.34692 75.7774 7.3544 75.8018 7.3623 75.8291L7.36133 75.8301C7.38102 75.904 7.40121 75.9736 7.41895 76.0371C7.43503 76.0947 7.44947 76.1477 7.46387 76.2012V76.2021C7.48861 76.3034 7.51719 76.3969 7.53711 76.4639C7.55909 76.5378 7.57283 76.5852 7.58398 76.6309L7.60938 76.7354L7.61523 76.748C7.61947 76.7624 7.62412 76.7782 7.62988 76.7949C7.63045 76.7966 7.63125 76.7981 7.63184 76.7998C7.64585 76.8432 7.66076 76.8903 7.67773 76.9453C7.69227 76.9924 7.7085 77.0463 7.72559 77.0996C7.74992 77.1945 7.78007 77.2769 7.7998 77.3281C7.8082 77.3541 7.81696 77.3815 7.82617 77.4111C4.233 74.0733 2.03692 69.4912 1.28613 63.6484L1.20312 62.9424C0.527471 56.5388 1.53664 48.6893 4.25684 39.5605C6.10632 33.3527 6.49085 24.9819 5.45508 14.7275C4.97593 9.97355 4.27993 5.86557 3.82715 3.44043L18.4463 1.18164L18.4199 1.51172Z" stroke="white" stroke-width="2"/>
<path d="M15.9788 90.3405C16.2058 90.5521 16.4506 90.7783 16.6976 90.9889C16.7334 91.0194 16.7692 91.0502 16.805 91.0807L16.9134 91.1725C16.9284 91.1861 16.9413 91.1994 16.9534 91.2096C16.9803 91.2324 17.0055 91.2533 17.0169 91.2624C17.0179 91.2631 17.019 91.2636 17.0198 91.2643L17.0228 91.2672L17.0452 91.2868C17.1243 91.3587 17.2042 91.4227 17.2571 91.4655C17.3177 91.5144 17.3517 91.5421 17.3802 91.568L17.3997 91.5856L17.4193 91.6022C17.5164 91.6817 17.6285 91.7706 17.7503 91.8639L17.7767 91.8913L17.8255 91.9294C17.8956 91.9852 17.9641 92.0356 18.0159 92.0739C18.0717 92.1151 18.1112 92.1446 18.1487 92.1745L18.1614 92.1852L18.1741 92.195C18.4317 92.3866 18.7131 92.595 19.0101 92.7936V92.7946C19.026 92.8055 19.0309 92.8095 19.0902 92.8532C19.1215 92.8763 19.168 92.9061 19.222 92.9411C19.2736 92.9789 19.3177 93.0086 19.3343 93.0192C19.3388 93.0221 19.3424 93.0243 19.345 93.026L19.3587 93.0358L19.3812 93.0514C19.4274 93.0829 19.3932 93.0608 19.4749 93.1178C19.5094 93.1419 19.5589 93.1731 19.6185 93.2077C19.6737 93.2447 19.7279 93.2806 19.7737 93.3102C19.8326 93.3482 19.8785 93.3784 19.9202 93.4069L19.9398 93.4206L19.9603 93.4333C20.0087 93.463 20.0565 93.4934 20.1146 93.5309C20.1701 93.5668 20.2366 93.6102 20.3079 93.654L20.3167 93.6598L20.3265 93.6647C20.403 93.7095 20.4794 93.7547 20.556 93.7995C20.583 93.8175 20.6194 93.8399 20.6624 93.8649H20.6634C20.722 93.9024 20.7795 93.9373 20.8382 93.9713L21.0228 94.0719C21.1116 94.1224 21.2132 94.1796 21.3255 94.2379V94.2389C21.4572 94.3124 21.5893 94.3851 21.721 94.4586L21.7366 94.4684L21.7532 94.4762C21.8159 94.5083 21.8768 94.5415 21.9466 94.5788C21.9855 94.5995 22.0278 94.6211 22.0716 94.6442L22.0745 94.6471L22.1937 94.7077C22.2019 94.7117 22.2089 94.717 22.2161 94.7204C22.2202 94.7223 22.2249 94.7235 22.2288 94.7253C22.3664 94.7956 22.5243 94.8767 22.6732 94.946C22.8047 95.0071 22.9362 95.0684 23.0677 95.1295V95.1286C23.1067 95.1475 23.1379 95.1627 23.1536 95.1696C23.1755 95.1792 23.172 95.1774 23.1663 95.1745C23.2555 95.2201 23.3563 95.2668 23.4632 95.3131C23.4301 95.9478 23.4118 96.7141 23.43 97.5368H16.1253C16.1866 94.9283 16.11 92.4675 15.9788 90.3405Z" stroke="white" stroke-width="2"/>
<mask id="path-4-inside-2_6154_274" fill="white">
<path d="M52.4939 23.626C52.4699 23.626 52.446 23.626 52.422 23.626C52.2783 23.6137 52.1226 23.6014 51.9789 23.5892C51.7993 23.5769 51.6197 23.5524 51.4401 23.5402C51.0808 23.5157 50.7215 23.4789 50.3623 23.4544C50.3503 23.4544 50.3264 23.4544 50.3144 23.4544C50.027 23.4299 49.7396 23.4176 49.4402 23.4054C49.3803 23.4054 49.3205 23.4054 49.2606 23.3931C48.554 23.3564 47.8475 23.3319 47.141 23.3196C46.9613 23.3196 46.7817 23.3073 46.6021 23.3073C46.4225 23.3073 46.2428 23.3073 46.0632 23.3073C45.8836 23.3073 45.7159 23.3073 45.5363 23.3073H45.5243C45.3447 23.3073 45.177 23.3073 44.9974 23.3073C44.6861 23.3073 44.3747 23.3073 44.0753 23.3196C43.9436 23.3196 43.8119 23.3196 43.6802 23.3319C43.6323 23.3319 43.5963 23.3319 43.5484 23.3319C43.3927 23.3319 43.249 23.3441 43.0934 23.3441C42.9257 23.3441 42.77 23.3564 42.6024 23.3564C42.4347 23.3686 42.2791 23.3686 42.1114 23.3809C41.9557 23.3931 41.812 23.3931 41.6563 23.4054C41.6444 23.4054 41.6324 23.4054 41.6204 23.4054C40.4229 22.7559 38.914 22.3883 37.5249 22.425C35.6209 22.4741 34.0162 23.2216 32.8306 24.5818C32.7348 24.6921 32.639 24.8146 32.5552 24.9249L32.4834 25.023C30.9386 27.5473 31.0942 30.6845 32.9504 34.1157C33.0821 34.3607 33.2139 34.5936 33.3576 34.8264C33.4055 34.9122 33.4534 34.9857 33.5013 35.0715C33.5611 35.1695 33.633 35.2798 33.6929 35.3779C33.7647 35.5004 33.8485 35.6107 33.9204 35.721C33.9803 35.8068 34.0401 35.8925 34.1 35.9783C34.1719 36.0764 34.2437 36.1744 34.3036 36.2724C34.3754 36.3705 34.4473 36.4685 34.5191 36.5665C34.591 36.6646 34.6629 36.7503 34.7347 36.8484C34.8066 36.9464 34.8784 37.0322 34.9503 37.118C35.0341 37.216 35.1059 37.314 35.1898 37.4121C35.2496 37.4979 35.3215 37.5714 35.3933 37.6572C35.6807 38.0003 35.9681 38.3312 36.2555 38.6375C35.8963 38.6375 35.549 38.6498 35.1898 38.662C34.9503 38.6743 34.6988 38.6865 34.4473 38.711C34.2916 38.7233 34.1359 38.7355 33.9683 38.7601C33.7048 38.7846 33.4534 38.8213 33.1899 38.8581H33.1779C32.9265 38.8949 32.675 38.9316 32.4235 38.9806C32.3397 38.9929 32.2558 39.0174 32.172 39.0296C31.9445 39.0664 31.705 39.1154 31.4775 39.1767C31.2499 39.2257 31.0224 39.2747 30.7949 39.336C30.7949 39.336 30.7949 39.336 30.7829 39.336C30.5554 39.3973 30.3278 39.4585 30.0883 39.5198C29.7411 39.6179 29.3818 39.7159 29.0225 39.8384C28.783 39.912 28.5555 39.9977 28.316 40.0713C27.2382 40.4389 26.1485 40.8801 25.0228 41.3947C25.0109 41.3947 24.9989 41.407 24.9989 41.407C24.6037 39.7772 24.1606 38.037 23.6457 36.1989C23.5858 35.9783 23.5259 35.7577 23.4661 35.5372C23.3463 35.096 23.2146 34.6426 23.0829 34.1892C23.023 33.9564 22.9511 33.7358 22.8793 33.5029C22.8074 33.2701 22.7476 33.0373 22.6757 32.8045C21.6458 29.2875 21.071 25.5009 20.9633 21.555L20.9513 21.4569C20.8555 20.5011 20.8435 19.0306 20.8794 17.2905C20.8794 17.1434 20.8794 17.0086 20.8914 16.8616C20.9034 16.641 20.9034 16.4204 20.9154 16.1876C20.9154 16.0405 20.9273 15.8812 20.9273 15.7342C20.9273 15.6606 20.9273 15.5749 20.9393 15.5013C20.9513 15.1582 20.9633 14.8028 20.9752 14.4352C20.9752 14.3127 20.9872 14.1901 20.9872 14.0676C20.9872 13.9818 20.9992 13.9083 20.9992 13.8225C21.0112 13.6632 21.0112 13.4916 21.0231 13.3323C21.0471 12.8422 21.071 12.3397 21.095 11.8496C21.095 11.7638 21.107 11.678 21.107 11.6045C21.107 11.5187 21.1189 11.4329 21.1189 11.3471C21.1309 11.1143 21.1429 10.8692 21.1549 10.6364C21.1549 10.6119 21.1549 10.5751 21.1549 10.5506C21.1668 10.3178 21.1788 10.0849 21.1908 9.8521C21.1908 9.76631 21.2028 9.68054 21.2028 9.59476C21.2147 9.34967 21.2267 9.11684 21.2507 8.884C21.2866 8.25903 21.3345 7.64632 21.3704 7.04586C21.3704 6.94782 21.3824 6.86204 21.3944 6.76401C21.4063 6.66597 21.4063 6.58019 21.4183 6.48216C21.4303 6.29834 21.4423 6.11453 21.4542 5.93071C21.4782 5.66112 21.4902 5.39152 21.5141 5.13418C21.5261 4.99938 21.5381 4.86458 21.5381 4.74204C21.55 4.6195 21.562 4.49695 21.562 4.37441C21.562 4.28863 21.574 4.21511 21.574 4.12932C21.574 4.11707 21.574 4.10482 21.574 4.10482C23.2505 5.94297 24.9749 9.12909 25.7773 12.9402C25.9809 13.9205 26.9269 14.5578 27.8849 14.3617C28.7232 14.1901 29.3219 13.4304 29.3219 12.5603C29.3219 12.45 29.31 12.3397 29.286 12.2172V12.1927C28.8669 10.0482 28.5675 6.23707 29.4417 0.134415L34.3395 0.502044C33.9922 2.73233 33.5971 7.14389 34.7706 11.8863L37.0938 11.2859C36.0041 6.83753 36.4352 2.59753 36.7465 0.673605L41.6324 1.04124C41.1534 3.25927 40.6025 7.4625 42.3988 10.4035C42.6742 10.8569 43.2011 11.3594 44.255 12.3397C46.7817 14.6313 51.1527 18.712 52.4939 23.626Z"/>
</mask>
<path d="M52.4939 23.626C52.4699 23.626 52.446 23.626 52.422 23.626C52.2783 23.6137 52.1226 23.6014 51.9789 23.5892C51.7993 23.5769 51.6197 23.5524 51.4401 23.5402C51.0808 23.5157 50.7215 23.4789 50.3623 23.4544C50.3503 23.4544 50.3264 23.4544 50.3144 23.4544C50.027 23.4299 49.7396 23.4176 49.4402 23.4054C49.3803 23.4054 49.3205 23.4054 49.2606 23.3931C48.554 23.3564 47.8475 23.3319 47.141 23.3196C46.9613 23.3196 46.7817 23.3073 46.6021 23.3073C46.4225 23.3073 46.2428 23.3073 46.0632 23.3073C45.8836 23.3073 45.7159 23.3073 45.5363 23.3073H45.5243C45.3447 23.3073 45.177 23.3073 44.9974 23.3073C44.6861 23.3073 44.3747 23.3073 44.0753 23.3196C43.9436 23.3196 43.8119 23.3196 43.6802 23.3319C43.6323 23.3319 43.5963 23.3319 43.5484 23.3319C43.3927 23.3319 43.249 23.3441 43.0934 23.3441C42.9257 23.3441 42.77 23.3564 42.6024 23.3564C42.4347 23.3686 42.2791 23.3686 42.1114 23.3809C41.9557 23.3931 41.812 23.3931 41.6563 23.4054C41.6444 23.4054 41.6324 23.4054 41.6204 23.4054C40.4229 22.7559 38.914 22.3883 37.5249 22.425C35.6209 22.4741 34.0162 23.2216 32.8306 24.5818C32.7348 24.6921 32.639 24.8146 32.5552 24.9249L32.4834 25.023C30.9386 27.5473 31.0942 30.6845 32.9504 34.1157C33.0821 34.3607 33.2139 34.5936 33.3576 34.8264C33.4055 34.9122 33.4534 34.9857 33.5013 35.0715C33.5611 35.1695 33.633 35.2798 33.6929 35.3779C33.7647 35.5004 33.8485 35.6107 33.9204 35.721C33.9803 35.8068 34.0401 35.8925 34.1 35.9783C34.1719 36.0764 34.2437 36.1744 34.3036 36.2724C34.3754 36.3705 34.4473 36.4685 34.5191 36.5665C34.591 36.6646 34.6629 36.7503 34.7347 36.8484C34.8066 36.9464 34.8784 37.0322 34.9503 37.118C35.0341 37.216 35.1059 37.314 35.1898 37.4121C35.2496 37.4979 35.3215 37.5714 35.3933 37.6572C35.6807 38.0003 35.9681 38.3312 36.2555 38.6375C35.8963 38.6375 35.549 38.6498 35.1898 38.662C34.9503 38.6743 34.6988 38.6865 34.4473 38.711C34.2916 38.7233 34.1359 38.7355 33.9683 38.7601C33.7048 38.7846 33.4534 38.8213 33.1899 38.8581H33.1779C32.9265 38.8949 32.675 38.9316 32.4235 38.9806C32.3397 38.9929 32.2558 39.0174 32.172 39.0296C31.9445 39.0664 31.705 39.1154 31.4775 39.1767C31.2499 39.2257 31.0224 39.2747 30.7949 39.336C30.7949 39.336 30.7949 39.336 30.7829 39.336C30.5554 39.3973 30.3278 39.4585 30.0883 39.5198C29.7411 39.6179 29.3818 39.7159 29.0225 39.8384C28.783 39.912 28.5555 39.9977 28.316 40.0713C27.2382 40.4389 26.1485 40.8801 25.0228 41.3947C25.0109 41.3947 24.9989 41.407 24.9989 41.407C24.6037 39.7772 24.1606 38.037 23.6457 36.1989C23.5858 35.9783 23.5259 35.7577 23.4661 35.5372C23.3463 35.096 23.2146 34.6426 23.0829 34.1892C23.023 33.9564 22.9511 33.7358 22.8793 33.5029C22.8074 33.2701 22.7476 33.0373 22.6757 32.8045C21.6458 29.2875 21.071 25.5009 20.9633 21.555L20.9513 21.4569C20.8555 20.5011 20.8435 19.0306 20.8794 17.2905C20.8794 17.1434 20.8794 17.0086 20.8914 16.8616C20.9034 16.641 20.9034 16.4204 20.9154 16.1876C20.9154 16.0405 20.9273 15.8812 20.9273 15.7342C20.9273 15.6606 20.9273 15.5749 20.9393 15.5013C20.9513 15.1582 20.9633 14.8028 20.9752 14.4352C20.9752 14.3127 20.9872 14.1901 20.9872 14.0676C20.9872 13.9818 20.9992 13.9083 20.9992 13.8225C21.0112 13.6632 21.0112 13.4916 21.0231 13.3323C21.0471 12.8422 21.071 12.3397 21.095 11.8496C21.095 11.7638 21.107 11.678 21.107 11.6045C21.107 11.5187 21.1189 11.4329 21.1189 11.3471C21.1309 11.1143 21.1429 10.8692 21.1549 10.6364C21.1549 10.6119 21.1549 10.5751 21.1549 10.5506C21.1668 10.3178 21.1788 10.0849 21.1908 9.8521C21.1908 9.76631 21.2028 9.68054 21.2028 9.59476C21.2147 9.34967 21.2267 9.11684 21.2507 8.884C21.2866 8.25903 21.3345 7.64632 21.3704 7.04586C21.3704 6.94782 21.3824 6.86204 21.3944 6.76401C21.4063 6.66597 21.4063 6.58019 21.4183 6.48216C21.4303 6.29834 21.4423 6.11453 21.4542 5.93071C21.4782 5.66112 21.4902 5.39152 21.5141 5.13418C21.5261 4.99938 21.5381 4.86458 21.5381 4.74204C21.55 4.6195 21.562 4.49695 21.562 4.37441C21.562 4.28863 21.574 4.21511 21.574 4.12932C21.574 4.11707 21.574 4.10482 21.574 4.10482C23.2505 5.94297 24.9749 9.12909 25.7773 12.9402C25.9809 13.9205 26.9269 14.5578 27.8849 14.3617C28.7232 14.1901 29.3219 13.4304 29.3219 12.5603C29.3219 12.45 29.31 12.3397 29.286 12.2172V12.1927C28.8669 10.0482 28.5675 6.23707 29.4417 0.134415L34.3395 0.502044C33.9922 2.73233 33.5971 7.14389 34.7706 11.8863L37.0938 11.2859C36.0041 6.83753 36.4352 2.59753 36.7465 0.673605L41.6324 1.04124C41.1534 3.25927 40.6025 7.4625 42.3988 10.4035C42.6742 10.8569 43.2011 11.3594 44.255 12.3397C46.7817 14.6313 51.1527 18.712 52.4939 23.626Z" stroke="white" stroke-width="4" mask="url(#path-4-inside-2_6154_274)"/>
<mask id="path-5-inside-3_6154_274" fill="white">
<path d="M62.1918 27.7689L60.683 33.3079C57.4617 32.8054 55.1744 33.0138 54.6116 33.0873C54.5996 33.0873 54.5876 33.0873 54.5756 33.0873C54.5397 33.0873 54.5038 33.0873 54.4679 33.0873C54.3361 33.0873 54.2044 33.0873 54.0727 33.0873C53.9649 33.0873 53.8571 33.0995 53.7493 33.1118C53.3781 33.1486 53.0069 33.2343 52.6596 33.3569C52.5399 33.3936 52.4201 33.4427 52.3004 33.4917C52.2764 33.5039 52.2644 33.5162 52.2405 33.5162C52.1207 33.5652 52.001 33.6265 51.8812 33.6877C51.7615 33.749 51.6417 33.8225 51.522 33.8961C50.7915 34.3617 50.1568 34.999 49.7017 35.7832C49.6419 35.8813 49.582 35.9916 49.5341 36.1018C49.4024 36.3592 49.2826 36.641 49.1868 36.9351C48.7916 38.1606 47.9294 40.7952 48.0971 43.3196C48.0971 43.3809 48.109 43.4422 48.109 43.4912V43.5035C47.9414 43.3441 47.7737 43.1971 47.6061 43.0378C47.5103 42.952 47.4145 42.8785 47.3187 42.7927C47.2229 42.7069 47.1151 42.6211 47.0193 42.5354C46.8996 42.4373 46.7798 42.3393 46.6601 42.2413C46.5882 42.1922 46.5283 42.1432 46.4565 42.082C46.3367 41.9839 46.217 41.8981 46.0852 41.8124C45.9894 41.7388 45.8936 41.6776 45.7859 41.604C45.702 41.5428 45.6182 41.4937 45.5464 41.4447C45.4865 41.408 45.4266 41.3712 45.3787 41.3344C45.1632 41.1996 44.9596 41.0648 44.744 40.9423C44.6602 40.8933 44.5883 40.8443 44.5045 40.8075C44.4925 40.7952 44.4806 40.7952 44.4566 40.783C44.265 40.6727 44.0734 40.5747 43.8818 40.4766C43.8698 40.4766 43.8698 40.4644 43.8579 40.4644C43.81 40.4399 43.774 40.4276 43.7261 40.4031C43.6543 40.3663 43.5824 40.3296 43.5106 40.2928C43.4866 40.2806 43.4627 40.2683 43.4268 40.2561C43.319 40.207 43.2232 40.158 43.1154 40.109C43.0076 40.06 42.8879 40.011 42.7801 39.962C42.7681 39.962 42.7561 39.9497 42.7322 39.9497C42.6484 39.9129 42.5645 39.8884 42.4927 39.8517C42.349 39.7904 42.2173 39.7414 42.0736 39.6924C41.9538 39.6556 41.8341 39.6066 41.7263 39.5698C41.7263 39.5698 41.7263 39.5698 41.7143 39.5698C41.5946 39.5331 41.4748 39.4963 41.3551 39.4595C41.2353 39.4228 41.1275 39.386 41.0078 39.3492H40.9958C40.876 39.3125 40.7563 39.2757 40.6365 39.2512C40.5288 39.2144 40.409 39.1899 40.3012 39.1654C40.2653 39.1532 40.2414 39.1532 40.2054 39.1409C40.1456 39.0919 40.0977 39.0429 40.0378 38.9939C39.954 38.9203 39.8582 38.8346 39.7743 38.7488C39.7264 38.712 39.6785 38.663 39.6426 38.6262C39.2834 38.2954 38.9121 37.9277 38.5409 37.5356C38.493 37.4866 38.4451 37.4376 38.3972 37.3885C38.3493 37.3395 38.3014 37.2905 38.2535 37.2415C38.2056 37.1925 38.1577 37.1435 38.1098 37.0944C38.0619 37.0454 38.014 36.9964 37.9661 36.9474C37.9062 36.8861 37.8463 36.8248 37.7984 36.7636C37.7146 36.6655 37.6308 36.5798 37.5589 36.4817C37.5469 36.4695 37.5469 36.4572 37.535 36.4572C37.4631 36.3714 37.3913 36.2979 37.3194 36.2121C36.9362 35.7465 36.553 35.2685 36.2057 34.7661C36.1818 34.7294 36.1459 34.6926 36.1219 34.6436C36.074 34.5701 36.0261 34.4965 35.9782 34.423C35.9423 34.374 35.9183 34.3372 35.8824 34.2882C35.7986 34.1534 35.7148 34.0309 35.6309 33.8961C35.5591 33.7858 35.4992 33.6877 35.4273 33.5775C35.2956 33.3569 35.1759 33.1486 35.0561 32.928C35.0202 32.8667 34.9962 32.8054 34.9603 32.7564C34.9124 32.6706 34.8645 32.5849 34.8286 32.4991C34.8046 32.4501 34.7807 32.3888 34.7567 32.3398C34.7448 32.3275 34.7448 32.3153 34.7448 32.303C34.7208 32.254 34.6969 32.1927 34.6729 32.1437C34.649 32.0947 34.637 32.0579 34.613 32.0211C34.5891 31.9721 34.5771 31.9231 34.5532 31.8864C34.5412 31.8496 34.5292 31.8251 34.5172 31.7883C34.4933 31.7393 34.4813 31.7025 34.4693 31.6535C34.4574 31.6168 34.4334 31.5677 34.4214 31.531C34.3975 31.4697 34.3735 31.4084 34.3496 31.3472C34.3256 31.2859 34.3017 31.2124 34.2777 31.1511C34.2658 31.1021 34.2418 31.0531 34.2298 31.004C34.2179 30.955 34.2059 30.9183 34.1939 30.8692C34.17 30.808 34.158 30.759 34.146 30.6977C34.1101 30.5629 34.0742 30.4158 34.0382 30.281C34.0262 30.2198 34.0143 30.1585 34.0023 30.1095C33.9784 29.9869 33.9544 29.8644 33.9424 29.7418C33.9304 29.6928 33.9304 29.6438 33.9185 29.5825C33.9065 29.5213 33.9065 29.46 33.9065 29.3987C33.8945 29.3375 33.8945 29.2884 33.8945 29.2272C33.8826 29.1046 33.8825 28.9943 33.8825 28.884C33.8825 28.835 33.8825 28.7738 33.8825 28.7247C33.8825 28.6757 33.8826 28.6144 33.8945 28.5654C33.8945 28.5164 33.9065 28.4551 33.9065 28.4061C33.9065 28.3571 33.9185 28.3081 33.9185 28.2591C33.9185 28.1978 33.9304 28.1488 33.9424 28.0875C33.9544 28.0385 33.9544 27.9895 33.9664 27.9405C33.9664 27.9037 33.9783 27.8669 33.9903 27.8302C33.9903 27.8057 34.0023 27.7689 34.0143 27.7444C34.0263 27.7076 34.0262 27.6709 34.0382 27.6341C34.0502 27.5973 34.0622 27.5606 34.0742 27.5116C34.1101 27.4013 34.146 27.291 34.1819 27.1684C34.1939 27.1194 34.2179 27.0704 34.2418 27.0336C34.2418 27.0214 34.2538 27.0214 34.2538 27.0091C34.2777 26.9601 34.2897 26.9233 34.3137 26.8743C34.3256 26.8498 34.3256 26.8376 34.3376 26.8131C35.3196 26.6047 37.7146 26.1758 41.0916 25.943C41.2113 25.9308 41.3431 25.9307 41.4628 25.9185C45.5464 25.6734 49.7257 25.796 53.8811 26.2984C56.6593 26.5802 59.4615 27.0949 62.1918 27.7689Z"/>
</mask>
<path d="M62.1918 27.7689L60.683 33.3079C57.4617 32.8054 55.1744 33.0138 54.6116 33.0873C54.5996 33.0873 54.5876 33.0873 54.5756 33.0873C54.5397 33.0873 54.5038 33.0873 54.4679 33.0873C54.3361 33.0873 54.2044 33.0873 54.0727 33.0873C53.9649 33.0873 53.8571 33.0995 53.7493 33.1118C53.3781 33.1486 53.0069 33.2343 52.6596 33.3569C52.5399 33.3936 52.4201 33.4427 52.3004 33.4917C52.2764 33.5039 52.2644 33.5162 52.2405 33.5162C52.1207 33.5652 52.001 33.6265 51.8812 33.6877C51.7615 33.749 51.6417 33.8225 51.522 33.8961C50.7915 34.3617 50.1568 34.999 49.7017 35.7832C49.6419 35.8813 49.582 35.9916 49.5341 36.1018C49.4024 36.3592 49.2826 36.641 49.1868 36.9351C48.7916 38.1606 47.9294 40.7952 48.0971 43.3196C48.0971 43.3809 48.109 43.4422 48.109 43.4912V43.5035C47.9414 43.3441 47.7737 43.1971 47.6061 43.0378C47.5103 42.952 47.4145 42.8785 47.3187 42.7927C47.2229 42.7069 47.1151 42.6211 47.0193 42.5354C46.8996 42.4373 46.7798 42.3393 46.6601 42.2413C46.5882 42.1922 46.5283 42.1432 46.4565 42.082C46.3367 41.9839 46.217 41.8981 46.0852 41.8124C45.9894 41.7388 45.8936 41.6776 45.7859 41.604C45.702 41.5428 45.6182 41.4937 45.5464 41.4447C45.4865 41.408 45.4266 41.3712 45.3787 41.3344C45.1632 41.1996 44.9596 41.0648 44.744 40.9423C44.6602 40.8933 44.5883 40.8443 44.5045 40.8075C44.4925 40.7952 44.4806 40.7952 44.4566 40.783C44.265 40.6727 44.0734 40.5747 43.8818 40.4766C43.8698 40.4766 43.8698 40.4644 43.8579 40.4644C43.81 40.4399 43.774 40.4276 43.7261 40.4031C43.6543 40.3663 43.5824 40.3296 43.5106 40.2928C43.4866 40.2806 43.4627 40.2683 43.4268 40.2561C43.319 40.207 43.2232 40.158 43.1154 40.109C43.0076 40.06 42.8879 40.011 42.7801 39.962C42.7681 39.962 42.7561 39.9497 42.7322 39.9497C42.6484 39.9129 42.5645 39.8884 42.4927 39.8517C42.349 39.7904 42.2173 39.7414 42.0736 39.6924C41.9538 39.6556 41.8341 39.6066 41.7263 39.5698C41.7263 39.5698 41.7263 39.5698 41.7143 39.5698C41.5946 39.5331 41.4748 39.4963 41.3551 39.4595C41.2353 39.4228 41.1275 39.386 41.0078 39.3492H40.9958C40.876 39.3125 40.7563 39.2757 40.6365 39.2512C40.5288 39.2144 40.409 39.1899 40.3012 39.1654C40.2653 39.1532 40.2414 39.1532 40.2054 39.1409C40.1456 39.0919 40.0977 39.0429 40.0378 38.9939C39.954 38.9203 39.8582 38.8346 39.7743 38.7488C39.7264 38.712 39.6785 38.663 39.6426 38.6262C39.2834 38.2954 38.9121 37.9277 38.5409 37.5356C38.493 37.4866 38.4451 37.4376 38.3972 37.3885C38.3493 37.3395 38.3014 37.2905 38.2535 37.2415C38.2056 37.1925 38.1577 37.1435 38.1098 37.0944C38.0619 37.0454 38.014 36.9964 37.9661 36.9474C37.9062 36.8861 37.8463 36.8248 37.7984 36.7636C37.7146 36.6655 37.6308 36.5798 37.5589 36.4817C37.5469 36.4695 37.5469 36.4572 37.535 36.4572C37.4631 36.3714 37.3913 36.2979 37.3194 36.2121C36.9362 35.7465 36.553 35.2685 36.2057 34.7661C36.1818 34.7294 36.1459 34.6926 36.1219 34.6436C36.074 34.5701 36.0261 34.4965 35.9782 34.423C35.9423 34.374 35.9183 34.3372 35.8824 34.2882C35.7986 34.1534 35.7148 34.0309 35.6309 33.8961C35.5591 33.7858 35.4992 33.6877 35.4273 33.5775C35.2956 33.3569 35.1759 33.1486 35.0561 32.928C35.0202 32.8667 34.9962 32.8054 34.9603 32.7564C34.9124 32.6706 34.8645 32.5849 34.8286 32.4991C34.8046 32.4501 34.7807 32.3888 34.7567 32.3398C34.7448 32.3275 34.7448 32.3153 34.7448 32.303C34.7208 32.254 34.6969 32.1927 34.6729 32.1437C34.649 32.0947 34.637 32.0579 34.613 32.0211C34.5891 31.9721 34.5771 31.9231 34.5532 31.8864C34.5412 31.8496 34.5292 31.8251 34.5172 31.7883C34.4933 31.7393 34.4813 31.7025 34.4693 31.6535C34.4574 31.6168 34.4334 31.5677 34.4214 31.531C34.3975 31.4697 34.3735 31.4084 34.3496 31.3472C34.3256 31.2859 34.3017 31.2124 34.2777 31.1511C34.2658 31.1021 34.2418 31.0531 34.2298 31.004C34.2179 30.955 34.2059 30.9183 34.1939 30.8692C34.17 30.808 34.158 30.759 34.146 30.6977C34.1101 30.5629 34.0742 30.4158 34.0382 30.281C34.0262 30.2198 34.0143 30.1585 34.0023 30.1095C33.9784 29.9869 33.9544 29.8644 33.9424 29.7418C33.9304 29.6928 33.9304 29.6438 33.9185 29.5825C33.9065 29.5213 33.9065 29.46 33.9065 29.3987C33.8945 29.3375 33.8945 29.2884 33.8945 29.2272C33.8826 29.1046 33.8825 28.9943 33.8825 28.884C33.8825 28.835 33.8825 28.7738 33.8825 28.7247C33.8825 28.6757 33.8826 28.6144 33.8945 28.5654C33.8945 28.5164 33.9065 28.4551 33.9065 28.4061C33.9065 28.3571 33.9185 28.3081 33.9185 28.2591C33.9185 28.1978 33.9304 28.1488 33.9424 28.0875C33.9544 28.0385 33.9544 27.9895 33.9664 27.9405C33.9664 27.9037 33.9783 27.8669 33.9903 27.8302C33.9903 27.8057 34.0023 27.7689 34.0143 27.7444C34.0263 27.7076 34.0262 27.6709 34.0382 27.6341C34.0502 27.5973 34.0622 27.5606 34.0742 27.5116C34.1101 27.4013 34.146 27.291 34.1819 27.1684C34.1939 27.1194 34.2179 27.0704 34.2418 27.0336C34.2418 27.0214 34.2538 27.0214 34.2538 27.0091C34.2777 26.9601 34.2897 26.9233 34.3137 26.8743C34.3256 26.8498 34.3256 26.8376 34.3376 26.8131C35.3196 26.6047 37.7146 26.1758 41.0916 25.943C41.2113 25.9308 41.3431 25.9307 41.4628 25.9185C45.5464 25.6734 49.7257 25.796 53.8811 26.2984C56.6593 26.5802 59.4615 27.0949 62.1918 27.7689Z" stroke="white" stroke-width="4" mask="url(#path-5-inside-3_6154_274)"/>
<path d="M54.4577 36.5221L54.4841 36.5241C55.1334 36.5801 55.8099 36.927 56.5153 37.5944C57.2253 38.2662 57.8992 39.2013 58.5231 40.2809C59.4598 41.9017 60.2279 43.7445 60.8229 45.2907L61.36 46.7184C61.5004 47.1059 61.5861 47.3192 61.6901 47.612L61.6999 47.6393C61.9443 48.2688 62.117 48.8505 62.237 49.3796C62.2014 49.3553 62.1661 49.3306 62.1306 49.3063L62.11 49.2926L62.0895 49.28C62.0413 49.2503 61.9942 49.2198 61.9362 49.1823C61.8865 49.1501 61.8273 49.1129 61.7643 49.0739H61.7653C61.6335 48.9881 61.5016 48.9029 61.3698 48.8171L61.3561 48.8073L61.3415 48.7985C61.1048 48.6554 60.8682 48.512 60.6315 48.3688L60.6149 48.3522L60.4919 48.2829C60.4381 48.2523 60.3845 48.2216 60.3307 48.1911C60.2769 48.1604 60.2225 48.1299 60.1686 48.0993L60.1501 48.0885L60.1296 48.0778C60.0856 48.0553 60.0417 48.0329 59.9977 48.0104C59.9581 47.9878 59.9221 47.9678 59.8932 47.9518C59.8536 47.93 59.8257 47.9141 59.7966 47.8971L59.7907 47.8932L59.4704 47.7175C59.3725 47.6658 59.2775 47.6177 59.1882 47.5719H59.1891C58.915 47.425 58.6178 47.2863 58.3884 47.1745L58.3659 47.1637L58.3425 47.154L58.1804 47.0778C58.1151 47.0459 58.0232 47.0002 57.9235 46.9577L57.9225 46.9587C57.8529 46.9252 57.7889 46.8946 57.738 46.8727C57.6635 46.8408 57.6178 46.8217 57.57 46.7995L57.5212 46.777L57.4704 46.7594C57.463 46.7564 57.4526 46.7526 57.4401 46.7477C57.3836 46.7233 57.333 46.7037 57.2985 46.6901C57.2581 46.6742 57.2362 46.6654 57.2145 46.6559C57.1592 46.6317 57.1018 46.6079 57.0593 46.5905C57.0123 46.5713 56.9793 46.558 56.9509 46.5456L56.9274 46.5358L56.569 46.3884C56.3199 46.2864 56.0478 46.1803 55.7702 46.0856L55.7692 46.0866C55.6414 46.0376 55.464 45.9753 55.4245 45.9606L55.3972 45.9499L55.3698 45.9411L55.0739 45.8366C55.0694 45.8348 55.065 45.8326 55.0602 45.8307C55.0528 45.8279 55.0444 45.826 55.0358 45.8229L54.8942 45.7751H54.8903C54.8884 45.7744 54.8865 45.7738 54.8845 45.7731C54.8443 45.7594 54.7768 45.7371 54.7097 45.7175C54.6679 45.7053 54.6264 45.6925 54.5847 45.6803L54.4587 45.6432C54.0194 45.5131 53.5522 45.3714 53.072 45.2546H53.0729C53.0308 45.2438 52.9222 45.2159 52.7956 45.1921C52.7483 45.18 52.7004 45.169 52.653 45.1569L52.6403 45.153L52.6276 45.1501L52.4841 45.1169C52.47 45.1135 52.4552 45.1097 52.4401 45.1061C52.433 45.1012 52.4258 45.0964 52.4186 45.0915C52.4007 45.0792 52.3819 45.0666 52.364 45.0544C52.3566 45.0494 52.3498 45.0437 52.3425 45.0387C52.331 45.0297 52.3205 45.0218 52.3122 45.0153C52.2922 44.9998 52.2821 44.9927 52.2712 44.9841C52.2555 44.9716 52.2553 44.9705 52.2624 44.9772L52.2009 44.9147L52.1765 44.8981C52.1722 44.8941 52.1682 44.8896 52.1638 44.8854C52.1605 44.8824 52.1566 44.8799 52.153 44.8766C52.0971 44.8178 52.0457 44.7579 51.9919 44.6872L51.9548 44.6374L51.9421 44.6247C51.9398 44.6217 51.9377 44.618 51.9352 44.6149C51.9309 44.6095 51.9256 44.6043 51.9206 44.5983C51.9187 44.5952 51.9168 44.5919 51.9147 44.5885C51.9086 44.5786 51.9 44.5653 51.8903 44.5505H51.8893C51.8821 44.539 51.8771 44.5282 51.8718 44.5202C51.8695 44.5168 51.867 44.5135 51.8649 44.5104L51.8542 44.4772L51.8034 44.3991C51.7983 44.3888 51.7921 44.3756 51.7849 44.362C51.7789 44.3507 51.7703 44.3387 51.7624 44.3249H51.7634C51.7316 44.2664 51.7138 44.2215 51.7009 44.1774L51.697 44.1637L51.6931 44.151C51.6916 44.1461 51.6895 44.1402 51.6862 44.1286C51.6835 44.1187 51.6791 44.1033 51.6745 44.0876L51.6559 44.027L51.6452 43.9919C51.6435 43.9862 51.6416 43.9814 51.6403 43.9762L51.6315 43.9401L51.6208 43.9059C51.6194 43.901 51.6171 43.8949 51.614 43.8835C51.6112 43.8736 51.6077 43.8581 51.6032 43.8425C51.6011 43.8351 51.5983 43.8266 51.5954 43.8171L51.5807 43.7555C51.5748 43.7312 51.5691 43.7067 51.5632 43.6823L51.5446 43.6091C51.5425 43.5969 51.5402 43.5809 51.5368 43.5641C51.5358 43.5592 51.5341 43.5539 51.5329 43.5485C51.5325 43.5465 51.5323 43.5445 51.5319 43.5426C51.5314 43.5397 51.5305 43.5366 51.53 43.5339C51.5287 43.5211 51.5293 43.5091 51.528 43.4987C51.5266 43.4872 51.5246 43.4763 51.5231 43.4665L51.5153 43.4059C51.3184 42.0676 51.6901 40.3245 52.1823 38.6852L52.3991 37.9899C52.7111 37.0235 53.5785 36.4517 54.4577 36.5221ZM51.9636 44.652C51.9674 44.6569 51.9702 44.6619 51.9724 44.6647C51.9707 44.6625 51.9647 44.6548 51.9567 44.6442C51.959 44.647 51.9617 44.6496 51.9636 44.652ZM51.5466 43.6188C51.5493 43.632 51.5505 43.6424 51.5485 43.6305C51.5482 43.6285 51.5467 43.6235 51.5456 43.6169L51.5466 43.6188Z" stroke="white" stroke-width="2"/>
</svg>
