<svg width="56" height="62" viewBox="0 0 56 62" fill="none" xmlns="http://www.w3.org/2000/svg">
<path fill-rule="evenodd" clip-rule="evenodd" d="M20.8937 0C20.763 0 20.6355 0.0155495 20.5111 0.0497589C19.7243 0.258125 19.2578 1.06667 19.4662 1.8535L21.2637 8.55543C21.4752 9.34224 22.2837 9.80872 23.0706 9.59726C23.8574 9.38579 24.3239 8.57725 24.1124 7.79042L22.3149 1.09159C22.1438 0.447839 21.5592 0 20.8937 0ZM35.1064 0C34.4409 0 33.8562 0.447831 33.6851 1.09159L31.8876 7.79352C31.6761 8.57723 32.1426 9.38581 32.9294 9.59726C33.7162 9.80874 34.5248 9.34225 34.7363 8.55543L36.5338 1.8535C36.7422 1.06669 36.2757 0.25811 35.4889 0.0497589C35.3645 0.0155495 35.237 0 35.1064 0ZM8.5821 7.10621C8.19336 7.10621 7.81706 7.26171 7.54027 7.53538C7.26348 7.81217 7.10799 8.18847 7.10799 8.58032C7.10799 8.97217 7.26348 9.34536 7.54027 9.62215L12.4478 14.5266C13.0231 15.1019 13.9561 15.1019 14.5314 14.5266C15.1099 13.9512 15.1099 13.0183 14.5314 12.4429L9.62704 7.53538C9.35025 7.26171 8.97396 7.10621 8.5821 7.10621ZM47.4187 7.10621C47.03 7.10621 46.6537 7.26171 46.3769 7.53538L41.4694 12.4429C40.8941 13.0182 40.8941 13.9512 41.4694 14.5266C42.0479 15.1019 42.9808 15.1019 43.5562 14.5266L48.4637 9.62215C48.7405 9.34536 48.896 8.97217 48.896 8.58032C48.896 8.18847 48.7405 7.81217 48.4637 7.53538C48.1869 7.26171 47.8106 7.10621 47.4187 7.10621ZM28 12.5175C19.451 12.5175 12.519 19.4464 12.519 27.9985V39.8037H43.4818V27.9985C43.4818 19.4495 36.5521 12.5175 28 12.5175ZM27.6828 16.9461C28.4976 16.9243 29.1756 17.5649 29.1973 18.3766C29.2098 18.7685 29.0636 19.1479 28.7961 19.4309C28.5256 19.717 28.1555 19.8818 27.7636 19.8912C23.36 20.0156 19.8924 23.5578 19.8924 27.9991C19.8924 28.8139 19.23 29.4732 18.4151 29.4732C17.6035 29.4732 16.941 28.8139 16.941 27.9991C16.9441 22.0032 21.7274 17.114 27.6828 16.9461ZM1.4722 19.4154C0.806667 19.4185 0.225117 19.8663 0.0509205 20.507C-0.160551 21.2938 0.305933 22.1024 1.09275 22.3138L7.79468 24.1113C8.5815 24.3197 9.39008 23.8532 9.59843 23.0695C9.8099 22.2827 9.34341 21.4741 8.55659 21.2627L1.85777 19.4651C1.73026 19.434 1.60275 19.4154 1.47214 19.4185L1.4722 19.4154ZM54.5279 19.4154C54.3973 19.4154 54.2698 19.434 54.1454 19.4651L47.4434 21.2627C46.6566 21.4741 46.1901 22.2827 46.4016 23.0664C46.5011 23.4458 46.7499 23.7693 47.0889 23.9652C47.4279 24.1611 47.8322 24.2109 48.2084 24.1113L54.9073 22.3138C55.6941 22.1023 56.1605 21.2938 55.9491 20.507C55.7749 19.8632 55.1934 19.4185 54.5279 19.4154ZM8.17731 31.8368C8.0467 31.8368 7.91919 31.8524 7.79479 31.8866L1.09286 33.681C0.306045 33.8925 -0.160431 34.701 0.0510246 35.4878C0.26248 36.2747 1.07104 36.7411 1.85787 36.5297L8.5567 34.7321C9.34351 34.5238 9.80999 33.7152 9.59853 32.9284C9.42749 32.2846 8.84287 31.8368 8.17731 31.8368ZM47.8228 31.8368C47.1573 31.8368 46.5727 32.2846 46.4016 32.9284C46.1901 33.7152 46.6566 34.5238 47.4434 34.7321L54.1422 36.5297C54.929 36.7411 55.7376 36.2747 55.9491 35.4878C56.1605 34.701 55.6941 33.8924 54.9072 33.6841L48.2053 31.8866C48.0809 31.8524 47.9535 31.8368 47.8228 31.8368ZM11.2281 42.7527C9.71984 42.7527 8.37014 43.7293 7.89118 45.1598L6.72499 48.6491H49.2748L48.1118 45.1598C47.6328 43.7292 46.28 42.7527 44.7717 42.7527H11.2281ZM4.40805 51.5971C2.79714 51.5971 1.45986 52.9344 1.45986 54.5453V58.9676C1.45986 60.5785 2.79714 61.9158 4.40805 61.9158L51.5891 61.9189C53.2 61.9189 54.5373 60.5816 54.5373 58.9707V54.5484C54.5373 52.9375 53.2 51.6002 51.5891 51.6002L4.40805 51.5971Z" fill="url(#paint0_linear_6468_667)"/>
<defs>
<linearGradient id="paint0_linear_6468_667" x1="0" y1="30.9595" x2="68.6379" y2="31.3944" gradientUnits="userSpaceOnUse">
<stop stop-color="#0499AB"/>
<stop offset="1" stop-color="#06646F" stop-opacity="0.6"/>
</linearGradient>
</defs>
</svg>
