<svg width="117" height="94" viewBox="0 0 117 94" fill="none" xmlns="http://www.w3.org/2000/svg">
<path d="M30.6341 34.5979H28.5387C25.6373 34.4995 23.1988 36.7584 23.0895 39.6493V41.7839H20.4117C17.5104 41.6906 15.0718 43.9443 14.9625 46.8353V48.7056C15.0717 51.5966 17.5104 53.8554 20.4117 53.757H23.0895V55.8916C23.1987 58.7826 25.6373 61.0414 28.5387 60.943H30.6393H30.6341C33.5355 61.0414 35.9688 58.7826 36.0833 55.8916V53.757H38.7766C41.678 53.8555 44.1166 51.5966 44.2259 48.7056V46.8353C44.1167 43.9443 41.678 41.6907 38.7766 41.7839H36.0833V39.6493C35.9689 36.7584 33.5355 34.4995 30.6341 34.5979ZM40.0661 46.8353C39.9569 47.9336 40.6016 49.5501 38.7766 49.6123H34.0034C33.4523 49.6123 32.9219 49.8299 32.5319 50.2185C32.1419 50.607 31.9236 51.1355 31.9236 51.6847V55.8916C31.908 57.1299 29.3809 56.7465 28.5386 56.7983C27.7795 56.7983 27.2491 56.3216 27.2491 55.8916V51.6847C27.2491 51.1355 27.0307 50.6071 26.6408 50.2185C26.2508 49.8299 25.7204 49.6123 25.1692 49.6123H20.4117C18.597 49.5553 19.2314 47.9337 19.1222 46.8353C19.1222 46.4053 19.6525 45.9286 20.4117 45.9286H25.1692C25.7204 45.9286 26.2507 45.711 26.6408 45.3225C27.0308 44.9339 27.2491 44.4106 27.2491 43.8562V39.6493C27.2491 39.2245 27.7795 38.7427 28.5386 38.7427C29.3809 38.7996 31.9027 38.4007 31.9236 39.6493V43.8562C31.9236 44.4106 32.1419 44.9339 32.5319 45.3225C32.9219 45.711 33.4522 45.9286 34.0034 45.9286H38.7766C39.5357 45.9286 40.0661 46.4105 40.0661 46.8353Z" fill="#008DC3"/>
<path d="M115.845 19.2744C115.507 14.5856 112.413 10.5446 107.962 8.97996C105.804 2.23448 94.7864 3.78347 94.9632 11.0265C95.0204 16.4198 102.716 18.8547 106.397 15.0054H106.402C106.886 14.5287 107.291 13.9692 107.593 13.3578C109.933 14.5339 111.487 16.8394 111.685 19.4402L112.309 34.7962C112.33 35.3454 112.569 35.8686 112.974 36.2469C113.38 36.6199 113.921 36.822 114.472 36.7961C115.028 36.7754 115.548 36.537 115.922 36.1277C116.297 35.7185 116.494 35.1796 116.468 34.6305L115.845 19.2744ZM103.506 12.0315C102.253 13.3992 99.128 12.7361 99.1228 10.8658C99.3568 7.23916 106.142 8.81933 103.506 12.0315Z" fill="#008DC3"/>
<path d="M112.373 39.9461C111.495 39.5368 110.455 39.7803 109.852 40.5315L99.1042 50.6653H99.099C97.929 51.7585 96.494 52.5408 94.9289 52.9241L90.3429 53.1055C88.757 52.8309 87.2596 52.1729 85.9909 51.1782L74.4063 41.8267V41.8319C72.7476 40.5677 71.7286 38.6405 71.6246 36.568L71.011 21.0409V21.0357C70.9695 18.7769 71.9938 16.632 73.7772 15.2383C75.0771 16.8703 77.0581 17.8132 79.1484 17.7925C80.8955 17.8495 82.5905 17.2019 83.8487 15.9947C85.107 14.7875 85.8246 13.1244 85.835 11.3836C85.419 3.8247 73.6212 3.53968 72.6125 11.0002C68.9676 13.0985 66.763 17.01 66.8514 21.2014L67.465 36.7338V36.7286C67.6313 39.9977 69.212 43.039 71.7962 45.0595L83.3808 54.411V54.4058C84.2387 55.0845 85.1747 55.6544 86.173 56.1051L86.2926 59.1929V59.1981C86.4746 61.8869 88.3984 64.1459 91.0294 64.7675L91.6586 80.7243C91.7054 89.7754 76.8861 92.6456 73.5438 84.0246L67.1483 67.2799C71.2196 65.4976 73.8193 61.4566 73.7413 57.0321C73.5749 50.2606 66.2019 45.1575 59.1818 46.691V22.568C59.1766 19.1745 56.4157 16.4235 53.01 16.4235H45.7722V16.1334C45.767 12.859 43.1724 10.1701 39.8914 10.025C39.7614 4.45043 35.1911 0 29.5962 0C24.0014 0 19.4311 4.45043 19.3011 10.025C16.0202 10.1701 13.4255 12.859 13.4203 16.1334V16.4339H6.17732C2.7716 16.4287 0.0106491 19.1745 0.000266579 22.568V47.5398C0.0210649 48.6692 0.946591 49.576 2.08009 49.5707C3.2136 49.5707 4.13916 48.6692 4.15992 47.5398V22.568C4.16512 21.4645 5.06984 20.5734 6.17732 20.5786H13.4203C13.1915 22.3504 13.7323 24.1379 14.9074 25.4849C16.0825 26.837 17.7828 27.6246 19.5766 27.6453H39.6162C41.4101 27.6246 43.1103 26.8371 44.2854 25.4797C45.4605 24.1275 46.0013 22.34 45.7724 20.5682H53.0103C54.1178 20.5682 55.0173 21.4645 55.0173 22.568V48.2494C51.908 49.9331 49.8385 53.0469 49.5058 56.5595C49.173 60.0721 50.6237 63.5175 53.369 65.7453C53.8837 66.1649 54.4349 66.538 55.0121 66.8695V87.2045C55.0121 88.3029 54.1177 89.194 53.0154 89.194H6.17706C5.06955 89.1992 4.16485 88.3081 4.15966 87.2045V55.8293C4.15966 54.6843 3.22893 53.757 2.07983 53.757C0.930725 53.757 0 54.6843 0 55.8293V87.2045C0.0103985 90.598 2.77133 93.3387 6.17706 93.3387H53.0154C56.416 93.3335 59.1665 90.5877 59.1717 87.2045V68.3775C60.482 68.6314 61.8235 68.6469 63.139 68.4294L69.6541 85.4844C74.6612 98.4314 95.995 94.323 95.818 80.5574L95.1888 64.6059C97.7678 63.7873 99.5045 61.3782 99.4576 58.6789L99.3328 55.5911C101.532 54.6326 110.891 45.0376 112.841 43.4108H112.846C113.366 42.9393 113.626 42.2451 113.527 41.5509C113.433 40.8618 113.002 40.2557 112.373 39.9449L112.373 39.9461ZM79.1121 9.64783C82.601 9.60638 82.3359 13.5542 79.2681 13.6474C75.9819 13.8184 75.878 9.76693 79.1121 9.64783ZM29.5809 4.14576C32.8723 4.15094 35.576 6.72583 35.7268 9.99505H23.4663C23.6067 6.73114 26.3051 4.15624 29.5809 4.14576ZM41.6076 21.5125H41.6128C41.6128 22.6108 40.7185 23.5019 39.6162 23.5071H19.5766C16.9041 23.4035 17.6839 20.2846 17.58 18.5386C17.5852 18.5179 17.5852 18.4972 17.58 18.4764V16.1347C17.58 15.0364 18.4743 14.1452 19.5766 14.1401H39.6162C40.7185 14.1453 41.6128 15.0364 41.6128 16.1347L41.6076 21.5125ZM61.8442 64.4305C50.9666 64.5342 50.899 50.8359 61.6622 50.5719C72.264 50.9294 71.947 63.8974 61.8494 64.4358L61.8442 64.4305ZM94.7261 60.1614C93.5094 61.4929 90.4728 60.8608 90.4469 59.032L90.3793 57.2497L95.2304 57.058C95.2512 57.9491 95.532 59.6175 94.7261 60.1614Z" fill="#008DC3"/>
<path d="M61.4155 53.6222C60.3132 53.56 59.2369 53.9642 58.4465 54.7361C57.6614 55.5081 57.235 56.5753 57.2766 57.6736C57.3234 58.7771 57.8277 59.8082 58.6753 60.5127C59.5228 61.2225 60.6304 61.5385 61.7275 61.3883C62.8298 61.4505 63.9061 61.0464 64.6965 60.2744C65.4816 59.5025 65.908 58.4352 65.8664 57.3369C65.8196 56.2386 65.3152 55.2075 64.4677 54.4978C63.6201 53.7932 62.5126 53.4772 61.4155 53.6222Z" fill="#008DC3"/>
<path d="M18.322 66.4395C17.1885 66.4654 16.2839 67.3824 16.2839 68.5118C16.2839 69.6412 17.1886 70.5635 18.322 70.5842H40.3476C41.4967 70.5842 42.4274 69.6568 42.4274 68.5118C42.4274 67.3668 41.4967 66.4395 40.3476 66.4395H18.322Z" fill="#008DC3"/>
</svg>
