<svg width="62" height="65" viewBox="0 0 62 65" fill="none" xmlns="http://www.w3.org/2000/svg">
<g clip-path="url(#clip0_6468_809)">
<path d="M34.6695 48.3716V49.2069C34.6695 50.0162 34.0119 50.6688 33.1964 50.6688H28.7772C27.9618 50.6688 27.3042 50.0162 27.3042 49.2069V48.3716C26.7255 48.7631 26.2783 49.233 26.2783 49.729C26.2257 51.3214 28.3564 54.7411 30.9605 57.4037C33.5647 54.7411 35.7217 51.3214 35.6427 49.729C35.6427 49.233 35.1693 48.7631 34.6169 48.3716H34.6695Z" fill="url(#paint0_linear_6468_809)"/>
<path d="M31.7494 6.31738H30.25V47.7451H31.7494V6.31738Z" fill="url(#paint1_linear_6468_809)"/>
<path d="M27.3306 45.0824V44.1165C25.1737 43.6205 20.2547 42.6547 17.0718 43.1507C15.0464 43.4639 13.889 45.1868 13.5207 46.5442C13.1524 47.9278 13.4418 49.1547 14.3098 49.8595C15.6514 50.9559 17.2297 51.3474 18.7553 51.7129C20.3862 52.1306 22.0697 52.5482 23.2534 53.8274C23.5691 54.1667 23.911 54.5844 24.253 55.0021C25.4104 56.4378 26.4363 57.5864 27.6726 58.0824C25.2789 55.3153 23.3323 51.9739 23.4112 49.6507C23.4902 47.1185 25.9102 45.7089 27.3569 45.0824H27.3306Z" fill="url(#paint2_linear_6468_809)"/>
<path d="M57.9754 0H4.02461C1.81502 0 0 1.8012 0 3.99398V61.0321C0 63.2249 1.81502 65.0261 4.02461 65.0261H57.9754C60.185 65.0261 62 63.2249 62 61.0321V3.99398C62 1.8012 60.185 0 57.9754 0ZM51.8464 22.9458C51.5834 23.4157 51.0836 23.6767 50.5575 23.6767C50.3207 23.6767 50.084 23.6245 49.8473 23.494C49.137 23.1024 48.9003 22.2149 49.2686 21.51C49.5842 20.9618 49.6631 20.5703 49.5316 20.257C49.4264 19.996 49.0055 19.2912 47.0853 18.6125C43.8761 17.4639 37.4578 17.4116 34.6432 17.4639V21.4317C37.3789 21.4317 43.2185 21.6145 46.8222 22.9197C49.8736 24.0422 50.8731 25.6867 51.1625 26.8614C51.5045 28.1928 51.0836 29.6546 50.084 30.7771C49.7947 31.0904 49.4001 31.2731 49.0055 31.2731C48.6636 31.2731 48.3216 31.1426 48.0322 30.9076C47.4272 30.3855 47.3746 29.4458 47.927 28.8715C48.0585 28.7149 48.5057 28.1667 48.3479 27.5924C48.1638 26.9137 47.2694 26.2088 45.8227 25.6867C42.6661 24.5382 37.221 24.3815 34.6432 24.3554V29.3153C40.93 29.3153 44.8231 30.4116 46.4277 32.7349C47.6903 34.5623 46.9801 36.3112 46.9011 36.494C46.6644 37.0422 46.112 37.3815 45.5596 37.3815C45.3755 37.3815 45.165 37.3554 44.9809 37.251C44.2444 36.9378 43.9024 36.1024 44.1918 35.3715C44.2181 35.2671 44.3496 34.7972 43.9813 34.3012C43.4815 33.6225 41.5876 32.1345 34.6432 32.1867V41.1145C37.221 40.5402 41.9559 39.7048 45.3492 40.253C48.1638 40.6968 50.4786 42.8635 51.2677 45.761C51.9253 48.241 51.2677 50.6426 49.5053 52.0783C47.664 53.5663 45.5859 54.0884 43.9287 54.506C42.6135 54.8454 41.4561 55.1325 40.8774 55.7851C40.588 56.0984 40.2987 56.4378 40.0093 56.8293C38.6152 58.5522 36.4319 61.241 32.986 61.241C32.3547 61.241 31.6708 61.1104 30.9605 60.9277C30.2503 61.1366 29.5664 61.241 28.9351 61.241C25.4892 61.241 23.3059 58.5522 21.9118 56.8293C21.5961 56.4378 21.3067 56.0984 21.0437 55.7851C20.4387 55.1325 19.3076 54.8454 17.9924 54.506C16.3352 54.0884 14.2834 53.5663 12.4158 52.0783C10.6534 50.6426 9.96945 48.241 10.6534 45.761C11.4425 42.8635 13.7573 40.6968 16.5719 40.253C19.9652 39.7048 24.7 40.5402 27.3042 41.1145V32.1867C20.3598 32.1345 18.4658 33.6486 17.9661 34.3012C17.5715 34.8233 17.7293 35.2932 17.7556 35.3715C18.0187 36.1024 17.6504 36.9378 16.9139 37.2249C16.7297 37.3032 16.5456 37.3293 16.3615 37.3293C15.8091 37.3293 15.283 37.0161 15.0462 36.4679C14.9673 36.2851 14.2571 34.5361 15.5197 32.7088C17.1243 30.3855 21.0174 29.2631 27.3042 29.2892V24.3293C24.7263 24.3293 19.2813 24.4859 16.1247 25.6606C14.678 26.1827 13.7836 26.8876 13.5995 27.5663C13.4417 28.1406 13.8362 28.6627 14.0204 28.8454C14.5465 29.4458 14.5202 30.3594 13.9151 30.8815C13.6521 31.1426 13.2838 31.247 12.9419 31.247C12.5473 31.247 12.1264 31.0904 11.8634 30.751C10.8375 29.6285 10.4429 28.1667 10.7849 26.8353C11.0742 25.6606 12.0738 24.0422 15.1252 22.8936C18.7289 21.5623 24.5685 21.4056 27.3042 21.4056V17.4378C24.4896 17.3855 18.0713 17.4378 14.8621 18.5863C12.9419 19.2651 12.4947 19.9699 12.4158 20.2309C12.2843 20.5442 12.3895 20.9357 12.6788 21.4839C13.0734 22.1888 12.8104 23.0502 12.1001 23.4679C11.8634 23.5984 11.6266 23.6506 11.3899 23.6506C10.8901 23.6506 10.364 23.3896 10.1273 22.9197C9.39075 21.6145 9.23292 20.3614 9.6538 19.239C10.2062 17.8032 11.574 16.7068 13.8625 15.8976C17.5189 14.5663 24.2792 14.5141 27.3042 14.5663V10.1546C24.9631 10.1024 20.123 10.1024 16.6245 10.9378C13.6521 11.6426 13.2312 12.4257 13.1786 12.5301C13.0997 12.7129 13.2575 13.0522 13.3891 13.2349C13.8099 13.9137 13.5732 14.8012 12.8893 15.2189C12.6525 15.3494 12.3895 15.4277 12.1527 15.4277C11.6529 15.4277 11.1795 15.1667 10.8901 14.7229C10.0221 13.261 10.2062 12.1125 10.4955 11.4076C11.1532 9.89357 12.863 8.8494 15.9406 8.14458C19.7548 7.25703 24.8053 7.23092 27.3042 7.28313V4.90763C27.3042 4.09839 27.9618 3.47189 28.7773 3.47189H33.1964C34.0119 3.47189 34.6695 4.1245 34.6695 4.90763V7.28313C37.1684 7.23092 42.2189 7.25703 46.0331 8.14458C49.1107 8.8755 50.8468 9.91968 51.4781 11.4076C51.7675 12.1125 51.9779 13.2871 51.0836 14.7229C50.8205 15.1928 50.3207 15.4277 49.821 15.4277C49.5579 15.4277 49.3212 15.3755 49.0844 15.2189C48.4005 14.8012 48.1638 13.9137 48.5846 13.2349C48.6899 13.0522 48.874 12.7129 48.7951 12.5301C48.7688 12.4518 48.3479 11.6426 45.3492 10.9378C41.8507 10.1024 37.0106 10.1024 34.6695 10.1546V14.5663C37.6945 14.5141 44.4548 14.5663 48.1112 15.8976C50.3997 16.7068 51.7675 17.8032 52.2936 19.239C52.7408 20.3614 52.5829 21.6145 51.8464 22.9197V22.9458Z" fill="url(#paint3_linear_6468_809)"/>
<path d="M38.6149 49.6245C38.6938 51.9739 36.7209 55.2892 34.3535 58.0563C35.5898 57.5603 36.6157 56.4117 37.7731 54.9759C38.1151 54.5322 38.457 54.1406 38.7727 53.8012C39.9564 52.496 41.6399 52.0783 43.2708 51.6868C44.7965 51.2952 46.3747 50.9036 47.7163 49.8334C48.5843 49.1285 48.8737 47.9016 48.5054 46.5181C48.1371 45.1607 46.9797 43.4378 44.9543 43.1245C41.7714 42.6285 36.8525 43.5944 34.6955 44.0904V45.0563C36.1422 45.6828 38.5623 47.0924 38.6412 49.6245H38.6149Z" fill="url(#paint4_linear_6468_809)"/>
</g>
<defs>
<linearGradient id="paint0_linear_6468_809" x1="26.2773" y1="52.8876" x2="37.7587" y2="52.9711" gradientUnits="userSpaceOnUse">
<stop stop-color="#0499AB"/>
<stop offset="1" stop-color="#06646F" stop-opacity="0.6"/>
</linearGradient>
<linearGradient id="paint1_linear_6468_809" x1="30.25" y1="27.0312" x2="32.0878" y2="27.0317" gradientUnits="userSpaceOnUse">
<stop stop-color="#0499AB"/>
<stop offset="1" stop-color="#06646F" stop-opacity="0.6"/>
</linearGradient>
<linearGradient id="paint2_linear_6468_809" x1="13.3643" y1="50.5477" x2="30.9016" y2="50.6643" gradientUnits="userSpaceOnUse">
<stop stop-color="#0499AB"/>
<stop offset="1" stop-color="#06646F" stop-opacity="0.6"/>
</linearGradient>
<linearGradient id="paint3_linear_6468_809" x1="0" y1="32.5131" x2="75.9916" y2="33.0207" gradientUnits="userSpaceOnUse">
<stop stop-color="#0499AB"/>
<stop offset="1" stop-color="#06646F" stop-opacity="0.6"/>
</linearGradient>
<linearGradient id="paint4_linear_6468_809" x1="34.3535" y1="50.5215" x2="51.8908" y2="50.6382" gradientUnits="userSpaceOnUse">
<stop stop-color="#0499AB"/>
<stop offset="1" stop-color="#06646F" stop-opacity="0.6"/>
</linearGradient>
<clipPath id="clip0_6468_809">
<rect width="62" height="65" fill="white"/>
</clipPath>
</defs>
</svg>
