<svg width="97" height="97" viewBox="0 0 97 97" fill="none" xmlns="http://www.w3.org/2000/svg">
<path fill-rule="evenodd" clip-rule="evenodd" d="M70.7779 79.9649L66.0003 73.315C49.0938 73.6942 34.6526 85.3809 14.2006 73.8192L4.56619 87.2482C2.72508 89.8065 4.16215 93.273 7.4653 93.273H73.1069C74.4439 93.3189 75.6977 92.6231 76.36 91.4564C72.9236 89.5773 70.7826 85.9733 70.7784 82.0566L70.7779 79.9649ZM25.6886 0.5C28.621 0.5 31.2701 2.26657 32.3948 4.98321C33.5153 7.69568 32.8946 10.8165 30.8203 12.8956C28.7459 14.9705 25.622 15.5913 22.9103 14.4706C20.1987 13.3456 18.4285 10.6956 18.4285 7.76235C18.4285 3.74996 21.6774 0.5 25.6886 0.5ZM25.6886 3.72489C24.0558 3.72489 22.5854 4.70819 21.9606 6.21646C21.3358 7.7248 21.6816 9.45809 22.8353 10.6122C23.9891 11.7663 25.7219 12.1121 27.2298 11.4872C28.7376 10.8622 29.7206 9.39144 29.7206 7.76225C29.7206 6.69145 29.2957 5.66224 28.5376 4.90813C27.7837 4.14981 26.7549 3.72489 25.6886 3.72489ZM40.2844 18.6664C38.3309 18.6664 36.5647 17.4872 35.815 15.679C35.0653 13.8665 35.4818 11.7874 36.8647 10.3999C38.2476 9.01661 40.3302 8.60414 42.1379 9.35413C43.9457 10.0999 45.1245 11.8666 45.1245 13.8249C45.1245 15.1081 44.6163 16.3415 43.7083 17.2456C42.8003 18.1539 41.5714 18.6664 40.2844 18.6664ZM40.2844 15.4374C40.9383 15.4374 41.5257 15.0457 41.7755 14.4416C42.0296 13.8416 41.888 13.1458 41.4298 12.6833C40.9674 12.2208 40.2719 12.0833 39.6721 12.3333C39.0681 12.5833 38.6724 13.1708 38.6724 13.8249C38.6724 14.2541 38.8432 14.6624 39.1472 14.9665C39.4471 15.2665 39.8595 15.4374 40.2844 15.4374ZM88.981 48.2579V56.1619H86.0445C85.6072 56.1494 85.1865 56.3161 84.874 56.6202C84.5658 56.9244 84.3867 57.341 84.3867 57.7743C84.3867 58.2118 84.5658 58.6285 84.874 58.9284C85.1864 59.2326 85.6071 59.3993 86.0445 59.3868H88.981V67.2908H81.4919C81.0587 67.2825 80.638 67.445 80.3255 67.7491C80.0131 68.0533 79.8382 68.47 79.8382 68.9033C79.8382 69.3407 80.0131 69.7574 80.3255 70.0615C80.6379 70.3656 81.0586 70.5282 81.4919 70.5198H88.981V82.0609C88.981 86.1942 85.628 89.5482 81.4919 89.5482C77.3557 89.5482 74.0027 86.1942 74.0027 82.0609V11.2209C74.0027 10.3292 73.2821 9.60429 72.3907 9.60429H69.7124V3.73775H93.2802V9.60429H90.5937C89.7023 9.60429 88.9817 10.3293 88.9817 11.2209V22.7705H81.4925C81.0593 22.7622 80.6386 22.9247 80.3262 23.2288C80.0137 23.533 79.8388 23.9496 79.8388 24.3829C79.8388 24.8204 80.0138 25.2371 80.3262 25.5412C80.6386 25.8454 81.0593 26.0079 81.4925 25.9995H88.9817V33.9036H86.0452C85.6078 33.8911 85.1871 34.0577 84.8747 34.3577C84.5664 34.6619 84.3873 35.0785 84.3873 35.516C84.3873 35.9493 84.5664 36.366 84.8747 36.6701C85.1871 36.9743 85.6077 37.1409 86.0452 37.1284H88.9817V45.0325H81.4925C81.0593 45.02 80.6386 45.1866 80.3262 45.4908C80.0138 45.7908 79.8388 46.2074 79.8388 46.6449C79.8388 47.0782 80.0138 47.4949 80.3262 47.799C80.6386 48.1031 81.0593 48.2698 81.4925 48.2573L88.981 48.2579ZM79.405 92.5737C78.272 95.0153 75.802 96.5528 73.1071 96.4986H7.46231C4.81731 96.5278 2.38482 95.0361 1.21432 92.6653C0.0396641 90.2903 0.331281 87.4571 1.95991 85.3697L27.5932 49.6542V32.7757C26.631 32.9506 25.6397 32.6673 24.9107 32.0132C24.4192 31.5257 24.1443 30.8632 24.1443 30.1715V23.8759C24.1485 22.4383 25.3148 21.2759 26.7518 21.2718H53.8224C55.2637 21.2718 56.4258 22.4385 56.4299 23.8759V30.1715C56.4258 31.609 55.2636 32.7756 53.8224 32.7756H52.9769L52.981 49.6542L70.779 74.4494V12.8337C69.4836 12.8337 68.4547 12.9462 67.4135 11.9087V11.9045C66.8178 11.3129 66.4846 10.5045 66.4846 9.66701V3.67546C66.4888 1.92969 67.9008 0.513081 69.646 0.513081H93.3386C95.0838 0.513081 96.5 1.92969 96.5 3.67546V9.67533C96.5 11.4211 95.0838 12.8336 93.3386 12.8377H92.2056V82.0607C92.1973 85.2648 90.7602 88.2981 88.286 90.3313C85.8077 92.3689 82.5546 93.1896 79.4098 92.573L79.405 92.5737ZM63.7642 70.1955C58.9116 70.6872 54.109 71.6038 49.4147 72.9246C39.0306 75.5329 28.646 78.137 16.088 71.1955L30.4289 51.2173C30.683 50.9256 30.8205 50.5548 30.8205 50.1673V32.7799L49.7519 32.7841V50.1715H49.7602V50.1673C49.7602 50.5048 49.8644 50.8339 50.0601 51.1089L63.7642 70.1955ZM29.2091 29.5511H53.2055V24.5012H27.3718V29.5552L29.2091 29.5511Z" fill="#008DC3"/>
<path d="M40.2844 15.4415V15.4374M40.2844 15.4374C40.9383 15.4374 41.5257 15.0457 41.7755 14.4416C42.0296 13.8416 41.888 13.1458 41.4298 12.6833C40.9674 12.2208 40.2719 12.0833 39.6721 12.3333C39.0681 12.5833 38.6724 13.1708 38.6724 13.8249C38.6724 14.2541 38.8432 14.6624 39.1472 14.9665C39.4471 15.2665 39.8595 15.4374 40.2844 15.4374ZM70.7779 79.9649L66.0003 73.315C49.0938 73.6942 34.6526 85.3809 14.2006 73.8192L4.56619 87.2482C2.72508 89.8065 4.16215 93.273 7.4653 93.273H73.1069C74.4439 93.3189 75.6977 92.6231 76.36 91.4564C72.9236 89.5773 70.7826 85.9733 70.7784 82.0566L70.7779 79.9649ZM25.6886 0.5C28.621 0.5 31.2701 2.26657 32.3948 4.98321C33.5153 7.69568 32.8946 10.8165 30.8203 12.8956C28.7459 14.9705 25.622 15.5913 22.9103 14.4706C20.1987 13.3456 18.4285 10.6956 18.4285 7.76235C18.4285 3.74996 21.6774 0.5 25.6886 0.5ZM25.6886 3.72489C24.0558 3.72489 22.5854 4.70819 21.9606 6.21646C21.3358 7.7248 21.6816 9.45809 22.8353 10.6122C23.9891 11.7663 25.7219 12.1121 27.2298 11.4872C28.7376 10.8622 29.7206 9.39144 29.7206 7.76225C29.7206 6.69145 29.2957 5.66224 28.5376 4.90813C27.7837 4.14981 26.7549 3.72489 25.6886 3.72489ZM40.2844 18.6664C38.3309 18.6664 36.5647 17.4872 35.815 15.679C35.0653 13.8665 35.4818 11.7874 36.8647 10.3999C38.2476 9.01661 40.3302 8.60414 42.1379 9.35413C43.9457 10.0999 45.1245 11.8666 45.1245 13.8249C45.1245 15.1081 44.6163 16.3415 43.7083 17.2456C42.8003 18.1539 41.5714 18.6664 40.2844 18.6664ZM88.9811 48.2579V56.1619H86.0445C85.6072 56.1494 85.1865 56.3161 84.874 56.6202C84.5658 56.9244 84.3867 57.341 84.3867 57.7743C84.3867 58.2118 84.5658 58.6285 84.874 58.9284C85.1864 59.2326 85.6071 59.3993 86.0445 59.3868H88.9811V67.2908H81.4919C81.0587 67.2825 80.638 67.445 80.3255 67.7491C80.0131 68.0533 79.8382 68.47 79.8382 68.9032C79.8382 69.3407 80.0131 69.7574 80.3255 70.0615C80.6379 70.3656 81.0586 70.5282 81.4919 70.5198H88.9811V82.0609C88.9811 86.1942 85.628 89.5482 81.4919 89.5482C77.3557 89.5482 74.0027 86.1942 74.0027 82.0609V11.2209C74.0027 10.3292 73.2821 9.60429 72.3907 9.60429H69.7124V3.73775H93.2802V9.60429H90.5937C89.7023 9.60429 88.9817 10.3293 88.9817 11.2209V22.7705H81.4925C81.0593 22.7622 80.6386 22.9247 80.3262 23.2288C80.0137 23.533 79.8388 23.9496 79.8388 24.3829C79.8388 24.8204 80.0138 25.2371 80.3262 25.5412C80.6386 25.8454 81.0593 26.0079 81.4925 25.9995H88.9817V33.9036H86.0452C85.6078 33.8911 85.1871 34.0577 84.8747 34.3577C84.5664 34.6619 84.3873 35.0785 84.3873 35.516C84.3873 35.9493 84.5664 36.366 84.8747 36.6701C85.1871 36.9743 85.6078 37.1409 86.0452 37.1284H88.9817V45.0325H81.4925C81.0593 45.02 80.6386 45.1866 80.3262 45.4908C80.0138 45.7908 79.8388 46.2074 79.8388 46.6449C79.8388 47.0782 80.0138 47.4949 80.3262 47.799C80.6386 48.1031 81.0593 48.2698 81.4925 48.2573L88.9811 48.2579ZM79.405 92.5737C78.272 95.0153 75.802 96.5528 73.1071 96.4986H7.46231C4.81731 96.5278 2.38482 95.0361 1.21432 92.6653C0.0396642 90.2903 0.331281 87.4571 1.95991 85.3697L27.5932 49.6542V32.7757C26.631 32.9506 25.6397 32.6673 24.9107 32.0132C24.4192 31.5257 24.1443 30.8632 24.1443 30.1715V23.8759C24.1485 22.4383 25.3148 21.2759 26.7518 21.2718H53.8224C55.2637 21.2718 56.4258 22.4385 56.4299 23.8759V30.1715C56.4258 31.609 55.2636 32.7756 53.8224 32.7756H52.9769L52.981 49.6542L70.779 74.4494V12.8337C69.4836 12.8337 68.4547 12.9462 67.4135 11.9087V11.9045C66.8178 11.3129 66.4846 10.5045 66.4846 9.66701V3.67546C66.4888 1.92969 67.9008 0.513081 69.646 0.513081H93.3386C95.0838 0.513081 96.5 1.92969 96.5 3.67546V9.67533C96.5 11.4211 95.0838 12.8336 93.3386 12.8377H92.2056V82.0607C92.1973 85.2648 90.7602 88.2981 88.286 90.3313C85.8077 92.3688 82.5546 93.1896 79.4098 92.573L79.405 92.5737ZM63.7642 70.1955C58.9116 70.6872 54.109 71.6038 49.4147 72.9246C39.0306 75.5329 28.646 78.137 16.088 71.1955L30.4289 51.2173C30.683 50.9256 30.8205 50.5548 30.8205 50.1673V32.7799L49.7519 32.7841V50.1715H49.7602V50.1673C49.7602 50.5048 49.8644 50.8339 50.0601 51.1089L63.7642 70.1955ZM29.2091 29.5511H53.2055V24.5012H27.3718V29.5552L29.2091 29.5511Z" stroke="#008DC3"/>
</svg>
