<svg width="96" height="98" viewBox="0 0 96 98" fill="none" xmlns="http://www.w3.org/2000/svg">
<path d="M60.981 48.4351C62.1614 48.4352 63.0865 49.4656 63.0865 50.6929C63.0864 51.9202 62.1613 52.9506 60.981 52.9507C59.8007 52.9507 58.8756 51.9202 58.8756 50.6929C58.8756 49.4656 59.8006 48.4351 60.981 48.4351Z" fill="#008DC3" stroke="#008DC3" stroke-width="0.5"/>
<path d="M56.6456 32.3726C63.0619 32.3727 68.5287 37.3282 69.671 44.1207V44.1216L75.6768 80.5572H77.6808C80.906 80.5572 83.4971 83.3895 83.4972 86.8297V94.8609C83.497 96.0884 82.5722 97.1176 81.3917 97.1177H14.6007C13.4198 97.1177 12.4954 96.0885 12.4952 94.8609V86.8297C12.4953 83.3897 15.0856 80.5575 18.3106 80.5572H20.3145L26.3214 44.1285V44.1275C27.4624 37.3284 32.9292 32.3726 39.3468 32.3726H56.6456ZM18.3106 85.0718C17.4442 85.0721 16.7062 85.842 16.7061 86.8297V92.6031H79.2862V86.8297C79.2861 85.8418 78.5474 85.0718 77.6808 85.0718H18.3106ZM39.3468 36.8882C34.9958 36.8882 31.2504 40.2526 30.4669 44.9224L24.5909 80.5572H71.4005L65.5255 44.9156V44.9146C64.741 40.252 60.9956 36.8884 56.6456 36.8882H39.3468Z" fill="#008DC3" stroke="#008DC3" stroke-width="0.5"/>
<path d="M62.2507 56.3214C63.3285 56.2284 64.2955 57.0368 64.4861 58.173L67.2078 74.3849C67.4106 75.5924 66.6726 76.7776 65.5154 77.005C64.362 77.2329 63.2681 76.406 63.0632 75.1847L60.3416 58.9728C60.1391 57.7653 60.877 56.5802 62.034 56.3527L62.2507 56.3214Z" fill="#008DC3" stroke="#008DC3" stroke-width="0.5"/>
<path d="M93.6333 48.4341L93.8521 48.4459C94.9265 48.5636 95.7388 49.541 95.7388 50.692C95.7387 51.9197 94.8141 52.9498 93.6333 52.9498H77.6783C76.4975 52.9498 75.5729 51.9197 75.5728 50.692C75.5728 49.4642 76.4975 48.4341 77.6783 48.4341H93.6333Z" fill="#008DC3" stroke="#008DC3" stroke-width="0.5"/>
<path d="M18.3105 48.4348L18.5293 48.4465C19.6039 48.5642 20.416 49.5416 20.416 50.6926C20.4159 51.9203 19.4915 52.9504 18.3105 52.9504H2.35547C1.17453 52.9504 0.250069 51.9203 0.25 50.6926C0.25 49.4648 1.17448 48.4348 2.35547 48.4348H18.3105Z" fill="#008DC3" stroke="#008DC3" stroke-width="0.5"/>
<path d="M77.9878 15.0298C78.8116 14.1392 80.1554 14.139 80.979 15.0298C81.7921 15.9095 81.7919 17.3285 80.979 18.2085L70.4829 29.5659C69.6591 30.4567 68.3156 30.457 67.4917 29.5659C66.679 28.686 66.6788 27.2669 67.4917 26.3872L77.9878 15.0298Z" fill="#008DC3" stroke="#008DC3" stroke-width="0.5"/>
<path d="M15.0139 15.0292C15.8375 14.1382 17.1815 14.1386 18.0051 15.0292L28.5012 26.3866C29.3141 27.2665 29.3139 28.6855 28.5012 29.5653C27.6775 30.4564 26.3338 30.4563 25.51 29.5653L15.0139 18.2079C14.2013 17.3279 14.201 15.9089 15.0139 15.0292Z" fill="#008DC3" stroke="#008DC3" stroke-width="0.5"/>
<path d="M47.9966 0.25C49.1773 0.250097 50.1021 1.28011 50.1021 2.50781V18.5693C50.102 19.7969 49.1772 20.8271 47.9966 20.8271C46.8159 20.8271 45.8913 19.797 45.8912 18.5693V2.50781C45.8912 1.28005 46.8158 0.25 47.9966 0.25Z" fill="#008DC3" stroke="#008DC3" stroke-width="0.5"/>
</svg>
