<svg width="92" height="92" viewBox="0 0 92 92" fill="none" xmlns="http://www.w3.org/2000/svg">
<circle cx="45.9639" cy="45.9639" r="45.9639" fill="#2397A5"/>
<path d="M31.3692 50.4803C35.467 55.3576 40.3998 59.1978 46.03 61.915C48.1736 62.9265 51.0403 64.1266 54.2341 64.3323C54.4321 64.3409 54.6215 64.3494 54.8195 64.3494C56.9631 64.3494 58.6849 63.6123 60.0881 62.095C60.0967 62.0865 60.1139 62.0693 60.1225 62.0522C60.6218 61.4522 61.19 60.9121 61.784 60.3378C62.1886 59.9521 62.6019 59.5492 62.9979 59.1378C64.8315 57.2348 64.8315 54.8176 62.9807 52.9747L57.8068 47.823C56.9287 46.9144 55.8784 46.4344 54.7765 46.4344C53.6746 46.4344 52.6157 46.9144 51.7118 47.8144L48.6298 50.8831C48.3457 50.7203 48.053 50.5745 47.7776 50.4374C47.4332 50.266 47.1147 50.1031 46.8306 49.9231C44.0241 48.1487 41.4759 45.8343 39.0397 42.8599C37.8086 41.3084 36.9822 40.0055 36.4054 38.6769C37.2146 37.9483 37.9722 37.1854 38.7039 36.4397C38.9622 36.1739 39.229 35.9082 39.4959 35.6425C40.4257 34.7167 40.925 33.6452 40.925 32.5566C40.925 31.468 40.4343 30.3965 39.4959 29.4708L36.9305 26.9164C36.6292 26.6164 36.3451 26.3249 36.0524 26.0249C35.4842 25.442 34.8902 24.842 34.3048 24.302C33.4181 23.4362 32.3765 22.9819 31.2745 22.9819C30.1812 22.9819 29.131 23.4362 28.2098 24.3106L24.9901 27.5164C23.8193 28.6822 23.1565 30.0965 23.0187 31.7337C22.8552 33.7824 23.2339 35.9596 24.2153 38.5912C25.7219 42.6628 27.9946 46.4429 31.3692 50.4803Z" fill="white"/>
</svg>
