<svg width="154" height="138" viewBox="0 0 154 138" fill="none" xmlns="http://www.w3.org/2000/svg">
<path d="M129.616 1C132.602 1.00001 135.413 2.1619 137.514 4.27148L138.735 5.49805C143.088 9.86417 143.088 16.966 138.735 21.335L73.8682 86.4258C71.7644 88.5384 68.9571 89.6982 65.9678 89.6982C63.5504 89.6982 61.2525 88.9354 59.3477 87.5244L43.6074 103.322L42.8076 109.21C42.7333 109.761 42.4779 110.271 42.0889 110.661L30.1934 122.598C29.3846 123.409 28.5484 124.135 27.6953 124.786H68.1055C69.5094 124.786 70.6436 125.927 70.6436 127.331C70.6434 128.731 69.5093 129.874 68.1055 129.874H14.1426C13.1604 129.956 12.2053 130 11.292 130C6.65279 130 3.23029 129.026 2.81445 128.899V128.9C2.81218 128.9 2.80989 128.899 2.80762 128.898C2.80572 128.898 2.8035 128.897 2.80176 128.896V128.896C1.94382 128.639 1.29287 127.944 1.07715 127.085L1.04199 126.923C0.892427 126.11 1.14513 125.263 1.74121 124.665L58.7803 67.4287L59.0742 67.1348L94.4453 31.6445L116.436 9.57715V9.57324L116.728 9.28027L121.72 4.27148V4.27051C123.823 2.16403 126.629 1 129.616 1ZM8.80762 124.772C13.5799 125.16 21.001 124.623 26.6006 119.006L37.8945 107.672L38.6943 101.789H38.6953C38.767 101.232 39.0235 100.719 39.4199 100.329L55.7607 83.9287C54.8096 82.6361 54.1553 81.1614 53.8311 79.5928L8.80762 124.772Z" stroke="white" stroke-width="2"/>
<path d="M103.868 130.901C103.874 130.901 103.896 130.903 103.925 130.904C103.954 130.903 103.975 130.901 103.981 130.901H110.35C111.841 130.901 113.049 132.106 113.049 133.6C113.049 135.09 111.84 136.299 110.35 136.299H77.2207C75.7308 136.299 74.5215 135.09 74.5215 133.6C74.5216 132.108 75.7315 130.901 77.2207 130.901H103.868Z" stroke="white" stroke-width="2"/>
<path d="M150.3 130.901C151.791 130.901 153 132.106 153 133.6C153 135.09 151.79 136.299 150.3 136.299H129.226C127.733 136.299 126.526 135.089 126.526 133.6C126.526 132.109 127.734 130.901 129.226 130.901H150.3Z" stroke="white" stroke-width="2"/>
</svg>
