<svg width="84" height="76" viewBox="0 0 84 76" fill="none" xmlns="http://www.w3.org/2000/svg">
<path d="M33.4096 33.4091C42.6388 33.4091 50.1141 25.9338 50.1141 16.7046C50.1141 7.4753 42.6388 2.28882e-05 33.4096 2.28882e-05C24.1803 2.28882e-05 16.705 7.4753 16.705 16.7046C16.705 25.9338 24.1803 33.4091 33.4096 33.4091ZM33.4096 8.35229C38.0033 8.35229 41.7619 12.1108 41.7619 16.7046C41.7619 21.2983 38.0033 25.0568 33.4096 25.0568C28.8158 25.0568 25.0573 21.2983 25.0573 16.7046C25.0573 12.1108 28.8158 8.35229 33.4096 8.35229Z" fill="#2397A5"/>
<path d="M8.35227 58.466C9.27102 55.4592 22.1753 50.1137 33.4091 50.1137C33.4091 47.1904 33.952 44.3924 34.8707 41.8032C23.4699 41.3856 0 47.0652 0 58.466V66.8183H39.8403C37.6687 64.3961 35.9565 61.5981 34.8707 58.466H8.35227Z" fill="#2397A5"/>
<path d="M72.7906 58.5495C74.294 56.0856 75.171 53.2041 75.171 50.1137C75.171 40.8845 67.6957 33.4092 58.4664 33.4092C49.2372 33.4092 41.7619 40.8845 41.7619 50.1137C41.7619 59.343 49.2372 66.8183 58.4664 66.8183C61.5568 66.8183 64.4383 65.8995 66.9022 64.4379C70.786 68.3217 73.6675 71.2032 77.6349 75.1705L83.5232 69.2822C77.259 63.018 80.2241 65.9413 72.7906 58.5495ZM58.4664 58.466C53.8727 58.466 50.1141 54.7075 50.1141 50.1137C50.1141 45.52 53.8727 41.7614 58.4664 41.7614C63.0602 41.7614 66.8187 45.52 66.8187 50.1137C66.8187 54.7075 63.0602 58.466 58.4664 58.466Z" fill="#2397A5"/>
</svg>
