<svg width="110" height="107" viewBox="0 0 110 107" fill="none" xmlns="http://www.w3.org/2000/svg">
<path d="M64.9683 53.1482C64.9683 58.7666 60.2951 63.3211 54.5302 63.3211C48.7652 63.3211 44.092 58.7666 44.092 53.1482C44.092 47.5297 48.7652 42.9753 54.5302 42.9753C60.2951 42.9753 64.9683 47.5297 64.9683 53.1482Z" fill="#063458"/>
<path d="M78.9455 35.1466C78.4437 33.8215 77.6432 32.622 76.6031 31.6375C75.5929 30.6238 74.363 29.8436 73.0025 29.3546C71.8991 28.937 70.2415 28.4398 67.1885 28.3044C63.8858 28.1576 62.8956 28.126 54.5344 28.126C46.1724 28.126 45.1822 28.1568 41.8803 28.3036C38.8273 28.4398 37.1689 28.937 36.0663 29.3546C34.7058 29.8436 33.4751 30.6238 32.4657 31.6375C31.4256 32.622 30.6251 33.8207 30.1225 35.1466C29.6939 36.222 29.1838 37.8382 29.0449 40.8137C28.8943 44.0317 28.8618 44.9967 28.8618 53.1463C28.8618 61.295 28.8943 62.26 29.0449 65.4788C29.1838 68.4543 29.6939 70.0697 30.1225 71.1451C30.6251 72.471 31.4247 73.6697 32.4649 74.6542C33.4751 75.6679 34.705 76.4481 36.0655 76.9371C37.1689 77.3555 38.8273 77.8527 41.8803 77.9881C45.1822 78.1349 46.1716 78.1657 54.5336 78.1657C62.8964 78.1657 63.8866 78.1349 67.1876 77.9881C70.2407 77.8527 71.8991 77.3555 73.0025 76.9371C75.7335 75.9104 77.892 73.8067 78.9455 71.1451C79.374 70.0697 79.8841 68.4543 80.0239 65.4788C80.1745 62.26 80.2062 61.295 80.2062 53.1463C80.2062 44.9967 80.1745 44.0317 80.0239 40.8137C79.885 37.8382 79.3749 36.222 78.9455 35.1466ZM54.5344 68.8168C45.6532 68.8168 38.4537 61.801 38.4537 53.1454C38.4537 44.4899 45.6532 37.4741 54.5344 37.4741C63.4148 37.4741 70.6143 44.4899 70.6143 53.1454C70.6143 61.801 63.4148 68.8168 54.5344 68.8168ZM71.25 40.5169C69.1747 40.5169 67.4922 38.8771 67.4922 36.8545C67.4922 34.8319 69.1747 33.1922 71.25 33.1922C73.3254 33.1922 75.0079 34.8319 75.0079 36.8545C75.0071 38.8771 73.3254 40.5169 71.25 40.5169Z" fill="#063458"/>
<path d="M54.5339 0C24.4202 0 0 23.7998 0 53.1482C0 82.4967 24.4202 106.296 54.5339 106.296C84.6475 106.296 109.068 82.4967 109.068 53.1482C109.068 23.7998 84.6475 0 54.5339 0ZM85.6593 65.7305C85.5079 68.9793 84.9778 71.1973 84.204 73.1388C82.5772 77.2383 79.252 80.479 75.0456 82.0644C73.0544 82.8186 70.7777 83.3344 67.445 83.4828C64.1058 83.6312 63.039 83.6669 54.5347 83.6669C46.0296 83.6669 44.9636 83.6312 41.6235 83.4828C38.2909 83.3344 36.0142 82.8186 34.0229 82.0644C31.9326 81.298 30.0404 80.097 28.476 78.544C26.8833 77.0201 25.651 75.1752 24.8646 73.1388C24.0907 71.1981 23.5607 68.9793 23.4092 65.7313C23.2553 62.4761 23.2195 61.4364 23.2195 53.1482C23.2195 44.86 23.2553 43.8204 23.4084 40.5659C23.5598 37.3171 24.0891 35.0991 24.8629 33.1576C25.6493 31.1213 26.8825 29.2763 28.476 27.7525C30.0396 26.1994 31.9326 24.9984 34.0221 24.232C36.0142 23.4778 38.29 22.962 41.6235 22.8136C44.9628 22.6652 46.0296 22.6295 54.5339 22.6295C63.0381 22.6295 64.1049 22.6652 67.4442 22.8144C70.7777 22.962 73.0535 23.4778 75.0456 24.2312C77.1351 24.9976 79.0282 26.1994 80.5926 27.7525C82.1852 29.2771 83.4184 31.1213 84.204 33.1576C84.9787 35.0991 85.5079 37.3171 85.6602 40.5659C85.8124 43.8204 85.8482 44.86 85.8482 53.1482C85.8482 61.4364 85.8124 62.4761 85.6593 65.7305Z" fill="#063458"/>
</svg>
