<svg width="110" height="107" viewBox="0 0 110 107" fill="none" xmlns="http://www.w3.org/2000/svg">
<path d="M54.5339 0C43.7481 0 33.2045 3.11709 24.2365 8.95709C15.2684 14.7971 8.27871 23.0977 4.15117 32.8093C0.0236285 42.5208 -1.05632 53.2072 1.04788 63.5169C3.15208 73.8266 8.34592 83.2967 15.9726 90.7297C23.5993 98.1626 33.3163 103.224 43.8948 105.275C54.4734 107.326 65.4383 106.273 75.4031 102.251C85.3678 98.2281 93.8849 91.4159 99.8771 82.6758C105.869 73.9356 109.068 63.6599 109.068 53.1482C109.068 39.0524 103.322 25.534 93.0951 15.5667C82.868 5.59953 68.9972 0 54.5339 0ZM38.676 81.1209H26.779V43.7703H38.676V81.1209ZM32.7203 38.6723C31.3511 38.6778 30.011 38.2876 28.8693 37.551C27.7277 36.8144 26.8357 35.7644 26.3062 34.5338C25.7766 33.3033 25.6333 31.9473 25.8944 30.6374C26.1554 29.3274 26.8091 28.1223 27.7727 27.1744C28.7363 26.2264 29.9667 25.5782 31.3083 25.3116C32.6499 25.045 34.0425 25.172 35.31 25.6766C36.5776 26.1811 37.6632 27.0406 38.4296 28.1464C39.196 29.2521 39.6089 30.5545 39.616 31.8889C39.6198 33.6782 38.8966 35.3963 37.6044 36.6674C36.3123 37.9385 34.5563 38.6594 32.7203 38.6723ZM83.2359 81.1209H71.3461V62.9387C71.3461 58.6029 71.26 53.0433 65.1608 53.0433C59.0616 53.0433 57.9853 57.7567 57.9853 62.624V81.1209H46.1385V43.7703H57.5548V48.8614H57.7198C59.3056 45.9242 63.1875 42.8263 68.9782 42.8263C81.0187 42.8263 83.2359 50.5607 83.2359 60.6029V81.1209Z" fill="#063458"/>
</svg>
