<svg width="188" height="100" viewBox="0 0 188 100" fill="none" xmlns="http://www.w3.org/2000/svg">
<g clip-path="url(#clip0_6041_2820)">
<path d="M81.2461 54.8193C81.2461 54.7299 81.2461 54.6405 81.2908 54.5734C81.6485 53.8356 82.0062 53.1202 82.3416 52.3824C82.4534 52.1365 82.5652 52.1365 82.7664 52.2483C83.5265 52.6954 84.2643 53.1649 85.0244 53.6121C85.1809 53.7015 85.2033 53.8133 85.1139 53.9698C84.7338 54.6852 84.3984 55.423 84.0407 56.1608C83.8842 56.4738 83.7277 56.5185 83.4147 56.2949C82.7887 55.8701 82.118 55.4901 81.4697 55.0876C81.3355 54.9982 81.2461 54.9311 81.2685 54.797" fill="white"/>
<path d="M35.4139 46.7708C34.4749 45.4071 34.229 43.8421 34.3855 42.2547C34.542 40.5556 35.0562 38.9459 35.6822 37.3585C35.7493 37.1797 35.8611 36.889 36.1293 37.0008C36.42 37.1126 36.4647 37.4256 36.3976 37.6715C36.2411 38.2975 36.1517 38.9235 35.9505 39.5495C35.5257 40.8239 35.3916 42.0982 35.8163 43.4173C36.107 44.3116 36.7553 44.9152 37.5155 45.4071C38.4992 46.0554 39.5947 46.3237 40.7572 46.4578C42.3222 46.6367 43.8649 46.5473 45.4075 46.1672C47.2184 45.7201 49.0293 45.2058 50.7732 44.5128C52.5617 43.7974 54.2385 42.8807 55.8035 41.7405C55.96 41.6287 55.9376 41.4946 55.8929 41.3157C55.647 40.4662 55.2222 39.7284 54.8198 38.9682C54.2609 37.9398 53.769 36.889 53.2325 35.8383C53.0983 35.57 52.8747 35.3464 52.9194 35.0111C52.9642 34.631 53.0983 34.2956 53.2101 33.9379C53.3442 33.4908 53.5007 33.0436 53.6349 32.5965C53.7243 32.3506 53.8137 32.2835 54.0149 32.5071C54.5068 33.0436 55.0881 33.4908 55.4681 34.1391C55.6917 34.5416 55.8929 34.9663 55.7141 35.4358C55.647 35.6147 55.7364 35.7712 55.8259 35.9277C56.2506 36.7996 56.7649 37.6492 57.0555 38.6105C57.3908 39.706 57.3461 40.8239 57.0555 41.9194C56.899 42.523 56.7201 43.1266 56.3624 43.6632C55.8706 44.401 55.1551 44.8928 54.4174 45.3623C53.6349 45.8542 52.83 46.3237 52.0252 46.7932C51.2203 47.1285 50.4825 47.5533 49.6553 47.8216C47.9562 48.3805 46.2571 48.9842 44.4909 49.3419C43.4177 49.5655 42.3222 49.6325 41.2491 49.5655C39.237 49.4537 37.359 48.9171 35.9281 47.3968C35.7493 47.218 35.6151 47.0168 35.4586 46.8155" fill="white"/>
<path d="M86.0749 23.5643C85.9408 24.2573 85.6725 24.8833 85.2477 25.4423C85.0912 25.6435 84.8229 25.6211 84.5993 25.6882C83.325 26.0235 82.073 26.493 80.821 26.8955C78.7195 27.5438 76.6403 28.2592 74.5387 28.8852C72.8619 29.3771 71.2075 29.8913 69.5531 30.4502C66.982 31.3445 64.3886 32.1717 61.8623 33.1778C61.5716 33.2896 61.5493 33.1107 61.594 32.9319C61.6611 32.4847 61.7952 32.0599 61.8623 31.6128C61.9517 31.0986 62.2424 30.875 62.7342 30.7185C63.7403 30.4055 64.7016 30.0031 65.7077 29.7124C67.4962 29.2206 69.173 28.4381 70.9392 27.9015C73.7115 27.052 76.5061 26.2248 79.2784 25.3305C80.7092 24.861 82.1401 24.4138 83.5933 23.9891C84.3311 23.7655 85.0465 23.5419 85.7619 23.296C86.0078 23.2066 86.142 23.2289 86.0973 23.5419" fill="white"/>
<path d="M88.1543 32.9766C88.3108 32.3953 88.4449 31.814 88.6014 31.2327C88.6462 31.0539 88.8921 31.0315 89.0486 30.9644C90.7924 30.2714 92.6033 29.8019 94.3695 29.1759C95.2191 28.8852 96.024 28.5275 96.8735 28.2592C99.6458 27.4097 102.418 26.5377 105.213 25.6882C107.024 25.1293 108.812 24.5703 110.623 24.0114C111.204 23.8326 111.808 23.6761 112.389 23.4525C112.658 23.3407 112.702 23.4525 112.702 23.6537C112.702 23.8549 112.702 23.8549 112.68 23.922C112.501 24.3468 112.322 24.7939 112.143 25.2187C112.009 25.554 111.719 25.6882 111.383 25.7776C110.377 26.0459 109.371 26.3812 108.387 26.6942C107.091 27.119 105.772 27.4767 104.497 27.9239C102.485 28.6169 100.451 29.1759 98.4162 29.8242C96.5605 30.4279 94.7273 31.0986 92.8716 31.7246C91.4408 32.1941 90.0099 32.7306 88.5791 33.2448C88.2437 33.3566 88.1543 33.3119 88.1767 32.9766" fill="white"/>
<path d="M58.933 44.6469C59.0895 43.9315 59.0895 43.1937 59.0001 42.4783C58.8883 41.3157 58.8659 40.1308 58.7094 38.9682C58.5976 38.2081 58.5976 37.448 58.5306 36.6878C58.4411 35.57 58.2846 34.4745 58.2176 33.3566C58.1729 32.6636 58.1058 31.9705 58.0387 31.2774C57.9493 30.4279 57.9269 29.5783 57.7704 28.7511C57.6139 27.8345 57.7704 26.8955 57.6363 25.9788C57.6139 25.8 57.7034 25.5988 57.7928 25.4199C58.0834 24.7939 58.3964 24.1679 58.6871 23.5419C58.7318 23.4301 58.7318 23.2736 58.933 23.296C59.1119 23.296 59.2013 23.4078 59.2684 23.5419C59.4025 23.8996 59.5366 24.2797 59.6931 24.6374C59.9838 25.3528 60.3638 26.0459 60.498 26.8507C60.6545 27.678 60.6098 28.4381 60.1626 29.1535C59.8943 29.5559 59.9391 30.0031 60.0285 30.4055C60.1403 30.9868 60.0956 31.5904 60.1403 32.1717C60.2073 32.8871 60.2297 33.6026 60.2744 34.318C60.3415 35.7712 60.4309 37.2244 60.5203 38.6552C60.5874 39.7284 60.6098 40.8015 60.5651 41.8523C60.5203 42.836 60.2968 43.8197 59.6931 44.6916C59.6037 44.8258 59.4919 44.9152 59.4025 45.027C59.3131 45.1388 59.2013 45.2729 59.0224 45.1388C58.8436 45.027 58.8212 44.8705 58.933 44.6916" fill="white"/>
<path d="M43.8872 26.3812C42.747 26.1353 41.6739 25.9118 40.5784 26.1353C40.4219 26.1577 40.2654 26.1353 40.1089 26.2024C39.9748 26.2471 39.7288 26.2695 39.6394 26.2024C39.5276 26.0683 39.55 25.8447 39.6394 25.6658C39.9748 24.9728 40.3325 24.2797 40.6455 23.5643C40.802 23.2066 41.115 23.2736 41.3385 23.2289C42.6576 23.0053 43.9767 23.1618 45.251 23.5419C45.8994 23.7208 46.2124 24.3244 45.9217 24.9057C45.5193 25.7105 45.184 26.5601 44.625 27.2979C43.7531 28.4381 42.6129 29.1088 41.2491 29.4218C40.7126 29.5336 40.1536 29.6007 39.6394 29.8019C39.55 29.8466 39.4158 29.8019 39.3264 29.8242C39.1476 29.8242 38.9687 29.8242 38.924 29.6454C38.8793 29.5112 39.0581 29.4218 39.1923 29.3324C40.3101 28.5722 41.495 27.9239 42.6576 27.2308C43.06 26.9849 43.4848 26.7613 43.9096 26.4036" fill="white"/>
<path d="M43.8422 35.4582C44.0658 35.57 44.2893 35.7041 44.5129 35.8383C45.0495 36.1513 45.586 36.4866 46.1226 36.822C46.3685 36.9785 46.4803 37.1126 46.3015 37.448C45.9214 38.1857 45.519 38.9012 45.1613 39.6389C45.0718 39.7954 45.0271 39.8402 44.893 39.7507C44.1328 39.2812 43.3951 38.7894 42.6349 38.3422C42.4784 38.2528 42.4337 38.1857 42.5455 38.0069C42.9256 37.2467 43.3056 36.4419 43.6857 35.6818C43.7304 35.5923 43.7304 35.4582 43.8869 35.4805" fill="white"/>
<path d="M150.754 23.5419C150.664 23.7655 150.619 24.0338 150.508 24.2797C150.351 24.5703 150.262 24.8833 150.128 25.174C149.971 25.5093 149.636 25.5988 149.3 25.6882C147.959 26.0459 146.662 26.5377 145.321 26.9402C143.219 27.6109 141.118 28.3039 138.994 28.9299C136.982 29.5336 134.97 30.1819 132.98 30.8526C130.878 31.5681 128.777 32.3282 126.697 33.066C126.206 33.2448 126.228 33.2448 126.273 32.753C126.317 32.2164 126.519 31.7246 126.608 31.2104C126.653 30.9644 126.876 30.9197 127.078 30.8303C128.844 30.1372 130.655 29.6454 132.443 29.0417C133.427 28.7064 134.388 28.2816 135.394 27.9686C138.167 27.0967 140.961 26.3142 143.733 25.3975C145.254 24.9057 146.796 24.4585 148.317 23.9667C149.032 23.7431 149.792 23.5866 150.485 23.2736C150.687 23.1842 150.776 23.2736 150.798 23.4972" fill="white"/>
<path d="M165.576 31.2327C164.659 31.0091 163.81 30.8303 162.938 30.875C162.513 30.875 162.088 30.9868 161.664 31.0315C161.261 31.0539 161.127 30.8974 161.284 30.5396C161.597 29.7795 161.954 29.0194 162.357 28.3039C162.513 28.0133 162.96 28.058 163.273 28.0357C164.436 27.9239 165.598 28.0357 166.739 28.3263C167.655 28.5499 167.856 29.1535 167.521 29.8689C167.007 30.9868 166.493 32.127 165.509 32.9766C164.771 33.6249 163.922 33.9603 163.027 34.2062C162.401 34.385 161.731 34.4521 161.105 34.6533C160.903 34.7204 160.725 34.6086 160.613 34.5192C160.434 34.385 160.658 34.2956 160.725 34.2286C161.306 33.8485 161.887 33.4684 162.491 33.1107C163.385 32.5741 164.302 32.0823 165.174 31.5234C165.308 31.4339 165.375 31.3221 165.576 31.2327Z" fill="white"/>
<path d="M178.99 26.6719C178.99 26.1353 179.147 25.7105 179.371 25.3305C179.616 24.8833 179.751 24.3915 180.064 23.9667C180.6 23.2066 181.45 22.8936 182.12 23.3183C182.612 23.6313 182.836 24.1232 182.925 24.6821C183.194 26.1353 182.657 27.3873 181.942 28.5722C181.114 29.936 180.131 31.1656 178.789 32.0376C177.806 32.6859 176.732 33.2001 175.659 33.7143C175.615 33.7367 175.547 33.7591 175.503 33.7591C175.391 33.7591 175.234 33.8261 175.167 33.7143C175.1 33.5578 175.234 33.4684 175.346 33.379C175.659 33.1331 175.995 32.9095 176.285 32.6636C176.822 32.2388 177.381 31.8364 177.895 31.3669C178.7 30.6291 179.549 29.936 180.31 29.1535C180.801 28.6617 181.226 28.1027 181.651 27.5662C182.12 26.9625 181.785 25.3081 180.891 25.1069C180.578 25.0398 180.332 25.174 180.108 25.3752C180.019 25.4646 180.064 25.554 180.108 25.6658C180.421 26.1353 180.801 26.5154 181.338 26.6719C181.606 26.7613 181.584 26.8284 181.494 27.0296C181.271 27.5438 180.891 27.9239 180.578 28.371C180.488 28.5052 180.332 28.5275 180.22 28.4605C179.572 28.1027 178.879 27.4544 178.946 26.7166" fill="white"/>
<path d="M145.165 30.6962C145.97 31.1433 146.752 31.5681 147.49 32.0823C147.713 32.2388 147.78 32.1494 147.87 31.9929C148.205 31.2998 148.563 30.6067 148.898 29.9137C149.01 29.6677 149.122 29.623 149.345 29.7795C150.061 30.2267 150.821 30.6291 151.536 31.1209C151.76 31.2774 151.715 31.3669 151.626 31.5234C151.246 32.2835 150.866 33.0213 150.508 33.7814C150.374 34.0497 150.24 34.0273 150.061 33.9156C149.457 33.5355 148.831 33.1554 148.228 32.753C147.937 32.5741 147.78 32.5071 147.624 32.9095C147.333 33.6026 146.953 34.2509 146.618 34.9216C146.528 35.1005 146.461 35.1452 146.283 35.0558C145.522 34.5863 144.785 34.1391 144.024 33.692C143.868 33.6026 143.89 33.4908 143.957 33.3119C144.248 32.5741 144.673 31.9034 144.986 31.188C145.053 31.0539 145.12 30.8974 145.187 30.7409" fill="white"/>
<path d="M138.145 37.3809C137.72 38.2081 137.295 39.0353 136.893 39.8625C136.826 40.019 136.803 39.9967 136.669 39.9072C135.954 39.4601 135.216 39.0353 134.478 38.5882C134.255 38.454 134.188 38.2528 134.322 38.0069C134.679 37.2244 135.127 36.509 135.417 35.7041C135.462 35.5923 135.529 35.5476 135.663 35.637C136.334 36.0618 137.049 36.4419 137.72 36.889C138.011 37.0902 138.122 37.0232 138.257 36.7325C138.57 36.0618 138.883 35.4135 139.196 34.7428C139.285 34.5639 139.352 34.4521 139.576 34.5863C140.291 35.0334 141.029 35.4358 141.722 35.9053C141.99 36.0842 142.013 36.2183 141.878 36.4866C141.498 37.202 141.141 37.9175 140.805 38.6329C140.693 38.8788 140.582 38.8788 140.381 38.767C139.62 38.3199 138.883 37.8504 138.122 37.4032" fill="white"/>
<path d="M118.873 31.0762C118.828 31.1433 118.806 31.2104 118.783 31.2551C118.403 32.0152 118.001 32.7753 117.643 33.5355C117.531 33.7591 117.442 33.7591 117.241 33.6473C116.525 33.2001 115.81 32.753 115.094 32.3282C114.871 32.1941 114.848 32.0823 114.96 31.8811C115.34 31.0986 115.72 30.2937 116.1 29.5112C116.167 29.3771 116.19 29.3547 116.324 29.4442C117.129 29.8689 117.889 30.3831 118.694 30.8526C118.783 30.8974 118.873 30.9644 118.895 31.0762" fill="white"/>
<path d="M139.195 33.6026C139.195 33.5578 139.195 33.6026 139.172 33.6696C138.792 34.4745 138.39 35.2793 137.943 36.0395C137.853 36.1736 137.831 36.1736 137.719 36.1065C136.959 35.637 136.199 35.1675 135.439 34.698C135.305 34.6086 135.215 34.5192 135.327 34.318C135.729 33.6249 136.042 32.8648 136.4 32.127C136.512 31.8811 136.646 31.7693 136.914 31.9481C137.63 32.3953 138.39 32.7977 139.083 33.2896C139.15 33.3343 139.262 33.3566 139.195 33.6026Z" fill="white"/>
<path d="M187.33 39.9296C187.106 38.7 185.944 37.6939 184.714 37.828C183.909 37.8951 183.127 38.074 182.411 38.4317C181.226 39.0129 180.243 39.8625 179.281 40.7344C178.543 41.4051 177.806 42.0759 176.822 42.3665C176.241 42.5454 175.659 42.7242 175.056 42.4783C174.273 42.1653 174.117 41.4722 174.005 40.7568C174.005 40.6003 173.96 40.4885 173.871 40.3544C173.737 40.4662 173.536 40.3544 173.424 40.5109C173.357 40.6227 173.223 40.6897 173.155 40.8239C172.954 41.1816 172.731 41.5169 172.552 41.8746C172.127 42.7242 171.501 43.2161 170.517 43.2831C169.712 43.3278 168.997 42.7466 168.997 41.9641C168.997 41.1816 168.997 41.6064 168.997 41.4275C168.997 41.2934 169.042 41.1369 168.863 41.0698C168.729 41.0251 168.595 41.0474 168.438 41.1369C168.08 41.3604 167.902 41.7181 167.678 42.0311C167.186 42.7242 166.627 43.3278 165.822 43.6856C165.107 44.0209 164.347 44.1774 163.676 43.6856C162.961 43.1713 162.625 42.4336 162.759 41.5169C162.782 41.3381 162.692 41.2039 162.581 41.0921C162.469 40.9804 162.357 41.0921 162.245 41.1369C161.977 41.271 161.709 41.4051 161.463 41.584C160.814 42.0311 160.188 42.523 159.518 42.9478C157.64 44.1327 155.605 44.7811 153.347 44.4904C151.424 44.2445 150.195 43.2161 149.524 41.4051C149.122 40.3097 149.055 39.1471 148.809 38.0069C148.675 37.448 148.742 36.8443 148.518 36.3078C148.473 36.196 148.518 36.0395 148.362 36.0171C148.227 36.0171 148.16 36.1513 148.093 36.2854C147.847 36.7325 147.579 37.1797 147.288 37.6045C146.908 38.1634 146.797 38.767 146.864 39.4154C146.975 40.332 147.042 41.271 147.199 42.1876C147.288 42.7019 147.199 43.1937 147.333 43.7079C147.423 43.9986 147.333 44.2445 146.953 44.3563C146.439 44.4904 145.947 44.5351 145.455 44.3563C144.471 43.9986 143.89 43.2831 143.6 42.2994C143.577 42.1876 143.622 41.9864 143.398 41.9641C143.219 41.9641 143.085 42.0311 142.974 42.1653C142.795 42.4112 142.638 42.6571 142.459 42.9254C142.079 43.5514 141.722 44.1774 141.118 44.6693C140.045 45.5635 138.167 44.8928 138.01 43.6408C137.988 43.3949 138.01 43.1713 137.943 42.9254C137.921 42.7913 137.876 42.6124 137.787 42.5677C137.72 42.523 137.563 42.6571 137.451 42.7466C137.094 43.0819 136.803 43.462 136.557 43.8644C135.953 44.8258 135.149 45.4965 133.986 45.7648C132.622 46.0554 130.945 44.9823 131.415 43.3278C131.482 43.0819 131.571 42.836 131.482 42.5901C131.46 42.5006 131.437 42.3441 131.214 42.4559C130.767 42.6795 130.275 42.836 129.805 43.0596C128.419 43.6632 127.055 44.3339 125.557 44.714C124.82 44.9152 124.104 45.0941 123.344 45.1835C122.651 45.2506 121.98 45.2729 121.31 45.1835C120.482 45.0717 119.7 44.8928 118.962 44.5351C118.716 44.4233 118.694 44.3116 118.873 44.1103C119.342 43.6185 119.678 43.0596 119.923 42.4112C120.326 41.3604 120.527 40.3097 120.169 39.1694C119.856 38.1634 119.186 37.448 118.448 36.7772C118.224 36.576 117.911 36.4419 117.576 36.4419C116.883 36.4419 116.413 36.7772 116.011 37.3138C115.43 38.0963 114.983 38.9235 114.893 39.8849C114.781 41.1592 114.893 42.4112 115.519 43.5738C115.653 43.8197 115.586 43.9538 115.34 44.0433C115.05 44.1774 114.759 44.3563 114.468 44.4904C113.239 45.094 112.009 45.7648 110.601 45.9213C110.288 45.9436 110.086 46.1001 109.975 46.4355C109.773 47.1062 109.527 47.7545 109.326 48.4029C109.214 48.7606 109.371 48.9618 109.796 48.9842C109.952 48.9842 110.109 48.9842 110.243 48.9842C111.048 49.163 111.83 49.3419 112.613 49.5431C113.529 49.789 114.401 50.102 115.005 50.9069C113.328 51.7564 111.584 52.4719 109.796 53.0084C108.477 53.4109 107.113 53.6791 105.727 53.7909C104.654 53.8803 103.58 54.0145 102.485 53.8803C101.233 53.7238 100.07 53.3885 98.9973 52.7401C98.036 52.1589 97.3652 51.3764 97.0075 50.3256C96.6945 49.4537 96.7616 48.5594 96.9628 47.6651C97.0299 47.3968 97.1193 47.218 97.3205 47.1062L96.2027 47.4862C96.1356 47.7098 96.0685 47.844 96.0238 48.0005C95.7332 48.9618 95.6885 49.9455 95.6885 50.9292C95.6885 52.6284 96.3368 53.9921 97.6112 55.0876C99.0644 56.3396 100.786 56.8315 102.642 56.9433C104.005 57.0103 105.347 56.8315 106.688 56.6303C107.94 56.4514 109.147 56.116 110.332 55.6689C111.473 55.2665 112.568 54.7746 113.663 54.2828C114.245 54.0145 114.804 53.7238 115.296 53.3214C116.1 52.6284 116.458 51.667 116.749 50.6833C116.995 49.8561 116.861 49.0512 116.413 48.3135C116.078 47.7545 115.541 47.3745 114.983 47.0391C115.452 46.7261 115.899 46.4578 116.346 46.1448C116.458 46.0778 116.458 46.0554 116.548 46.1672C117.084 46.7708 117.732 47.2403 118.47 47.5533C119.991 48.2017 121.556 48.2911 123.188 48.0675C124.775 47.844 126.273 47.3074 127.726 46.7038C128.531 46.3684 129.291 45.966 130.185 45.6753C130.074 45.9436 130.23 46.1448 130.23 46.3684C130.23 46.972 130.476 47.5086 130.878 47.9334C132.108 49.2077 134.366 48.8947 135.506 47.4192C135.931 46.8826 136.289 46.3237 136.714 45.7424C136.825 46.3237 136.937 46.8379 137.295 47.2403C137.854 47.844 138.547 48.0675 139.396 47.9781C140.402 47.8887 141.118 47.4192 141.61 46.5696C141.856 46.1448 142.124 45.6977 142.37 45.2505C142.549 45.5188 142.705 45.7648 142.862 45.9883C143.577 46.9944 144.471 47.6427 145.768 47.3968C146.551 47.2403 147.244 46.8826 147.736 46.1895C148.071 45.72 148.272 45.1611 148.54 44.6469C148.585 44.6693 148.585 44.6693 148.607 44.6916C148.63 44.7363 148.652 44.7811 148.675 44.8258C149.323 45.9213 150.172 46.7485 151.447 47.1733C152.654 47.5757 153.861 47.6427 155.113 47.4862C156.209 47.3521 157.237 46.972 158.199 46.4802C159.272 45.9436 160.278 45.2953 161.239 44.5575C161.485 44.3563 161.597 44.3786 161.686 44.7363C161.865 45.5412 162.223 46.2566 162.961 46.7038C163.922 47.3074 165.152 46.972 165.979 46.4131C166.739 45.8989 167.186 45.1164 167.767 44.401C167.812 44.5575 167.857 44.6693 167.879 44.8034C168.058 45.6306 168.729 46.3237 169.623 46.3237C170.629 46.3237 171.412 45.8765 171.971 45.0046C172.261 44.5575 172.418 44.0433 172.753 43.6185C172.999 44.4681 173.357 45.2058 174.273 45.4741C175.279 45.7424 176.218 45.5188 177.09 45.0046C178.23 44.3339 179.058 43.2831 180.108 42.5006C180.913 41.8746 181.696 41.2263 182.657 40.8686C183.932 40.3767 185.273 40.8686 185.608 42.3441C185.742 42.9478 185.474 43.2608 184.915 43.149C183.887 42.9478 183.127 42.3441 182.456 41.6064C182.299 41.4275 182.21 41.4275 182.031 41.5616C181.428 42.0311 180.802 42.4783 180.176 42.9254C179.974 43.0596 179.997 43.149 180.086 43.3278C180.712 44.3786 181.584 45.2058 182.724 45.6753C183.529 46.0107 184.312 45.9213 185.027 45.3623C185.541 44.9599 185.966 44.4904 186.279 43.9315C186.95 42.6795 187.553 41.4051 187.263 39.9072L187.33 39.9296ZM117.688 42.5677C117.598 42.6348 117.554 42.6348 117.487 42.5677C116.838 41.8523 116.391 41.0251 116.212 40.2202C116.167 39.7731 116.413 39.6613 116.615 39.5495C116.95 39.3707 117.285 39.4601 117.554 39.706C118.09 40.1532 118.515 40.6897 118.85 41.3157C118.917 41.4275 118.895 41.5169 118.806 41.6064C118.47 41.9641 118.09 42.2771 117.688 42.5677Z" fill="white"/>
<path d="M97.5444 47.0391C98.394 46.7261 99.2212 46.3684 100.026 45.966C100.809 45.5859 101.613 45.2506 102.329 44.7587C103.223 44.1327 103.737 43.2161 104.117 42.21C104.43 41.3381 104.564 40.4438 104.274 39.5272C103.827 38.1634 102.888 37.1573 101.882 36.196C101.748 36.0618 101.703 36.1513 101.658 36.263C101.412 36.9114 101.211 37.5821 100.876 38.1857C100.585 38.7447 100.786 39.08 101.122 39.4601C101.68 40.0861 102.262 40.7121 102.642 41.4946C102.798 41.8076 102.709 41.897 102.485 42.0535C100.965 42.9925 99.333 43.6632 97.6562 44.2445C94.638 45.3176 91.5304 46.0107 88.3557 46.3684C86.9919 46.5249 85.6281 46.5473 84.242 46.592C83.4148 46.6367 82.5652 46.6143 81.738 46.5473C80.7319 46.4578 79.7259 46.3684 78.7422 46.1225C77.1995 45.72 75.9028 44.9152 74.9191 43.6632C74.1143 42.6124 73.7118 41.3828 73.533 40.0637C73.3988 38.9012 73.1976 37.761 72.9517 36.6208C72.7058 35.4582 72.5269 34.2956 72.1692 33.1554C72.1245 33.0436 72.1245 32.8424 72.0127 32.8201C71.8786 32.7977 71.8115 32.9542 71.7444 33.066C71.4538 33.6696 71.1408 34.2956 70.8278 34.8993C70.6936 35.1675 70.6489 35.4805 70.6937 35.7488C70.8949 36.7325 71.1184 37.6939 71.2749 38.7C71.4538 39.7954 71.6997 40.8686 71.9009 41.9641C72.0351 42.7466 72.1469 43.5291 72.2586 44.3116C72.3257 44.8258 72.1916 45.0941 71.8786 45.4294C70.716 46.6367 69.3522 47.531 67.8543 48.224C66.8706 48.6712 65.8422 48.9618 64.769 48.8277C64.0089 48.7382 63.3606 48.4476 62.9805 47.7098C62.8687 47.5086 62.9134 47.3968 63.0699 47.285C63.9195 46.659 64.6573 45.9213 65.4845 45.3176C66.7812 44.3563 67.4295 43.0372 67.586 41.5169C67.7202 40.2649 67.7202 38.9682 67.1612 37.761C66.9153 37.2244 66.8482 36.6878 67.0495 36.1513C67.1836 35.7935 67.1165 35.4582 66.9153 35.1675C66.5352 34.6086 66.1552 34.0721 65.7528 33.5131C65.5963 33.3119 65.4398 33.2448 65.328 33.5578C65.082 34.2509 64.8138 34.9663 64.5902 35.6594C64.5231 35.8383 64.5231 36.1065 64.5902 36.263C64.769 36.5984 64.8361 36.9561 64.9479 37.3138C65.3727 38.7223 65.9093 40.0861 66.3117 41.4946C66.3564 41.6511 66.3564 41.7405 66.2446 41.8523C65.5515 42.5454 64.8361 43.1937 64.0536 43.7973C63.1146 44.5128 62.1309 45.1388 61.1249 45.72C60.6777 45.9883 60.2306 46.346 59.6716 46.4131C59.6493 46.4355 59.6269 46.4802 59.5822 46.4802C57.816 47.2627 56.0498 48.0452 54.1942 48.6041C53.367 48.9395 52.5398 49.2525 51.6902 49.476C50.3264 49.8561 48.985 50.2138 47.6212 50.5268C46.5481 50.7727 45.475 50.9069 44.4242 51.2646C44.29 51.3093 44.0888 51.2422 44.1559 51.4882C44.2006 51.667 44.29 51.7788 44.4913 51.7788C45.6762 51.7788 46.8387 51.8012 48.0013 51.9353C48.672 52.0024 49.3427 52.0694 49.9911 52.1141C51.2207 52.2259 52.428 52.2483 53.6353 51.8011C54.9096 51.3317 56.2063 50.9069 57.436 50.3479C58.5538 49.8337 59.7164 49.409 60.7671 48.7606C61.1472 48.537 61.4826 48.2687 61.9297 48.1346C61.9297 48.5594 61.9297 48.9842 61.9297 49.3866C61.9521 50.2809 62.7122 51.3987 63.6288 51.6894C64.8585 52.1141 66.0658 51.9129 67.206 51.4211C68.4356 50.8845 69.5311 50.1467 70.5819 49.2972C71.8786 48.2687 72.7952 46.9944 73.3094 45.4071C73.3765 45.4741 73.4212 45.4965 73.4436 45.5412C74.0696 46.6814 74.9862 47.5757 76.1264 48.1793C77.3337 48.8053 78.608 49.2077 79.9942 49.3419C81.2238 49.476 82.4758 49.476 83.7054 49.4984C85.3375 49.4984 86.9695 49.3866 88.6016 49.1854C89.8536 49.0289 91.0832 48.8277 92.3129 48.537C93.6319 48.2464 94.9286 47.911 96.2477 47.4192L97.3655 47.0391C97.4103 47.0168 97.455 46.9944 97.4997 46.972L97.5444 47.0391Z" fill="white"/>
<path d="M33.9159 72.7049V72.1013L34.8996 71.8777V66.0873L33.9159 65.8637V65.2601H37.18C38.0072 65.2601 38.6779 65.3942 39.1698 65.6848C39.6617 65.9755 39.9076 66.4226 39.9076 67.071C39.9076 67.7193 39.7734 67.8088 39.4828 68.1218C39.2145 68.4348 38.8792 68.636 38.4991 68.7254C39.0804 68.8595 39.5499 69.0831 39.9076 69.4185C40.2653 69.7538 40.4218 70.1562 40.4218 70.6481C40.4218 71.1399 40.1535 71.7883 39.6169 72.1684C39.0804 72.5484 38.3873 72.7496 37.5601 72.7496H33.8936L33.9159 72.7049ZM36.6435 68.4571H36.8C37.18 68.4571 37.493 68.3453 37.7613 68.1218C38.0296 67.8982 38.1414 67.5628 38.1414 67.1604C38.1414 66.4003 37.6719 66.0202 36.7329 66.0202H36.6435V68.4795V68.4571ZM36.6435 71.9448H37.0235C38.119 71.9448 38.6779 71.4977 38.6779 70.6034C38.6779 69.7091 38.5438 69.8432 38.2755 69.5973C38.0072 69.3514 37.6048 69.2396 37.0682 69.2396H36.6435V71.9672V71.9448Z" fill="white"/>
<path d="M44.0439 72.7049V72.1013L45.0947 71.8554L47.6434 65.1706H48.5601L50.9523 71.8554L51.9807 72.1013V72.7049H48.3588V72.1013L49.119 71.9224L48.6495 70.6481H46.4138L45.9443 71.9001L46.8386 72.1237V72.7273H44.0439V72.7049ZM46.7044 69.9103H48.3812L47.554 67.6299L46.7044 69.9103Z" fill="white"/>
<path d="M55.8262 72.7049V72.1013L56.8099 71.8777V66.0873L55.8262 65.8637V65.2601H59.0232C60.3199 65.2601 61.3036 65.5954 61.9967 66.2885C62.6898 66.9815 63.0251 67.8758 63.0251 68.9937C63.0251 70.1115 62.6674 71.0952 61.9296 71.7436C61.2142 72.3919 60.2305 72.7273 59.0232 72.7273H55.8262V72.7049ZM58.5537 71.9001H58.8667C59.6492 71.9001 60.2305 71.6542 60.6329 71.1399C61.0354 70.6257 61.2366 69.9103 61.2366 68.9713C61.2366 68.0323 61.0354 67.3169 60.6329 66.8027C60.2305 66.3108 59.6269 66.0426 58.8667 66.0426H58.5537V71.8777V71.9001Z" fill="white"/>
<path d="M67.2051 72.7049V72.1013L68.1888 71.8777V66.0873L67.2051 65.8637V65.2601H70.5363C71.52 65.2601 72.2578 65.4389 72.7496 65.7966C73.2415 66.1543 73.4874 66.6685 73.4874 67.3169C73.4874 67.9653 73.3533 68.1665 73.1073 68.4795C72.8614 68.8148 72.5037 69.0384 72.0565 69.1725L73.5545 71.8777L74.5829 72.1237V72.6826H71.9895L70.2903 69.4408H69.9103V71.833L70.8493 72.0566V72.6602H67.2051V72.7049ZM69.9326 68.7254H70.2456C70.7375 68.7254 71.1175 68.5913 71.3858 68.3453C71.6541 68.0994 71.7883 67.7417 71.7883 67.3169C71.7883 66.8921 71.6541 66.6238 71.3858 66.3779C71.1175 66.132 70.7375 66.0202 70.2456 66.0202H69.955V68.7254H69.9326Z" fill="white"/>
<path d="M77.8926 72.7049V72.1013L78.9434 71.8554L81.4921 65.1706H82.4087L84.8009 71.8554L85.8293 72.1013V72.7049H82.2075V72.1013L82.9676 71.9224L82.4981 70.6481H80.2624L79.7929 71.9001L80.6872 72.1237V72.7273H77.8926V72.7049ZM80.5531 69.9103H82.2298L81.4026 67.6299L80.5531 69.9103Z" fill="white"/>
<path d="M89.6738 72.7049V72.1013L90.6575 71.8777V66.0873L89.6738 65.8637V65.2601H91.5071L96.0903 70.268V66.0873L95.1066 65.8637V65.2601H97.9459V65.8637L96.9622 66.0873V72.7273H95.9338L91.5071 67.8758V71.8777L92.4908 72.1013V72.7049H89.6738Z" fill="white"/>
<path d="M107.962 72.7049V72.1013L108.946 71.8777V66.0873L107.962 65.8637V65.2601H111.673V65.8637L110.689 66.0873V68.5465H113.35V66.0873L112.366 65.8637V65.2601H116.078V65.8637L115.094 66.0873V71.8777L116.078 72.1013V72.7049H112.366V72.1013L113.35 71.8777V69.329H110.689V71.8777L111.673 72.1013V72.7049H107.962Z" fill="white"/>
<path d="M120.281 68.9713C120.281 67.8311 120.594 66.8921 121.243 66.1543C121.869 65.4389 122.785 65.0812 123.97 65.0812C125.155 65.0812 126.049 65.4389 126.675 66.1543C127.301 66.8698 127.637 67.8088 127.637 68.9713C127.637 70.1339 127.324 71.0729 126.675 71.7883C126.027 72.5037 125.133 72.8614 123.97 72.8614C122.808 72.8614 121.891 72.5037 121.265 71.8107C120.617 71.0952 120.304 70.1562 120.304 68.9713H120.281ZM123.97 72.1237C124.596 72.1237 125.066 71.8554 125.379 71.2964C125.692 70.7375 125.848 69.9774 125.848 68.9713C125.848 67.9653 125.692 67.1828 125.356 66.6462C125.043 66.0873 124.574 65.819 123.948 65.819C123.322 65.819 122.852 66.0873 122.539 66.6462C122.226 67.2051 122.07 67.9653 122.07 68.9713C122.07 69.9774 122.226 70.7599 122.539 71.2964C122.852 71.8554 123.322 72.1237 123.948 72.1237H123.97Z" fill="white"/>
<path d="M132.107 72.3696V70.4022H132.711L133.248 71.9001C133.538 72.0119 133.918 72.0566 134.365 72.0566C134.813 72.0566 135.26 71.9672 135.617 71.8107C135.975 71.6318 136.154 71.3859 136.154 71.0505C136.154 70.7152 136.154 70.894 136.132 70.8269C136.132 70.7599 136.087 70.6928 136.042 70.6257C135.998 70.5587 135.953 70.514 135.908 70.4469C135.863 70.4022 135.796 70.3351 135.707 70.268C135.617 70.201 135.55 70.1562 135.483 70.1115C135.416 70.0668 135.327 70.0221 135.193 69.955C135.059 69.888 134.857 69.7762 134.544 69.642L134.164 69.4632C133.471 69.1278 132.957 68.7701 132.644 68.39C132.331 68.01 132.174 67.5628 132.174 67.0039C132.174 66.445 132.42 65.9531 132.89 65.5954C133.382 65.2377 134.008 65.0588 134.768 65.0588C135.528 65.0588 136.4 65.1706 137.093 65.3942V67.3616H136.489L135.975 65.9308C135.685 65.8637 135.394 65.8413 135.126 65.8413C134.701 65.8413 134.343 65.9084 134.052 66.0649C133.762 66.2214 133.605 66.4226 133.605 66.6909C133.605 66.9592 133.717 67.138 133.963 67.3169C134.209 67.4734 134.634 67.697 135.237 67.9653L135.461 68.0547C136.176 68.39 136.713 68.7477 137.071 69.1502C137.406 69.5526 137.585 70.0221 137.585 70.6034C137.585 71.1847 137.451 71.5647 137.182 71.9001C136.914 72.2354 136.556 72.4814 136.132 72.6155C135.707 72.772 135.193 72.8391 134.656 72.8391C133.784 72.8391 132.935 72.6826 132.107 72.3472V72.3696Z" fill="white"/>
<path d="M141.9 72.7049V72.1013L142.884 71.8777V66.0873L141.9 65.8637V65.2601H144.919C145.947 65.2601 146.752 65.4389 147.311 65.7966C147.87 66.1543 148.16 66.758 148.16 67.5852C148.16 68.4124 148.071 68.39 147.892 68.703C147.713 69.016 147.467 69.262 147.154 69.4408C146.841 69.6197 146.506 69.7538 146.126 69.8432C145.746 69.9327 145.343 69.9774 144.896 69.9774H144.628V71.8777L145.925 72.1013V72.7049H141.9ZM144.628 69.1949H144.852C145.276 69.1949 145.656 69.0607 145.947 68.7925C146.26 68.5242 146.394 68.1217 146.394 67.5852C146.394 67.0486 146.26 66.6909 145.969 66.4226C145.679 66.1543 145.343 66.0202 144.919 66.0202H144.628V69.1949Z" fill="white"/>
<path d="M152.207 72.7049V72.1013L153.191 71.8777V66.0873L152.207 65.8637V65.2601H155.918V65.8637L154.935 66.0873V71.8777L155.918 72.1013V72.7049H152.207Z" fill="white"/>
<path d="M160.01 67.4958V65.2377H166.56V67.4958H165.912L165.465 66.0426H164.146V71.8554L165.129 72.0789V72.6826H161.418V72.0789L162.402 71.8554V66.0426H161.06L160.613 67.4958H159.965H160.01Z" fill="white"/>
<path d="M169.689 72.7049V72.1013L170.74 71.8554L173.289 65.1706H174.206L176.598 71.8554L177.626 72.1013V72.7049H174.004V72.1013L174.764 71.9224L174.295 70.6481H172.059L171.59 71.9001L172.484 72.1237V72.7273H169.689V72.7049ZM172.35 69.9103H174.027L173.2 67.6299L172.35 69.9103Z" fill="white"/>
<path d="M181.472 72.7049V72.1013L182.455 71.8777V66.0873L181.472 65.8637V65.2601H185.183V65.8637L184.199 66.0873V71.9001H186.144L186.86 70.4022H187.463L187.15 72.7049H181.494H181.472Z" fill="white"/>
<path d="M8.07087 57.5916C8.07087 59.8273 6.25996 61.6382 4.02426 61.6382C1.78856 61.6382 0 59.8273 0 57.5916C0 55.3559 1.81092 53.545 4.04662 53.545C6.28232 53.545 8.09323 55.3559 8.09323 57.5916H8.07087Z" fill="#0066A2"/>
<path d="M5.64784 46.82C5.90126 45.2724 4.85218 43.8125 3.30467 43.5591C1.75716 43.3057 0.297223 44.3547 0.0438088 45.9023C-0.209606 47.4498 0.839466 48.9097 2.38698 49.1631C3.93449 49.4165 5.39443 48.3675 5.64784 46.82Z" fill="#0066A2"/>
<path d="M5.41102 37.1797C5.41102 38.0516 4.6956 38.767 3.82367 38.767C2.95175 38.767 2.23633 38.0516 2.23633 37.1797C2.23633 36.3078 2.95175 35.5923 3.82367 35.5923C4.6956 35.5923 5.41102 36.3078 5.41102 37.1797Z" fill="#0066A2"/>
<path d="M7.24441 30.3384C7.24441 30.8526 6.84198 31.2551 6.32777 31.2551C5.81356 31.2551 5.41113 30.8526 5.41113 30.3384C5.41113 29.8242 5.81356 29.4218 6.32777 29.4218C6.84198 29.4218 7.24441 29.8242 7.24441 30.3384Z" fill="#27A6DD"/>
<path d="M16.4635 39.9861C18.888 38.9669 20.0272 36.1753 19.0081 33.7508C17.9889 31.3263 15.1973 30.187 12.7728 31.2062C10.3483 32.2254 9.20901 35.017 10.2282 37.4415C11.2473 39.866 14.039 41.0053 16.4635 39.9861Z" fill="#0066A2"/>
<path d="M22.8042 21.6639C22.8042 23.8996 20.9933 25.7105 18.7576 25.7105C16.5219 25.7105 14.7109 23.8996 14.7109 21.6639C14.7109 19.4282 16.5219 17.6173 18.7576 17.6173C20.9933 17.6173 22.8042 19.4282 22.8042 21.6639Z" fill="#008DC3"/>
<path d="M26.873 12.1622C26.873 13.7272 25.5987 15.0015 24.0337 15.0015C22.4687 15.0015 21.1943 13.7272 21.1943 12.1622C21.1943 10.5972 22.4687 9.32286 24.0337 9.32286C25.5987 9.32286 26.873 10.5972 26.873 12.1622Z" fill="#0680C3"/>
<path d="M31.9524 6.58114C32.7294 5.80409 32.7294 4.54424 31.9524 3.76718C31.1753 2.99013 29.9155 2.99013 29.1384 3.76718C28.3614 4.54424 28.3614 5.80409 29.1384 6.58115C29.9155 7.3582 31.1753 7.3582 31.9524 6.58114Z" fill="#0499AB"/>
<path d="M37.0455 0.983708C37.0455 1.52028 36.5984 1.96742 36.0618 1.96742C35.5253 1.96742 35.0781 1.52028 35.0781 0.983708C35.0781 0.44714 35.5253 0 36.0618 0C36.5984 0 37.0455 0.44714 37.0455 0.983708Z" fill="#10B3E7"/>
<path d="M14.1228 72.2936C14.7781 69.543 13.0795 66.782 10.3289 66.1267C7.57836 65.4714 4.81736 67.17 4.16208 69.9206C3.5068 72.6712 5.20538 75.4322 7.95596 76.0874C10.7065 76.7427 13.4675 75.0441 14.1228 72.2936Z" fill="#008DC3"/>
<path d="M20.6136 83.2351C20.6136 85.4261 18.8474 87.1923 16.6564 87.1923C14.4654 87.1923 12.6992 85.4261 12.6992 83.2351C12.6992 81.0441 14.4654 79.2779 16.6564 79.2779C18.8474 79.2779 20.6136 81.0441 20.6136 83.2351Z" fill="#0499AB"/>
<path d="M27.4099 91.5742C27.4099 93.2063 26.0684 94.5477 24.4364 94.5477C22.8043 94.5477 21.4629 93.2063 21.4629 91.5742C21.4629 89.9422 22.8043 88.6008 24.4364 88.6008C26.0684 88.6008 27.4099 89.9422 27.4099 91.5742Z" fill="#10B3E7"/>
<path d="M34.1411 96.9026C34.4031 95.9246 33.8228 94.9194 32.8448 94.6573C31.8668 94.3953 30.8615 94.9757 30.5995 95.9537C30.3374 96.9316 30.9178 97.9369 31.8958 98.1989C32.8738 98.461 33.879 97.8806 34.1411 96.9026Z" fill="#10B3E7"/>
<path d="M40.221 98.7508C40.221 99.265 39.8185 99.6675 39.3043 99.6675C38.7901 99.6675 38.3877 99.265 38.3877 98.7508C38.3877 98.2366 38.7901 97.8342 39.3043 97.8342C39.8185 97.8342 40.221 98.2366 40.221 98.7508Z" fill="#27A6DD"/>
<path d="M17.4389 50.1244C17.4389 52.3601 15.628 54.171 13.3923 54.171C11.1566 54.171 9.3457 52.3601 9.3457 50.1244C9.3457 47.8887 11.1566 46.0778 13.3923 46.0778C15.628 46.0778 17.4389 47.8887 17.4389 50.1244Z" fill="#0680C3"/>
<path d="M18.0427 61.1017C18.0427 62.7561 16.7012 64.0751 15.0692 64.0751C13.4371 64.0751 12.0957 62.7337 12.0957 61.1017C12.0957 59.4696 13.4371 58.1282 15.0692 58.1282C16.7012 58.1282 18.0427 59.4696 18.0427 61.1017Z" fill="#008DC3"/>
<path d="M20.3232 69.0384C20.748 69.955 20.3679 71.0282 19.4513 71.4529C18.5346 71.8777 17.4615 71.4977 17.0367 70.581C16.6119 69.6644 16.992 68.5912 17.9086 68.1665C18.8253 67.7417 19.8984 68.1217 20.3232 69.0384Z" fill="#0499AB"/>
<path d="M23.6089 75.6113C23.8324 76.0585 23.6089 76.6174 23.1841 76.8186C22.737 77.0422 22.178 76.8186 21.9768 76.3938C21.7532 75.9467 21.9768 75.3878 22.4016 75.1866C22.8264 74.9853 23.4077 75.1866 23.6089 75.6113Z" fill="#27A6DD"/>
</g>
<defs>
<clipPath id="clip0_6041_2820">
<rect width="187.441" height="99.6675" fill="white"/>
</clipPath>
</defs>
</svg>
