<svg width="88" height="88" viewBox="0 0 88 88" fill="none" xmlns="http://www.w3.org/2000/svg">
<g filter="url(#filter0_dd_6555_81)">
<path d="M12 34C12 16.3269 26.3269 2 44 2C61.6731 2 76 16.3269 76 34C76 51.6731 61.6731 66 44 66C26.3269 66 12 51.6731 12 34Z" fill="url(#paint0_linear_6555_81)" shape-rendering="crispEdges"/>
<path d="M46.5 41L42.98 41.14C42.98 40.9267 42.96 40.56 42.92 40.04C42.8933 39.52 42.8467 38.8933 42.78 38.16C42.7133 37.4267 42.6267 36.6333 42.52 35.78C42.4267 34.9133 42.3133 34.0267 42.18 33.12C42.0467 32.2133 41.9 31.3267 41.74 30.46C41.58 29.5933 41.4 28.8 41.2 28.08L44.72 27.16C45 28.04 45.24 28.9933 45.44 30.02C45.64 31.0467 45.8067 32.0867 45.94 33.14C46.0867 34.1933 46.2 35.2133 46.28 36.2C46.36 37.1867 46.4133 38.0933 46.44 38.92C46.48 39.7467 46.5 40.44 46.5 41Z" fill="white"/>
</g>
<defs>
<filter id="filter0_dd_6555_81" x="0" y="0" width="88" height="88" filterUnits="userSpaceOnUse" color-interpolation-filters="sRGB">
<feFlood flood-opacity="0" result="BackgroundImageFix"/>
<feColorMatrix in="SourceAlpha" type="matrix" values="0 0 0 0 0 0 0 0 0 0 0 0 0 0 0 0 0 0 127 0" result="hardAlpha"/>
<feMorphology radius="4" operator="erode" in="SourceAlpha" result="effect1_dropShadow_6555_81"/>
<feOffset dy="4"/>
<feGaussianBlur stdDeviation="3"/>
<feComposite in2="hardAlpha" operator="out"/>
<feColorMatrix type="matrix" values="0 0 0 0 0 0 0 0 0 0 0 0 0 0 0 0 0 0 0.1 0"/>
<feBlend mode="normal" in2="BackgroundImageFix" result="effect1_dropShadow_6555_81"/>
<feColorMatrix in="SourceAlpha" type="matrix" values="0 0 0 0 0 0 0 0 0 0 0 0 0 0 0 0 0 0 127 0" result="hardAlpha"/>
<feMorphology radius="3" operator="erode" in="SourceAlpha" result="effect2_dropShadow_6555_81"/>
<feOffset dy="10"/>
<feGaussianBlur stdDeviation="7.5"/>
<feComposite in2="hardAlpha" operator="out"/>
<feColorMatrix type="matrix" values="0 0 0 0 0 0 0 0 0 0 0 0 0 0 0 0 0 0 0.1 0"/>
<feBlend mode="normal" in2="effect1_dropShadow_6555_81" result="effect2_dropShadow_6555_81"/>
<feBlend mode="normal" in="SourceGraphic" in2="effect2_dropShadow_6555_81" result="shape"/>
</filter>
<linearGradient id="paint0_linear_6555_81" x1="12" y1="34" x2="90.4426" y2="34.5496" gradientUnits="userSpaceOnUse">
<stop stop-color="#0499AB"/>
<stop offset="1" stop-color="#06646F" stop-opacity="0.6"/>
</linearGradient>
</defs>
</svg>
