<svg width="88" height="88" viewBox="0 0 88 88" fill="none" xmlns="http://www.w3.org/2000/svg">
<g filter="url(#filter0_dd_6494_328)">
<path d="M12 34C12 16.3269 26.3269 2 44 2C61.6731 2 76 16.3269 76 34C76 51.6731 61.6731 66 44 66C26.3269 66 12 51.6731 12 34Z" fill="url(#paint0_linear_6494_328)" shape-rendering="crispEdges"/>
<path d="M38.96 41V38.68C38.96 38.32 39.0933 37.9067 39.36 37.44C39.6267 36.96 39.9933 36.4733 40.46 35.98C40.94 35.4867 41.48 35.0333 42.08 34.62L43.84 33.42C44.1067 33.2467 44.3733 33.0467 44.64 32.82C44.9067 32.58 45.1267 32.3267 45.3 32.06C45.4733 31.78 45.56 31.5 45.56 31.22C45.56 30.9267 45.4867 30.6667 45.34 30.44C45.2067 30.2 45 30.02 44.72 29.9C44.4533 29.7667 44.1 29.7 43.66 29.7C43.3267 29.7 43.0267 29.7733 42.76 29.92C42.5067 30.0533 42.2933 30.24 42.12 30.48C41.96 30.7067 41.84 30.96 41.76 31.24L38.44 30.68C38.5733 29.9867 38.86 29.34 39.3 28.74C39.7533 28.14 40.3467 27.66 41.08 27.3C41.8267 26.9267 42.68 26.74 43.64 26.74C44.7333 26.74 45.6667 26.9333 46.44 27.32C47.2133 27.6933 47.8067 28.2133 48.22 28.88C48.6467 29.5467 48.86 30.32 48.86 31.2C48.86 32.1333 48.6 32.94 48.08 33.62C47.5733 34.3 46.9 34.9267 46.06 35.5L44.52 36.56C44.2 36.7733 43.9067 37.0133 43.64 37.28C43.3733 37.5467 43.14 37.8467 42.94 38.18H49.02V41H38.96Z" fill="white"/>
</g>
<defs>
<filter id="filter0_dd_6494_328" x="0" y="0" width="88" height="88" filterUnits="userSpaceOnUse" color-interpolation-filters="sRGB">
<feFlood flood-opacity="0" result="BackgroundImageFix"/>
<feColorMatrix in="SourceAlpha" type="matrix" values="0 0 0 0 0 0 0 0 0 0 0 0 0 0 0 0 0 0 127 0" result="hardAlpha"/>
<feMorphology radius="4" operator="erode" in="SourceAlpha" result="effect1_dropShadow_6494_328"/>
<feOffset dy="4"/>
<feGaussianBlur stdDeviation="3"/>
<feComposite in2="hardAlpha" operator="out"/>
<feColorMatrix type="matrix" values="0 0 0 0 0 0 0 0 0 0 0 0 0 0 0 0 0 0 0.1 0"/>
<feBlend mode="normal" in2="BackgroundImageFix" result="effect1_dropShadow_6494_328"/>
<feColorMatrix in="SourceAlpha" type="matrix" values="0 0 0 0 0 0 0 0 0 0 0 0 0 0 0 0 0 0 127 0" result="hardAlpha"/>
<feMorphology radius="3" operator="erode" in="SourceAlpha" result="effect2_dropShadow_6494_328"/>
<feOffset dy="10"/>
<feGaussianBlur stdDeviation="7.5"/>
<feComposite in2="hardAlpha" operator="out"/>
<feColorMatrix type="matrix" values="0 0 0 0 0 0 0 0 0 0 0 0 0 0 0 0 0 0 0.1 0"/>
<feBlend mode="normal" in2="effect1_dropShadow_6494_328" result="effect2_dropShadow_6494_328"/>
<feBlend mode="normal" in="SourceGraphic" in2="effect2_dropShadow_6494_328" result="shape"/>
</filter>
<linearGradient id="paint0_linear_6494_328" x1="12" y1="34" x2="90.4426" y2="34.5496" gradientUnits="userSpaceOnUse">
<stop stop-color="#0499AB"/>
<stop offset="1" stop-color="#06646F" stop-opacity="0.6"/>
</linearGradient>
</defs>
</svg>
