<svg width="61" height="60" viewBox="0 0 61 60" fill="none" xmlns="http://www.w3.org/2000/svg">
<path fill-rule="evenodd" clip-rule="evenodd" d="M61 44.7986V48.3582C61 50.6017 59.1801 52.4318 56.9492 52.4318H24.532C26.7061 49.1278 27.8933 45.1904 27.8933 40.5889V32.7141C27.8933 31.3136 27.0334 30.0981 25.7192 29.6385L24.624 29.255C28.4936 25.5078 33.7452 23.1937 39.5104 23.1937C51.3273 23.1937 60.9974 32.9182 60.9974 44.8014L61 44.7986ZM1.14929 31.0851C0.448931 31.3299 0 31.9662 0 32.7113V40.5861C0 49.3263 4.54565 55.4092 12.1554 59.2791C12.826 59.619 13.548 59.619 14.2187 59.2791C21.828 55.4095 26.3741 49.3263 26.3741 40.5861V32.7113C26.3741 31.9635 25.9252 31.3298 25.2248 31.0851L13.7513 27.0714C13.37 26.9382 13.0049 26.9382 12.6263 27.0714L1.15282 31.0851H1.14929ZM4.46189 43.2566C3.78586 42.4544 3.88591 41.2552 4.68363 40.5753C5.48132 39.8955 6.67388 39.9961 7.34994 40.7983L10.6057 44.6679L19.2887 37.7119C20.1081 37.0592 21.2979 37.1952 21.9469 38.0164C22.5959 38.8404 22.4607 40.0369 21.644 40.6895L11.528 48.7962C10.7303 49.4352 9.56482 49.3183 8.90766 48.5351L4.46474 43.2542L4.46189 43.2566ZM39.5131 0C45.1945 0 49.7966 4.63099 49.7966 10.3413C49.7966 16.0546 45.1915 20.6826 39.5131 20.6826C33.8317 20.6826 29.2296 16.0516 29.2296 10.3413C29.2296 4.628 33.8347 0 39.5131 0Z" fill="url(#paint0_linear_6495_673)"/>
<defs>
<linearGradient id="paint0_linear_6495_673" x1="0" y1="29.767" x2="74.7654" y2="30.3037" gradientUnits="userSpaceOnUse">
<stop stop-color="#0499AB"/>
<stop offset="1" stop-color="#06646F" stop-opacity="0.6"/>
</linearGradient>
</defs>
</svg>
