<svg width="51" height="61" viewBox="0 0 51 61" fill="none" xmlns="http://www.w3.org/2000/svg">
<path fill-rule="evenodd" clip-rule="evenodd" d="M51 53.5921L42.2292 50.6095C41.9456 50.5147 41.6364 50.5412 41.3736 50.6848C41.1123 50.8292 40.923 51.0767 40.8509 51.3688L38.6268 60.4078L28.7987 42.3646C28.8576 42.3172 28.9152 42.2698 28.9734 42.221C29.0296 42.175 29.0871 42.1283 29.1433 42.0822C29.7769 41.558 30.4321 41.0169 30.9805 40.8643C31.5407 40.7088 32.3844 40.8503 33.2004 40.9891C34.1419 41.148 35.1777 41.323 36.1337 41.1083C36.4512 41.0365 36.7612 40.9221 37.0558 40.7485C37.7949 40.3135 38.258 39.6177 38.6067 38.8619C38.8161 38.4088 38.9818 37.9347 39.1412 37.4829C39.2085 37.2912 39.2757 37.0981 39.3464 36.9098C39.5558 36.3451 39.7867 35.8257 40.0779 35.5322C40.0987 35.5113 40.1243 35.4917 40.1479 35.4715C40.1784 35.4443 40.2075 35.4164 40.2422 35.3899L40.2443 35.3885C40.4197 35.2561 40.6408 35.1369 40.8862 35.0253L51 53.5921ZM30.4148 38.7957C29.4275 39.0683 28.5928 39.7578 27.7872 40.4243C27.6409 40.5449 27.4995 40.6607 27.3587 40.7736C27.3282 40.7987 27.297 40.8231 27.2665 40.8475C27.1265 40.9584 26.9878 41.063 26.8498 41.162C26.3763 41.5008 25.9139 41.7476 25.4993 41.7476C25.0826 41.7476 24.6195 41.498 24.1425 41.1557C24.0101 41.0616 23.877 40.9605 23.7432 40.8538C23.7009 40.8196 23.6579 40.7862 23.6149 40.7513C23.4825 40.6446 23.3501 40.5366 23.2135 40.4236C22.609 39.9244 21.9885 39.412 21.2993 39.0711C21.1843 39.0139 21.0678 38.9616 20.9485 38.9156C20.8293 38.8689 20.7087 38.8278 20.5852 38.7943C20.414 38.7469 20.2414 38.7162 20.0674 38.6932C20.0251 38.6876 19.9835 38.6828 19.9405 38.6779C19.6181 38.6444 19.2916 38.6437 18.9636 38.6667C18.9193 38.6695 18.8742 38.6744 18.8291 38.6779C18.7182 38.6876 18.6073 38.6981 18.4964 38.712C18.4478 38.7183 18.3986 38.7239 18.3487 38.7309C18.2322 38.7462 18.115 38.7629 17.9979 38.7811C17.9639 38.7866 17.9306 38.7915 17.8967 38.7971C17.7462 38.8215 17.5951 38.8466 17.446 38.8717C16.8574 38.9714 16.257 39.0725 15.7655 39.062C15.4708 39.0558 15.215 39.009 15.025 38.8968C14.5175 38.597 14.1896 37.667 13.8742 36.7676C13.5248 35.7762 13.1649 34.7499 12.4335 34.0151C12.2768 33.8575 12.1042 33.7195 11.9246 33.5926C11.908 33.5814 11.8921 33.5689 11.8761 33.557C11.7014 33.4371 11.517 33.3311 11.327 33.2328C11.3014 33.2189 11.2778 33.2064 11.2521 33.1938C11.065 33.0997 10.8729 33.0139 10.6774 32.9338C10.6476 32.9219 10.6185 32.9093 10.588 32.8975C10.3911 32.8194 10.1928 32.7434 9.99382 32.6723L9.99035 32.6709C9.8919 32.6354 9.79345 32.6005 9.69639 32.5656C8.80204 32.2477 7.87789 31.9186 7.57977 31.4083C7.28235 30.898 7.44596 29.9191 7.60403 28.973C7.77944 27.9231 7.96108 26.8361 7.68168 25.8148C7.40991 24.822 6.72425 23.9833 6.06146 23.1717C5.41531 22.3804 4.74628 21.5619 4.74628 20.8724C4.74628 20.1822 5.41462 19.3637 6.06146 18.5724C6.72494 17.7616 7.41061 16.9228 7.68168 15.93C7.96108 14.9087 7.77944 13.8224 7.60403 12.7725C7.44527 11.8264 7.28235 10.8482 7.57977 10.3372C7.8765 9.82686 8.80204 9.49848 9.69639 9.17987C10.6823 8.82918 11.7028 8.46665 12.4335 7.73111C13.1642 6.99628 13.5254 5.97072 13.8742 4.97862C14.1903 4.07925 14.5182 3.1485 15.025 2.84941C15.5325 2.55031 16.5052 2.71485 17.4474 2.87381C18.4901 3.0495 19.5696 3.23216 20.5866 2.95189C21.5746 2.67859 22.4093 1.98908 23.2163 1.32256C24.0018 0.672786 24.8157 0 25.5014 0C26.1871 0 27.001 0.672786 27.7893 1.32535C28.5962 1.99187 29.4296 2.68069 30.4168 2.95398C31.4353 3.23565 32.514 3.05229 33.5574 2.8759C34.4976 2.71694 35.4723 2.5524 35.9791 2.8515C36.4866 3.14989 36.8138 4.08064 37.13 4.98001C37.4794 5.97141 37.8392 6.99767 38.5706 7.73251C39.3021 8.46734 40.3219 8.83058 41.3085 9.18126C42.2035 9.49918 43.1284 9.82825 43.4258 10.3386C43.7225 10.8496 43.5596 11.8285 43.4008 12.7746C43.2254 13.8245 43.0438 14.9101 43.3232 15.9328C43.5949 16.9256 44.2799 17.765 44.9427 18.5752C45.5895 19.3665 46.2586 20.185 46.2586 20.8745C46.2586 21.5647 45.5902 22.3832 44.9427 23.1745C44.2799 23.986 43.5942 24.8241 43.3225 25.8169C43.0438 26.8389 43.2247 27.9245 43.4001 28.9751C43.5582 29.9212 43.7218 30.8994 43.4244 31.4104C43.1263 31.9207 42.2021 32.2491 41.3071 32.5677C41.21 32.6019 41.113 32.6367 41.0152 32.6716L41.0117 32.6723C41.0083 32.6744 41.0034 32.6765 40.9993 32.6779C40.8058 32.7476 40.6138 32.8201 40.4231 32.8961C40.3892 32.9093 40.3552 32.9233 40.3205 32.9372C40.1271 33.0167 39.9371 33.1018 39.752 33.1945C39.7257 33.207 39.6993 33.2217 39.673 33.2349C39.4837 33.3332 39.3 33.4392 39.126 33.5584C39.1086 33.5696 39.0934 33.5821 39.0774 33.594C38.8972 33.7216 38.7253 33.8589 38.5679 34.0165C37.8371 34.752 37.4766 35.7769 37.1272 36.769C37.0087 37.1064 36.8887 37.4473 36.7584 37.759C36.5407 38.277 36.2932 38.7106 35.9763 38.8975C35.4695 39.1966 34.4948 39.0321 33.5547 38.8731C33.4056 38.8473 33.2552 38.8229 33.1047 38.7985C32.5972 38.7169 32.0856 38.6493 31.5795 38.6493C31.1864 38.65 30.7954 38.6897 30.4148 38.7957ZM40.5119 20.8731C40.5119 12.5494 33.7779 5.7769 25.5 5.7769C17.2221 5.7769 10.4881 12.5487 10.4881 20.8731C10.4881 29.1975 17.2221 35.9693 25.5 35.9693C33.7772 35.9693 40.5119 29.1968 40.5119 20.8731ZM21.3805 41.6932C20.9028 41.3126 20.4313 40.9793 20.0188 40.8657C19.9897 40.8573 19.9516 40.858 19.9197 40.8517C19.3602 40.7339 18.5705 40.8601 17.7989 40.9904C17.6859 41.0093 17.5701 41.0281 17.4557 41.0469C16.4747 41.2073 15.4202 41.3293 14.4725 40.9904C14.2922 40.9263 14.1147 40.8503 13.9442 40.7492C13.2065 40.3142 12.742 39.6177 12.3933 38.8626C12.1846 38.4095 12.0175 37.9354 11.8588 37.4836C11.5891 36.7167 11.3111 35.9247 10.9207 35.5329C10.7301 35.3411 10.4431 35.1766 10.111 35.026L0 53.5921L8.77154 50.6095C8.88247 50.5719 8.99825 50.5531 9.11333 50.5531C9.29082 50.5531 9.46691 50.5977 9.62637 50.6848C9.88774 50.8299 10.0784 51.0767 10.1498 51.3688L12.3739 60.4078L22.2006 42.3653C22.0841 42.2712 21.9704 42.1764 21.8581 42.0836C21.7001 41.9519 21.5399 41.8201 21.3805 41.6932ZM38.3772 20.8738C38.3772 28.0137 32.6007 33.8227 25.5 33.8227C18.3993 33.8227 12.6228 28.0137 12.6228 20.8738C12.6228 13.7332 18.3993 7.92424 25.5 7.92424C32.6007 7.92424 38.3772 13.7332 38.3772 20.8738Z" fill="url(#paint0_linear_6495_691)"/>
<defs>
<linearGradient id="paint0_linear_6495_691" x1="0" y1="30.2039" x2="62.5098" y2="30.5736" gradientUnits="userSpaceOnUse">
<stop stop-color="#0499AB"/>
<stop offset="1" stop-color="#06646F" stop-opacity="0.6"/>
</linearGradient>
</defs>
</svg>
