<svg width="50" height="57" viewBox="0 0 50 57" fill="none" xmlns="http://www.w3.org/2000/svg">
<path d="M24.9374 0C24.281 0 23.7499 0.531123 23.7499 1.18749V5.93746C23.7499 6.59384 24.2811 7.12495 24.9374 7.12495C25.5938 7.12495 26.1249 6.59382 26.1249 5.93746V1.18749C26.1249 0.531106 25.5938 0 24.9374 0ZM8.14572 6.95811C7.84188 6.95811 7.54271 7.07871 7.31079 7.31064C6.84693 7.77451 6.84693 8.51666 7.31079 8.98055L10.6691 12.3389C11.133 12.8028 11.8752 12.8028 12.339 12.3389C12.8029 11.875 12.8029 11.1329 12.339 10.669L8.9807 7.31064C8.74877 7.07871 8.44952 6.95811 8.14572 6.95811ZM41.7292 6.95811C41.4253 6.95811 41.1261 7.07871 40.8942 7.31064L37.5359 10.669C37.072 11.1328 37.072 11.875 37.5359 12.3389C37.9997 12.8028 38.7419 12.8028 39.2058 12.3389L42.5641 8.98055C43.028 8.51669 43.028 7.77454 42.5641 7.31064C42.3322 7.07871 42.033 6.95811 41.7292 6.95811ZM24.9374 10.6875C17.6967 10.6875 10.6875 16.3049 10.6875 24.2511C10.6875 33.9737 17.5506 36.446 18.332 42.7498H31.5429C32.3245 36.446 39.1873 33.9737 39.1873 24.2511C39.1873 16.305 32.1782 10.6875 24.9374 10.6875ZM21.2822 14.2871H21.3008C21.3309 14.2848 21.3634 14.2848 21.3935 14.2871C21.9664 14.2894 22.4558 14.7023 22.5578 15.2682C22.6576 15.8318 22.3398 16.3884 21.8017 16.5879C18.9072 17.6779 16.734 20.2408 16.1797 23.3602C16.0614 24.0049 15.4421 24.434 14.7974 24.3157C14.1526 24.1975 13.7235 23.5782 13.8418 22.9334C14.5446 18.9837 17.2791 15.7645 20.9484 14.3799C21.055 14.3335 21.1663 14.301 21.2822 14.2871ZM1.18749 23.7502C0.531105 23.7502 0 24.2814 0 24.9377C0 25.5941 0.531123 26.1252 1.18749 26.1252H5.93746C6.59384 26.1252 7.12495 25.5941 7.12495 24.9377C7.12495 24.2814 6.59382 23.7502 5.93746 23.7502H1.18749ZM43.9372 23.7502C43.2808 23.7502 42.7497 24.2814 42.7497 24.9377C42.7497 25.5941 43.2808 26.1252 43.9372 26.1252H48.6871C49.3435 26.1252 49.8746 25.5941 49.8746 24.9377C49.8746 24.2814 49.3435 23.7502 48.6871 23.7502H43.9372ZM18.4061 45.1251V47.5001H31.4685V45.1251H18.4061ZM18.4061 49.875V51.0625C18.4061 52.4263 19.5287 53.4375 20.7811 53.4375H29.0935C30.346 53.4375 31.4685 52.4263 31.4685 51.0625V49.875H18.4061ZM22.5623 54.625C22.5623 55.94 23.6223 57 24.9373 57C26.2523 57 27.3123 55.94 27.3123 54.625H22.5623Z" fill="url(#paint0_linear_6495_696)"/>
<defs>
<linearGradient id="paint0_linear_6495_696" x1="0" y1="28.5" x2="61.1303" y2="28.8747" gradientUnits="userSpaceOnUse">
<stop stop-color="#0499AB"/>
<stop offset="1" stop-color="#06646F" stop-opacity="0.6"/>
</linearGradient>
</defs>
</svg>
