<svg width="67" height="71" viewBox="0 0 67 71" fill="none" xmlns="http://www.w3.org/2000/svg">
<path d="M66.4935 40.6431L60.5913 31.6777C60.2924 31.1547 60.143 30.557 60.0683 29.9593C59.097 18.0802 49.2351 8.89062 37.2065 8.89062C36.6835 8.89062 36.0858 8.89063 35.5628 8.96534C36.4594 11.2814 36.9824 13.8216 36.9824 16.4365C36.9824 27.718 27.7181 36.9822 16.3619 36.9822C15.7642 36.9822 15.1665 36.9822 14.6436 36.9075C15.8389 42.6603 19.0515 48.0396 23.4595 51.7752C24.1319 52.3729 24.5055 53.1947 24.5055 54.0165V67.1658C24.5055 68.2118 25.3273 69.1083 26.3733 69.183L46.1719 70.9014C47.3673 70.9761 48.4133 70.0795 48.4133 68.8842V59.6199C48.4133 59.0222 48.9362 58.4992 49.5339 58.4992H56.4821C58.6488 58.4992 60.3671 56.7809 60.3671 54.6142V45.35C60.3671 44.9017 60.7407 44.6028 61.1143 44.6028H64.4763C66.4188 44.6028 67.6142 42.3615 66.4935 40.6431ZM52.5971 35.0397C50.804 35.0397 49.3098 33.5455 49.3098 31.7524C49.3098 29.9593 50.804 28.4651 52.5971 28.4651C54.4649 28.4651 55.8844 29.9593 55.8844 31.7524C55.8844 33.5455 54.3902 35.0397 52.5971 35.0397Z" fill="url(#paint0_linear_6495_664)"/>
<path d="M32.7985 16.3619C32.7985 7.32175 25.4767 0 16.4366 0C7.32175 0 0 7.32175 0 16.3619C0 25.402 7.32175 32.7237 16.3619 32.7237C25.4767 32.7985 32.7985 25.4767 32.7985 16.3619ZM9.33897 17.7814C7.99416 16.4366 7.47117 14.3447 8.36772 12.701C9.78724 9.86195 13.3734 9.48839 15.3906 11.5056L16.3619 12.4769L17.2584 11.5803C18.6032 10.2355 20.6952 9.71253 22.3388 10.6091C25.1779 12.0286 25.5514 15.6148 23.5342 17.632L16.9596 24.2813C16.6607 24.5802 16.1377 24.5802 15.8389 24.2813L9.33897 17.7814Z" fill="url(#paint1_linear_6495_664)"/>
<defs>
<linearGradient id="paint0_linear_6495_664" x1="14.6436" y1="39.8982" x2="78.7249" y2="40.2767" gradientUnits="userSpaceOnUse">
<stop stop-color="#0499AB"/>
<stop offset="1" stop-color="#06646F" stop-opacity="0.6"/>
</linearGradient>
<linearGradient id="paint1_linear_6495_664" x1="0" y1="16.3622" x2="40.1999" y2="16.6444" gradientUnits="userSpaceOnUse">
<stop stop-color="#0499AB"/>
<stop offset="1" stop-color="#06646F" stop-opacity="0.6"/>
</linearGradient>
</defs>
</svg>
