<svg width="80" height="80" viewBox="0 0 80 80" fill="none" xmlns="http://www.w3.org/2000/svg">
<circle cx="40" cy="40" r="40" transform="rotate(90 40 40)" fill="#0EBB83"/>
<path d="M52.2461 27.9381C55.1832 30.9935 57 35.2144 57 39.8771C57 49.2014 49.7338 56.7617 40.7697 56.7617C37.7868 56.7617 34.9928 55.9245 32.5907 54.4649L32.6672 54.5081L24.2578 56.9036L26.5146 47.9542C25.271 45.6245 24.5395 42.8451 24.5395 39.8873V39.8805C24.5428 30.5562 31.8101 22.9993 40.773 22.9993C45.2529 22.9993 49.308 24.8871 52.245 27.9392L52.2461 27.9381ZM27.2811 39.8805V39.8862C27.2811 42.5202 27.9799 44.9862 29.1951 47.0909L29.1613 47.0273L29.4528 47.5396L28.1131 52.8498L33.0908 51.4333L33.6007 51.7673C35.6337 53.1133 38.1111 53.9129 40.7686 53.9129C48.2172 53.9129 54.2562 47.6305 54.2562 39.8816C54.2562 32.1328 48.2172 25.8504 40.7686 25.8504C33.3201 25.8504 27.2811 32.1305 27.2811 39.8805ZM37.3817 32.1839C37.5848 32.6053 38.5642 34.6794 38.7007 35.0656C38.8361 35.4529 38.9027 35.7346 38.4965 36.0163C38.0914 36.2957 37.1787 37.1045 36.9079 37.3509C36.636 37.5963 36.6033 37.8439 36.8053 38.2653C37.3141 39.5715 37.9921 40.6938 38.8274 41.6695L38.8175 41.6581C39.6255 42.5657 40.5503 43.3437 41.5701 43.9719L41.6268 44.0037C42.0319 44.249 42.2514 44.0298 42.4534 43.8197C42.6346 43.63 42.9272 43.3971 43.1631 43.187C43.3585 43.0212 43.5823 42.8792 43.8225 42.7713L43.8411 42.7645C43.9361 42.7156 44.0464 42.6872 44.1643 42.6872C44.3073 42.6872 44.4405 42.7292 44.5541 42.8019L44.5508 42.7997C44.7539 42.9064 46.7498 43.7492 47.5621 44.1002C48.3526 44.4433 48.2445 44.792 48.2576 45.0498C48.2685 45.2951 48.2707 45.5768 48.2707 45.8585C48.2598 46.3072 48.0654 46.7059 47.7652 46.9808L47.763 46.9819C46.9321 47.8929 45.7606 48.4585 44.4624 48.4585C44.434 48.4585 44.4045 48.4585 44.3761 48.4574H44.3805C42.7787 48.3086 41.3408 47.6839 40.1692 46.7229L40.1856 46.7366C37.5881 44.9146 35.5103 42.4862 34.1106 39.6363L34.0636 39.5295C33.7929 38.9071 33.5035 38.1097 33.2557 37.2941L33.2109 37.1249C33.058 36.6229 32.9696 36.0447 32.9696 35.445C32.9696 35.1008 32.9991 34.7623 33.0548 34.4352L33.0504 34.4704C33.2939 33.2562 33.9981 32.2487 34.96 31.6342L34.9786 31.6239C35.3782 31.4365 35.8444 31.3275 36.3347 31.3275C36.5367 31.3275 36.7343 31.3456 36.9265 31.3809L36.9057 31.3774C37.0749 31.4819 37.1754 31.7636 37.3796 32.1862L37.3817 32.1839Z" fill="white"/>
</svg>
