<svg width="110" height="107" viewBox="0 0 110 107" fill="none" xmlns="http://www.w3.org/2000/svg">
<path d="M47.7383 63.1077L65.4775 53.1505L47.7383 43.1933V63.1077Z" fill="#063458"/>
<path d="M54.5339 0C24.4202 0 0 23.7998 0 53.1482C0 82.4967 24.4202 106.296 54.5339 106.296C84.6475 106.296 109.068 82.4967 109.068 53.1482C109.068 23.7998 84.6475 0 54.5339 0ZM88.6092 53.2026C88.6092 53.2026 88.6092 63.9813 87.2062 69.1788C86.4199 72.0237 84.1182 74.2669 81.1992 75.0324C75.8661 76.4006 54.5339 76.4006 54.5339 76.4006C54.5339 76.4006 33.2574 76.4006 27.8686 74.9781C24.9495 74.2125 22.6478 71.9686 21.8615 69.1237C20.4577 63.9813 20.4577 53.1482 20.4577 53.1482C20.4577 53.1482 20.4577 42.3703 21.8615 37.1728C22.647 34.3279 25.0052 32.0296 27.8686 31.264C33.2016 29.8959 54.5339 29.8959 54.5339 29.8959C54.5339 29.8959 75.8661 29.8959 81.1992 31.3183C84.1182 32.0839 86.4199 34.3279 87.2062 37.1728C88.6658 42.3703 88.6092 53.2026 88.6092 53.2026Z" fill="#063458"/>
</svg>
