<svg width="45" height="67" viewBox="0 0 45 67" fill="none" xmlns="http://www.w3.org/2000/svg">
<path d="M18.3145 7.42801H26.6923V3.71401C26.6923 2.72899 26.251 1.78432 25.4654 1.08781C24.6798 0.391296 23.6144 0 22.5034 0C21.3924 0 20.3269 0.391296 19.5414 1.08781C18.7558 1.78432 18.3145 2.72899 18.3145 3.71401V7.42801Z" fill="url(#paint0_linear_6468_615)"/>
<path d="M3.06643 66.8552H41.9414C42.7546 66.8552 43.5346 66.5688 44.1097 66.0589C44.6847 65.5491 45.0078 64.8575 45.0078 64.1365V13.089C44.999 12.3731 44.672 11.6891 44.0979 11.1857C43.5238 10.6822 42.7489 10.3999 41.9414 10.3999H38.9922V14.4112H40.5171C40.6837 14.4112 40.8436 14.4699 40.9614 14.5744C41.0792 14.6789 41.1455 14.8206 41.1455 14.9683V62.2943C41.1433 62.4414 41.0764 62.582 40.959 62.6861C40.8416 62.7901 40.6831 62.8495 40.5171 62.8514H4.49073C4.32475 62.8495 4.16618 62.7901 4.04881 62.6861C3.93143 62.582 3.86453 62.4414 3.86236 62.2943V14.9386C3.86236 14.7909 3.92856 14.6491 4.0464 14.5447C4.16425 14.4402 4.32407 14.3815 4.49073 14.3815H6.01556V10.3999H3.06643C2.25316 10.3999 1.4732 10.6863 0.898136 11.1962C0.323069 11.7061 0 12.3976 0 13.1187V64.1365C0 64.8575 0.323069 65.5491 0.898136 66.0589C1.4732 66.5688 2.25316 66.8552 3.06643 66.8552Z" fill="url(#paint1_linear_6468_615)"/>
<path d="M7.27148 8.57178V14.3807H37.7347V8.57178H26.6922H18.314H7.27148Z" fill="url(#paint2_linear_6468_615)"/>
<path d="M5.11914 61.736H39.8888V15.4946H5.11914V61.736ZM35.6997 41.5161C35.6997 41.6638 35.6334 41.8055 35.5156 41.91C35.3978 42.0145 35.2379 42.0732 35.0713 42.0732H16.6392C16.4725 42.0732 16.3127 42.0145 16.1949 41.91C16.077 41.8055 16.0108 41.6638 16.0108 41.5161C16.0108 41.3683 16.077 41.2266 16.1949 41.1221C16.3127 41.0177 16.4725 40.959 16.6392 40.959H35.0713C35.2373 40.9609 35.3958 41.0202 35.5132 41.1243C35.6306 41.2283 35.6975 41.3689 35.6997 41.5161ZM12.9025 26.34C12.9025 26.1922 12.9687 26.0505 13.0866 25.946C13.2044 25.8416 13.3642 25.7829 13.5309 25.7829H19.5716V20.427C19.5716 20.2793 19.6378 20.1376 19.7556 20.0331C19.8735 19.9286 20.0333 19.8699 20.1999 19.8699H24.8163C24.9823 19.8718 25.1409 19.9312 25.2583 20.0352C25.3756 20.1393 25.4425 20.2799 25.4447 20.427V25.7829H31.477C31.6437 25.7829 31.8035 25.8416 31.9214 25.946C32.0392 26.0505 32.1054 26.1922 32.1054 26.34V30.4553C32.1054 30.6031 32.0392 30.7448 31.9214 30.8492C31.8035 30.9537 31.6437 31.0124 31.477 31.0124H25.4447V36.3682C25.4425 36.5154 25.3756 36.656 25.2583 36.7601C25.1409 36.8641 24.9823 36.9234 24.8163 36.9254H20.1999C20.0333 36.9254 19.8735 36.8667 19.7556 36.7622C19.6378 36.6577 19.5716 36.516 19.5716 36.3682V30.9901H13.5309C13.3642 30.9901 13.2044 30.9314 13.0866 30.827C12.9687 30.7225 12.9025 30.5808 12.9025 30.433V26.34ZM9.93662 46.1365H35.0713C35.2379 46.1365 35.3978 46.1952 35.5156 46.2997C35.6334 46.4042 35.6997 46.5459 35.6997 46.6936C35.6997 46.8414 35.6334 46.9831 35.5156 47.0876C35.3978 47.1921 35.2379 47.2508 35.0713 47.2508H9.93662C9.76997 47.2508 9.61014 47.1921 9.4923 47.0876C9.37445 46.9831 9.30825 46.8414 9.30825 46.6936C9.30825 46.5459 9.37445 46.4042 9.4923 46.2997C9.61014 46.1952 9.76997 46.1365 9.93662 46.1365ZM9.93662 51.3363H35.0713C35.2379 51.3363 35.3978 51.395 35.5156 51.4995C35.6334 51.604 35.6997 51.7457 35.6997 51.8935C35.6997 52.0412 35.6334 52.1829 35.5156 52.2874C35.3978 52.3919 35.2379 52.4506 35.0713 52.4506H9.93662C9.76997 52.4506 9.61014 52.3919 9.4923 52.2874C9.37445 52.1829 9.30825 52.0412 9.30825 51.8935C9.30825 51.7457 9.37445 51.604 9.4923 51.4995C9.61014 51.395 9.76997 51.3363 9.93662 51.3363ZM9.93662 56.5362H35.0713C35.2379 56.5362 35.3978 56.5949 35.5156 56.6994C35.6334 56.8038 35.6997 56.9455 35.6997 57.0933C35.6997 57.2411 35.6334 57.3828 35.5156 57.4872C35.3978 57.5917 35.2379 57.6504 35.0713 57.6504H9.93662C9.75774 57.6504 9.5862 57.5874 9.45971 57.4753C9.33323 57.3631 9.26217 57.211 9.26217 57.0524C9.26217 56.8939 9.33323 56.7418 9.45971 56.6296C9.5862 56.5175 9.75774 56.4545 9.93662 56.4545V56.5362Z" fill="url(#paint3_linear_6468_615)"/>
<path d="M20.8295 30.4557V35.8116H24.1808V30.4557C24.1808 30.308 24.247 30.1663 24.3649 30.0618C24.4827 29.9573 24.6425 29.8986 24.8092 29.8986H30.8834V26.9273H24.8511C24.6844 26.9273 24.5246 26.8686 24.4068 26.7641C24.2889 26.6596 24.2227 26.5179 24.2227 26.3702V20.9846H20.8295V26.3404C20.8295 26.4882 20.7633 26.6299 20.6455 26.7344C20.5276 26.8389 20.3678 26.8976 20.2012 26.8976H14.127V29.8689H20.1677C20.2558 29.8646 20.3441 29.8769 20.4266 29.9048C20.5091 29.9328 20.584 29.9759 20.6464 30.0312C20.7089 30.0866 20.7575 30.153 20.789 30.2262C20.8206 30.2993 20.8344 30.3776 20.8295 30.4557Z" fill="url(#paint4_linear_6468_615)"/>
<defs>
<linearGradient id="paint0_linear_6468_615" x1="18.3145" y1="3.71401" x2="28.5828" y2="3.79514" gradientUnits="userSpaceOnUse">
<stop stop-color="#0499AB"/>
<stop offset="1" stop-color="#06646F" stop-opacity="0.6"/>
</linearGradient>
<linearGradient id="paint1_linear_6468_615" x1="0" y1="38.6276" x2="55.1655" y2="38.9357" gradientUnits="userSpaceOnUse">
<stop stop-color="#0499AB"/>
<stop offset="1" stop-color="#06646F" stop-opacity="0.6"/>
</linearGradient>
<linearGradient id="paint2_linear_6468_615" x1="7.27148" y1="11.4763" x2="44.5607" y2="12.8463" gradientUnits="userSpaceOnUse">
<stop stop-color="#0499AB"/>
<stop offset="1" stop-color="#06646F" stop-opacity="0.6"/>
</linearGradient>
<linearGradient id="paint3_linear_6468_615" x1="5.11914" y1="38.6153" x2="47.736" y2="38.8398" gradientUnits="userSpaceOnUse">
<stop stop-color="#0499AB"/>
<stop offset="1" stop-color="#06646F" stop-opacity="0.6"/>
</linearGradient>
<linearGradient id="paint4_linear_6468_615" x1="14.127" y1="28.3981" x2="34.6645" y2="28.5607" gradientUnits="userSpaceOnUse">
<stop stop-color="#0499AB"/>
<stop offset="1" stop-color="#06646F" stop-opacity="0.6"/>
</linearGradient>
</defs>
</svg>
