<svg width="61" height="61" viewBox="0 0 61 61" fill="none" xmlns="http://www.w3.org/2000/svg">
<path fill-rule="evenodd" clip-rule="evenodd" d="M31.0466 9.18796C34.5044 3.37283 38.2483 0 45.7901 0C56.4973 0 62.2144 7.74816 60.7827 17.8485C59.7008 25.4744 55.7525 31.0456 50.4252 37.0308C49.2982 38.2983 42.6268 44.6785 37.2301 49.1411V33.8383C37.2301 32.7113 37.5801 31.7726 38.3199 30.9214L45.2725 22.9241C46.5294 21.4763 46.3756 19.2515 44.9278 17.992C43.48 16.7351 41.2552 16.8889 39.9957 18.3368L35.1405 23.9212C35.2996 23.4413 35.3845 22.9269 35.3845 22.3938C35.3845 19.6971 33.1968 17.5095 30.5001 17.5095C27.8034 17.5095 25.6157 19.6971 25.6157 22.3938C25.6157 22.9268 25.7005 23.4386 25.8596 23.9212L21.0045 18.3368C19.7475 16.8889 17.5202 16.7351 16.0724 17.992C14.6245 19.249 14.4707 21.4763 15.7276 22.9241L22.6802 30.9214C23.42 31.7726 23.7701 32.7113 23.7701 33.8383V49.1411C18.3713 44.6757 11.7025 38.2982 10.575 37.0308C5.24773 31.046 1.29946 25.4751 0.217401 17.8485C-1.21452 7.75087 4.49986 0.00271512 15.21 0.00271512C22.7511 0.00271512 26.4983 3.37568 29.9535 9.19067C30.0702 9.38955 30.2691 9.50092 30.4998 9.50092C30.7305 9.50092 30.9299 9.38683 31.0466 9.18796ZM34.1146 22.3987C34.1146 20.4019 32.4971 18.7844 30.5004 18.7844C28.5037 18.7844 26.8862 20.4019 26.8862 22.3987C26.8862 24.3954 28.5037 26.0129 30.5004 26.0129C32.4971 26.0129 34.1146 24.3927 34.1146 22.3987ZM26.809 26.9516L20.0446 19.1715C19.2412 18.2487 17.8305 18.1506 16.9077 18.9514C15.9849 19.7549 15.8868 21.1655 16.6876 22.091L23.6402 30.0883C24.5815 31.1702 25.0429 32.4059 25.0429 33.8404V58.5593C25.0429 59.8851 26.1275 60.9697 27.4533 60.9697C28.7791 60.9697 29.8637 59.8851 29.8637 58.5593V44.646C29.8637 44.296 30.1474 44.0096 30.5001 44.0096C30.8501 44.0096 31.1365 44.2933 31.1365 44.646V58.5593C31.1365 59.8851 32.2211 60.9697 33.5469 60.9697C34.8727 60.9697 35.9573 59.8851 35.9573 58.5593V33.8404C35.9573 32.4058 36.4187 31.1701 37.36 30.0883L44.3126 22.091C45.116 21.1682 45.0153 19.7549 44.0925 18.9514C43.1697 18.1479 41.7564 18.2487 40.9555 19.1715L34.1911 26.9516C33.7669 27.4395 33.2074 27.6941 32.5604 27.6941H28.437C27.79 27.6967 27.2333 27.4422 26.809 26.9516Z" fill="url(#paint0_linear_6468_649)"/>
<defs>
<linearGradient id="paint0_linear_6468_649" x1="0" y1="30.4848" x2="74.7656" y2="31.0089" gradientUnits="userSpaceOnUse">
<stop stop-color="#0499AB"/>
<stop offset="1" stop-color="#06646F" stop-opacity="0.6"/>
</linearGradient>
</defs>
</svg>
