<svg width="65" height="62" viewBox="0 0 65 62" fill="none" xmlns="http://www.w3.org/2000/svg">
<path fill-rule="evenodd" clip-rule="evenodd" d="M7.06166 33.8442H0.661033C0.480485 33.8442 0.314503 33.9199 0.195107 34.0393C0.0757108 34.1587 0 34.3247 0 34.5052V59.4058C0 59.5863 0.0757108 59.7523 0.195107 59.8717C0.314503 59.9911 0.480485 60.0668 0.661033 60.0668H7.06166C7.24221 60.0668 7.40819 59.9911 7.52758 59.8717C7.64698 59.7523 7.72269 59.5863 7.72269 59.4058V34.5082C7.72269 34.3277 7.64698 34.1617 7.52758 34.0423C7.40819 33.92 7.24221 33.8442 7.06166 33.8442ZM22.0585 13.3025C22.5099 20.1516 28.1388 28.8174 43.5142 37.3964C58.8897 28.8174 64.5159 20.1512 64.9699 13.3025C65.229 9.40033 63.7934 6.08935 61.5395 3.74839C59.2856 1.41004 56.2221 0.0355241 53.2199 0.000635601C49.6119 -0.0401325 46.0738 1.87888 44.1489 6.4275C44.0819 6.58766 43.9538 6.72162 43.782 6.79442C43.4325 6.94293 43.0278 6.77695 42.8793 6.4275C40.9544 1.87888 37.4192 -0.0401422 33.8083 0.000635601C30.806 0.03558 27.7425 1.41004 25.4887 3.74839C23.2348 6.08965 21.7994 9.39772 22.0585 13.3025ZM29.0736 51.5203H41.7088C41.8282 51.5203 41.9388 51.4912 42.0349 51.4388L60.5378 43.5941C61.2803 43.2796 62.0753 43.1893 62.7713 43.3611C63.3741 43.5096 63.9041 43.8649 64.2564 44.4502C64.6292 45.0704 64.7136 45.781 64.5535 46.4333C64.3904 47.0943 63.974 47.6942 63.3508 48.0815C58.4091 51.1508 54.8449 53.5445 52.0925 55.3907C47.9371 58.1804 45.6773 59.6947 43.2049 60.4896C40.255 61.4389 36.8421 61.4128 29.3643 61.3575C27.1395 61.34 24.5886 61.3225 22.2153 61.3225C21.959 61.3225 21.729 61.305 21.5135 61.2643C21.298 61.2235 21.0767 61.1595 20.8379 61.0692L9.10255 56.5992L9.10546 37.2227C14.3646 37.4148 17.2618 38.9669 20.2497 40.5686C21.5164 41.2471 22.7948 41.9343 24.2945 42.5458C24.4838 42.6245 24.6614 42.6827 24.839 42.7206C25.0225 42.7613 25.206 42.7875 25.404 42.8021L34.7955 43.4049C36.4816 43.5126 38.0133 44.2115 39.1112 45.3094C40.1566 46.3548 40.806 47.7701 40.806 49.3746V50.1375H29.0736C28.6921 50.1375 28.3834 50.4462 28.3834 50.8276C28.3834 51.2091 28.6921 51.5203 29.0736 51.5203Z" fill="url(#paint0_linear_6468_648)"/>
<defs>
<linearGradient id="paint0_linear_6468_648" x1="0" y1="30.6898" x2="79.6677" y2="31.2809" gradientUnits="userSpaceOnUse">
<stop stop-color="#0499AB"/>
<stop offset="1" stop-color="#06646F" stop-opacity="0.6"/>
</linearGradient>
</defs>
</svg>
