<svg width="44" height="54" viewBox="0 0 44 54" fill="none" xmlns="http://www.w3.org/2000/svg">
<path d="M44 22C44 39.1111 22 53.7778 22 53.7778C22 53.7778 0 39.1111 0 22C8.69447e-08 16.1652 2.31785 10.5695 6.44365 6.44365C10.5695 2.31785 16.1652 0 22 0C27.8348 0 33.4305 2.31785 37.5563 6.44365C41.6821 10.5695 44 16.1652 44 22Z" fill="url(#paint0_linear_6288_1347)"/>
<path d="M21.9993 29.3333C26.0494 29.3333 29.3327 26.05 29.3327 22C29.3327 17.9499 26.0494 14.6666 21.9993 14.6666C17.9493 14.6666 14.666 17.9499 14.666 22C14.666 26.05 17.9493 29.3333 21.9993 29.3333Z" fill="#C5DEF3"/>
<defs>
<linearGradient id="paint0_linear_6288_1347" x1="0" y1="26.8889" x2="53.9301" y2="27.198" gradientUnits="userSpaceOnUse">
<stop stop-color="#0499AB"/>
<stop offset="1" stop-color="#06646F" stop-opacity="0.6"/>
</linearGradient>
</defs>
</svg>
