<svg width="48" height="58" viewBox="0 0 48 58" fill="none" xmlns="http://www.w3.org/2000/svg">
<path d="M31.1299 0.719727L47.2549 16.6201L48 17.3545V50.2002C47.9999 52.2802 47.1613 54.2676 45.6807 55.7275C44.2012 57.1863 42.2023 58 40.125 58H7.875C5.79768 58 3.79879 57.1863 2.31934 55.7275C0.83873 54.2676 5.22709e-05 52.2802 0 50.2002V7.7998C5.25277e-05 5.71976 0.83873 3.73241 2.31934 2.27246C3.79879 0.813665 5.79768 0 7.875 0H30.4004L31.1299 0.719727ZM7.875 5C7.10148 5 6.36659 5.30325 5.83008 5.83203C5.29476 6.35988 5.00005 7.06869 5 7.7998V50.2002C5.00005 50.9313 5.29476 51.6401 5.83008 52.168C6.36659 52.6968 7.10148 53 7.875 53H40.125C40.8985 53 41.6334 52.6968 42.1699 52.168C42.7052 51.6401 42.9999 50.9313 43 50.2002V19.833H28.167V5H7.875ZM24.833 36.167H31.5V38.833H24.833V45.5H22.167V38.833H15.5V36.167H22.167V29.5H24.833V36.167ZM30.833 17.167H40.6904L30.833 7.44824V17.167Z" fill="url(#paint0_linear_6448_155)"/>
<defs>
<linearGradient id="paint0_linear_6448_155" x1="0" y1="29" x2="58.8328" y2="29.3411" gradientUnits="userSpaceOnUse">
<stop stop-color="#0499AB"/>
<stop offset="1" stop-color="#06646F" stop-opacity="0.6"/>
</linearGradient>
</defs>
</svg>
