<svg width="67" height="67" viewBox="0 0 67 67" fill="none" xmlns="http://www.w3.org/2000/svg">
<g filter="url(#filter0_dd_6630_81)">
<path d="M12 23.5C12 11.6259 21.6259 2 33.5 2C45.3741 2 55 11.6259 55 23.5C55 35.3741 45.3741 45 33.5 45C21.6259 45 12 35.3741 12 23.5Z" fill="url(#paint0_linear_6630_81)" shape-rendering="crispEdges"/>
<path d="M32.7 30.5V18.22L33.02 16.5H35.76V30.5H32.7ZM29.82 21.3V18.38C30.18 18.4067 30.5467 18.3267 30.92 18.14C31.3067 17.9533 31.68 17.7067 32.04 17.4C32.4133 17.08 32.74 16.7667 33.02 16.46L35.06 18.44C34.5667 19 34.04 19.5133 33.48 19.98C32.92 20.4333 32.34 20.7867 31.74 21.04C31.14 21.28 30.5 21.3667 29.82 21.3Z" fill="white"/>
</g>
<defs>
<filter id="filter0_dd_6630_81" x="0" y="0" width="67" height="67" filterUnits="userSpaceOnUse" color-interpolation-filters="sRGB">
<feFlood flood-opacity="0" result="BackgroundImageFix"/>
<feColorMatrix in="SourceAlpha" type="matrix" values="0 0 0 0 0 0 0 0 0 0 0 0 0 0 0 0 0 0 127 0" result="hardAlpha"/>
<feMorphology radius="4" operator="erode" in="SourceAlpha" result="effect1_dropShadow_6630_81"/>
<feOffset dy="4"/>
<feGaussianBlur stdDeviation="3"/>
<feComposite in2="hardAlpha" operator="out"/>
<feColorMatrix type="matrix" values="0 0 0 0 0 0 0 0 0 0 0 0 0 0 0 0 0 0 0.1 0"/>
<feBlend mode="normal" in2="BackgroundImageFix" result="effect1_dropShadow_6630_81"/>
<feColorMatrix in="SourceAlpha" type="matrix" values="0 0 0 0 0 0 0 0 0 0 0 0 0 0 0 0 0 0 127 0" result="hardAlpha"/>
<feMorphology radius="3" operator="erode" in="SourceAlpha" result="effect2_dropShadow_6630_81"/>
<feOffset dy="10"/>
<feGaussianBlur stdDeviation="7.5"/>
<feComposite in2="hardAlpha" operator="out"/>
<feColorMatrix type="matrix" values="0 0 0 0 0 0 0 0 0 0 0 0 0 0 0 0 0 0 0.1 0"/>
<feBlend mode="normal" in2="effect1_dropShadow_6630_81" result="effect2_dropShadow_6630_81"/>
<feBlend mode="normal" in="SourceGraphic" in2="effect2_dropShadow_6630_81" result="shape"/>
</filter>
<linearGradient id="paint0_linear_6630_81" x1="12" y1="23.5" x2="64.7036" y2="23.8692" gradientUnits="userSpaceOnUse">
<stop stop-color="#0499AB"/>
<stop offset="1" stop-color="#06646F" stop-opacity="0.6"/>
</linearGradient>
</defs>
</svg>
