<svg width="67" height="67" viewBox="0 0 67 67" fill="none" xmlns="http://www.w3.org/2000/svg">
<g filter="url(#filter0_dd_6630_83)">
<path d="M12 23.5C12 11.6259 21.6259 2 33.5 2C45.3741 2 55 11.6259 55 23.5C55 35.3741 45.3741 45 33.5 45C21.6259 45 12 35.3741 12 23.5Z" fill="url(#paint0_linear_6630_83)" shape-rendering="crispEdges"/>
<path d="M28.46 30.5V28.18C28.46 27.82 28.5933 27.4067 28.86 26.94C29.1267 26.46 29.4933 25.9733 29.96 25.48C30.44 24.9867 30.98 24.5333 31.58 24.12L33.34 22.92C33.6067 22.7467 33.8733 22.5467 34.14 22.32C34.4067 22.08 34.6267 21.8267 34.8 21.56C34.9733 21.28 35.06 21 35.06 20.72C35.06 20.4267 34.9867 20.1667 34.84 19.94C34.7067 19.7 34.5 19.52 34.22 19.4C33.9533 19.2667 33.6 19.2 33.16 19.2C32.8267 19.2 32.5267 19.2733 32.26 19.42C32.0067 19.5533 31.7933 19.74 31.62 19.98C31.46 20.2067 31.34 20.46 31.26 20.74L27.94 20.18C28.0733 19.4867 28.36 18.84 28.8 18.24C29.2533 17.64 29.8467 17.16 30.58 16.8C31.3267 16.4267 32.18 16.24 33.14 16.24C34.2333 16.24 35.1667 16.4333 35.94 16.82C36.7133 17.1933 37.3067 17.7133 37.72 18.38C38.1467 19.0467 38.36 19.82 38.36 20.7C38.36 21.6333 38.1 22.44 37.58 23.12C37.0733 23.8 36.4 24.4267 35.56 25L34.02 26.06C33.7 26.2733 33.4067 26.5133 33.14 26.78C32.8733 27.0467 32.64 27.3467 32.44 27.68H38.52V30.5H28.46Z" fill="white"/>
</g>
<defs>
<filter id="filter0_dd_6630_83" x="0" y="0" width="67" height="67" filterUnits="userSpaceOnUse" color-interpolation-filters="sRGB">
<feFlood flood-opacity="0" result="BackgroundImageFix"/>
<feColorMatrix in="SourceAlpha" type="matrix" values="0 0 0 0 0 0 0 0 0 0 0 0 0 0 0 0 0 0 127 0" result="hardAlpha"/>
<feMorphology radius="4" operator="erode" in="SourceAlpha" result="effect1_dropShadow_6630_83"/>
<feOffset dy="4"/>
<feGaussianBlur stdDeviation="3"/>
<feComposite in2="hardAlpha" operator="out"/>
<feColorMatrix type="matrix" values="0 0 0 0 0 0 0 0 0 0 0 0 0 0 0 0 0 0 0.1 0"/>
<feBlend mode="normal" in2="BackgroundImageFix" result="effect1_dropShadow_6630_83"/>
<feColorMatrix in="SourceAlpha" type="matrix" values="0 0 0 0 0 0 0 0 0 0 0 0 0 0 0 0 0 0 127 0" result="hardAlpha"/>
<feMorphology radius="3" operator="erode" in="SourceAlpha" result="effect2_dropShadow_6630_83"/>
<feOffset dy="10"/>
<feGaussianBlur stdDeviation="7.5"/>
<feComposite in2="hardAlpha" operator="out"/>
<feColorMatrix type="matrix" values="0 0 0 0 0 0 0 0 0 0 0 0 0 0 0 0 0 0 0.1 0"/>
<feBlend mode="normal" in2="effect1_dropShadow_6630_83" result="effect2_dropShadow_6630_83"/>
<feBlend mode="normal" in="SourceGraphic" in2="effect2_dropShadow_6630_83" result="shape"/>
</filter>
<linearGradient id="paint0_linear_6630_83" x1="12" y1="23.5" x2="64.7036" y2="23.8692" gradientUnits="userSpaceOnUse">
<stop stop-color="#0499AB"/>
<stop offset="1" stop-color="#06646F" stop-opacity="0.6"/>
</linearGradient>
</defs>
</svg>
