<svg width="67" height="67" viewBox="0 0 67 67" fill="none" xmlns="http://www.w3.org/2000/svg">
<g filter="url(#filter0_dd_6630_85)">
<path d="M12 23.5C12 11.6259 21.6259 2 33.5 2C45.3741 2 55 11.6259 55 23.5C55 35.3741 45.3741 45 33.5 45C21.6259 45 12 35.3741 12 23.5Z" fill="url(#paint0_linear_6630_85)" shape-rendering="crispEdges"/>
<path d="M33.22 30.74C32.34 30.74 31.5333 30.6067 30.8 30.34C30.08 30.0733 29.48 29.6867 29 29.18C28.5333 28.66 28.2267 28.0267 28.08 27.28L31.12 26.54C31.2 26.7 31.3 26.8933 31.42 27.12C31.5533 27.3467 31.7467 27.5467 32 27.72C32.2533 27.88 32.5933 27.96 33.02 27.96C33.58 27.96 34.02 27.8133 34.34 27.52C34.66 27.2133 34.82 26.8133 34.82 26.32C34.82 26.0267 34.7467 25.7533 34.6 25.5C34.4667 25.2333 34.2133 25.0267 33.84 24.88C33.48 24.72 32.9667 24.64 32.3 24.64H31.26V22.56H32.18C32.9667 22.56 33.7067 22.66 34.4 22.86C35.1067 23.0467 35.7333 23.3267 36.28 23.7C36.8267 24.0733 37.2533 24.5133 37.56 25.02C37.88 25.5267 38.04 26.1 38.04 26.74C38.04 27.5933 37.8133 28.32 37.36 28.92C36.9067 29.52 36.3133 29.9733 35.58 30.28C34.8467 30.5867 34.06 30.74 33.22 30.74ZM31.26 23.98V22.04H32.3C33.14 22.04 33.7333 21.9 34.08 21.62C34.4267 21.34 34.6 20.96 34.6 20.48C34.6 20.2 34.5333 19.9533 34.4 19.74C34.2667 19.5267 34.08 19.36 33.84 19.24C33.6 19.1067 33.3267 19.04 33.02 19.04C32.7933 19.04 32.56 19.08 32.32 19.16C32.08 19.24 31.86 19.38 31.66 19.58C31.46 19.78 31.3067 20.0667 31.2 20.44L28.2 19.72C28.3467 18.96 28.6667 18.3267 29.16 17.82C29.6667 17.3 30.2667 16.9133 30.96 16.66C31.6533 16.3933 32.3667 16.26 33.1 16.26C33.98 16.26 34.7733 16.4267 35.48 16.76C36.2 17.08 36.7667 17.5333 37.18 18.12C37.6067 18.6933 37.82 19.3667 37.82 20.14C37.82 20.8067 37.6533 21.38 37.32 21.86C37 22.34 36.5667 22.74 36.02 23.06C35.4867 23.3667 34.8867 23.6 34.22 23.76C33.5533 23.9067 32.8733 23.98 32.18 23.98H31.26Z" fill="white"/>
</g>
<defs>
<filter id="filter0_dd_6630_85" x="0" y="0" width="67" height="67" filterUnits="userSpaceOnUse" color-interpolation-filters="sRGB">
<feFlood flood-opacity="0" result="BackgroundImageFix"/>
<feColorMatrix in="SourceAlpha" type="matrix" values="0 0 0 0 0 0 0 0 0 0 0 0 0 0 0 0 0 0 127 0" result="hardAlpha"/>
<feMorphology radius="4" operator="erode" in="SourceAlpha" result="effect1_dropShadow_6630_85"/>
<feOffset dy="4"/>
<feGaussianBlur stdDeviation="3"/>
<feComposite in2="hardAlpha" operator="out"/>
<feColorMatrix type="matrix" values="0 0 0 0 0 0 0 0 0 0 0 0 0 0 0 0 0 0 0.1 0"/>
<feBlend mode="normal" in2="BackgroundImageFix" result="effect1_dropShadow_6630_85"/>
<feColorMatrix in="SourceAlpha" type="matrix" values="0 0 0 0 0 0 0 0 0 0 0 0 0 0 0 0 0 0 127 0" result="hardAlpha"/>
<feMorphology radius="3" operator="erode" in="SourceAlpha" result="effect2_dropShadow_6630_85"/>
<feOffset dy="10"/>
<feGaussianBlur stdDeviation="7.5"/>
<feComposite in2="hardAlpha" operator="out"/>
<feColorMatrix type="matrix" values="0 0 0 0 0 0 0 0 0 0 0 0 0 0 0 0 0 0 0.1 0"/>
<feBlend mode="normal" in2="effect1_dropShadow_6630_85" result="effect2_dropShadow_6630_85"/>
<feBlend mode="normal" in="SourceGraphic" in2="effect2_dropShadow_6630_85" result="shape"/>
</filter>
<linearGradient id="paint0_linear_6630_85" x1="12" y1="23.5" x2="64.7036" y2="23.8692" gradientUnits="userSpaceOnUse">
<stop stop-color="#0499AB"/>
<stop offset="1" stop-color="#06646F" stop-opacity="0.6"/>
</linearGradient>
</defs>
</svg>
