<svg width="88" height="88" viewBox="0 0 88 88" fill="none" xmlns="http://www.w3.org/2000/svg">
<g filter="url(#filter0_dd_6588_1341)">
<path d="M12 34C12 16.3269 26.3269 2 44 2C61.6731 2 76 16.3269 76 34C76 51.6731 61.6731 66 44 66C26.3269 66 12 51.6731 12 34Z" fill="url(#paint0_linear_6588_1341)" shape-rendering="crispEdges"/>
<path d="M51.76 43.12L52.88 46.52C51.76 47.08 50.6 47.5067 49.4 47.8C48.2 48.0667 46.7733 48.2 45.12 48.2C43.1733 48.2 41.5333 47.96 40.2 47.48C38.8667 46.9733 37.8533 46.2667 37.16 45.36C36.4933 44.4267 36.16 43.3333 36.16 42.08C36.16 41.0667 36.4533 39.9467 37.04 38.72C37.6533 37.4667 38.7467 36.2267 40.32 35C39.5733 34.76 38.8933 34.4267 38.28 34C37.6667 33.5733 37.1733 33.0533 36.8 32.44C36.4267 31.8 36.24 31.0533 36.24 30.2C36.24 29.2667 36.4667 28.3333 36.92 27.4C37.3733 26.4667 38.0267 25.5733 38.88 24.72C39.7333 23.8667 40.76 23.0933 41.96 22.4C43.16 21.7067 44.52 21.12 46.04 20.64L47.36 24.24C46.1333 24.6667 45.0667 25.12 44.16 25.6C43.2533 26.0533 42.4933 26.5333 41.88 27.04C41.2933 27.5467 40.8533 28.0667 40.56 28.6C40.2667 29.1067 40.12 29.6 40.12 30.08C40.12 30.4533 40.2667 30.8 40.56 31.12C40.88 31.4133 41.32 31.64 41.88 31.8C42.4667 31.96 43.1333 32.04 43.88 32.04C44.6533 32.04 45.4667 31.9467 46.32 31.76L46.76 35.08C45.0533 35.9867 43.72 36.84 42.76 37.64C41.8 38.44 41.12 39.1733 40.72 39.84C40.32 40.5067 40.12 41.12 40.12 41.68C40.12 42.3467 40.3467 42.88 40.8 43.28C41.2533 43.68 41.88 43.9733 42.68 44.16C43.5067 44.3467 44.4267 44.44 45.44 44.44C46.32 44.44 47.16 44.3733 47.96 44.24C48.7867 44.08 49.5333 43.9067 50.2 43.72C50.8667 43.5067 51.3867 43.3067 51.76 43.12Z" fill="#DBECF7"/>
</g>
<defs>
<filter id="filter0_dd_6588_1341" x="0" y="0" width="88" height="88" filterUnits="userSpaceOnUse" color-interpolation-filters="sRGB">
<feFlood flood-opacity="0" result="BackgroundImageFix"/>
<feColorMatrix in="SourceAlpha" type="matrix" values="0 0 0 0 0 0 0 0 0 0 0 0 0 0 0 0 0 0 127 0" result="hardAlpha"/>
<feMorphology radius="4" operator="erode" in="SourceAlpha" result="effect1_dropShadow_6588_1341"/>
<feOffset dy="4"/>
<feGaussianBlur stdDeviation="3"/>
<feComposite in2="hardAlpha" operator="out"/>
<feColorMatrix type="matrix" values="0 0 0 0 0 0 0 0 0 0 0 0 0 0 0 0 0 0 0.1 0"/>
<feBlend mode="normal" in2="BackgroundImageFix" result="effect1_dropShadow_6588_1341"/>
<feColorMatrix in="SourceAlpha" type="matrix" values="0 0 0 0 0 0 0 0 0 0 0 0 0 0 0 0 0 0 127 0" result="hardAlpha"/>
<feMorphology radius="3" operator="erode" in="SourceAlpha" result="effect2_dropShadow_6588_1341"/>
<feOffset dy="10"/>
<feGaussianBlur stdDeviation="7.5"/>
<feComposite in2="hardAlpha" operator="out"/>
<feColorMatrix type="matrix" values="0 0 0 0 0 0 0 0 0 0 0 0 0 0 0 0 0 0 0.1 0"/>
<feBlend mode="normal" in2="effect1_dropShadow_6588_1341" result="effect2_dropShadow_6588_1341"/>
<feBlend mode="normal" in="SourceGraphic" in2="effect2_dropShadow_6588_1341" result="shape"/>
</filter>
<linearGradient id="paint0_linear_6588_1341" x1="12" y1="34" x2="90.4426" y2="34.5496" gradientUnits="userSpaceOnUse">
<stop stop-color="#0499AB"/>
<stop offset="1" stop-color="#06646F" stop-opacity="0.6"/>
</linearGradient>
</defs>
</svg>
