<svg width="61" height="58" viewBox="0 0 61 58" fill="none" xmlns="http://www.w3.org/2000/svg">
<path d="M50.5015 18.3273C50.5015 19.9928 48.002 19.9928 48.002 18.3273C48.002 16.6617 50.5015 16.6617 50.5015 18.3273Z" fill="url(#paint0_linear_6125_205)"/>
<path d="M50.2959 13.7712C49.8039 13.7712 49.4004 14.1747 49.4004 14.6668C49.4004 15.1588 49.8039 15.5623 50.2959 15.5623C50.788 15.5623 51.1914 15.1588 51.1914 14.6668C51.1914 14.1747 50.788 13.7712 50.2959 13.7712Z" fill="url(#paint1_linear_6125_205)"/>
<path d="M49.0351 25.3239C49.0351 27.201 46.2207 27.201 46.2207 25.3239C46.2207 23.4467 49.0351 23.4467 49.0351 25.3239Z" fill="url(#paint2_linear_6125_205)"/>
<path d="M43.7297 20.0489C43.7297 21.3479 41.7812 21.3479 41.7812 20.0489C41.7812 18.75 43.7297 18.75 43.7297 20.0489Z" fill="url(#paint3_linear_6125_205)"/>
<path d="M48.3056 7.05944C41.2991 7.05944 35.6114 12.7374 35.6114 19.7537C35.6114 21.8792 36.1428 23.8769 37.058 25.6384C35.8082 27.5081 34.1845 29.0924 32.2558 30.2536C31.7834 30.539 31.8228 31.2475 32.3443 31.4443C34.0369 32.0937 35.8771 32.4481 37.8059 32.4481C39.7346 32.4481 41.5945 32.0741 43.3068 31.4148C44.8419 32.0741 46.5345 32.4382 48.3058 32.4382C55.3123 32.4382 61 26.7602 61 19.744C61 12.7278 55.322 7.0498 48.3058 7.0498L48.3056 7.05944ZM55.8437 22.9228C55.8633 23.0606 55.8732 23.1983 55.8732 23.3361C55.8732 25.3239 54.2593 26.9279 52.2814 26.9181C52.4683 26.4457 52.5667 25.9438 52.5667 25.4223C52.5667 24.6055 52.3306 23.8085 51.8779 23.1295C51.7303 22.913 51.4744 22.8047 51.2284 22.8835C50.8446 23.0114 50.7167 23.4444 50.9234 23.7494C51.2579 24.2415 51.4351 24.822 51.4351 25.4223C51.4351 26.2686 51.0808 27.0755 50.451 27.6462C50.3526 27.7348 50.3034 27.8431 50.2739 27.9611C50.2148 28.3154 50.018 28.65 49.6834 28.7779C49.2898 28.9255 48.8667 29.0141 48.414 29.0141C46.9478 29.0141 45.6882 28.1285 45.1371 26.8689C44.9403 26.8984 44.7435 26.9279 44.5368 26.9279C42.6278 26.9279 41.073 25.4322 40.9647 23.5526C41.4862 23.7789 42.057 23.9068 42.6376 23.9068C43.7495 23.9068 44.7927 23.4739 45.5799 22.6866C46.0621 22.1946 46.6427 21.8698 47.2331 21.7321C47.4398 21.6829 47.5579 21.673 47.6366 21.673C48.1975 21.673 48.7387 21.8305 49.2111 22.1159C49.526 22.3028 49.9393 22.1651 50.0574 21.7911C50.1361 21.5353 50.0082 21.2696 49.772 21.1318C49.1324 20.748 48.3845 20.5414 47.6366 20.5414C47.4398 20.5414 47.2332 20.5709 46.9773 20.6299C46.1704 20.8169 45.4126 21.2499 44.7828 21.8895C44.6057 22.0667 44.4089 22.2339 44.1924 22.3619C42.8541 23.1295 41.2992 22.7949 40.3841 21.7616C40.2955 21.6632 40.1873 21.6041 40.0692 21.5845C39.7149 21.5156 39.4 21.3188 39.2721 20.9842C39.1343 20.6102 39.0655 20.1969 39.0655 19.7738C39.0655 18.3961 39.8527 17.1955 40.9942 16.5953C40.9745 16.4575 40.9647 16.3197 40.9647 16.1819C40.9647 14.204 42.5687 12.5901 44.5565 12.6C44.3794 13.0723 44.281 13.5742 44.281 14.0957C44.281 14.9715 44.5565 15.808 45.0584 16.5067C44.5368 16.6543 43.9661 16.6641 43.4347 16.5165C43.0903 16.4181 42.7262 16.6641 42.7164 17.0479C42.7065 17.3234 42.9132 17.5498 43.1789 17.6285C43.5233 17.7171 43.8776 17.7663 44.2318 17.7663C45.0092 17.7663 45.7768 17.5498 46.4459 17.1266C47.1348 16.6937 47.6859 16.0639 48.0204 15.3258C48.1287 15.0896 48.0795 14.8043 47.8827 14.6369C47.5776 14.3811 47.1348 14.4992 46.9872 14.8337C46.7903 15.2864 46.4755 15.6702 46.0917 15.9753C45.3438 15.0502 45.1863 13.7414 45.826 12.5212C46.0031 12.1866 46.2885 11.9406 46.5837 11.7143C46.6919 11.6257 46.7706 11.5175 46.7903 11.3896C46.8592 11.0648 47.0462 10.7794 47.3611 10.6712C47.6957 10.563 48.0598 10.5039 48.4337 10.5039C49.8999 10.5039 51.1595 11.3895 51.7106 12.6491C51.9074 12.6196 52.1042 12.5901 52.3109 12.5901C54.2199 12.5901 55.7747 14.0859 55.883 15.9654C55.3713 15.7391 54.8104 15.6112 54.22 15.6112C53.9641 15.6112 53.7378 15.7686 53.6591 16.0146C53.5508 16.3984 53.8362 16.7527 54.2003 16.7527C55.8633 16.7527 57.2115 18.1008 57.2115 19.7639C57.2115 19.9115 57.2705 20.0493 57.3591 20.1477C57.5953 20.4035 57.6445 20.7971 57.5067 21.1219C57.182 21.9092 56.5915 22.5488 55.8535 22.9424L55.8437 22.9228Z" fill="url(#paint4_linear_6125_205)"/>
<path d="M53.8163 19.0256C53.2652 19.0256 52.8125 19.4783 52.8125 20.0294C52.8125 20.5805 53.2652 21.0332 53.8163 21.0332C54.3674 21.0332 54.82 20.5904 54.82 20.0294C54.82 19.4685 54.3674 19.0256 53.8163 19.0256Z" fill="url(#paint5_linear_6125_205)"/>
<path d="M29.3441 22.4309H23.9219V25.2748C23.9219 25.7669 24.3253 26.1703 24.8174 26.1703H28.4485C28.9406 26.1703 29.3441 25.7669 29.3441 25.2748V22.4309Z" fill="url(#paint6_linear_6125_205)"/>
<path d="M35.0822 35.4004H18.7761C18.6088 34.1801 17.5854 33.2256 16.3356 33.1469V23.1488C16.3356 22.7749 16.4832 22.4108 16.7489 22.1451L22.3482 16.5458V19.5767C22.3482 20.2754 22.9189 20.8363 23.6078 20.8363H29.6499C30.3486 20.8363 30.9095 20.2655 30.9095 19.5767V15.3846H32.8481C33.4484 15.3846 33.9404 14.8926 33.9404 14.2923V8.62412C33.9404 8.02385 33.4484 7.5318 32.8481 7.5318H23.8143L20.2421 3.95965C20.0453 3.76284 20.0453 3.45778 20.2421 3.26095C20.4783 3.02478 20.6062 2.71972 20.6062 2.39498C20.6062 2.07024 20.4783 1.75536 20.252 1.52901L19.0809 0.35796C18.5987 -0.114389 17.8312 -0.124226 17.349 0.35796L12.1728 5.53415C11.9465 5.77032 11.8185 6.07538 11.8185 6.40012C11.8185 6.72486 11.9465 7.03974 12.1728 7.26609L13.3438 8.43714C13.826 8.91932 14.6034 8.91932 15.0758 8.43714C15.2628 8.25016 15.5875 8.25016 15.7745 8.43714L18.5102 11.1729L11.6316 18.0515C10.4703 19.2127 9.83071 20.7577 9.83071 22.401V33.1372C8.45302 33.2159 7.3607 34.3673 7.3607 35.7548V46.8745C7.3607 48.0947 6.36682 49.0788 5.15641 49.0788C4.17235 49.0788 3.37528 49.8758 3.37528 50.8599C3.37528 51.4405 2.90293 51.903 2.33221 51.903H1.78113C0.797073 51.903 0 52.7001 0 53.6841V55.4652C0 56.4493 0.797073 57.2464 1.78113 57.2464H29.9942C30.9783 57.2464 31.7753 56.4493 31.7753 55.4652V53.6841C31.7753 52.7001 30.9783 51.903 29.9942 51.903H29.4431C28.8625 51.903 28.4001 51.4306 28.4001 50.8599C28.4001 49.8758 27.603 49.0788 26.6189 49.0788H22.1513C20.3111 49.0788 18.8153 47.583 18.8153 45.7428C18.8153 43.9026 20.3111 42.4068 22.1513 42.4068H35.0917C36.0856 42.4068 36.9024 41.59 36.9024 40.5961V37.2012C36.9024 36.2073 36.0856 35.3905 35.0917 35.3905L35.0822 35.4004Z" fill="url(#paint7_linear_6125_205)"/>
<defs>
<linearGradient id="paint0_linear_6125_205" x1="48.002" y1="18.3273" x2="51.0656" y2="18.3487" gradientUnits="userSpaceOnUse">
<stop stop-color="#0499AB"/>
<stop offset="1" stop-color="#06646F" stop-opacity="0.6"/>
</linearGradient>
<linearGradient id="paint1_linear_6125_205" x1="49.4004" y1="14.6668" x2="51.5956" y2="14.6821" gradientUnits="userSpaceOnUse">
<stop stop-color="#0499AB"/>
<stop offset="1" stop-color="#06646F" stop-opacity="0.6"/>
</linearGradient>
<linearGradient id="paint2_linear_6125_205" x1="46.2207" y1="25.3239" x2="49.6703" y2="25.348" gradientUnits="userSpaceOnUse">
<stop stop-color="#0499AB"/>
<stop offset="1" stop-color="#06646F" stop-opacity="0.6"/>
</linearGradient>
<linearGradient id="paint3_linear_6125_205" x1="41.7812" y1="20.0489" x2="44.1694" y2="20.0657" gradientUnits="userSpaceOnUse">
<stop stop-color="#0499AB"/>
<stop offset="1" stop-color="#06646F" stop-opacity="0.6"/>
</linearGradient>
<linearGradient id="paint4_linear_6125_205" x1="31.9258" y1="19.7489" x2="67.5605" y2="20.0347" gradientUnits="userSpaceOnUse">
<stop stop-color="#0499AB"/>
<stop offset="1" stop-color="#06646F" stop-opacity="0.6"/>
</linearGradient>
<linearGradient id="paint5_linear_6125_205" x1="52.8125" y1="20.0294" x2="55.2731" y2="20.0466" gradientUnits="userSpaceOnUse">
<stop stop-color="#0499AB"/>
<stop offset="1" stop-color="#06646F" stop-opacity="0.6"/>
</linearGradient>
<linearGradient id="paint6_linear_6125_205" x1="23.9219" y1="24.3006" x2="30.5673" y2="24.3681" gradientUnits="userSpaceOnUse">
<stop stop-color="#0499AB"/>
<stop offset="1" stop-color="#06646F" stop-opacity="0.6"/>
</linearGradient>
<linearGradient id="paint7_linear_6125_205" x1="0" y1="28.6232" x2="45.2313" y2="28.8275" gradientUnits="userSpaceOnUse">
<stop stop-color="#0499AB"/>
<stop offset="1" stop-color="#06646F" stop-opacity="0.6"/>
</linearGradient>
</defs>
</svg>
