<svg width="80" height="55" viewBox="0 0 80 55" fill="none" xmlns="http://www.w3.org/2000/svg">
<path d="M78.75 30.7084C74.8467 30.4945 71.1622 28.9959 68.3837 26.4923C68.2677 26.3866 68.1299 26.3028 67.9783 26.2457C67.8266 26.1885 67.6641 26.159 67.5 26.159C67.3358 26.159 67.1733 26.1885 67.0216 26.2457C66.87 26.3028 66.7322 26.3866 66.6162 26.4923C63.8301 28.9857 60.15 30.4825 56.25 30.7084C55.9185 30.7084 55.6005 30.8283 55.3661 31.0416C55.1317 31.2548 55 31.5441 55 31.8458V39.253C54.9966 42.6344 56.1642 45.9308 58.3372 48.6739C60.5101 51.4171 63.5778 53.4675 67.1045 54.5339C67.3611 54.6124 67.6389 54.6124 67.8955 54.5339C71.422 53.4676 74.4896 51.4174 76.6625 48.6744C78.8354 45.9315 80.0032 42.6353 80 39.2541V31.8458C80 31.5441 79.8683 31.2548 79.6339 31.0416C79.3994 30.8283 79.0815 30.7084 78.75 30.7084ZM72.1337 38.3366L67.1337 42.886C67.0177 42.9916 66.8799 43.0754 66.7283 43.1326C66.5766 43.1898 66.4141 43.2192 66.25 43.2192C66.0858 43.2192 65.9233 43.1898 65.7716 43.1326C65.62 43.0754 65.4822 42.9916 65.3662 42.886L62.8662 40.6113C62.6342 40.3976 62.5046 40.109 62.5057 39.8087C62.5067 39.5083 62.6383 39.2205 62.8717 39.0081C63.1052 38.7957 63.4215 38.676 63.7516 38.675C64.0817 38.6741 64.3989 38.792 64.6337 39.0031L66.25 40.4736L70.3662 36.7283C70.6011 36.5173 70.9183 36.3994 71.2484 36.4003C71.5785 36.4013 71.8948 36.521 72.1282 36.7334C72.3617 36.9458 72.4933 37.2336 72.4943 37.534C72.4953 37.8343 72.3657 38.1229 72.1337 38.3366ZM43.75 32.9831C43.5028 32.9831 43.2611 32.9164 43.0555 32.7914C42.85 32.6665 42.6898 32.4888 42.5951 32.281C42.5005 32.0732 42.4758 31.8445 42.524 31.6239C42.5722 31.4033 42.6913 31.2006 42.8661 31.0415C43.0409 30.8825 43.2637 30.7742 43.5061 30.7303C43.7486 30.6864 43.9999 30.7089 44.2283 30.795C44.4568 30.8811 44.652 31.0269 44.7893 31.2139C44.9267 31.4009 45 31.6208 45 31.8458C44.999 32.1471 44.867 32.4359 44.6328 32.649C44.3986 32.8621 44.0812 32.9822 43.75 32.9831ZM52.5 39.2499C52.4918 42.0334 53.189 44.7811 54.5375 47.2796C53.2027 47.9314 51.7999 48.461 50.35 48.8605C50.1214 48.9212 49.8785 48.9212 49.6499 48.8605C43 47.0862 35.975 41.5246 31.675 35.2578H26.25C25.5876 35.2596 24.9528 35.4998 24.4844 35.926C24.0159 36.3522 23.7519 36.9298 23.75 37.5325V47.7686C23.75 49.5785 22.9598 51.3142 21.5533 52.594C20.1468 53.8738 18.2391 54.5927 16.25 54.5927C14.2609 54.5927 12.3532 53.8738 10.9467 52.594C9.54018 51.3142 8.75 49.5785 8.75 47.7686V36.3952H11.25V47.7686C11.25 48.9752 11.7768 50.1324 12.7145 50.9855C13.6521 51.8387 14.9239 52.318 16.25 52.318C17.5761 52.318 18.8479 51.8387 19.7855 50.9855C20.7232 50.1324 21.25 48.9752 21.25 47.7686V37.5325C21.2498 36.935 21.379 36.3434 21.6302 35.7913C21.8814 35.2393 22.2497 34.7377 22.7141 34.3152C23.1784 33.8927 23.7297 33.5576 24.3364 33.3291C24.9431 33.1005 25.5933 32.9829 26.25 32.9831H40.225C40.5199 33.742 41.1001 34.3815 41.8631 34.7888C42.6261 35.1961 43.5228 35.3448 44.3947 35.2087C45.2665 35.0726 46.0574 34.6604 46.6276 34.045C47.1978 33.4296 47.5105 32.6507 47.5105 31.8458C47.5105 31.0409 47.1978 30.2619 46.6276 29.6465C46.0574 29.0311 45.2665 28.619 44.3947 28.4829C43.5228 28.3467 42.6261 28.4955 41.8631 28.9027C41.1001 29.31 40.5199 29.9496 40.225 30.7084H29.0875C28.6004 29.6334 28.2157 28.5223 27.9375 27.3874C26.775 22.6332 27.925 18.698 31.2875 15.9911C34.5125 13.398 37.9 12.2379 41.3375 12.5677C44.6696 13.0031 47.7317 14.4786 50 16.7418C52.2682 14.4786 55.3304 13.0031 58.6625 12.5677C62.1 12.2379 65.4875 13.398 68.7125 15.9911C71.85 18.516 73.0625 22.1101 72.275 26.4434C71.5087 25.9931 70.7964 25.4708 70.15 24.8852C69.8024 24.5679 69.3894 24.3162 68.9346 24.1445C68.4799 23.9727 67.9924 23.8843 67.5 23.8843C67.0076 23.8843 66.5201 23.9727 66.0654 24.1445C65.6106 24.3162 65.1976 24.5679 64.85 24.8852C62.5263 26.945 59.484 28.2003 56.25 28.4337C55.2563 28.4364 54.3042 28.7967 53.6015 29.436C52.8989 30.0753 52.5029 30.9416 52.5 31.8458V39.2499ZM12.5 34.1205H7.5C7.33582 34.1205 7.17323 34.0912 7.02153 34.0341C6.86983 33.9769 6.732 33.8932 6.61591 33.7875C6.49981 33.6819 6.40774 33.5565 6.34496 33.4185C6.28217 33.2804 6.24991 33.1325 6.25 32.9831V26.159C4.59299 26.1572 3.00441 25.5575 1.83273 24.4915C0.66105 23.4254 0.00194541 21.9799 2.03313e-07 20.4723V13.6482C-9.34586e-05 13.4988 0.0321748 13.3509 0.09496 13.2128C0.157745 13.0748 0.249816 12.9494 0.365908 12.8438C0.482 12.7381 0.619836 12.6544 0.771535 12.5972C0.923234 12.5401 1.08582 12.5107 1.25 12.5108H6.25C6.41418 12.5107 6.57677 12.5401 6.72846 12.5972C6.88016 12.6544 7.018 12.7381 7.13409 12.8438C7.25018 12.9494 7.34225 13.0748 7.40504 13.2128C7.46782 13.3509 7.50009 13.4988 7.5 13.6482V19.3349H12.5V13.6482C12.4999 13.4988 12.5322 13.3509 12.595 13.2128C12.6577 13.0748 12.7498 12.9494 12.8659 12.8438C12.982 12.7381 13.1198 12.6544 13.2715 12.5972C13.4232 12.5401 13.5858 12.5107 13.75 12.5108H18.75C18.9142 12.5107 19.0768 12.5401 19.2285 12.5972C19.3802 12.6544 19.518 12.7381 19.6341 12.8438C19.7502 12.9494 19.8423 13.0748 19.905 13.2128C19.9678 13.3509 20.0001 13.4988 20 13.6482V20.4723C19.9981 21.9799 19.3389 23.4254 18.1673 24.4915C16.9956 25.5575 15.407 26.1572 13.75 26.159V32.9831C13.7501 33.1325 13.7178 33.2804 13.655 33.4185C13.5923 33.5565 13.5002 33.6819 13.3841 33.7875C13.268 33.8932 13.1302 33.9769 12.9785 34.0341C12.8268 34.0912 12.6642 34.1205 12.5 34.1205ZM5 10.2361H2.5V4.54939C2.49981 3.95191 2.62902 3.36025 2.88022 2.80822C3.13143 2.25618 3.49972 1.75459 3.96405 1.33211C4.42838 0.909626 4.97965 0.574527 5.58636 0.345958C6.19307 0.117389 6.84334 -0.000168679 7.5 1.81655e-07C7.83152 1.81655e-07 8.14946 0.119828 8.38388 0.333122C8.6183 0.546416 8.75 0.835705 8.75 1.13735C8.75 1.43899 8.6183 1.72828 8.38388 1.94158C8.14946 2.15487 7.83152 2.2747 7.5 2.2747C6.83755 2.27646 6.20279 2.51668 5.73437 2.94289C5.26595 3.36909 5.00194 3.94665 5 4.54939V10.2361ZM11.25 1.13735C11.251 0.835982 11.383 0.547215 11.6172 0.334116C11.8514 0.121016 12.1688 0.000900238 12.5 1.81655e-07C13.1567 -0.000168679 13.8069 0.117389 14.4136 0.345958C15.0203 0.574527 15.5716 0.909626 16.0359 1.33211C16.5003 1.75459 16.8686 2.25618 17.1198 2.80822C17.371 3.36025 17.5002 3.95191 17.5 4.54939V10.2361H15V4.54939C14.9981 3.94665 14.734 3.36909 14.2656 2.94289C13.7972 2.51668 13.1624 2.27646 12.5 2.2747C12.1688 2.2738 11.8514 2.15368 11.6172 1.94058C11.383 1.72748 11.251 1.43872 11.25 1.13735Z" fill="url(#paint0_linear_6125_201)"/>
<defs>
<linearGradient id="paint0_linear_6125_201" x1="0" y1="27.2964" x2="98.0477" y2="28.303" gradientUnits="userSpaceOnUse">
<stop stop-color="#0499AB"/>
<stop offset="1" stop-color="#06646F" stop-opacity="0.6"/>
</linearGradient>
</defs>
</svg>
