<svg width="54" height="53" viewBox="0 0 54 53" fill="none" xmlns="http://www.w3.org/2000/svg">
<path d="M53.6972 1.93451C52.3265 0.687344 50.5015 0 48.5571 0C46.6127 0 44.7877 0.687344 43.417 1.93451C43.012 2.30299 43.012 2.90061 43.417 3.2714C43.822 3.63988 44.4788 3.63988 44.8863 3.2714C45.865 2.38088 47.1682 1.88958 48.557 1.88958C49.9459 1.88958 51.2491 2.38088 52.2278 3.2714C52.4303 3.45564 52.695 3.54776 52.9625 3.54776C53.2273 3.54776 53.4946 3.45564 53.6971 3.2714C54.1021 2.90292 54.1022 2.3053 53.6972 1.93451Z" fill="url(#paint0_linear_6125_195)"/>
<path d="M47.818 5.94285C48.21 5.58382 48.8927 5.58382 49.2847 5.94285C49.4872 6.1271 49.7546 6.21921 50.0194 6.21921C50.2842 6.21921 50.5516 6.1271 50.7541 5.94285C51.159 5.57437 51.159 4.97675 50.7541 4.60596C49.5755 3.53597 47.5246 3.53597 46.3487 4.60596C45.9437 4.97443 45.9437 5.57442 46.3487 5.94285C46.7536 6.31134 47.413 6.31134 47.818 5.94285Z" fill="url(#paint1_linear_6125_195)"/>
<path d="M51.149 8.50317H45.957C44.8121 8.50317 43.8802 9.35112 43.8802 10.3928V13.2273C43.8802 14.1059 44.5448 14.8382 45.4378 15.0508V18.8962C45.4378 20.1268 46.3075 21.1661 47.5146 21.5558V41.5721C47.5146 43.6554 45.6507 45.3514 43.361 45.3514H39.4592C39.4592 44.312 38.5247 43.4617 37.3824 43.4617H2.0768C0.934527 43.4617 0 44.312 0 45.3514V51.0203C0 52.0596 0.934527 52.9099 2.0768 52.9099H37.3824C38.5247 52.9099 39.4592 52.0596 39.4592 51.0203V49.1306H36.344C35.7703 49.1306 35.3056 48.7078 35.3056 48.1858C35.3056 47.6638 35.7703 47.241 36.344 47.241H43.3613C46.7958 47.241 49.5917 44.6971 49.5917 41.5721V21.5558C50.7988 21.1637 51.6685 20.1244 51.6685 18.8962V15.0508C52.5615 14.8405 53.2261 14.1059 53.2261 13.2273V10.3928C53.2261 9.35112 52.2939 8.50317 51.149 8.50317ZM5.1922 49.1307C4.61849 49.1307 4.1538 48.7079 4.1538 48.1859C4.1538 47.6639 4.61849 47.2411 5.1922 47.2411C5.76592 47.2411 6.2306 47.6639 6.2306 48.1859C6.2306 48.7079 5.76592 49.1307 5.1922 49.1307ZM9.34581 49.1307C8.77209 49.1307 8.3074 48.7079 8.3074 48.1859C8.3074 47.6639 8.77209 47.2411 9.34581 47.2411C9.91952 47.2411 10.3842 47.6639 10.3842 48.1859C10.3842 48.7079 9.91952 49.1307 9.34581 49.1307ZM13.4994 49.1307C12.9257 49.1307 12.461 48.7079 12.461 48.1859C12.461 47.6639 12.9257 47.2411 13.4994 47.2411C14.0731 47.2411 14.5378 47.6639 14.5378 48.1859C14.5378 48.7079 14.0731 49.1307 13.4994 49.1307Z" fill="url(#paint2_linear_6125_195)"/>
<path d="M10.3828 39.6824H29.074V41.572H10.3828V39.6824Z" fill="url(#paint3_linear_6125_195)"/>
<path d="M35.3083 41.572V37.7927C35.3083 35.7047 33.4495 34.0134 31.1547 34.0134H8.30985C6.015 34.0134 4.15625 35.7047 4.15625 37.7927V41.572H8.30985V38.7375C8.30985 38.2179 8.77713 37.7927 9.34825 37.7927H30.1163C30.6874 37.7927 31.1547 38.2179 31.1547 38.7375V41.572H35.3083Z" fill="url(#paint4_linear_6125_195)"/>
<path d="M29.7478 21.3624L24.304 12.2825H15.1528L9.70898 21.3624C13.5641 23.2143 17.2453 23.6205 19.7268 23.6205C23.9947 23.6205 27.4186 22.4773 29.7446 21.3624H29.7478ZM15.6309 19.1444C14.7898 17.7012 14.7664 16.3029 15.5712 15.3061C16.1683 14.5573 17.1262 14.1321 18.1309 14.177C18.7124 14.203 19.2653 14.3778 19.7326 14.6754C20.1999 14.3778 20.7529 14.2006 21.3344 14.177C22.3364 14.1439 23.2892 14.5597 23.8915 15.3084C24.6936 16.3052 24.6729 17.7035 23.8318 19.1468C23.1205 20.3609 21.5447 21.686 19.7638 21.7356C17.9233 21.6883 16.3449 20.3609 15.6336 19.1491L15.6309 19.1444Z" fill="url(#paint5_linear_6125_195)"/>
<path d="M6.22977 30.2342H14.537V32.1239H24.921V30.2342H33.2282C35.523 30.2342 37.3818 28.543 37.3818 26.455V9.44822C37.3818 7.36019 35.523 5.66895 33.2282 5.66895H6.22977C3.93493 5.66895 2.07617 7.36019 2.07617 9.44822V26.455C2.07617 28.543 3.93493 30.2342 6.22977 30.2342ZM7.39537 21.2795L13.6258 10.8862C13.8075 10.5815 14.158 10.3925 14.537 10.3925H24.921C25.3 10.3925 25.6505 10.5815 25.8322 10.8862L32.0626 21.2795C32.33 21.7259 32.1612 22.2881 31.6784 22.5456C29.1576 23.899 25.0352 25.5099 19.7293 25.5099C16.801 25.5099 12.3512 24.995 7.78022 22.5456C7.29736 22.2881 7.12798 21.7283 7.39537 21.2795Z" fill="url(#paint6_linear_6125_195)"/>
<path d="M21.9972 18.256C22.3398 17.6679 22.5787 16.8742 22.2152 16.4231C21.9478 16.0948 21.6052 16.0617 21.426 16.0641C21.0964 16.0782 20.803 16.2436 20.6187 16.52C20.4318 16.8034 20.0917 16.9782 19.7283 16.9782H19.7257C19.3597 16.9782 19.0222 16.8034 18.8353 16.5176C18.6562 16.2436 18.3628 16.0782 18.0306 16.0641H17.989C17.7995 16.0641 17.4854 16.1184 17.244 16.4207C16.878 16.8766 17.1168 17.6679 17.4621 18.2584C17.8982 19.0025 18.9003 19.8197 19.7569 19.8434C20.5539 19.8198 21.5559 19.0025 21.9921 18.2584L21.9972 18.256Z" fill="url(#paint7_linear_6125_195)"/>
<defs>
<linearGradient id="paint0_linear_6125_195" x1="43.1133" y1="1.77388" x2="56.4523" y2="2.06067" gradientUnits="userSpaceOnUse">
<stop stop-color="#0499AB"/>
<stop offset="1" stop-color="#06646F" stop-opacity="0.6"/>
</linearGradient>
<linearGradient id="paint1_linear_6125_195" x1="46.0449" y1="5.01134" x2="52.188" y2="5.10065" gradientUnits="userSpaceOnUse">
<stop stop-color="#0499AB"/>
<stop offset="1" stop-color="#06646F" stop-opacity="0.6"/>
</linearGradient>
<linearGradient id="paint2_linear_6125_195" x1="0" y1="30.7065" x2="65.236" y2="31.2543" gradientUnits="userSpaceOnUse">
<stop stop-color="#0499AB"/>
<stop offset="1" stop-color="#06646F" stop-opacity="0.6"/>
</linearGradient>
<linearGradient id="paint3_linear_6125_195" x1="10.3828" y1="40.6272" x2="33.1836" y2="42.2072" gradientUnits="userSpaceOnUse">
<stop stop-color="#0499AB"/>
<stop offset="1" stop-color="#06646F" stop-opacity="0.6"/>
</linearGradient>
<linearGradient id="paint4_linear_6125_195" x1="4.15625" y1="37.7927" x2="42.3083" y2="38.8943" gradientUnits="userSpaceOnUse">
<stop stop-color="#0499AB"/>
<stop offset="1" stop-color="#06646F" stop-opacity="0.6"/>
</linearGradient>
<linearGradient id="paint5_linear_6125_195" x1="9.70898" y1="17.9515" x2="34.2673" y2="18.2556" gradientUnits="userSpaceOnUse">
<stop stop-color="#0499AB"/>
<stop offset="1" stop-color="#06646F" stop-opacity="0.6"/>
</linearGradient>
<linearGradient id="paint6_linear_6125_195" x1="2.07617" y1="18.8964" x2="45.3474" y2="19.301" gradientUnits="userSpaceOnUse">
<stop stop-color="#0499AB"/>
<stop offset="1" stop-color="#06646F" stop-opacity="0.6"/>
</linearGradient>
<linearGradient id="paint7_linear_6125_195" x1="17.0605" y1="17.9537" x2="23.6008" y2="18.0184" gradientUnits="userSpaceOnUse">
<stop stop-color="#0499AB"/>
<stop offset="1" stop-color="#06646F" stop-opacity="0.6"/>
</linearGradient>
</defs>
</svg>
