<svg width="55" height="53" viewBox="0 0 55 53" fill="none" xmlns="http://www.w3.org/2000/svg">
<path d="M53.8574 48.0213H50.0966V46.0962C50.0966 45.7158 49.7895 45.4087 49.409 45.4087C49.0286 45.4087 48.7214 45.7158 48.7214 46.0962V48.0213H44.5619V46.0962C44.5619 45.7158 44.2548 45.4087 43.8743 45.4087C43.4938 45.4087 43.1867 45.7158 43.1867 46.0962V48.0213H39.0271V46.0962C39.0271 45.7158 38.72 45.4087 38.3396 45.4087C37.9592 45.4087 37.652 45.7158 37.652 46.0962V48.0213H33.4924V46.0962C33.4924 45.7158 33.1853 45.4087 32.8049 45.4087C32.4244 45.4087 32.1173 45.7158 32.1173 46.0962V48.0213H27.9577V46.0962C27.9577 45.7158 27.6506 45.4087 27.2702 45.4087C26.8897 45.4087 26.5826 45.7158 26.5826 46.0962V48.0213H22.423V46.0962C22.423 45.7158 22.1159 45.4087 21.7355 45.4087C21.355 45.4087 21.0479 45.7158 21.0479 46.0962V48.0213H16.8883V46.0962C16.8883 45.7158 16.5812 45.4087 16.2008 45.4087C15.8203 45.4087 15.5132 45.7158 15.5132 46.0962V48.0213H11.3536V46.0962C11.3536 45.7158 11.0465 45.4087 10.6661 45.4087C10.2856 45.4087 9.9785 45.7158 9.9785 46.0962V48.0213H5.8189V46.0962C5.8189 45.7158 5.5118 45.4087 5.13135 45.4087C4.75091 45.4087 4.44379 45.7158 4.44379 46.0962V48.0213H0.687555C0.307115 48.0213 0 48.3284 0 48.7089C0 49.0893 0.307103 49.3964 0.687555 49.3964H4.44843V51.3239C4.44843 51.7043 4.75553 52.0114 5.13598 52.0114C5.51643 52.0114 5.82354 51.7043 5.82354 51.3239V49.3964H9.98314V51.3239C9.98314 51.7043 10.2902 52.0114 10.6707 52.0114C11.0511 52.0114 11.3582 51.7043 11.3582 51.3239V49.3964H15.5178V51.3239C15.5178 51.7043 15.8249 52.0114 16.2054 52.0114C16.5858 52.0114 16.893 51.7043 16.893 51.3239V49.3964H21.0525V51.3239C21.0525 51.7043 21.3597 52.0114 21.7401 52.0114C22.1205 52.0114 22.4277 51.7043 22.4277 51.3239V49.3964H26.5873V51.3239C26.5873 51.7043 26.8944 52.0114 27.2748 52.0114C27.6553 52.0114 27.9624 51.7043 27.9624 51.3239V49.3964H32.122V51.3239C32.122 51.7043 32.4291 52.0114 32.8095 52.0114C33.19 52.0114 33.4971 51.7043 33.4971 51.3239V49.3964H37.6567V51.3239C37.6567 51.7043 37.9638 52.0114 38.3442 52.0114C38.7247 52.0114 39.0318 51.7043 39.0318 51.3239V49.3964H43.1914V51.3239C43.1914 51.7043 43.4985 52.0114 43.8789 52.0114C44.2594 52.0114 44.5665 51.7043 44.5665 51.3239V49.3964H48.7261V51.3239C48.7261 51.7043 49.0332 52.0114 49.4136 52.0114C49.7941 52.0114 50.1012 51.7043 50.1012 51.3239V49.3964H53.8621C54.2425 49.3964 54.5496 49.0893 54.5496 48.7089C54.5496 48.3284 54.2425 48.0213 53.8621 48.0213H53.8574Z" fill="url(#paint0_linear_6468_261)"/>
<path d="M0.688692 41.4899C0.702443 41.4899 0.716194 41.4899 0.732237 41.4876L6.83511 41.1094C7.00241 41.1002 7.16054 41.0269 7.27743 40.91L16.1718 32.0156L9.98153 30.5352L0.202393 40.3166C0.000713923 40.5183 -0.0542894 40.8254 0.0625933 41.0844C0.174894 41.3319 0.420558 41.4899 0.688692 41.4899Z" fill="url(#paint1_linear_6468_261)"/>
<path d="M11.2197 29.4163L18.0354 31.0458C18.2554 31.0985 18.4892 31.0389 18.6565 30.8853L19.6626 29.9755L26.4167 37.2864C27.2234 38.1573 28.3166 38.6019 29.4144 38.6019C30.3517 38.6019 31.2913 38.2787 32.0614 37.6233C32.1737 37.527 32.2654 37.417 32.3639 37.3116C34.1309 38.2856 40.3119 41.3222 48.7411 41.3222C50.4003 41.3222 52.1467 41.203 53.9618 40.9303C54.3376 40.873 54.5966 40.5224 54.5393 40.1465C54.482 39.7707 54.1337 39.5163 53.7578 39.569C43.4448 41.1343 35.2838 37.3024 33.1364 36.1588C33.6888 34.9098 33.6086 33.4293 32.795 32.2284L31.4428 30.2322C31.4336 29.7739 31.3397 29.3109 31.1311 28.8755L29.1441 24.7617H38.5155C38.2199 26.8816 38.1511 32.2744 44.4969 34.3713C44.568 34.3942 44.6413 34.4057 44.7124 34.4057C45.0011 34.4057 45.2693 34.2223 45.3655 33.9336C45.4847 33.5737 45.2899 33.1842 44.9278 33.0649C38.2517 30.8602 39.9317 24.5278 40.005 24.2597C40.0623 24.0535 40.0211 23.8289 39.8904 23.6593C39.7598 23.4874 39.5581 23.3866 39.3427 23.3866H27.5512C25.8209 23.3934 24.3381 21.8946 24.345 20.1804C24.345 18.4134 25.7842 16.9742 27.5512 16.9742H39.3427C39.7231 16.9742 40.0303 16.6671 40.0303 16.2866C40.0303 15.9062 39.7232 15.599 39.3427 15.599H35.5383L41.1876 10.4814C42.4045 10.4058 48.7508 10.3783 53.2789 17.5629C53.4096 17.7692 53.6342 17.8838 53.861 17.8838C53.9871 17.8838 54.1131 17.8494 54.2277 17.7783C54.5486 17.5767 54.6448 17.1527 54.4432 16.8295C50.5608 10.6692 45.388 9.36728 42.6657 9.13846C43.7062 8.16442 44.3021 6.84669 44.3365 5.41654C44.3731 3.95437 43.8231 2.5816 42.7895 1.54795C41.7582 0.516648 40.3877 -0.0265201 38.9347 0.00099621C37.4771 0.0330817 36.1364 0.642731 35.1532 1.71986L30.3038 7.0254L20.9119 9.30344C17.3023 10.1789 14.7814 13.3851 14.7814 17.0978V24.0097L10.8762 28.2816C10.7135 28.4604 10.6562 28.7147 10.7273 28.9462C10.7983 29.18 10.9885 29.3564 11.2246 29.4137L11.2197 29.4163ZM30.9728 31.9969L31.6534 33.0007C32.4281 34.1443 32.2195 35.6821 31.1676 36.5759C30.0584 37.5201 28.4128 37.4216 27.4251 36.3536L20.6804 29.0544L22.0142 27.8467L25.5619 32.3546C26.2036 33.1728 27.1753 33.6105 28.1608 33.6105C28.7315 33.6105 29.3067 33.4638 29.8246 33.159C30.3151 32.8703 30.6955 32.4623 30.9705 31.9971L30.9728 31.9969ZM27.6107 24.7617L29.8864 29.4736C30.3196 30.3696 29.9873 31.4674 29.1278 31.9694C28.3004 32.4552 27.2348 32.2512 26.6412 31.4995L23.0339 26.9182L25.8024 24.411C26.341 24.6333 26.93 24.7594 27.5465 24.7594H27.6107L27.6107 24.7617ZM32.8703 8.28591L37.1789 3.57165C38.2355 2.51283 39.8328 2.48531 40.839 3.49143C41.8267 4.4792 41.829 6.08806 40.8413 7.07354C40.5731 7.34168 40.1377 7.34168 39.8696 7.07354C39.6014 6.8054 39.6014 6.36997 39.8696 6.10184C40.3187 5.65265 40.3187 4.917 39.8673 4.46319C39.3997 3.99795 38.6732 4.02087 38.1736 4.52048L33.8857 9.21181C33.7505 9.36078 33.5648 9.4364 33.3792 9.4364C33.2142 9.4364 33.0469 9.37682 32.9162 9.25535C32.6366 8.99867 32.616 8.56322 32.8727 8.28366L32.8703 8.28591ZM16.1493 17.0982C16.1493 14.0203 18.2372 11.3641 21.2279 10.6398L28.635 8.84298L22.6419 15.4023C22.5479 15.0356 22.4058 14.6323 22.1721 14.1762C21.9979 13.8393 21.5854 13.7064 21.2462 13.8806C20.9093 14.0548 20.7764 14.4696 20.9506 14.8064C21.5556 15.9798 21.4089 16.6445 21.3516 16.8187L16.1515 22.5092V17.1005L16.1493 17.0982Z" fill="url(#paint2_linear_6468_261)"/>
<defs>
<linearGradient id="paint0_linear_6468_261" x1="0" y1="48.7101" x2="66.6396" y2="52.5672" gradientUnits="userSpaceOnUse">
<stop stop-color="#0499AB"/>
<stop offset="1" stop-color="#06646F" stop-opacity="0.6"/>
</linearGradient>
<linearGradient id="paint1_linear_6468_261" x1="0.00195312" y1="36.0126" x2="19.8196" y2="36.2175" gradientUnits="userSpaceOnUse">
<stop stop-color="#0499AB"/>
<stop offset="1" stop-color="#06646F" stop-opacity="0.6"/>
</linearGradient>
<linearGradient id="paint2_linear_6468_261" x1="10.6973" y1="20.6611" x2="64.444" y2="21.0607" gradientUnits="userSpaceOnUse">
<stop stop-color="#0499AB"/>
<stop offset="1" stop-color="#06646F" stop-opacity="0.6"/>
</linearGradient>
</defs>
</svg>
