<svg width="47" height="52" viewBox="0 0 47 52" fill="none" xmlns="http://www.w3.org/2000/svg">
<path d="M35.668 25.1768L29.5384 22.9713L30.5984 18.0216C30.7061 17.532 30.755 17.0327 30.755 16.5308C30.755 13.9923 29.4087 11.7304 27.3329 10.4771C29.6266 9.88227 31.3254 7.80156 31.3254 5.32667C31.3254 2.38672 28.9387 0 25.9988 0C23.0588 0 20.6721 2.38672 20.6721 5.32667C20.6721 7.0255 21.475 8.53589 22.7161 9.51261C20.0968 9.86266 17.8227 11.6619 16.9072 14.2053L11.1301 19.1549C10.4104 19.7743 9.96977 20.6776 9.93304 21.6298C9.89632 22.582 10.266 23.5171 10.9367 24.1854L14.2953 27.5439L13.7934 30.1999V30.2073V30.2195C13.7861 30.244 13.7861 30.2685 13.7861 30.2954C13.7788 30.3272 13.7739 30.364 13.7739 30.3958V47.3158C13.7739 48.4002 14.1998 49.4283 14.9709 50.1994C15.698 50.9265 16.6698 51.3524 17.7101 51.3891C18.7995 51.4209 19.8105 51.0195 20.6109 50.2435C21.4432 49.4357 21.9205 48.3146 21.9205 47.1664V37.3528L26.3072 40.8632V47.3059C26.3072 48.3904 26.7331 49.4185 27.5043 50.1896C28.2313 50.9167 29.2031 51.3426 30.2435 51.3793H30.3683C31.3964 51.3793 32.3732 50.9729 33.1443 50.2337C33.9765 49.4258 34.4539 48.3047 34.4539 47.1566V39.1008C34.4539 38.1045 34.1038 37.14 33.4698 36.3885L28.2435 30.1143L28.2876 29.8647L33.3083 31.6565C33.6902 31.7936 34.0916 31.8622 34.4857 31.8622C34.9924 31.8622 35.4943 31.7496 35.9643 31.5244C36.8039 31.1229 37.4305 30.4204 37.7365 29.544C38.3705 27.7766 37.4354 25.8158 35.668 25.1768ZM12.2833 22.8513C11.9773 22.5453 11.8133 22.1317 11.8329 21.691C11.8525 21.2528 12.0385 20.8587 12.3714 20.5748L16.2514 17.2529L14.7336 25.2993L12.2833 22.8513ZM35.9769 28.9295C35.8399 29.331 35.551 29.6492 35.1691 29.8254C34.7872 30.0066 34.3613 30.0311 33.9525 29.8818L26.3197 27.1621C25.7738 26.9688 25.3307 26.5551 25.0982 26.0288L21.8449 18.7218C21.6319 18.2445 21.0811 18.0315 20.6038 18.2445C20.1265 18.4574 19.9135 19.0083 20.1265 19.4856L23.3797 26.7925C23.8253 27.7888 24.6649 28.5648 25.6857 28.9296L26.4935 29.2184L26.4568 29.4387H15.8599L18.4669 15.6201C19.0006 12.7879 21.7447 10.8883 24.5769 11.3975C27.0714 11.843 28.8828 13.9971 28.8828 16.5185C28.8828 16.8881 28.8461 17.2529 28.7629 17.6152L28.1607 20.423L26.8633 17.4708C26.6577 16.9934 26.1045 16.7805 25.6222 16.9886C25.1448 17.1942 24.9318 17.7523 25.1399 18.2297L27.6711 23.9823C27.7788 24.2197 27.9722 24.4033 28.217 24.489L35.0295 26.9467C35.8324 27.2331 36.2584 28.1217 35.9769 28.9295ZM2.66333 5.83809C2.37448 5.40481 2.49443 4.8222 2.92771 4.53581C3.36099 4.24696 3.9436 4.36691 4.22999 4.80019L6.27887 7.86986L8.04626 6.98613C8.4722 6.77316 8.98626 6.91025 9.25065 7.30681L11.7573 11.0668C12.0462 11.5001 11.9262 12.0827 11.4929 12.3691C11.3289 12.4768 11.1551 12.5258 10.974 12.5258C10.6729 12.5258 10.3718 12.3813 10.1907 12.1047L8.14177 9.03504L6.37438 9.91877C5.94844 10.1317 5.43438 9.99465 5.16999 9.59809L2.66333 5.83809ZM36.5033 11.0644L39.01 7.30436C39.2744 6.91025 39.786 6.77072 40.2144 6.98369L41.9818 7.86741L44.0307 4.79775C44.3195 4.36446 44.9021 4.24696 45.3329 4.53337C45.7662 4.82223 45.8837 5.40481 45.5973 5.83565L43.0907 9.59565C42.8263 9.98976 42.3146 10.1293 41.8863 9.91632L40.1189 9.0326L38.07 12.1023C37.8888 12.3715 37.5926 12.5233 37.2867 12.5233C37.1055 12.5233 36.9244 12.4743 36.7677 12.3666C36.3344 12.0802 36.2145 11.4976 36.5033 11.0644ZM46.8997 43.3377C46.7357 43.6706 46.4053 43.8567 46.0601 43.8567C45.9157 43.8567 45.7786 43.8248 45.6391 43.7563L40.6257 41.2496C40.3932 41.137 40.2243 40.9289 40.1484 40.6866C40.0725 40.4418 40.0994 40.1799 40.2243 39.9522L41.1888 38.2167L38.0359 36.1873C37.5977 35.9058 37.4729 35.3232 37.7544 34.8899C38.0359 34.4518 38.6185 34.3269 39.0518 34.6084L42.9439 37.1151C43.3576 37.3844 43.4947 37.9303 43.2573 38.3611L42.3418 40.0085L46.4788 42.077C46.9439 42.3096 47.1323 42.8726 46.8997 43.3377ZM10.5042 34.8902C10.7857 35.3284 10.6609 35.9061 10.2227 36.1876L7.06979 38.217L8.03429 39.9525C8.15914 40.1777 8.18361 40.4421 8.11018 40.6869C8.03429 40.9317 7.86049 41.1324 7.63283 41.2499L2.6195 43.7566C2.48241 43.8251 2.34288 43.857 2.19845 43.857C1.8533 43.857 1.52284 43.6685 1.35884 43.338C1.12629 42.8753 1.31478 42.3099 1.77989 42.0773L5.91689 40.0088L5.0014 38.3614C4.76395 37.9281 4.90103 37.3847 5.31473 37.1154L9.20689 34.6087C9.63773 34.3272 10.2202 34.4521 10.5042 34.8902ZM42.3 23.1772H46.06C46.579 23.1772 47 23.5982 47 24.1172C47 24.6362 46.579 25.0572 46.06 25.0572H42.3C41.781 25.0572 41.36 24.6362 41.36 24.1172C41.36 23.5982 41.7786 23.1772 42.3 23.1772ZM4.7 25.0572H0.94C0.421045 25.0572 0 24.6362 0 24.1172C0 23.5982 0.421045 23.1772 0.94 23.1772H4.7C5.21895 23.1772 5.64 23.5982 5.64 24.1172C5.64 24.6386 5.21895 25.0572 4.7 25.0572Z" fill="url(#paint0_linear_6468_272)"/>
<defs>
<linearGradient id="paint0_linear_6468_272" x1="0" y1="25.6954" x2="57.6067" y2="26.0645" gradientUnits="userSpaceOnUse">
<stop stop-color="#0499AB"/>
<stop offset="1" stop-color="#06646F" stop-opacity="0.6"/>
</linearGradient>
</defs>
</svg>
