<svg width="43" height="57" viewBox="0 0 43 57" fill="none" xmlns="http://www.w3.org/2000/svg">
<path d="M38.5564 11.2058C35.9136 8.08028 32.3297 6.28997 28.7235 6.28997C25.2742 6.28997 22.3534 7.94008 20.6287 10.7852C18.7286 7.34945 18.4621 4.2535 19.8108 1.36241C19.9475 1.06824 19.927 0.723531 19.7539 0.447719C19.5807 0.171935 19.28 0.00646529 18.9587 0.00646529H16.5392C16.4025 0.348896 16.2704 0.746476 16.1428 1.20614C14.9718 5.51754 13.9579 9.24049 19.141 15.8252C23.4242 20.9363 25.9054 24.1931 25.6453 29.4375C25.9643 29.6628 26.2126 29.9799 26.3425 30.3844L27.976 36.0747C28.1674 36.6217 28.0945 37.2354 27.7641 37.7019C27.4497 38.15 26.9394 38.4074 26.3676 38.4074C26.3425 38.4074 26.2354 38.4028 26.2126 38.4005L21.8155 38.0443C21.2072 37.996 20.6991 37.6766 20.4258 37.1686C20.1433 36.6493 20.1592 35.9943 20.4645 35.4197L22.9365 30.1338C23.1324 29.75 23.4263 29.4765 23.768 29.3019C23.9754 25.0134 22.0958 22.2924 17.6848 17.0274C11.8911 9.66374 13.1283 5.10648 14.3266 0.698651C14.395 0.452744 14.4633 0.222927 14.5362 0L12.2511 0.00459611C11.9321 0.00459611 11.636 0.167766 11.4605 0.43666C8.4896 5.05376 8.99766 11.6286 12.7477 17.1696C14.7685 20.2698 15.5546 22.6875 15.1491 24.5562C14.6364 26.9095 12.2306 28.4217 9.44652 30.173C3.22216 34.0868 -4.52387 38.9592 3.2974 56.4369C3.44777 56.7817 3.78496 57 4.15407 57H12.5224H12.5407C13.0601 57 13.4839 56.5748 13.4839 56.0485C13.4839 55.8417 13.4178 55.6487 13.3062 55.4924C10.169 48.6159 10.1986 45.3918 10.7818 43.8957C10.9641 43.4291 11.2284 43.0522 11.5838 42.7557C14.0193 47.729 18.1908 50.5559 23.1623 50.5559C30.685 50.5559 39.7666 43.5647 42.5755 30.1618C43.7944 22.4469 42.368 15.7148 38.5564 11.2058ZM21.3712 40.6804L20.3983 41.5583C20.2183 41.7215 19.9951 41.7996 19.7718 41.7996C19.5121 41.7996 19.2546 41.6939 19.0701 41.4825C18.7238 41.0918 18.7557 40.4919 19.1453 40.1426L20.1181 39.2647C20.5055 38.9154 21.1001 38.9476 21.4486 39.3383C21.7904 39.7313 21.7585 40.3311 21.3712 40.6804ZM24.3739 41.664C24.3238 42.1512 23.916 42.5189 23.4375 42.5189C23.4056 42.5189 23.3737 42.5166 23.3419 42.5143C22.8247 42.4615 22.4465 41.9949 22.4989 41.4733L22.6288 40.1656C22.6812 39.6462 23.1459 39.2716 23.6608 39.3152C24.178 39.3681 24.5562 39.8323 24.5038 40.3563L24.3739 41.664ZM27.7321 42.3673C27.5635 42.4937 27.3676 42.5557 27.1717 42.5557C26.8846 42.5557 26.5998 42.4224 26.4153 42.1719L25.6361 41.117C25.3263 40.6942 25.4128 40.1012 25.8298 39.7887C26.2467 39.4761 26.8368 39.5657 27.1466 39.984L27.9258 41.0389C28.2379 41.4595 28.1513 42.0524 27.7321 42.3673Z" fill="url(#paint0_linear_6125_67)"/>
<defs>
<linearGradient id="paint0_linear_6125_67" x1="0" y1="28.5" x2="52.7047" y2="28.7786" gradientUnits="userSpaceOnUse">
<stop stop-color="#0499AB"/>
<stop offset="1" stop-color="#06646F" stop-opacity="0.6"/>
</linearGradient>
</defs>
</svg>
