<svg width="62" height="62" viewBox="0 0 62 62" fill="none" xmlns="http://www.w3.org/2000/svg">
<path d="M18.7404 5.02007C17.8404 5.02007 17.0504 4.43005 16.7804 3.57006C16.1204 1.5 14.1903 0 11.9003 0C9.61024 0 7.6902 1.50006 7.03016 3.57006C6.76015 4.43011 5.97017 5.02007 5.07012 5.02007C2.27006 5.02007 0 7.29013 0 10.0902V28.6704C0 31.4705 2.27006 33.7405 5.07012 33.7405H5.68013L5.40012 35.5006C5.30012 36.1706 5.81013 36.7706 6.49013 36.7706H12.3502C13.0302 36.7706 13.5403 36.1706 13.4402 35.5006L13.1602 33.7405H18.7404C21.5404 33.7405 23.8105 31.4705 23.8105 28.6704V10.0902C23.8105 7.29013 21.5405 5.02007 18.7404 5.02007ZM11.9 2.68005C13.21 2.68005 14.28 3.72008 14.33 5.02007H9.46989C9.52989 3.72008 10.5899 2.68005 11.9 2.68005ZM17.8701 20.7303C17.8701 21.0903 17.5801 21.3703 17.23 21.3703H14.55C14.19 21.3703 13.91 21.6604 13.91 22.0104V24.6904C13.91 25.0504 13.62 25.3304 13.27 25.3304H10.5599C10.1999 25.3304 9.91988 25.0404 9.91988 24.6904V22.0104C9.91988 21.6504 9.62988 21.3703 9.27987 21.3703H6.59981C6.23981 21.3703 5.9598 21.0803 5.9598 20.7303V18.0203C5.9598 17.6603 6.2498 17.3803 6.59981 17.3803H9.27987C9.63988 17.3803 9.91988 17.0903 9.91988 16.7402V14.0602C9.91988 13.7002 10.2099 13.4202 10.5599 13.4202H13.27C13.63 13.4202 13.91 13.7102 13.91 14.0602V16.7402C13.91 17.1002 14.2 17.3803 14.55 17.3803H17.23C17.5901 17.3803 17.8701 17.6703 17.8701 18.0203V20.7303Z" fill="url(#paint0_linear_6125_199)"/>
<path d="M33.6 31.4905C29.1799 31.4905 25.5998 35.0806 25.5998 39.4907V47.9606C25.5998 51.8206 22.4598 54.9611 18.5993 54.9611H18.4693C14.6093 54.9611 11.4689 51.821 11.4689 47.9606V43.5105H11.6589C12.2889 43.5105 12.7989 43.0605 12.7989 42.5105V39.1704H6.03906V42.5105C6.03906 43.0605 6.54908 43.5105 7.17905 43.5105H7.46906V47.9606C7.46906 54.0207 12.4092 58.9611 18.4696 58.9611H18.5996C24.6598 58.9611 29.6001 54.021 29.6001 47.9606V39.4907C29.6001 37.2806 31.3902 35.4906 33.6002 35.4906H41.1204C41.1804 35.4206 41.2304 35.3506 41.2904 35.2806L41.6004 34.8906C41.6004 34.8906 41.6504 34.7706 41.6504 34.6906L41.6804 34.2806C41.8004 33.4205 41.8704 32.4705 41.9004 31.4905L33.6 31.4905Z" fill="url(#paint1_linear_6125_199)"/>
<path d="M59.2703 34.7503V34.6903C58.7102 30.7902 59.0802 25.7103 59.5803 21.06C59.6403 20.47 59.1803 19.95 58.5902 19.95H45.3202C44.7202 19.95 44.2602 20.46 44.3302 21.06C44.8302 25.7101 45.2002 30.7901 44.6502 34.6903C44.6502 35.4404 44.4002 36.1704 43.9501 36.7404C43.5201 37.2904 43.0701 37.8204 42.6801 38.3904L37.08 46.8507C36.82 47.2607 36.7 47.7307 36.74 48.1908C36.74 48.3008 36.76 48.4208 36.79 48.5208C36.79 48.5608 36.81 48.6308 36.82 48.6708C36.95 49.1508 37.26 49.5908 37.7 49.8808C38.73 50.5808 40.21 50.1908 40.8801 49.1308L44.8002 44.3107H47.0502C49.4802 44.3107 51.4403 42.3407 51.4403 39.9206C51.4403 39.4606 51.8203 39.0906 52.2703 39.0906C52.7203 39.0906 53.1004 39.4706 53.1004 39.9206C53.1004 41.6506 52.3704 43.2007 51.2203 44.3007C50.5903 44.8307 49.8803 45.1907 49.1403 45.4508C48.2702 45.7508 47.3402 45.8608 46.4202 45.8608H45.6802L44.0502 47.8708V58.3408C44.0502 58.8208 44.2402 59.2608 44.5602 59.5708C44.9002 59.9108 45.3802 60.1108 45.9202 60.0708C46.8603 60.0008 47.5503 59.1408 47.5503 58.2008V49.6207H48.8803V60.2411C48.8803 60.7211 49.0703 61.1611 49.3903 61.4712C49.7403 61.8212 50.2303 62.0212 50.7703 61.9712C51.7003 61.9012 52.3703 61.0512 52.3703 60.1211V49.6109H53.7003V59.4011C53.7003 59.8811 53.8803 60.3211 54.2004 60.6312C54.5304 60.9512 54.9504 61.1412 55.4304 61.1412C56.4104 61.1412 57.1804 60.3611 57.1804 59.4011V50.2707C57.1804 49.9207 57.4704 49.6207 57.8404 49.6107H57.8604C58.2304 49.6107 58.5104 49.9207 58.5104 50.2707V56.5208C58.5104 57.4208 59.1204 58.2609 60.0105 58.3808C61.0905 58.5208 62.0005 57.7008 62.0005 56.6608V40.3801C62.0005 39.1401 61.4405 38.0401 60.5605 37.3001C59.7905 36.6501 59.2705 35.74 59.2705 34.73L59.2703 34.7503Z" fill="url(#paint2_linear_6125_199)"/>
<defs>
<linearGradient id="paint0_linear_6125_199" x1="0" y1="18.3853" x2="29.1845" y2="18.5177" gradientUnits="userSpaceOnUse">
<stop stop-color="#0499AB"/>
<stop offset="1" stop-color="#06646F" stop-opacity="0.6"/>
</linearGradient>
<linearGradient id="paint1_linear_6125_199" x1="6.03906" y1="45.2258" x2="49.9915" y2="45.6278" gradientUnits="userSpaceOnUse">
<stop stop-color="#0499AB"/>
<stop offset="1" stop-color="#06646F" stop-opacity="0.6"/>
</linearGradient>
<linearGradient id="paint2_linear_6125_199" x1="36.7324" y1="40.9644" x2="67.7036" y2="41.0948" gradientUnits="userSpaceOnUse">
<stop stop-color="#0499AB"/>
<stop offset="1" stop-color="#06646F" stop-opacity="0.6"/>
</linearGradient>
</defs>
</svg>
