<svg width="55" height="60" viewBox="0 0 55 60" fill="none" xmlns="http://www.w3.org/2000/svg">
<path d="M50.7665 36.3432V22.8752C51.6592 22.5611 52.4702 22.0508 53.1396 21.3819C53.8091 20.7129 54.3201 19.9024 54.6349 19.0099C54.9497 18.1174 55.0605 17.1657 54.9589 16.2248C54.8573 15.2839 54.5461 14.3777 54.0481 13.5729C53.55 12.7682 52.8779 12.0854 52.0811 11.5747C51.2843 11.064 50.3832 10.7385 49.444 10.6221C48.5048 10.5057 47.5514 10.6014 46.6541 10.9021C45.7567 11.2028 44.9382 11.7009 44.2588 12.3597L33.7687 7.11256C33.8109 6.85855 33.837 6.60213 33.8469 6.34483C33.8469 4.66208 33.1785 3.04825 31.9886 1.85836C30.7987 0.668472 29.1849 0 27.5021 0C25.8194 0 24.2055 0.668472 23.0156 1.85836C21.8257 3.04825 21.1573 4.66208 21.1573 6.34483C21.1672 6.60213 21.1934 6.85855 21.2355 7.11256L10.7454 12.3597C10.066 11.7009 9.24749 11.2028 8.35015 10.9021C7.4528 10.6014 6.49945 10.5057 5.56025 10.6221C4.62104 10.7385 3.71989 11.064 2.9231 11.5747C2.12632 12.0854 1.45418 12.7682 0.956149 13.5729C0.458119 14.3777 0.146872 15.2839 0.0453141 16.2248C-0.0562438 17.1657 0.0544716 18.1174 0.369313 19.0099C0.684154 19.9024 1.19511 20.7129 1.86457 21.3819C2.53404 22.0508 3.34498 22.5611 4.23772 22.8752V36.3432C3.39197 36.6394 2.61874 37.1118 1.9692 37.7292C1.31965 38.3465 0.808584 39.0947 0.469801 39.9243C0.131017 40.7539 -0.0277608 41.646 0.00396981 42.5416C0.0357004 43.4371 0.257216 44.3158 0.653865 45.1193C1.05051 45.9229 1.61325 46.633 2.30486 47.2029C2.99647 47.7727 3.80119 48.1892 4.66578 48.4248C5.53037 48.6604 6.43513 48.7097 7.32022 48.5695C8.20531 48.4294 9.05054 48.1029 9.80002 47.6116L21.2947 54.1785C21.5993 55.6074 22.3877 56.8874 23.5267 57.8024C24.6658 58.7173 26.0856 59.2111 27.5466 59.2004C29.0075 59.1898 30.42 58.6752 31.5456 57.7437C32.6711 56.8122 33.4406 55.5208 33.7243 54.0876L44.3963 46.9729C45.0879 47.6078 45.9121 48.0808 46.8091 48.3576C47.7062 48.6344 48.6536 48.708 49.5827 48.5732C50.5117 48.4384 51.3991 48.0985 52.1805 47.5781C52.9619 47.0577 53.6177 46.37 54.1003 45.5647C54.5828 44.7594 54.8801 43.8569 54.9706 42.9224C55.061 41.988 54.9424 41.0452 54.6232 40.1623C54.304 39.2794 53.7923 38.4787 53.1253 37.8181C52.4582 37.1575 51.6525 36.6537 50.7665 36.3432ZM42.3067 42.2989C42.3151 42.6074 42.3462 42.9149 42.3998 43.2189L32.8825 49.5637C32.3133 48.6243 31.5081 47.8502 30.547 47.3184C29.5859 46.7866 28.5024 46.5156 27.4041 46.5323C26.3058 46.5489 25.2309 46.8527 24.2864 47.4135C23.3419 47.9743 22.5606 48.7724 22.0202 49.7287L12.3718 44.2023C12.6318 43.43 12.737 42.6139 12.6814 41.8009C12.6259 40.9878 12.4107 40.1937 12.0481 39.4638C11.6856 38.734 11.1827 38.0827 10.5684 37.5473C9.95401 37.0118 9.24015 36.6027 8.4676 36.3432V22.8752C9.70042 22.4394 10.7685 21.6333 11.5256 20.5672C12.2828 19.5011 12.6921 18.2271 12.6975 16.9196C12.6876 16.6623 12.6614 16.4058 12.6192 16.1518L23.1094 10.9047C24.2852 12.049 25.8613 12.6894 27.5021 12.6894C29.1429 12.6894 30.719 12.049 31.8948 10.9047L42.385 16.1518C42.3428 16.4058 42.3167 16.6623 42.3067 16.9196C42.3121 18.2271 42.7214 19.5011 43.4786 20.5672C44.2357 21.6333 45.3038 22.4394 46.5366 22.8752V36.3432C45.3038 36.7791 44.2357 37.5852 43.4786 38.6513C42.7214 39.7173 42.3121 40.9913 42.3067 42.2989ZM48.6516 14.8046C49.0699 14.8046 49.4788 14.9287 49.8266 15.161C50.1744 15.3934 50.4454 15.7237 50.6055 16.1102C50.7656 16.4967 50.8075 16.9219 50.7259 17.3322C50.6443 17.7424 50.4428 18.1193 50.147 18.415C49.8513 18.7108 49.4744 18.9123 49.0642 18.9939C48.6539 19.0755 48.2287 19.0336 47.8422 18.8735C47.4557 18.7134 47.1254 18.4424 46.893 18.0946C46.6606 17.7468 46.5366 17.3379 46.5366 16.9196C46.5366 16.3586 46.7594 15.8207 47.1561 15.4241C47.5527 15.0274 48.0906 14.8046 48.6516 14.8046ZM27.5021 4.22989C27.9204 4.22989 28.3293 4.35393 28.6771 4.58632C29.0249 4.81872 29.296 5.14902 29.4561 5.53548C29.6161 5.92194 29.658 6.34718 29.5764 6.75744C29.4948 7.1677 29.2934 7.54455 28.9976 7.84033C28.7018 8.13611 28.325 8.33753 27.9147 8.41914C27.5045 8.50075 27.0792 8.45886 26.6928 8.29879C26.3063 8.13871 25.976 7.86764 25.7436 7.51983C25.5112 7.17203 25.3872 6.76313 25.3872 6.34483C25.3872 5.78392 25.61 5.24597 26.0066 4.84934C26.4032 4.45271 26.9412 4.22989 27.5021 4.22989ZM6.35266 14.8046C6.77096 14.8046 7.17986 14.9287 7.52766 15.161C7.87546 15.3934 8.14654 15.7237 8.30661 16.1102C8.46669 16.4967 8.50857 16.9219 8.42697 17.3322C8.34536 17.7424 8.14393 18.1193 7.84815 18.415C7.55237 18.7108 7.17552 18.9123 6.76526 18.9939C6.35501 19.0755 5.92976 19.0336 5.54331 18.8735C5.15685 18.7134 4.82654 18.4424 4.59415 18.0946C4.36175 17.7468 4.23772 17.3379 4.23772 16.9196C4.23772 16.3586 4.46054 15.8207 4.85717 15.4241C5.2538 15.0274 5.79174 14.8046 6.35266 14.8046ZM4.23772 42.2989C4.23772 41.8806 4.36175 41.4717 4.59415 41.1239C4.82654 40.7761 5.15685 40.505 5.54331 40.3449C5.92976 40.1849 6.35501 40.143 6.76526 40.2246C7.17552 40.3062 7.55237 40.5076 7.84815 40.8034C8.14393 41.0992 8.34536 41.476 8.42697 41.8863C8.50857 42.2965 8.46669 42.7218 8.30661 43.1082C8.14654 43.4947 7.87546 43.825 7.52766 44.0574C7.17986 44.2898 6.77096 44.4138 6.35266 44.4138C5.79174 44.4138 5.2538 44.191 4.85717 43.7944C4.46054 43.3978 4.23772 42.8598 4.23772 42.2989ZM27.5021 54.9886C27.0838 54.9886 26.6749 54.8645 26.3271 54.6321C25.9793 54.3997 25.7082 54.0694 25.5482 53.683C25.3881 53.2965 25.3462 52.8713 25.4278 52.461C25.5094 52.0508 25.7108 51.6739 26.0066 51.3781C26.3024 51.0823 26.6792 50.8809 27.0895 50.7993C27.4998 50.7177 27.925 50.7596 28.3115 50.9197C28.6979 51.0797 29.0282 51.3508 29.2606 51.6986C29.493 52.0464 29.6171 52.4553 29.6171 52.8736C29.6171 53.4345 29.3942 53.9725 28.9976 54.3691C28.601 54.7657 28.063 54.9886 27.5021 54.9886ZM48.6516 44.4138C48.2333 44.4138 47.8244 44.2898 47.4766 44.0574C47.1288 43.825 46.8577 43.4947 46.6976 43.1082C46.5375 42.7218 46.4956 42.2965 46.5772 41.8863C46.6589 41.476 46.8603 41.0992 47.1561 40.8034C47.4518 40.5076 47.8287 40.3062 48.2389 40.2246C48.6492 40.143 49.0745 40.1849 49.4609 40.3449C49.8474 40.505 50.1777 40.7761 50.4101 41.1239C50.6425 41.4717 50.7665 41.8806 50.7665 42.2989C50.7665 42.8598 50.5437 43.3978 50.147 43.7944C49.7504 44.191 49.2125 44.4138 48.6516 44.4138Z" fill="url(#paint0_linear_6125_198)"/>
<defs>
<linearGradient id="paint0_linear_6125_198" x1="0" y1="29.6003" x2="67.412" y2="30.0391" gradientUnits="userSpaceOnUse">
<stop stop-color="#0499AB"/>
<stop offset="1" stop-color="#06646F" stop-opacity="0.6"/>
</linearGradient>
</defs>
</svg>
