<svg width="41" height="45" viewBox="0 0 41 45" fill="none" xmlns="http://www.w3.org/2000/svg">
<path d="M26.01 0C24.2946 0.442904 22.4879 1.485 21.4438 2.70284C20.3994 3.92097 19.6478 5.5259 19.3057 7.53046C9.28469 2.84198 -0.469846 10.6403 0.0175312 22.2008C0.504992 33.7633 8.8421 49.9934 20.3442 43.3548C31.9895 50.1784 39.4323 34.2146 40.8389 24.0444C42.2454 13.874 34.3189 2.2715 21.9172 7.70232C22.2099 6.28363 22.6673 5.33334 23.4291 4.43704C24.1909 3.54073 25.4747 2.82489 27.0027 2.21852C26.9211 1.15825 26.5443 0.409911 26.01 0ZM16.4499 17.9825C18.1957 17.9825 19.7071 19.3388 20.3442 20.8884C20.9813 19.3388 22.4774 17.9825 24.2232 17.9825C26.4013 17.9825 28.4965 19.8261 28.5146 22.2008C28.5534 27.3007 23.1744 27.8332 20.3442 33.7465C17.514 27.8332 12.1198 27.3007 12.1586 22.2008C12.1766 19.8261 14.2718 17.9825 16.4499 17.9825Z" fill="url(#paint0_linear_6125_44)"/>
<defs>
<linearGradient id="paint0_linear_6125_44" x1="0" y1="22.5" x2="50.2527" y2="22.8208" gradientUnits="userSpaceOnUse">
<stop stop-color="#0499AB"/>
<stop offset="1" stop-color="#06646F" stop-opacity="0.6"/>
</linearGradient>
</defs>
</svg>
