<svg width="54" height="50" viewBox="0 0 54 50" fill="none" xmlns="http://www.w3.org/2000/svg">
<path fill-rule="evenodd" clip-rule="evenodd" d="M35.5949 26.2378H18.4126V28.2744C18.4126 29.6168 19.6073 30.7039 21.0828 30.7039H22.0928V33.4237C22.0928 34.035 22.3591 34.6221 22.8341 35.0543C23.3091 35.4866 23.9544 35.731 24.6262 35.731H25.7729V41.3147H19.9528C18.0791 41.3147 16.2799 40.638 14.9556 39.4309C13.6289 38.226 12.8852 36.5889 12.8852 34.8841V33.3735C15.3442 32.8649 17.1819 30.8633 17.1819 28.4731C17.1819 25.6987 14.7061 23.4482 11.6593 23.4482C8.61016 23.4482 6.1367 25.7008 6.1367 28.4731C6.1367 30.8633 7.97438 32.865 10.431 33.3735V34.8841C10.431 37.1826 11.4338 39.3851 13.2211 41.0114C15.006 42.6354 17.4291 43.55 19.9553 43.55H25.7466C25.6411 44.3948 25.2236 45.1872 24.5567 45.794C23.777 46.5034 22.7214 46.9007 21.6203 46.9007H14.0705C7.65563 46.9007 2.45435 42.1683 2.45435 36.3314V9.91883C2.45435 7.83202 4.31358 6.14034 6.60709 6.14034H9.34198C9.90096 8.37775 12.1009 10.0498 14.7278 10.0498C17.777 10.0498 20.2504 7.79715 20.2504 5.02491C20.2504 2.25054 17.7746 0 14.7278 0C12.1009 0 9.90092 1.67206 9.34198 3.90947H6.60709C2.95814 3.90947 0 6.60091 0 9.92112V36.3337C0 43.4037 6.30001 49.1382 14.0703 49.1382H21.6201C23.3714 49.1382 25.0531 48.5052 26.2911 47.3767C26.5526 47.1388 26.7877 46.8856 26.9988 46.6149C27.2099 46.8834 27.445 47.1388 27.7065 47.3767C28.9444 48.503 30.6261 49.1382 32.3774 49.1382H39.9272C47.6975 49.1382 54 43.406 54 36.3337V9.92112C54 6.60103 51.042 3.90947 47.3929 3.90947H44.658C44.099 1.67206 41.8991 0 39.2722 0C36.223 0 33.7496 2.25267 33.7496 5.02491C33.7496 7.79928 36.2254 10.0498 39.2722 10.0498C41.8991 10.0498 44.0991 8.37775 44.658 6.14034H47.3929C49.6864 6.14034 51.5456 7.83202 51.5456 9.91883V36.3314C51.5456 42.1682 46.3445 46.9007 39.9295 46.9007H32.3797C31.2785 46.9007 30.223 46.5034 29.4433 45.794C28.7764 45.1872 28.3589 44.3948 28.2534 43.55H34.0447C36.5709 43.55 38.9915 42.6376 40.7789 41.0114C42.5637 39.3874 43.569 37.1827 43.569 34.8841V33.3735C46.028 32.8649 47.8657 30.8633 47.8657 28.4731C47.8657 25.6987 45.3899 23.4482 42.3431 23.4482C39.2939 23.4482 36.8205 25.7008 36.8205 28.4731C36.8205 30.8633 38.6581 32.865 41.1172 33.3735V34.8841C41.1172 36.5889 40.3735 38.226 39.0468 39.4309C37.7225 40.6358 35.9232 41.3147 34.0496 41.3147H28.2295V35.731H29.3762C30.048 35.731 30.6933 35.4887 31.1683 35.0543C31.6433 34.6221 31.9096 34.035 31.9096 33.4237V30.7039H32.9196C34.395 30.7039 35.5898 29.6147 35.5898 28.2744V26.2378H35.5949ZM18.4126 19.5103V24.0048H35.5949V19.5103H32.1138C31.658 19.5103 31.2382 19.2789 31.0271 18.9122L30.9455 18.7725L29.3693 22.169C29.1726 22.5947 28.7096 22.8653 28.201 22.8501C27.6948 22.837 27.2486 22.5401 27.0807 22.1058L25.5501 18.1614L24.1947 21.0798C24.0099 21.4771 23.5901 21.7434 23.1151 21.7609C22.6401 21.7784 22.1986 21.547 21.9779 21.165L21.0231 19.5104H18.4105L18.4126 19.5103ZM18.4126 17.2773H21.7665C22.2223 17.2773 22.6421 17.5065 22.8532 17.8754L22.9444 18.0347L24.5206 14.6382C24.7173 14.2126 25.1827 13.9419 25.6889 13.9571C26.1951 13.9702 26.6413 14.2671 26.8092 14.7015L28.3398 18.6459L29.6952 15.7274C29.88 15.3301 30.2998 15.0638 30.7748 15.0463C31.2498 15.0289 31.6913 15.2602 31.912 15.6422L32.8548 17.2772H35.5945V11.9183C35.5945 10.5759 34.3998 9.48881 32.9244 9.48881H21.0828C19.6074 9.48881 18.4127 10.578 18.4127 11.9183L18.4126 17.2773Z" fill="url(#paint0_linear_6125_196)"/>
<defs>
<linearGradient id="paint0_linear_6125_196" x1="0" y1="24.5691" x2="66.1852" y2="25.0787" gradientUnits="userSpaceOnUse">
<stop stop-color="#0499AB"/>
<stop offset="1" stop-color="#06646F" stop-opacity="0.6"/>
</linearGradient>
</defs>
</svg>
