<svg width="52" height="53" viewBox="0 0 52 53" fill="none" xmlns="http://www.w3.org/2000/svg">
<path d="M28.8277 42.8158V41.1596C28.8277 41.046 28.7709 40.9135 28.6857 40.8283L27.5216 39.6642C27.285 39.4276 27.0862 39.1815 26.9253 38.907C21.3414 42.0113 16.9026 41.7747 14.1109 41.0081C11.0917 40.1658 9.33142 38.5285 9.04746 38.254C3.16066 33.2853 4.18286 24.7109 4.23016 24.3511C5.17659 18.7104 8.56477 15.8899 11.2334 14.518C13.0979 13.5526 15.2084 13.051 17.508 13.0037H17.6784C18.2651 12.9942 18.7572 12.4926 18.7572 11.9058V0.406966C18.7572 0.179824 18.5774 0 18.3503 0H15.0946C14.8674 0 14.6876 0.179824 14.6876 0.406966V6.82389C14.6876 8.31927 13.7222 9.65372 12.2837 10.1459C4.11622 12.9567 -0.8906 20.9542 0.131843 29.5947C1.08772 37.753 7.42887 44.2548 15.54 45.4002C18.7389 45.8544 21.9854 45.4759 24.9097 44.3213C25.2031 44.2077 25.4965 44.1509 25.7994 44.1509C26.2821 44.1509 26.7553 44.2929 27.1717 44.5673C27.8531 45.0311 28.2601 45.8072 28.2601 46.6305V52.593C28.2601 52.8202 28.4399 53 28.6671 53H31.9228C32.1499 53 32.3298 52.8202 32.3298 52.593V47.0186C30.3423 46.659 28.828 44.9081 28.828 42.8165L28.8277 42.8158ZM51.1161 3.83275C51.0877 3.66239 50.8984 3.0472 50.5198 2.91473C50.3495 2.84847 49.687 2.74437 48.2011 3.98417C47.974 4.18292 45.0306 6.8329 39.7968 9.464C34.5726 12.1045 27.0581 14.7261 17.7168 14.8965H17.5369C15.54 14.9344 13.7134 15.3697 12.1044 16.2026C8.77301 17.9156 6.75714 20.7454 6.10412 24.6256C6.10412 24.6445 5.96215 25.8181 6.08519 27.5122C8.37551 28.3829 13.401 29.935 18.6537 29.1116C18.8336 28.2693 19.2594 26.6415 20.1302 24.9758C20.0734 24.4931 19.8084 23.2816 18.5496 22.515C18.1048 22.25 17.9628 21.6633 18.2373 21.2185C18.5118 20.7736 19.089 20.6317 19.5339 20.9061C20.4993 21.4835 21.086 22.2406 21.4551 22.9599C22.0609 22.2216 22.7707 21.5497 23.6224 21.0197C24.0673 20.7453 24.654 20.8777 24.9285 21.3226C25.2029 21.7674 25.061 22.3542 24.6162 22.6286C22.2879 24.0672 21.1806 26.9632 20.7169 28.6573C23.1586 27.9665 25.591 26.6888 27.768 24.5025L27.9857 24.2848C28.3832 23.8779 28.7996 23.4614 29.2634 23.0734C29.4905 22.8746 29.7555 22.6664 30.03 22.4393C30.2287 22.0134 31.2603 19.6473 30.2855 17.0257C30.1057 16.5336 30.3612 15.9846 30.8439 15.8048C31.336 15.625 31.885 15.8806 32.0648 16.3632C32.6137 17.8491 32.661 19.2498 32.5285 20.4045C33.4844 19.6379 34.5349 18.8239 35.6233 18.0005C35.8789 17.6598 37.043 15.9752 36.7496 13.2684C36.6928 12.7479 37.0714 12.2841 37.5919 12.2273C38.1124 12.1705 38.5762 12.5491 38.633 13.0696C38.7466 14.1202 38.6709 15.0571 38.51 15.871C40.6868 14.3379 42.7784 13.0033 44.3684 12.303C44.8416 12.0948 45.4 12.3125 45.6082 12.7857C45.8259 13.2684 45.6082 13.8268 45.1255 14.035C41.0559 15.8237 32.8883 22.515 30.4745 24.5211C30.2001 24.7482 29.9351 25.0038 29.6795 25.2688C30.2095 25.2782 30.7964 25.3161 31.4021 25.3918C31.8847 25.0416 33.4652 23.9343 34.6862 23.4895C35.1783 23.3097 35.7273 23.5652 35.9071 24.0574C36.0774 24.5495 35.8313 25.089 35.3392 25.2688C34.9228 25.4202 34.4212 25.6947 33.9385 25.9881C34.1467 26.0638 34.3454 26.1395 34.5442 26.2341H34.7524C34.866 26.2341 34.9985 26.1774 35.0837 26.0827L36.2478 24.9186C37.0617 24.1141 38.1312 23.6693 39.2669 23.6693C40.2606 23.6693 41.2071 24.01 41.9642 24.6347C45.5417 20.6881 47.6712 17.0821 48.9396 14.2049C51.6369 8.08178 51.1259 3.87026 51.1164 3.8321L51.1161 3.83275ZM27.5308 27.2381C24.6821 29.5284 21.275 30.8629 17.4421 31.1847C17.868 31.6295 18.3222 32.1501 18.7671 32.7274C19.3444 32.822 21.2372 33.1817 22.4202 33.7495C22.884 33.9767 23.0828 34.5445 22.8556 35.0082C22.6947 35.349 22.354 35.5477 22.0038 35.5477C21.8713 35.5477 21.7294 35.5193 21.5969 35.4531C21.1994 35.2638 20.6505 35.0934 20.1015 34.9515C20.3286 35.4436 20.5085 35.9546 20.6031 36.4752C20.7072 36.9863 20.376 37.4879 19.8649 37.5825C19.7986 37.6014 19.7418 37.6014 19.6756 37.6014C19.2402 37.6014 18.8427 37.2891 18.7481 36.8443C18.2938 34.554 15.8237 32.1311 14.7353 31.2414C14.0444 31.2225 13.3535 31.1752 12.6437 31.09C10.1072 30.7966 7.92098 30.172 6.36909 29.6325C6.83283 32.0365 7.90227 34.819 10.2968 36.8254L10.363 36.8916C10.6091 37.1377 16.3728 42.7973 26.3005 37.0904C26.168 35.8601 26.575 34.5729 27.5214 33.6359L28.6855 32.4624C28.7707 32.3772 28.8275 32.2542 28.8275 32.1311V30.5033C28.8275 29.1688 29.4427 27.9763 30.3986 27.1907C29.102 27.1056 27.9757 27.2002 27.5308 27.2381Z" fill="#3693A2"/>
<path d="M49.652 34.9932L48.4878 33.8291C48.0454 33.3867 47.7899 32.7809 47.7899 32.1539V30.5001C47.7899 29.1964 46.7417 28.1245 45.4143 28.1245H43.7841C43.1547 28.1245 42.549 27.869 42.109 27.4265L40.9448 26.2624C40.0126 25.3302 38.522 25.3302 37.5921 26.2624L36.428 27.4265C35.9855 27.869 35.3798 28.1245 34.7528 28.1245H33.0989C31.7953 28.1245 30.7234 29.1727 30.7234 30.5001V32.1303C30.7234 32.7597 30.4678 33.3654 30.0254 33.8054L28.8613 34.9695C27.929 35.9018 27.929 37.3924 28.8613 38.3223L30.0254 39.4864C30.4679 39.9289 30.7234 40.5346 30.7234 41.1616V42.8155C30.7234 44.1191 31.7716 45.191 33.0989 45.191H34.7291C35.3585 45.191 35.9643 45.4465 36.4043 45.889L37.5684 47.0531C38.5007 47.9853 39.9913 47.9853 40.9212 47.0531L42.0853 45.889C42.5277 45.4465 43.1335 45.191 43.7604 45.191H45.4143C46.718 45.191 47.7899 44.1428 47.7899 42.8155V41.1852C47.7899 40.5559 48.0454 39.9501 48.4878 39.5101L49.652 38.346C50.5842 37.4137 50.5842 35.9018 49.652 34.9932ZM36.2197 37.0257C34.871 37.0257 33.7755 35.9326 33.7755 34.5815C33.7755 33.2328 34.871 32.135 36.2197 32.1374C37.5684 32.1374 38.6639 33.2328 38.6639 34.5815C38.6639 35.9302 37.5684 37.0257 36.2197 37.0257ZM39.8421 42.6546C38.872 42.6546 38.0842 41.869 38.0842 40.8966C38.0842 39.9265 38.8697 39.1387 39.8421 39.1387C40.8123 39.1387 41.6001 39.9266 41.6001 40.8966C41.6001 41.8667 40.8146 42.6546 39.8421 42.6546ZM43.6184 36.9145C42.6483 36.9145 41.8604 36.1289 41.8604 35.1565C41.8604 34.1864 42.646 33.3986 43.6184 33.3986C44.5885 33.3986 45.3764 34.1865 45.3764 35.1565C45.3764 36.1266 44.5908 36.9145 43.6184 36.9145Z" fill="#3693A2"/>
</svg>
