<svg width="39" height="39" viewBox="0 0 39 39" fill="none" xmlns="http://www.w3.org/2000/svg">
<path d="M32.0232 13.4411C30.2202 11.0981 28.3572 8.67509 27.1732 6.04109C27.0932 5.86109 26.9142 5.74609 26.7182 5.74609H26.6142C26.4172 5.74609 26.2372 5.86209 26.1582 6.04109C24.9712 8.68209 23.0932 11.1111 21.2722 13.4591C18.1732 17.4621 14.9672 21.6031 15.0222 26.9801C15.0802 32.6971 20.7212 38.1311 26.6272 38.1651C26.6272 38.1651 26.6292 38.1651 26.6312 38.1651H26.6332C32.5422 38.1341 38.1842 32.6971 38.2412 26.9801C38.2982 21.5941 35.1072 17.4501 32.0232 13.4411ZM28.7912 35.0421C28.7252 35.0541 28.6542 35.0621 28.5902 35.0621C28.1242 35.0621 27.7082 34.7371 27.6102 34.2641C27.5002 33.7241 27.8462 33.1971 28.3832 33.0831C28.5572 33.0461 32.6532 32.1161 33.5162 27.6841C33.6202 27.1411 34.1472 26.7871 34.6882 26.8931C35.2312 26.9971 35.5842 27.5231 35.4792 28.0651C34.3572 33.8301 29.0172 34.9941 28.7912 35.0421Z" fill="#2893A3"/>
<path d="M10.6484 4.70787C9.56444 3.29887 8.44344 1.84188 7.73644 0.268875C7.57544 -0.0891249 6.92244 -0.0901249 6.76044 0.268875C6.05244 1.84588 4.92144 3.30688 3.82744 4.71888C1.92944 7.16988 -0.0335646 9.70488 0.000435431 13.0299C0.0364354 16.5919 3.54644 19.9769 7.22344 19.9969H7.22644H7.22944C10.9074 19.9759 14.4184 16.5919 14.4544 13.0299C14.4904 9.69988 12.5374 7.16187 10.6484 4.70787ZM8.43743 18.0939C8.36943 18.1079 8.30143 18.1149 8.23543 18.1149C7.77043 18.1149 7.35443 17.7889 7.25643 17.3159C7.14543 16.7769 7.49144 16.2499 8.02944 16.1359C8.14344 16.1109 10.3634 15.5839 10.8314 13.1779C10.9364 12.6359 11.4594 12.2799 12.0034 12.3869C12.5454 12.4919 12.8994 13.0169 12.7944 13.5589C12.0664 17.3069 8.58543 18.0639 8.43743 18.0939Z" fill="#2893A3"/>
</svg>
