<svg width="57" height="59" viewBox="0 0 57 59" fill="none" xmlns="http://www.w3.org/2000/svg">
<path d="M52.7883 0H4.275C1.93167 0 0 1.94411 0 4.30253V43.2484C0 45.6068 1.93167 47.5509 4.275 47.5509H20.3933V54.6899C20.3933 54.6899 20.3933 54.6899 20.3933 54.7218H18.05C17.1317 54.7218 16.4033 55.4548 16.4033 56.3791C16.4033 57.3033 17.1317 58.0364 18.05 58.0364H38.6333C39.5517 58.0364 40.28 57.3033 40.28 56.3791C40.28 55.4548 39.5517 54.7218 38.6333 54.7218H36.29C36.29 54.7218 36.29 54.7218 36.29 54.6899V47.5509H52.725C55.0683 47.5509 57 45.6068 57 43.2484V4.30253C57 1.94411 55.0683 0 52.725 0H52.7883ZM53.865 43.2484C53.865 43.8539 53.3583 44.3639 52.7567 44.3639H4.275C3.67333 44.3639 3.16667 43.8539 3.16667 43.2484V4.30253C3.16667 3.69699 3.67333 3.18706 4.275 3.18706H52.7567C53.3583 3.18706 53.865 3.69699 53.865 4.30253V43.2484Z" fill="url(#paint0_linear_6125_203)"/>
<path d="M5.1875 5.1814V42.4905H51.8239V5.1814H5.1875ZM24.7273 7.04364C25.17 5.50247 26.8141 7.49315 27.9524 6.56202C28.3318 6.33727 28.8061 7.01153 29.059 6.69046C30.5767 5.5988 30.0075 8.90588 30.4186 9.3875C30.9244 8.9701 30.0708 5.40615 31.9046 6.72256C33.8333 5.69512 32.8215 8.77745 33.2326 9.35539C34.2443 9.03432 35.3826 6.75467 36.5524 6.40149C37.0899 6.40149 36.9635 7.07575 37.2164 7.3005C39.7458 8.10319 35.6355 10.126 35.9201 10.6397C35.9201 12.1809 38.0385 13.1762 37.1532 15.199C35.9517 14.7174 34.4024 14.3 33.359 14.7174C32.5053 13.3046 30.545 12.823 29.9127 14.5568C30.2289 16.9007 28.7428 17.7676 26.4031 17.6713C24.7906 13.5615 30.7347 11.5387 28.1421 6.65835C28.3318 12.534 24.3795 13.4331 25.7075 17.7676C22.0082 19.5977 20.0479 19.8867 18.1824 22.4232C13.7559 14.8458 26.5612 15.6164 24.7273 7.04364ZM29.723 40.4677C23.7156 38.4128 14.7677 30.1611 18.7832 23.0654C18.7832 23.0654 18.7516 23.0333 18.7199 23.0011C19.7633 21.2031 21.5023 20.6252 23.7788 19.4693C22.8619 22.2948 17.7714 24.6386 20.1111 28.331C20.5854 26.1798 20.5538 24.0286 22.3244 22.7764C22.356 23.4828 22.9884 23.9644 23.3045 24.3818C23.3045 24.7992 23.4942 25.9229 24.0634 25.0881C23.6523 21.9416 21.945 23.6433 24.4112 19.983C25.1068 21.4921 26.8774 22.4553 28.6163 22.3911C28.0156 23.6112 26.5296 24.2533 26.3082 25.5055C26.245 26.6293 24.6957 26.9504 24.3479 27.9136C26.2134 28.62 26.8774 25.634 27.573 24.6707C26.9722 29.7116 30.0075 32.8903 27.8891 38.4128C31.0193 35.3626 28.9009 30.8033 28.3634 28.1705C30.0391 29.6153 30.7031 32.1197 31.4936 34.2388C33.0745 29.0374 24.8854 27.0146 29.723 22.2948C29.47 24.8313 33.2958 25.2166 33.0745 28.2668C33.0745 28.7805 33.8649 28.7484 33.8333 28.2668C33.8017 25.1845 31.2722 24.5423 30.3237 22.6159C30.545 18.6666 36.6157 23.3543 37.4061 25.3129C37.4061 25.3129 37.3745 25.3129 37.3429 25.345C39.398 30.418 34.9399 39.2476 29.723 40.4677ZM38.1017 24.9276C36.7421 22.6801 34.4024 20.7857 31.5884 20.4646C32.9796 19.5977 34.3708 19.2445 35.8252 19.2445C39.24 18.4419 40.2201 22.8085 38.1333 24.9597L38.1017 24.9276ZM39.5877 19.084C36.0782 17.7997 31.6833 18.1529 29.2803 21.4921C27.731 22.0058 24.5693 20.6894 25.2332 18.9235C26.6877 17.7676 29.7862 18.9235 30.6399 16.708C30.4502 15.488 30.3237 14.3963 31.3671 14.2036C32.1259 13.9468 32.6634 15.5201 33.3906 15.4558C35.0664 14.7495 38.1017 16.5154 39.8091 17.1576C39.4613 17.7034 39.5245 18.4097 39.6194 19.1161L39.5877 19.084Z" fill="url(#paint1_linear_6125_203)"/>
<defs>
<linearGradient id="paint0_linear_6125_203" x1="0" y1="29.0182" x2="69.863" y2="29.4989" gradientUnits="userSpaceOnUse">
<stop stop-color="#0499AB"/>
<stop offset="1" stop-color="#06646F" stop-opacity="0.6"/>
</linearGradient>
<linearGradient id="paint1_linear_6125_203" x1="5.1875" y1="23.8359" x2="62.3465" y2="24.3365" gradientUnits="userSpaceOnUse">
<stop stop-color="#0499AB"/>
<stop offset="1" stop-color="#06646F" stop-opacity="0.6"/>
</linearGradient>
</defs>
</svg>
