<svg width="41" height="45" viewBox="0 0 41 45" fill="none" xmlns="http://www.w3.org/2000/svg">
<path fill-rule="evenodd" clip-rule="evenodd" d="M39.6753 30.0041C39.6753 27.1704 38.3645 24.4987 36.1293 22.7744C33.8941 21.05 30.9888 20.468 28.2684 21.2023C25.5476 21.9346 23.3202 23.8993 22.2425 26.5162C21.1627 29.1351 21.3569 32.1076 22.7668 34.5604C24.1747 37.0152 26.6372 38.6693 29.4316 39.0384C32.2241 39.4094 35.0304 38.4505 37.021 36.4488C38.7241 34.74 39.6793 32.422 39.6753 30.0041ZM36.941 21.876C34.9039 20.2707 32.3385 19.5012 29.7597 19.718C27.1809 19.9348 24.7783 21.1222 23.0348 23.0438C21.2909 24.9655 20.3316 27.4789 20.351 30.082C20.3704 32.6833 21.3667 35.183 23.1397 37.0773C24.9147 38.9716 27.3344 40.1239 29.9153 40.3015C32.4982 40.4793 35.0499 39.6688 37.0638 38.0342C34.8907 40.9167 31.6399 42.7817 28.0664 43.1916C24.4913 43.6037 20.9065 42.5257 18.1429 40.2095C15.3794 37.8914 13.6783 34.5382 13.4375 30.9296C13.1967 27.3209 14.4357 23.7683 16.8651 21.1006C19.2945 18.433 22.7046 16.8823 26.3029 16.8081C29.8995 16.7339 33.3699 18.1439 35.9058 20.7101C36.2728 21.0772 36.6187 21.4678 36.941 21.876ZM10.4719 5.24479C10.47 7.8851 8.5202 10.1115 5.91793 10.4472V13.2418H8.51826C11.0972 13.2418 11.3438 16.7844 9.12026 17.3488V19.1357C11.4371 19.7567 10.868 23.2348 8.51826 23.2348L5.91793 23.2368V28.9317C6.19563 31.5212 7.05983 34.0131 8.44249 36.2159C11.5788 41.2075 16.0588 43.5081 21.8521 43.7661C22.021 43.7739 22.1919 43.7797 22.3608 43.7836C18.1409 42.4771 14.756 39.29 13.185 35.1421C11.612 30.9941 12.0295 26.35 14.3133 22.5514C16.597 18.7529 20.4948 16.2241 24.8776 15.6987C29.2587 15.1714 33.6399 16.7064 36.749 19.8564C38.0327 21.1395 39.0678 22.655 39.7979 24.3208V2.83113C39.7979 0.780554 36.5665 0.780554 36.5665 2.83113V5.9265C36.5723 6.08859 36.5102 6.24677 36.3975 6.36395C36.2849 6.48112 36.1295 6.54752 35.9664 6.54752C35.8033 6.54752 35.6479 6.48112 35.5353 6.36395C35.4226 6.24677 35.3605 6.08859 35.3663 5.9265V2.83113C35.3663 -0.818873 41 -0.818873 41 2.83113L40.9981 30.0667C40.9961 33.8749 39.4678 37.5209 36.7587 40.1826C35.275 41.6551 33.4943 42.7936 31.5367 43.5182L31.527 43.5221C28.4101 44.6411 25.1048 45.1333 21.7998 44.9692C15.6088 44.6938 10.7751 42.1863 7.42926 36.8585C6.21746 34.931 4.71633 31.2302 4.71633 28.9514V23.243H2.116C-0.462954 23.243 -0.709589 19.7005 1.514 19.1361L1.51594 17.3531C-0.709586 16.7887 -0.462951 13.2461 2.11794 13.2461L4.71633 13.2442V10.4652C2.6656 10.2503 0.933337 8.84228 0.294453 6.8718C-0.344481 4.90131 0.230366 2.73749 1.76258 1.3489C3.29285 -0.0376541 5.49312 -0.389216 7.37488 0.452493C9.25862 1.2942 10.4719 3.17276 10.4719 5.24479ZM2.71541 17.423V19.0614L7.91607 19.0634V17.4249L2.71541 17.423ZM6.80718 5.24479C6.80718 4.61401 6.43044 4.04377 5.84977 3.80159C5.26911 3.55942 4.60109 3.69419 4.15639 4.13945C3.71168 4.58666 3.57766 5.25848 3.81848 5.84236C4.05929 6.4263 4.62635 6.80711 5.2536 6.80711C5.66724 6.80906 6.06146 6.64502 6.35274 6.35013C6.64598 6.05719 6.80911 5.66075 6.80911 5.2448L6.80718 5.24479Z" fill="#3693A2"/>
</svg>
