<svg width="42" height="53" viewBox="0 0 42 53" fill="none" xmlns="http://www.w3.org/2000/svg">
<path d="M28.9961 27.2965H26.9961V29.1163H28.9961V27.2965Z" fill="url(#paint0_linear_6125_143)"/>
<path d="M21 16.3778C25.9706 16.3778 30 12.7115 30 8.18891C30 3.6663 25.9706 0 21 0C16.0294 0 12 3.6663 12 8.18891C12 12.7115 16.0294 16.3778 21 16.3778Z" fill="url(#paint1_linear_6125_143)"/>
<path d="M21 18.1976C9.42099 18.1976 0 26.7687 0 37.3051V52.773H4V32.7557H6V52.773H36V32.7557H38V52.773H42V37.3051C42 26.7687 32.579 18.1976 21 18.1976ZM22 21.8371C19.243 21.8371 17 23.878 17 26.3865V35.4853H19V37.3051H17V42.3877L20.52 45.5904L25.442 46.8115L30.63 42.7644H34V44.5841H31.37L27.772 47.3893L31.134 48.2236H34V50.0434L30.737 50.0115L20.208 47.3984L17 49.5884V50.9533H15V48.6786L18.478 46.3056L15.948 44.0036L9.99999 48.6422V50.9533H7.99999V47.8051L15 42.3458V40.0347H12.465L10.465 37.3051H7.99999V35.4853H11.535L13.535 38.215H15V34.1032L10.649 30.9359H7.99999V29.1162H11.351L15 31.7721V26.3865C15 22.8744 18.141 20.0174 22 20.0174C25.519 20.0174 28.432 22.3949 28.92 25.4767H31V29.4701C32.761 30.1507 34 31.7403 34 33.5882C34 34.3998 33.758 35.196 33.3 35.8893L31.887 38.033C31.071 39.2677 29.582 40.0347 28 40.0347C26.418 40.0347 24.929 39.2677 24.113 38.033L22.7 35.8893C22.242 35.1951 22 34.3989 22 33.5882C22 31.7403 23.239 30.1507 25 29.4701V25.4767H26.899C26.434 23.403 24.414 21.8371 22 21.8371Z" fill="url(#paint2_linear_6125_143)"/>
<path d="M23.998 33.5883C23.998 34.0697 24.142 34.5419 24.413 34.9531L25.826 37.0959C26.281 37.7865 27.114 38.2151 27.998 38.2151C28.882 38.2151 29.715 37.7865 30.17 37.0968L31.583 34.9541C31.854 34.5428 31.998 34.0706 31.998 33.5892C31.998 32.1262 30.69 30.936 29.083 30.936H26.913C25.306 30.936 23.998 32.1262 23.998 33.5883ZM26.553 31.9988L27.889 32.8095C29.21 33.6102 29.998 34.9504 29.998 36.3953H27.998C27.998 35.5609 27.542 34.7857 26.779 34.3235L25.443 33.5128L26.553 31.9988Z" fill="url(#paint3_linear_6125_143)"/>
<defs>
<linearGradient id="paint0_linear_6125_143" x1="26.9961" y1="28.2064" x2="29.4474" y2="28.2253" gradientUnits="userSpaceOnUse">
<stop stop-color="#0499AB"/>
<stop offset="1" stop-color="#06646F" stop-opacity="0.6"/>
</linearGradient>
<linearGradient id="paint1_linear_6125_143" x1="12" y1="8.18891" x2="34.0617" y2="8.35878" gradientUnits="userSpaceOnUse">
<stop stop-color="#0499AB"/>
<stop offset="1" stop-color="#06646F" stop-opacity="0.6"/>
</linearGradient>
<linearGradient id="paint2_linear_6125_143" x1="0" y1="35.4853" x2="51.4767" y2="35.9234" gradientUnits="userSpaceOnUse">
<stop stop-color="#0499AB"/>
<stop offset="1" stop-color="#06646F" stop-opacity="0.6"/>
</linearGradient>
<linearGradient id="paint3_linear_6125_143" x1="23.998" y1="34.5755" x2="33.8033" y2="34.651" gradientUnits="userSpaceOnUse">
<stop stop-color="#0499AB"/>
<stop offset="1" stop-color="#06646F" stop-opacity="0.6"/>
</linearGradient>
</defs>
</svg>
