<svg width="39" height="57" viewBox="0 0 39 57" fill="none" xmlns="http://www.w3.org/2000/svg">
<path d="M15.6152 6.3333H22.7584V3.16665C22.7584 2.3268 22.3821 1.52135 21.7123 0.927491C21.0425 0.333628 20.1341 0 19.1868 0C18.2396 0 17.3311 0.333628 16.6613 0.927491C15.9915 1.52135 15.6152 2.3268 15.6152 3.16665V6.3333Z" fill="url(#paint0_linear_6190_139)"/>
<path d="M2.6144 56.9998H35.7587C36.4521 56.9998 37.117 56.7556 37.6073 56.3209C38.0976 55.8862 38.3731 55.2966 38.3731 54.6818V11.1594C38.3656 10.549 38.0868 9.96588 37.5973 9.53664C37.1078 9.1074 36.4471 8.86666 35.7587 8.8667H33.2443V12.2867H34.5443C34.6864 12.2867 34.8227 12.3367 34.9232 12.4258C35.0236 12.5149 35.0801 12.6357 35.0801 12.7617V53.1111C35.0782 53.2366 35.0212 53.3565 34.9211 53.4452C34.8211 53.5339 34.6859 53.5845 34.5443 53.5861H3.82874C3.68723 53.5845 3.55203 53.5339 3.45196 53.4452C3.35189 53.3565 3.29485 53.2366 3.293 53.1111V12.7363C3.293 12.6104 3.34944 12.4896 3.44991 12.4005C3.55038 12.3114 3.68665 12.2613 3.82874 12.2613H5.12879V8.8667H2.6144C1.92102 8.8667 1.25603 9.11092 0.765739 9.54562C0.275445 9.98033 0 10.5699 0 11.1847V54.6818C0 55.2966 0.275445 55.8862 0.765739 56.3209C1.25603 56.7556 1.92102 56.9998 2.6144 56.9998Z" fill="url(#paint1_linear_6190_139)"/>
<path d="M6.19922 7.30859V12.2612H32.1718V7.30859H22.7571H15.6139H6.19922Z" fill="url(#paint2_linear_6190_139)"/>
<path d="M4.36523 52.6353H34.0094V13.2104H4.36523V52.6353ZM30.4378 35.396C30.4378 35.522 30.3813 35.6428 30.2809 35.7319C30.1804 35.821 30.0441 35.871 29.902 35.871H14.1871C14.045 35.871 13.9087 35.821 13.8083 35.7319C13.7078 35.6428 13.6513 35.522 13.6513 35.396C13.6513 35.27 13.7078 35.1492 13.8083 35.0601C13.9087 34.9711 14.045 34.921 14.1871 34.921H29.902C30.0436 34.9227 30.1788 34.9732 30.2788 35.0619C30.3789 35.1507 30.4359 35.2705 30.4378 35.396ZM11.0012 22.4571C11.0012 22.3311 11.0577 22.2103 11.1581 22.1212C11.2586 22.0321 11.3949 21.9821 11.537 21.9821H16.6872V17.4158C16.6872 17.2898 16.7436 17.169 16.8441 17.0799C16.9446 16.9908 17.0808 16.9408 17.2229 16.9408H21.1588C21.3003 16.9424 21.4355 16.993 21.5356 17.0817C21.6357 17.1704 21.6927 17.2903 21.6946 17.4158V21.9821H26.8376C26.9797 21.9821 27.116 22.0321 27.2165 22.1212C27.3169 22.2103 27.3734 22.3311 27.3734 22.4571V25.9657C27.3734 26.0917 27.3169 26.2125 27.2165 26.3016C27.116 26.3907 26.9797 26.4407 26.8376 26.4407H21.6946V31.007C21.6927 31.1325 21.6357 31.2524 21.5356 31.3411C21.4355 31.4298 21.3003 31.4804 21.1588 31.482H17.2229C17.0808 31.482 16.9446 31.432 16.8441 31.3429C16.7436 31.2538 16.6872 31.133 16.6872 31.007V26.4217H11.537C11.3949 26.4217 11.2586 26.3717 11.1581 26.2826C11.0577 26.1935 11.0012 26.0727 11.0012 25.9467V22.4571ZM8.47255 39.3353H29.902C30.0441 39.3353 30.1804 39.3854 30.2809 39.4744C30.3813 39.5635 30.4378 39.6843 30.4378 39.8103C30.4378 39.9363 30.3813 40.0571 30.2809 40.1462C30.1804 40.2353 30.0441 40.2853 29.902 40.2853H8.47255C8.33047 40.2853 8.1942 40.2353 8.09373 40.1462C7.99326 40.0571 7.93682 39.9363 7.93682 39.8103C7.93682 39.6843 7.99326 39.5635 8.09373 39.4744C8.1942 39.3854 8.33047 39.3353 8.47255 39.3353ZM8.47255 43.7686H29.902C30.0441 43.7686 30.1804 43.8187 30.2809 43.9078C30.3813 43.9968 30.4378 44.1177 30.4378 44.2436C30.4378 44.3696 30.3813 44.4904 30.2809 44.5795C30.1804 44.6686 30.0441 44.7186 29.902 44.7186H8.47255C8.33047 44.7186 8.1942 44.6686 8.09373 44.5795C7.99326 44.4904 7.93682 44.3696 7.93682 44.2436C7.93682 44.1177 7.99326 43.9968 8.09373 43.9078C8.1942 43.8187 8.33047 43.7686 8.47255 43.7686ZM8.47255 48.2019H29.902C30.0441 48.2019 30.1804 48.252 30.2809 48.3411C30.3813 48.4301 30.4378 48.551 30.4378 48.6769C30.4378 48.8029 30.3813 48.9237 30.2809 49.0128C30.1804 49.1019 30.0441 49.1519 29.902 49.1519H8.47255C8.32005 49.1519 8.17379 49.0982 8.06595 49.0026C7.95811 48.907 7.89753 48.7773 7.89753 48.6421C7.89753 48.5069 7.95811 48.3772 8.06595 48.2816C8.17379 48.186 8.32005 48.1323 8.47255 48.1323V48.2019Z" fill="url(#paint3_linear_6190_139)"/>
<path d="M17.7595 25.9666V30.5329H20.6167V25.9666C20.6167 25.8406 20.6732 25.7198 20.7736 25.6307C20.8741 25.5416 21.0104 25.4916 21.1525 25.4916H26.3313V22.9582H21.1882C21.0461 22.9582 20.9098 22.9082 20.8093 22.8191C20.7089 22.73 20.6524 22.6092 20.6524 22.4832V17.8916H17.7595V22.4579C17.7595 22.5839 17.703 22.7047 17.6025 22.7938C17.5021 22.8829 17.3658 22.9329 17.2237 22.9329H12.0449V25.4662H17.1951C17.2703 25.4626 17.3456 25.473 17.4159 25.4969C17.4862 25.5207 17.5501 25.5574 17.6033 25.6046C17.6566 25.6519 17.698 25.7085 17.7249 25.7708C17.7518 25.8332 17.7636 25.8999 17.7595 25.9666Z" fill="url(#paint4_linear_6190_139)"/>
<defs>
<linearGradient id="paint0_linear_6190_139" x1="15.6152" y1="3.16665" x2="24.3702" y2="3.23583" gradientUnits="userSpaceOnUse">
<stop stop-color="#0499AB"/>
<stop offset="1" stop-color="#06646F" stop-opacity="0.6"/>
</linearGradient>
<linearGradient id="paint1_linear_6190_139" x1="0" y1="32.9332" x2="47.0334" y2="33.1959" gradientUnits="userSpaceOnUse">
<stop stop-color="#0499AB"/>
<stop offset="1" stop-color="#06646F" stop-opacity="0.6"/>
</linearGradient>
<linearGradient id="paint2_linear_6190_139" x1="6.19922" y1="9.78491" x2="37.9915" y2="10.953" gradientUnits="userSpaceOnUse">
<stop stop-color="#0499AB"/>
<stop offset="1" stop-color="#06646F" stop-opacity="0.6"/>
</linearGradient>
<linearGradient id="paint3_linear_6190_139" x1="4.36523" y1="32.9229" x2="40.6998" y2="33.1143" gradientUnits="userSpaceOnUse">
<stop stop-color="#0499AB"/>
<stop offset="1" stop-color="#06646F" stop-opacity="0.6"/>
</linearGradient>
<linearGradient id="paint4_linear_6190_139" x1="12.0449" y1="24.2122" x2="29.5549" y2="24.3509" gradientUnits="userSpaceOnUse">
<stop stop-color="#0499AB"/>
<stop offset="1" stop-color="#06646F" stop-opacity="0.6"/>
</linearGradient>
</defs>
</svg>
