<svg width="65" height="45" viewBox="0 0 65 45" fill="none" xmlns="http://www.w3.org/2000/svg">
<path d="M13.7702 33.8955H13.6691C13.3024 33.8936 12.9424 33.9936 12.6292 34.1844C12.4415 35.8163 12.4271 38.517 14.2467 38.7986C14.3949 38.8214 14.5445 38.8334 14.6945 38.8347C16.7308 38.8347 18.6371 36.5962 19.4386 34.8054C18.7506 34.7489 18.0691 34.6304 17.4023 34.4516C16.2145 34.139 14.9971 33.9526 13.7702 33.8955Z" fill="#0499AB"/>
<path d="M33.9386 1.44439C31.4647 0.579842 28.8745 0.0929788 26.2555 0.000197542C25.4506 -0.00445157 24.6473 0.0729723 23.8581 0.231269C22.9338 0.419014 21.6196 0.512887 20.0816 0.650086C20.0913 0.754606 20.0713 0.859754 20.0238 0.953367C18.3918 3.84176 17.9803 5.9214 18.789 7.22118C20.3126 9.6691 20.8181 11.5971 20.2982 12.933C20.1413 13.319 19.8931 13.6613 19.5749 13.9304C19.2567 14.1996 18.878 14.3875 18.4713 14.4783C17.417 14.7671 16.991 15.5831 16.4638 16.6446C16.0796 17.4925 15.5575 18.2709 14.9186 18.9481C13.3805 20.4428 12.2035 20.4572 10.4271 20.4789C10.0444 20.4789 9.62557 20.4789 9.16343 20.4789C8.70129 20.4789 8.52076 21.5837 8.44133 23.1073C8.3619 24.631 8.28969 26.5518 7.17044 27.4399C6.68346 27.8214 6.07726 28.0184 5.45906 27.996C5.24384 27.9962 5.02893 27.9793 4.8164 27.9454C3.02074 27.6681 1.34602 26.8696 0 25.6491C0.332165 37.7226 4.13762 44.2287 6.23893 44.2287C6.36738 44.2285 6.49446 44.2022 6.6124 44.1513C6.73034 44.1004 6.83667 44.026 6.92492 43.9327C9.01179 41.8458 9.03345 32.8485 13.6477 32.8485H13.7849C16.6733 32.9568 18.2546 33.7727 19.7205 33.7727C20.6809 33.7727 21.5835 33.4261 22.7605 32.3285C24.0893 31.0869 25.3386 29.7629 26.501 28.3642C22.5728 11.3516 30.2054 3.94285 33.9386 1.44439Z" fill="#0499AB"/>
<path d="M4.96846 26.9418C5.2285 27.0071 5.49946 27.0164 5.76338 26.9691C6.02731 26.9218 6.27816 26.819 6.49931 26.6674C7.22141 26.0464 7.31528 24.5011 7.37305 23.0569C7.45248 21.295 7.53191 19.4464 9.11331 19.3958C9.58989 19.3958 10.0232 19.3958 10.4131 19.3958C12.0956 19.3958 12.9404 19.3958 14.1608 18.1755C14.7143 17.5797 15.1657 16.8965 15.4967 16.1536C16.0743 15.0344 16.6665 13.8718 18.1829 13.4602C18.4261 13.4151 18.6544 13.3104 18.8473 13.1554C19.0401 13.0004 19.1914 12.7999 19.2877 12.572C19.6704 11.5972 19.1649 9.90746 17.8435 7.82059C16.847 6.21753 17.208 3.84905 18.8761 0.787354C11.8789 1.50945 1.48073 3.59632 0.260379 18.0311C0.0654121 20.2696 -0.00679772 22.3637 0.00764425 24.3278C0.0771388 24.327 0.146091 24.3401 0.210532 24.3661C0.274974 24.3921 0.333634 24.4306 0.383135 24.4794C1.62314 25.7507 3.22381 26.6102 4.96846 26.9418Z" fill="#0499AB"/>
<path d="M51.6436 2.44825C51.2178 2.44486 50.7926 2.47868 50.3727 2.54934C49.1182 2.73807 47.85 2.8202 46.5817 2.79485C42.0108 2.79485 35.9813 2.19551 35.9813 2.19551L35.1942 1.88501C32.1325 3.61805 23.4023 10.2686 27.5905 28.1261C28.3126 29.2164 30.0529 31.2889 32.3419 31.2889C33.2012 31.2754 34.0375 31.0092 34.7465 30.5234C36.4834 29.2793 38.2891 28.1341 40.155 27.0935C40.151 27.0647 40.151 27.0356 40.155 27.0068C39.9523 26.1086 39.593 25.2531 39.0935 24.4795C37.5338 22.2482 37.606 21.4755 37.9237 19.7858C37.9671 19.562 38.0176 19.3092 38.0609 19.0637C38.084 18.8529 38.1505 18.6491 38.2561 18.4652C38.3617 18.2813 38.5042 18.1212 38.6747 17.995C39.2813 17.5834 40.0756 17.7495 40.9132 17.9228C41.7508 18.0961 42.6462 18.2911 43.1589 17.8217C43.6716 17.3524 43.5778 16.8974 43.5417 15.9226C43.4189 14.9723 43.5151 14.0065 43.823 13.0991C44.1309 12.1917 44.6423 11.3668 45.318 10.6874C47.3254 8.57886 47.9537 8.57886 49.3834 9.69811C50.2002 10.381 51.1284 10.9184 52.1274 11.2867C54.6547 12.2182 54.5464 13.1497 54.0698 14.5723C53.5349 15.9021 53.5349 17.3873 54.0698 18.7171C54.1998 18.8471 54.5753 19.1287 54.8353 19.3237C55.1538 19.5477 55.4599 19.7887 55.7523 20.0458C57.4709 17.2729 58.1353 14.1029 59.3628 12.7526C61.6519 10.283 65.1396 8.17449 64.9952 6.59309C64.8219 5.17056 56.0701 2.44825 51.6436 2.44825Z" fill="#0499AB"/>
<path d="M54.1569 20.1829C53.3554 19.5764 53.1388 19.4031 53.0521 19.1648C52.4191 17.5767 52.4191 15.8064 53.0521 14.2184C53.4059 13.1497 53.4854 12.9331 51.7596 12.2904C50.6536 11.8863 49.6253 11.2952 48.7195 10.5429C47.788 9.82082 47.7086 9.74861 46.1127 11.4239C45.5375 11.9981 45.1037 12.6983 44.8455 13.469C44.5873 14.2397 44.5119 15.0599 44.6252 15.8648C44.6686 16.8468 44.7119 17.8506 43.9031 18.6088C43.0944 19.367 41.7368 19.1937 40.7042 18.977C40.1482 18.8615 39.5272 18.7315 39.3034 18.8832C39.2101 18.9756 39.1537 19.0988 39.1445 19.2298C39.094 19.5186 39.0506 19.7786 39.0001 20.0096C38.7329 21.4538 38.639 21.9304 39.9966 23.8801C40.545 24.7362 40.9386 25.6821 41.1592 26.6746C43.5197 25.8046 45.9751 25.218 48.474 24.9271C49.7873 24.7649 51.0528 24.3328 52.1911 23.658C53.3294 22.9833 54.3158 22.0804 55.0884 21.0061C55.0217 20.9658 54.9669 20.9085 54.9296 20.84C54.814 20.6884 54.4097 20.3851 54.1569 20.1829Z" fill="#0499AB"/>
</svg>
