<svg width="48" height="45" viewBox="0 0 48 45" fill="none" xmlns="http://www.w3.org/2000/svg">
<path fill-rule="evenodd" clip-rule="evenodd" d="M23.9784 19.54C23.9456 19.5359 23.9106 19.5338 23.886 19.5338C22.1321 19.5338 20.8997 18.4329 19.8954 16.8598C18.7618 15.0791 17.934 12.6987 17.1495 10.3243C16.1554 7.31339 15.2229 4.31045 13.927 2.3882C12.9124 0.88069 11.6637 -0.00246221 10.0966 0.00163887C7.22332 0.00985365 4.82671 2.26496 3.12371 5.68269C0.753603 10.4455 -0.330817 17.447 0.0881767 22.7169C1.0473 34.7562 3.71726 40.6055 6.26188 43.1318C8.23355 45.0912 10.2052 45.2309 11.5507 44.6969C12.4852 44.3272 13.6497 43.2304 14.7917 41.7948C17.2624 38.6936 19.766 34.0601 20.06 33.282C20.1544 33.0314 20.4481 32.8794 20.7993 32.7274C21.6003 32.3783 22.7361 32.2057 23.8719 32.1975C25.0055 32.1914 26.1434 32.3454 26.9506 32.6946C27.312 32.8506 27.6119 33.0191 27.7146 33.284C28.0144 34.0604 30.5139 38.6937 32.9829 41.7932C34.1248 43.2268 35.2873 44.3256 36.2238 44.6953C37.567 45.2272 39.5408 45.0875 41.5105 43.1302C44.0552 40.604 46.7232 34.7546 47.6843 22.7153C48.1032 17.4454 47.0188 10.4457 44.6487 5.68106C42.9461 2.26144 40.5493 0.00842674 37.6779 1.42639e-05C36.1129 -0.00409312 34.8683 0.879065 33.8578 2.38658C32.568 4.31104 31.6438 7.31576 30.658 10.3269C29.8796 12.7032 29.058 15.0815 27.9264 16.8644C26.9344 18.4274 25.7124 19.5221 23.979 19.5385L23.9784 19.54ZM40.7582 22.3969C40.5507 24.3644 40.1769 26.5168 39.5833 28.8518C39.4724 29.2914 39.7374 29.7391 40.179 29.85C40.6185 29.9609 41.0662 29.696 41.1771 29.2544C41.7912 26.835 42.1773 24.6045 42.393 22.5649C42.4381 22.1151 42.1116 21.7105 41.6618 21.6633C41.21 21.6161 40.8054 21.9426 40.7581 22.3944L40.7582 22.3969ZM38.0779 6.54355C38.0779 6.54355 40.5445 9.90565 40.9183 16.7757C40.9429 17.2296 41.3311 17.5767 41.7829 17.5521C42.2368 17.5275 42.5839 17.1393 42.5593 16.6875C42.1527 9.20142 39.3964 5.55987 39.3964 5.55987C39.1253 5.19634 38.6098 5.12035 38.2463 5.39146C37.8828 5.66256 37.8068 6.17808 38.0779 6.5416L38.0779 6.54355Z" fill="url(#paint0_linear_6468_258)"/>
<defs>
<linearGradient id="paint0_linear_6468_258" x1="0" y1="22.4826" x2="58.5526" y2="22.9184" gradientUnits="userSpaceOnUse">
<stop stop-color="#0499AB"/>
<stop offset="1" stop-color="#06646F" stop-opacity="0.6"/>
</linearGradient>
</defs>
</svg>
