<svg width="62" height="65" viewBox="0 0 62 65" fill="none" xmlns="http://www.w3.org/2000/svg">
<path d="M11.2698 11.274C14.383 11.274 16.9068 8.7502 16.9068 5.63698C16.9068 2.52376 14.383 0 11.2698 0C8.15657 0 5.63281 2.52376 5.63281 5.63698C5.63281 8.7502 8.15657 11.274 11.2698 11.274Z" fill="url(#paint0_linear_6125_197)"/>
<path d="M59.1814 5.63696H30.9965C29.4463 5.63696 28.178 6.90528 28.178 8.45545V19.7294H22.541V22.5479H28.178V33.8219C28.178 35.372 29.4463 36.6404 30.9965 36.6404H59.1814C60.7316 36.6404 61.9999 35.372 61.9999 33.8219V8.45545C61.9999 6.90528 60.7316 5.63696 59.1814 5.63696ZM59.1814 33.8219H30.9965V8.45545H59.1814V33.8219Z" fill="url(#paint1_linear_6125_197)"/>
<path d="M45.0943 31.0034C50.2718 25.8258 55.393 22.9988 56.2019 18.2102C56.3006 17.7931 56.3682 17.359 56.3682 16.9109C56.3682 13.7993 53.8429 11.2739 50.7313 11.2739C47.6196 11.2739 45.0943 13.7993 45.0943 16.9109C45.0943 13.7993 42.5689 11.2739 39.4573 11.2739C36.3457 11.2739 33.8203 13.7993 33.8203 16.9109C33.8203 17.359 33.8851 17.7931 33.9866 18.2102C34.7955 22.9988 39.9167 25.8258 45.0943 31.0034Z" fill="url(#paint2_linear_6125_197)"/>
<path d="M14.0924 19.7293H22.5479C22.5479 16.6289 20.0113 14.0923 16.9109 14.0923H5.63698C2.53664 14.0923 0 16.6289 0 19.7293V36.6402C0 39.7405 2.53664 42.2772 5.63698 42.2772V62.0066C5.63698 63.5568 6.9053 64.8251 8.45547 64.8251H14.0924C15.6426 64.8251 16.9109 63.5568 16.9109 62.0066V42.2772C20.0113 42.2772 22.5479 39.7405 22.5479 36.6402V22.5478H14.0924V19.7293Z" fill="url(#paint3_linear_6125_197)"/>
<defs>
<linearGradient id="paint0_linear_6125_197" x1="5.63281" y1="5.63698" x2="19.4509" y2="5.73379" gradientUnits="userSpaceOnUse">
<stop stop-color="#0499AB"/>
<stop offset="1" stop-color="#06646F" stop-opacity="0.6"/>
</linearGradient>
<linearGradient id="paint1_linear_6125_197" x1="22.541" y1="21.1387" x2="70.9029" y2="21.5699" gradientUnits="userSpaceOnUse">
<stop stop-color="#0499AB"/>
<stop offset="1" stop-color="#06646F" stop-opacity="0.6"/>
</linearGradient>
<linearGradient id="paint2_linear_6125_197" x1="33.8203" y1="21.1386" x2="61.4561" y2="21.3599" gradientUnits="userSpaceOnUse">
<stop stop-color="#0499AB"/>
<stop offset="1" stop-color="#06646F" stop-opacity="0.6"/>
</linearGradient>
<linearGradient id="paint3_linear_6125_197" x1="0" y1="39.4587" x2="27.6373" y2="39.5447" gradientUnits="userSpaceOnUse">
<stop stop-color="#0499AB"/>
<stop offset="1" stop-color="#06646F" stop-opacity="0.6"/>
</linearGradient>
</defs>
</svg>
