<svg width="48" height="53" viewBox="0 0 48 53" fill="none" xmlns="http://www.w3.org/2000/svg">
<path d="M47.7386 44.559C47.7447 45.3107 47.0998 45.9022 46.3563 45.8509C45.3048 45.8529 44.3641 45.7194 43.4255 45.4627C43.3968 45.9618 43.3311 46.5019 43.2448 46.962C43.0045 48.0362 43.0517 49.1719 43.5652 50.2379C43.8568 50.8807 43.5714 51.6427 42.9326 51.9405C42.2693 52.2342 41.5073 51.9282 41.2259 51.3038C40.8192 50.4145 40.5872 49.5006 40.542 48.5866C40.4249 46.8327 41.2115 45.6168 40.6262 43.9532C39.5931 43.0557 39.0365 41.9692 38.6298 41.1415C38.0178 39.786 37.3339 39.0651 36.0071 39.0897C35.1999 39.0897 34.438 39.1637 33.2735 38.6009L32.7477 38.3401C32.8093 38.9891 32.8606 39.5067 33.0742 40.2009C33.5528 41.8131 33.9759 41.9487 34.4277 43.6184C34.8097 45.2635 32.4109 45.9044 31.9405 44.2674C31.5339 42.8462 31.0759 42.5792 30.6097 40.9238C29.8929 38.3237 30.3776 37.5679 30.0469 34.8179C29.554 30.5275 28.9954 29.9052 28.2149 29.6156C28.1861 29.402 28.1492 29.1843 28.1122 28.9769C28.1081 28.9728 28.1081 28.9707 28.1081 28.9707L28.1122 28.9666C27.9623 28.2704 27.722 27.6707 27.8206 26.921C28.5702 26.9888 29.2438 27.2168 29.8723 27.568C30.815 26.7444 31.692 26.194 32.877 25.7031L32.8832 25.4505C32.8832 25.1568 32.7209 24.9432 32.6511 24.859C31.5523 23.5712 33.4008 21.9138 34.5632 23.1441C34.9041 23.4686 35.4977 24.5119 35.4546 25.545C37.7117 26.0358 38.4326 27.9089 38.3525 29.8005C38.3587 30.5337 38.3874 30.8049 38.4757 30.9548C38.5106 31.0225 38.5148 31.0267 38.5784 31.0677C38.601 31.0903 38.7817 31.1601 38.9111 31.1766C39.3445 31.2546 40.203 31.2382 41.8296 30.7247C43.4604 30.2647 44.208 32.6143 42.606 33.177C42.1172 33.3311 41.6551 33.444 41.1786 33.559C41.2875 33.9102 41.423 34.3374 41.4333 34.6763C41.4867 35.4157 40.8911 36.0565 40.1476 36.0524C39.4781 36.0524 38.9174 35.5287 38.8722 34.8612C38.8373 34.3703 38.3875 33.8979 38.1225 33.6597L38.0671 33.6145C37.5146 33.4522 37.0278 33.1791 36.6705 32.8012C35.814 31.9036 35.7955 30.7597 35.7812 29.8416C35.7709 29.1864 35.7647 28.6196 35.4875 28.3423C35.1671 28.0219 34.5099 27.9911 34.0231 28.0096C33.0516 28.3834 32.2876 28.8619 31.5195 29.5376C31.998 30.6857 32.2835 31.9221 32.5115 33.7212C32.9407 35.1877 34.0498 36.6951 35.697 36.5226C36.3829 36.5144 37.188 36.498 38.2273 36.9847C38.6442 37.1798 38.9954 37.4119 39.326 37.6954C40.125 37.9069 41.2608 38.1267 41.6592 38.0856C42.1706 38.0137 43.0065 37.6522 43.4193 37.4386C43.7192 37.2805 44.0663 37.2476 44.3929 37.3524C45.4732 37.6584 45.6108 39.2193 44.6085 39.7184C44.6106 39.7512 42.834 40.6015 41.7968 40.6426L41.2546 40.6919C42.3226 42.5219 43.9493 43.2756 46.2762 43.2859C47.0259 43.1893 47.7427 43.7827 47.7386 44.559ZM17.9705 12.3445C18.0711 14.8256 19.6999 16.6001 22.1603 19.2843C23.3783 20.6131 23.9595 21.219 24.9967 21.7304C27.3401 22.8374 29.3035 22.5272 31.0799 22.0898L31.0245 22.2192C32.0678 21.4552 33.0372 20.5823 33.7807 19.4403C35.1403 17.366 34.4071 12.2293 32.9469 1.98918C32.8339 1.182 32.7107 0.551487 32.2198 0.208521C29.4389 -1.19836 22.8851 4.86661 19.4739 7.83022C18.1594 9.69306 17.9294 11.3135 17.9705 12.3445ZM27.1511 27.4134C27.0464 25.4129 28.4266 24.0143 29.9525 22.9936C26.7383 23.505 24.0701 22.6506 21.6878 19.7238C17.9868 15.6881 15.9432 13.2914 18.3278 8.4506C17.4446 8.85726 16.6333 9.44258 16.1302 10.299C15.397 11.6895 14.292 12.9094 12.729 13.3202C12.2546 13.4578 11.7801 13.618 11.3139 13.7885C9.47575 14.4765 7.71976 15.4254 6.18553 16.6577C15.251 12.739 23.4376 22.2581 27.1511 27.4134ZM27.6358 30.416C27.8207 33.314 26.8965 35.5403 25.8162 38.2454C24.9433 40.2438 23.4461 41.9916 22.4458 43.9512C20.8705 47.0032 18.1204 50.9036 14.2673 49.7C13.1295 49.2934 12.1827 48.3712 11.2729 47.484C9.75919 45.9867 7.71359 44.5942 6.53059 43.0642C4.24465 40.3573 0.806424 36.299 0.200727 32.3451C-0.571538 27.188 0.894913 21.9957 4.42132 18.2784C13.144 12.733 21.1474 20.7389 25.1896 25.9164C26.0009 26.9043 26.7608 27.9415 27.4509 29.0074C27.5351 29.41 27.6133 29.956 27.6358 30.416ZM20.1519 41.0426C17.5887 44.1623 15.0441 44.8257 12.1706 41.6751C9.73474 39.4159 7.52483 36.9452 5.30073 34.4704C7.12246 37.2738 9.2934 39.8491 11.731 42.1478C13.8608 44.3023 16.0502 45.2532 18.5867 43.0165C19.2151 42.4414 19.7391 41.7696 20.1519 41.0426Z" fill="url(#paint0_linear_6468_233)"/>
<defs>
<linearGradient id="paint0_linear_6468_233" x1="0" y1="26.0265" x2="58.512" y2="26.4024" gradientUnits="userSpaceOnUse">
<stop stop-color="#0499AB"/>
<stop offset="1" stop-color="#06646F" stop-opacity="0.6"/>
</linearGradient>
</defs>
</svg>
