<svg width="49" height="45" viewBox="0 0 49 45" fill="none" xmlns="http://www.w3.org/2000/svg">
<path d="M17.3912 40.4692C21.7949 41.2472 26.2422 40.2638 29.9096 37.7002C37.7642 32.2059 49.321 14.6584 44.1636 7.28492C42.2819 4.59458 38.3634 3.53027 33.765 3.53027C25.7616 3.53027 15.6931 6.75604 10.7036 10.2441C7.03638 12.8098 4.58847 16.6474 3.80855 21.0533C3.03053 25.4593 4.01398 29.9044 6.57755 33.5718C9.14329 37.2391 12.9809 39.687 17.3868 40.4669L17.3912 40.4692ZM17.8698 35.2328C17.4371 35.9846 16.576 36.3867 15.4242 36.3867C15.2822 36.3867 15.1335 36.3801 14.9827 36.3692C13.8375 36.2752 12.5241 35.8294 11.2827 35.1125C10.0413 34.3957 8.99889 33.4822 8.34541 32.538C7.56085 31.4038 7.39692 30.3154 7.88427 29.4696C8.37164 28.626 9.39662 28.2195 10.7713 28.3353C11.9165 28.4293 13.23 28.8752 14.4714 29.592C15.7128 30.3088 16.7552 31.2224 17.4087 32.1665C18.1932 33.3008 18.3572 34.3892 17.8698 35.235L17.8698 35.2328ZM20.2104 38.7339C19.7274 38.7339 19.3319 38.3427 19.3319 37.8597C19.3319 37.3767 19.7187 36.9855 20.2017 36.9855H20.2105C20.6934 36.9855 21.0846 37.3767 21.0846 37.8597C21.0846 38.3427 20.6934 38.7339 20.2104 38.7339ZM22.2408 34.8416C21.7578 34.8416 21.3622 34.4504 21.3622 33.9674C21.3622 33.4844 21.749 33.0932 22.232 33.0932H22.2408C22.7238 33.0932 23.115 33.4844 23.115 33.9674C23.115 34.4504 22.7237 34.8416 22.2408 34.8416ZM25.2349 37.3789C24.7519 37.3789 24.3563 36.9877 24.3563 36.5047C24.3563 36.0217 24.7432 35.6305 25.2262 35.6305H25.2349C25.7179 35.6305 26.1091 36.0217 26.1091 36.5047C26.1091 36.9877 25.7179 37.3789 25.2349 37.3789ZM34.1038 32.7675C33.846 33.7882 32.7073 34.3673 31.1753 34.3673C30.6114 34.3673 29.9973 34.2887 29.3526 34.1269C26.9529 33.5194 25.4668 32.066 25.8187 30.6739C25.9301 30.2324 26.3279 29.45 27.7419 29.1724C28.5637 29.0129 29.5668 29.0631 30.5699 29.3167C31.5709 29.5702 32.4801 30.0029 33.1247 30.5362C34.235 31.4519 34.2131 32.3283 34.1017 32.7697L34.1038 32.7675ZM32.1063 25.8462C32.1063 25.3632 32.4932 24.972 32.9762 24.972H32.9849C33.4679 24.972 33.8591 25.3632 33.8591 25.8462C33.8591 26.3292 33.4679 26.7204 32.9849 26.7204C32.5019 26.7204 32.1063 26.3292 32.1063 25.8462ZM36.3068 6.42589C37.6312 5.414 39.8954 6.38873 41.6919 8.74467C42.4546 9.74565 42.99 10.8406 43.1998 11.8306C43.5495 13.4697 42.9114 14.239 42.5005 14.5537C42.2645 14.7351 41.8602 14.9471 41.2744 14.9471C40.8461 14.9471 40.3194 14.8334 39.69 14.5056C38.7917 14.0401 37.876 13.2337 37.1154 12.2327C35.3212 9.87895 34.9802 7.43564 36.3068 6.42589ZM32.9762 9.6145H32.9849C33.4679 9.6145 33.8591 10.0057 33.8591 10.4887C33.8591 10.9717 33.4679 11.3629 32.9849 11.3629C32.5019 11.3629 32.1063 10.9717 32.1063 10.4887C32.1063 10.0057 32.4932 9.6145 32.9762 9.6145ZM35.2578 15.5853C36.3811 16.1492 37.3449 16.8966 37.9678 17.6943C39.0016 19.0144 38.7677 19.9847 38.536 20.4458C38.3109 20.8961 37.6968 21.6391 36.1102 21.6391C36.0708 21.6391 36.0315 21.6391 35.99 21.6369C34.9781 21.6151 33.8023 21.2916 32.6767 20.7278C30.0301 19.4012 28.6511 17.3578 29.3985 15.8672C30.1459 14.3767 32.609 14.2587 35.2557 15.5831L35.2578 15.5853ZM29.4598 13.0305C29.4598 13.5135 29.0686 13.9047 28.5856 13.9047C28.1027 13.9047 27.7071 13.5135 27.7071 13.0305C27.7071 12.5475 28.0939 12.1563 28.5769 12.1563H28.5857C29.0687 12.1563 29.4598 12.5475 29.4598 13.0305ZM28.2251 7.79841H28.2338C28.7168 7.79841 29.108 8.18962 29.108 8.67261C29.108 9.1556 28.7168 9.5468 28.2338 9.5468C27.7508 9.5468 27.3552 9.1556 27.3552 8.67261C27.3552 8.18962 27.7421 7.79841 28.2251 7.79841ZM15.7983 9.09877C16.4562 8.33166 17.4506 7.62576 18.6001 7.11215C21.3036 5.90355 23.7579 6.13305 24.44 7.65415C25.1197 9.17528 23.651 11.1575 20.9498 12.3661C19.8439 12.86 18.701 13.1288 17.7153 13.1288H17.6017C15.9254 13.0939 15.3222 12.2961 15.1124 11.8241C14.9026 11.3521 14.7103 10.3707 15.8009 9.0988L15.7983 9.09877ZM20.5474 13.5943C25.2572 13.5943 29.0908 17.4277 29.0908 22.1377C29.0908 26.8476 25.2574 30.681 20.5474 30.681C15.8377 30.681 12.0041 26.8476 12.0041 22.1377C12.0041 17.4277 15.8375 13.5943 20.5474 13.5943ZM9.02315 12.8841C9.38594 12.53 9.77499 12.1869 10.1771 11.8678C10.553 11.5662 11.1037 11.6296 11.4053 12.0077C11.7069 12.3858 11.6435 12.9343 11.2655 13.2359C10.9092 13.52 10.5661 13.8217 10.2448 14.1342C10.0744 14.3003 9.85583 14.3833 9.63512 14.3833C9.40782 14.3833 9.18053 14.2959 9.01006 14.1189C8.6735 13.7736 8.68005 13.2206 9.02536 12.8819L9.02315 12.8841ZM5.99186 27.6623C5.93067 27.6754 5.87166 27.6798 5.81265 27.6798C5.40834 27.6798 5.04336 27.3957 4.95815 26.9848C4.49701 24.7731 4.08396 20.4237 6.50983 16.1403C6.68467 15.83 6.86825 15.5349 7.0562 15.253C7.32283 14.8509 7.86482 14.7416 8.26698 15.0104C8.66911 15.2771 8.77838 15.8212 8.50957 16.2212C8.34565 16.4682 8.18612 16.7261 8.03094 16.9992C5.88918 20.7845 6.2585 24.6575 6.66938 26.6263C6.76773 27.0984 6.46394 27.5617 5.9919 27.66L5.99186 27.6623Z" fill="url(#paint0_linear_6468_247)"/>
<path d="M40.4966 12.9514C41.0254 13.2246 41.3577 13.2246 41.4429 13.1612C41.5281 13.0956 41.6155 12.7765 41.491 12.193C41.3358 11.463 40.903 10.591 40.302 9.80427C39.1503 8.29193 37.9745 7.77832 37.5243 7.77832C37.4522 7.77832 37.3997 7.79143 37.367 7.81547C37.1353 7.99031 37.1703 9.41963 38.5078 11.1724C39.1088 11.9591 39.8322 12.6082 40.4966 12.9514Z" fill="url(#paint1_linear_6468_247)"/>
<path d="M20.5482 25.9307C22.6419 25.9307 24.3421 24.2282 24.3421 22.1368C24.3421 20.043 22.6396 18.3428 20.5482 18.3428C18.4545 18.3428 16.752 20.0453 16.752 22.1368C16.752 24.2305 18.4545 25.9307 20.5482 25.9307Z" fill="url(#paint2_linear_6468_247)"/>
<path d="M20.3232 44.2734C24.4975 44.2734 28.5146 43.0059 31.9437 40.6062C39.6629 35.208 54.0697 15.2548 47.0716 5.24953C44.6676 1.81396 40.0607 0 33.7447 0C25.4291 0 14.6478 3.15365 8.67082 7.33652C4.22773 10.4443 1.25989 15.0971 0.315478 20.4363C-0.628653 25.7755 0.56244 31.1627 3.67239 35.6078C7.46637 41.0344 13.6905 44.2754 20.3215 44.2754L20.3232 44.2734ZM2.09184 20.751C2.95295 15.8861 5.65638 11.6443 9.70587 8.81161C18.2509 2.83407 39.7955 -2.01554 45.6002 6.28083C51.4048 14.5772 39.461 33.1534 30.9159 39.131C27.6945 41.3842 23.999 42.466 20.3383 42.466C14.4984 42.466 8.74635 39.7145 5.1511 34.5762C2.31871 30.5264 1.23253 25.6154 2.09363 20.7507L2.09184 20.751Z" fill="url(#paint3_linear_6468_247)"/>
<path d="M33.4634 19.1647C34.3485 19.6084 35.2839 19.8728 36.0313 19.8903C36.617 19.9034 36.9252 19.757 36.9732 19.663C37.0213 19.5668 36.9601 19.2412 36.593 18.7713C36.1318 18.1834 35.3604 17.5911 34.4752 17.1475C33.3803 16.5989 32.4558 16.4263 31.8307 16.4263C31.3325 16.4263 31.0221 16.5355 30.9653 16.6514C30.8341 16.9093 31.492 18.179 33.4633 19.1669L33.4634 19.1647Z" fill="url(#paint4_linear_6468_247)"/>
<path d="M20.5489 28.9317C24.2948 28.9317 27.3438 25.8829 27.3438 22.1367C27.3438 18.3905 24.2972 15.3418 20.5489 15.3418C16.8029 15.3418 13.7539 18.3905 13.7539 22.1367C13.7539 25.8829 16.8027 28.9317 20.5489 28.9317ZM20.5489 16.5945C23.6063 16.5945 26.0912 19.0816 26.0912 22.1369C26.0912 25.1921 23.6041 27.6792 20.5489 27.6792C17.4936 27.6792 15.0042 25.1921 15.0042 22.1369C15.0042 19.0816 17.4913 16.5945 20.5489 16.5945Z" fill="url(#paint5_linear_6468_247)"/>
<path d="M17.6396 11.3778C18.398 11.3975 19.3334 11.1724 20.236 10.7681C22.2489 9.86767 22.9635 8.63071 22.8433 8.36624C22.7865 8.23729 22.4193 8.09961 21.8271 8.09961C21.2085 8.09961 20.341 8.24822 19.3137 8.70715C18.4089 9.11147 17.6134 9.6688 17.126 10.2348C16.737 10.6872 16.6627 11.0107 16.7064 11.109C16.7501 11.2074 17.0408 11.3669 17.6375 11.38L17.6396 11.3778Z" fill="url(#paint6_linear_6468_247)"/>
<path d="M30.1415 31.01C29.6192 30.8767 29.1581 30.8286 28.7712 30.8286C28.0435 30.8286 27.5867 31.0035 27.5059 31.1236C27.5408 31.2985 28.2708 32.0481 29.7831 32.4306C31.2387 32.7977 32.22 32.5223 32.4014 32.3366C32.3292 32.0874 31.5971 31.3772 30.1415 31.0078V31.01Z" fill="url(#paint7_linear_6468_247)"/>
<path d="M13.6011 31.1035C12.5936 30.5221 11.5118 30.1463 10.6332 30.0741C10.5261 30.0654 10.4278 30.061 10.3338 30.061C9.80492 30.061 9.48803 30.1922 9.40277 30.3408C9.30223 30.5156 9.38091 30.9527 9.78741 31.5384C10.2901 32.264 11.1555 33.0136 12.1609 33.595C13.1684 34.1763 14.2502 34.5522 15.1288 34.6243C15.8368 34.6811 16.2586 34.5325 16.3592 34.3577C16.4597 34.1828 16.3788 33.7457 15.9745 33.16C15.4719 32.4344 14.6065 31.6848 13.6011 31.1035Z" fill="url(#paint8_linear_6468_247)"/>
<defs>
<linearGradient id="paint0_linear_6468_247" x1="3.54883" y1="22.1296" x2="54.8992" y2="22.5348" gradientUnits="userSpaceOnUse">
<stop stop-color="#0499AB"/>
<stop offset="1" stop-color="#06646F" stop-opacity="0.6"/>
</linearGradient>
<linearGradient id="paint1_linear_6468_247" x1="37.2578" y1="10.487" x2="42.5224" y2="10.5162" gradientUnits="userSpaceOnUse">
<stop stop-color="#0499AB"/>
<stop offset="1" stop-color="#06646F" stop-opacity="0.6"/>
</linearGradient>
<linearGradient id="paint2_linear_6468_247" x1="16.752" y1="22.1368" x2="26.055" y2="22.2019" gradientUnits="userSpaceOnUse">
<stop stop-color="#0499AB"/>
<stop offset="1" stop-color="#06646F" stop-opacity="0.6"/>
</linearGradient>
<linearGradient id="paint3_linear_6468_247" x1="0" y1="22.1377" x2="59.9782" y2="22.6021" gradientUnits="userSpaceOnUse">
<stop stop-color="#0499AB"/>
<stop offset="1" stop-color="#06646F" stop-opacity="0.6"/>
</linearGradient>
<linearGradient id="paint4_linear_6468_247" x1="30.9492" y1="18.1587" x2="38.3493" y2="18.249" gradientUnits="userSpaceOnUse">
<stop stop-color="#0499AB"/>
<stop offset="1" stop-color="#06646F" stop-opacity="0.6"/>
</linearGradient>
<linearGradient id="paint5_linear_6468_247" x1="13.7539" y1="22.1367" x2="30.4106" y2="22.2534" gradientUnits="userSpaceOnUse">
<stop stop-color="#0499AB"/>
<stop offset="1" stop-color="#06646F" stop-opacity="0.6"/>
</linearGradient>
<linearGradient id="paint6_linear_6468_247" x1="16.6953" y1="9.73982" x2="24.2455" y2="9.83916" gradientUnits="userSpaceOnUse">
<stop stop-color="#0499AB"/>
<stop offset="1" stop-color="#06646F" stop-opacity="0.6"/>
</linearGradient>
<linearGradient id="paint7_linear_6468_247" x1="27.5059" y1="31.72" x2="33.5042" y2="31.8354" gradientUnits="userSpaceOnUse">
<stop stop-color="#0499AB"/>
<stop offset="1" stop-color="#06646F" stop-opacity="0.6"/>
</linearGradient>
<linearGradient id="paint8_linear_6468_247" x1="9.36328" y1="32.3488" x2="17.9853" y2="32.4417" gradientUnits="userSpaceOnUse">
<stop stop-color="#0499AB"/>
<stop offset="1" stop-color="#06646F" stop-opacity="0.6"/>
</linearGradient>
</defs>
</svg>
