<svg width="82" height="58" viewBox="0 0 82 58" fill="none" xmlns="http://www.w3.org/2000/svg">
<path d="M52.3165 18.8009C50.2485 16.7329 49.1449 13.9789 49.2145 11.0559C49.2344 10.2804 49.3438 9.51481 49.5227 8.77907C44.2732 3.37045 36.9357 0 28.8327 0C12.935 0 0 12.935 0 28.8327C0 36.1503 2.75402 43.1398 7.75501 48.4987C8.42115 49.2145 8.47086 50.3181 7.85444 51.0936L2.62477 57.6655H28.8327C44.7305 57.6655 57.6655 44.7305 57.6655 28.8327C57.6655 27.073 57.4965 25.3529 57.1883 23.6727L52.3165 18.8009ZM42.752 41.7578C42.752 42.8514 41.8572 43.7462 40.7635 43.7462H16.902C15.7984 43.7462 14.9135 42.8514 14.9135 41.7578V39.1628C14.9135 34.3806 17.3096 30.0358 21.2368 27.58C20.3818 26.208 19.8847 24.5973 19.8847 22.8673C19.8847 17.936 23.8914 13.9193 28.8327 13.9193C33.7641 13.9193 37.7808 17.936 37.7808 22.8673C37.7808 24.5973 37.2738 26.208 36.4187 27.58C40.346 30.0358 42.752 34.3806 42.752 39.1628V41.7578Z" fill="url(#paint0_linear_6125_114)"/>
<path d="M78.855 6.40311C76.2899 4.06667 72.1141 4.24563 69.559 6.80081L68.515 7.84475C68.1472 8.21262 67.6401 8.43135 67.1132 8.43135C66.5862 8.43135 66.0792 8.22256 65.7013 7.84475L64.6574 6.80081C63.3052 5.44865 61.4957 4.76263 59.7161 4.76263C58.1352 4.76263 56.5743 5.29951 55.3613 6.40311C54.0092 7.63596 53.2337 9.32616 53.1939 11.1456C53.1442 12.975 53.8401 14.695 55.1326 15.9875L65.5721 26.427C66.3973 27.2522 67.829 27.2522 68.6443 26.427L79.0937 15.9875C80.3862 14.695 81.0722 12.975 81.0225 11.1456C80.9827 9.32616 80.2171 7.63596 78.855 6.40311Z" fill="url(#paint1_linear_6125_114)"/>
<path d="M33.6291 30.553L33.4998 30.4834C32.1377 31.3186 30.5469 31.8157 28.8369 31.8157C27.1268 31.8157 25.5261 31.3186 24.1739 30.4834L24.0347 30.553C20.8631 32.1935 18.8945 35.4943 18.8945 39.163V39.7695H38.7792V39.163C38.7792 35.4943 36.8007 32.1935 33.6291 30.553Z" fill="url(#paint2_linear_6125_114)"/>
<path d="M28.8344 27.8388C31.5799 27.8388 33.8056 25.6131 33.8056 22.8676C33.8056 20.1221 31.5799 17.8965 28.8344 17.8965C26.0889 17.8965 23.8633 20.1221 23.8633 22.8676C23.8633 25.6131 26.0889 27.8388 28.8344 27.8388Z" fill="url(#paint3_linear_6125_114)"/>
<defs>
<linearGradient id="paint0_linear_6125_114" x1="0" y1="28.8327" x2="70.6786" y2="29.3279" gradientUnits="userSpaceOnUse">
<stop stop-color="#0499AB"/>
<stop offset="1" stop-color="#06646F" stop-opacity="0.6"/>
</linearGradient>
<linearGradient id="paint1_linear_6125_114" x1="53.1914" y1="15.9036" x2="87.3051" y2="16.2021" gradientUnits="userSpaceOnUse">
<stop stop-color="#0499AB"/>
<stop offset="1" stop-color="#06646F" stop-opacity="0.6"/>
</linearGradient>
<linearGradient id="paint2_linear_6125_114" x1="18.8945" y1="35.1265" x2="43.2622" y2="35.492" gradientUnits="userSpaceOnUse">
<stop stop-color="#0499AB"/>
<stop offset="1" stop-color="#06646F" stop-opacity="0.6"/>
</linearGradient>
<linearGradient id="paint3_linear_6125_114" x1="23.8633" y1="22.8676" x2="36.0492" y2="22.953" gradientUnits="userSpaceOnUse">
<stop stop-color="#0499AB"/>
<stop offset="1" stop-color="#06646F" stop-opacity="0.6"/>
</linearGradient>
</defs>
</svg>
