<svg width="49" height="48" viewBox="0 0 49 48" fill="none" xmlns="http://www.w3.org/2000/svg">
<path d="M39.1583 21.5034L38.0195 23.4723L38.5243 25.3528L36.3519 29.1186C35.3327 30.8842 32.7536 31.7455 30.8277 31.0302L37.0339 20.2757L39.1583 21.5034ZM36.8879 18.5774L40.7015 20.7785L41.8547 18.7808L38.0434 16.5797L36.8879 18.5774ZM47.9002 3.91169C46.8523 3.30639 45.4981 3.66766 44.8928 4.71556L38.7417 15.3696L42.5529 17.5707L48.7065 6.91667C49.3118 5.86879 48.9505 4.51461 47.9026 3.91175L47.9002 3.91169ZM7.74511 18.118C7.76185 18.2807 7.78578 18.441 7.8097 18.6013C9.42939 18.3357 11.0443 17.8716 12.6425 17.2831C14.4751 16.606 16.2719 15.7735 18.0256 14.8954C18.2289 14.7925 18.461 14.8021 18.6524 14.8978C20.4037 15.7758 22.1981 16.6061 24.0331 17.2831C25.6313 17.8692 27.2462 18.3334 28.8659 18.6013C28.8922 18.4386 28.9114 18.2783 28.9305 18.1133C28.9305 18.0989 28.9329 18.0869 28.9329 18.0726C28.976 17.697 28.9951 17.3118 28.9951 16.9266V10.2469H7.67792V16.9266C7.67792 17.3118 7.69706 17.697 7.74012 18.0726C7.74252 18.0869 7.74252 18.1013 7.74491 18.1156L7.74511 18.118ZM28.9949 6.18213C28.9949 4.4835 28.3011 2.93792 27.179 1.81586C26.057 0.693811 24.5138 0 22.8128 0H13.8602C12.1616 0 10.6136 0.693811 9.49158 1.81586C8.37191 2.93792 7.67571 4.48111 7.67571 6.18213V8.84737H28.9929V6.18213H28.9949ZM31.7917 15.9793C32.1984 15.2543 32.2798 14.4361 32.0764 13.692C31.873 12.9504 31.3826 12.2829 30.6601 11.8737C30.5739 11.8259 30.4878 11.7804 30.3969 11.7398V16.9267C30.3969 17.0319 30.3969 17.1372 30.3945 17.2401C30.5524 17.1731 30.7031 17.0894 30.8467 16.9937C31.2271 16.7425 31.5524 16.3979 31.7941 15.9768L31.7917 15.9793ZM18.3387 28.9846C17.1018 28.9846 15.9055 28.7979 14.7787 28.4462V30.3196C14.7787 30.5875 14.628 30.8244 14.4055 30.9392C13.6805 31.3962 12.9461 31.8196 12.2068 32.2168C12.0441 32.3053 11.8838 32.389 11.7187 32.4751L16.9631 40.8415C17.1257 41.0951 17.3195 41.2913 17.5349 41.4277C17.7813 41.5808 18.0588 41.6574 18.3387 41.6574C18.6162 41.6574 18.8938 41.5808 19.1402 41.4277C19.3555 41.2913 19.5541 41.0975 19.712 40.8415L24.9563 32.4751C24.7912 32.389 24.6309 32.3053 24.4683 32.2168C23.7146 31.8124 22.9682 31.3794 22.2241 30.9105C22.0112 30.7765 21.8987 30.5516 21.8987 30.3171H21.8963V28.4438C20.7695 28.7955 19.5732 28.9821 18.3387 28.9821L18.3387 28.9846ZM36.6768 47.8708H0C1.10772 37.5212 3.98347 36.167 8.85944 33.8727C9.18721 33.7196 9.52453 33.5617 9.90254 33.3799C10.0963 33.2889 10.2853 33.1956 10.472 33.1047L15.7809 41.574C16.0584 42.0166 16.4077 42.3587 16.7977 42.6052C17.2762 42.9019 17.8097 43.0526 18.3385 43.0526C18.8672 43.0526 19.3983 42.9019 19.8768 42.6052C20.2668 42.3588 20.6161 42.0166 20.8936 41.574L26.2026 33.1047C26.3916 33.1956 26.583 33.2889 26.772 33.3799C27.1476 33.5617 27.485 33.7196 27.8151 33.8727C32.6909 36.1671 35.5688 37.5212 36.6768 47.8708ZM32.0785 40.4635H29.9253V38.3103H27.0662V40.4635H24.913V43.3226H27.0662V45.4758H29.9253V43.3226H32.0785V40.4635ZM28.5543 19.9622C26.8605 19.6775 25.1929 19.2014 23.5517 18.5961C21.7884 17.9477 20.0467 17.1486 18.3385 16.2993C16.6278 17.1486 14.8861 17.9477 13.1229 18.5961C11.4864 19.199 9.81649 19.6775 8.12257 19.9622C8.63456 21.68 9.57242 23.2184 10.8093 24.4552C11.807 25.4481 12.9936 26.252 14.3143 26.7927C14.3335 26.8023 14.355 26.807 14.3717 26.8142C15.6015 27.3119 16.9389 27.5846 18.3409 27.5846C19.7429 27.5846 21.0803 27.3119 22.3076 26.8142C22.3268 26.8047 22.3435 26.7999 22.3651 26.7927C23.6857 26.252 24.8748 25.4505 25.8701 24.4552C27.1069 23.2184 28.0424 21.68 28.5592 19.9622H28.5543ZM6.01468 17.1079C6.1032 17.1558 6.18933 17.2012 6.28264 17.2419C6.28025 17.1367 6.27785 17.0314 6.27785 16.9285V11.7416C6.11277 11.8157 5.95487 11.9043 5.80414 12.0048C5.4357 12.256 5.11511 12.5933 4.88304 13.0072C4.47153 13.7297 4.39258 14.5479 4.59594 15.2896C4.80409 16.0313 5.28976 16.6988 6.01229 17.108L6.01468 17.1079Z" fill="url(#paint0_linear_6468_283)"/>
<defs>
<linearGradient id="paint0_linear_6468_283" x1="0" y1="23.9354" x2="60.0574" y2="24.3661" gradientUnits="userSpaceOnUse">
<stop stop-color="#0499AB"/>
<stop offset="1" stop-color="#06646F" stop-opacity="0.6"/>
</linearGradient>
</defs>
</svg>
