<svg width="47" height="42" viewBox="0 0 47 42" fill="none" xmlns="http://www.w3.org/2000/svg">
<path d="M13.0076 35.5353C13.0859 35.457 13.1369 35.355 13.1516 35.2456L13.4308 33.1982L18.9178 27.7102C19.5288 28.2459 20.3048 28.5383 21.1287 28.5383C22.0289 28.5383 22.8717 28.1907 23.5042 27.5577L44.9302 6.13217C46.2394 4.82245 46.2394 2.69252 44.9302 1.38385L44.5264 0.98006C43.895 0.348073 43.0511 0 42.152 0C41.2529 0 40.4101 0.348599 39.7776 0.98006L38.1288 2.6289V2.62996L30.7689 9.99034L18.9899 21.7683C18.9899 21.7694 18.9899 21.7694 18.9888 21.7694L0.148568 40.6096C0.0213297 40.7369 -0.0280887 40.9209 0.015551 41.0933C0.0591907 41.2669 0.19116 41.4057 0.362038 41.4556C0.459833 41.4856 1.56397 41.8042 3.06928 41.8042C3.36582 41.8042 3.6776 41.79 3.9999 41.7627H21.8349C22.1151 41.7627 22.3428 41.535 22.3428 41.2548C22.3428 40.9735 22.1151 40.7463 21.8349 40.7463H7.38802C7.97216 40.4182 8.54317 39.9997 9.07841 39.4645L13.0076 35.5353ZM37.5331 4.66314L38.5589 3.63577C38.8254 3.81979 39.0746 4.028 39.3049 4.25777C40.174 5.1274 40.7025 6.26204 40.8313 7.45766C40.612 6.4897 40.1262 5.58746 39.4064 4.86714C39.1761 4.63738 38.9269 4.42917 38.6603 4.24515L37.6345 5.27252L31.4477 11.4594C31.3378 11.3295 31.2353 11.1954 31.1396 11.055L37.5331 4.66314ZM1.53294 40.6622L17.3726 24.8226C17.3815 25.6302 17.6733 26.392 18.1996 26.9925L12.5917 32.6015C12.5123 32.6793 12.4613 32.7813 12.4476 32.8917L12.1684 34.938L8.35967 38.7468C6.1067 40.9992 3.02563 40.8851 1.53294 40.6622Z" fill="url(#paint0_linear_6468_224)"/>
<path d="M34.1725 40.7466H32.2692C32.2634 40.7466 32.2582 40.7466 32.2524 40.7471C32.2466 40.7466 32.2413 40.7466 32.2355 40.7466H30.5699H24.2716C23.9913 40.7466 23.7637 40.9737 23.7637 41.2545C23.7637 41.5347 23.9913 41.7624 24.2716 41.7624H30.5699H32.2355C32.2413 41.7624 32.2466 41.7624 32.2524 41.7624C32.2582 41.7624 32.2634 41.7624 32.2692 41.7624H34.1725C34.4528 41.7624 34.6804 41.5347 34.6804 41.2545C34.6804 40.9732 34.4533 40.7466 34.1725 40.7466Z" fill="url(#paint1_linear_6468_224)"/>
<path d="M46.1129 40.7466H39.8145C39.5338 40.7466 39.3066 40.9737 39.3066 41.2545C39.3066 41.5347 39.5338 41.7624 39.8145 41.7624H46.1129C46.3931 41.7624 46.6208 41.5347 46.6208 41.2545C46.6208 40.9732 46.3936 40.7466 46.1129 40.7466Z" fill="url(#paint2_linear_6468_224)"/>
<defs>
<linearGradient id="paint0_linear_6468_224" x1="0" y1="20.9021" x2="56.2723" y2="21.3351" gradientUnits="userSpaceOnUse">
<stop stop-color="#0499AB"/>
<stop offset="1" stop-color="#06646F" stop-opacity="0.6"/>
</linearGradient>
<linearGradient id="paint1_linear_6468_224" x1="23.7637" y1="41.2545" x2="37.0692" y2="42.2563" gradientUnits="userSpaceOnUse">
<stop stop-color="#0499AB"/>
<stop offset="1" stop-color="#06646F" stop-opacity="0.6"/>
</linearGradient>
<linearGradient id="paint2_linear_6468_224" x1="39.3066" y1="41.2545" x2="48.249" y2="41.7056" gradientUnits="userSpaceOnUse">
<stop stop-color="#0499AB"/>
<stop offset="1" stop-color="#06646F" stop-opacity="0.6"/>
</linearGradient>
</defs>
</svg>
