<svg width="54" height="54" viewBox="0 0 54 54" fill="none" xmlns="http://www.w3.org/2000/svg">
<path d="M46.2571 9.49365H32.252V10.9307C32.252 11.6275 32.1823 12.3069 32.0517 12.9688H44.8634V33.9155H9.13616V12.9688H11.0261C10.8955 12.3068 10.8258 11.6275 10.8258 10.9307V9.49365H7.74262C6.70615 9.49365 5.86133 10.3385 5.86133 11.3836V35.5093C5.86133 36.5545 6.70615 37.3993 7.74262 37.3993H13.4038V38.7928C13.4038 39.2893 13.8044 39.6986 14.3009 39.6986H17.8283C18.3247 39.6986 18.7254 39.2893 18.7254 38.7928V37.3993H35.2741V38.7928C35.2741 39.2893 35.6747 39.6986 36.1712 39.6986H39.6986C40.195 39.6986 40.5957 39.2893 40.5957 38.7928V37.3993H46.2568C47.2933 37.3993 48.1381 36.5545 48.1381 35.5093V11.3836C48.1381 10.3385 47.2936 9.49365 46.2571 9.49365Z" fill="url(#paint0_linear_6125_82)"/>
<path d="M0.330761 51.9444C0.670442 53.1638 1.7766 53.9999 3.03949 53.9999H50.9865C52.2407 53.9999 53.3381 53.0854 53.6777 51.8834L54 49.8628H0L0.330968 51.9531L0.330761 51.9444Z" fill="url(#paint1_linear_6125_82)"/>
<path d="M48.7217 40.7527C48.3995 40.204 47.8072 39.8643 47.1714 39.8643H42.6511C42.2069 41.0749 41.0485 41.9459 39.6898 41.9459H36.1624C34.8037 41.9459 33.6453 41.0836 33.2011 39.8643H20.7813C20.3371 41.0749 19.1787 41.9459 17.82 41.9459H14.2926C12.9339 41.9459 11.7755 41.0836 11.3313 39.8643H6.81094C6.18384 39.8643 5.58289 40.2039 5.26065 40.7527L0 48.0164H54L48.7217 40.7527Z" fill="url(#paint2_linear_6125_82)"/>
<path d="M19.7381 0.60965V3.50996C19.7381 3.84964 19.4681 4.12836 19.1284 4.12836H18.0658C17.7262 4.12836 17.4474 3.84965 17.4474 3.50996V3.21383H16.1323V7.82123H13.8242V2.06421C13.8242 1.42841 14.3468 0.905834 14.9826 0.905834H17.4474V0.609705C17.4474 0.270025 17.7262 0 18.0658 0H19.1284C19.4681 0 19.7381 0.269947 19.7381 0.60965Z" fill="url(#paint3_linear_6125_82)"/>
<path d="M29.2557 2.06426V7.82129H26.9477V3.21388H25.6325V3.51001C25.6325 3.84969 25.3625 4.12841 25.0228 4.12841H23.9515C23.6205 4.12841 23.3418 3.84971 23.3418 3.51001V0.609705C23.3418 0.270025 23.6205 0 23.9515 0H25.0228C25.3625 0 25.6325 0.270003 25.6325 0.609705V0.905834H28.1061C28.7419 0.905834 29.2557 1.42847 29.2557 2.06426Z" fill="url(#paint4_linear_6125_82)"/>
<path d="M40.5631 18.9264C40.5631 20.2416 39.8054 21.3651 38.708 21.9312C38.6993 27.0786 34.5099 31.268 29.3539 31.268C24.1979 31.268 20.0082 27.0699 20.0082 21.9139V18.883C16.9424 18.2907 14.4863 15.9652 13.7027 12.9693C13.5285 12.3161 13.4414 11.6367 13.4414 10.9313V10.4348H16.5246V10.9313C16.5246 11.6542 16.6814 12.351 16.9601 12.9693C17.7352 14.7286 19.4946 15.9567 21.5414 15.9567C23.5882 15.9567 25.3475 14.7287 26.1227 12.9693C26.4101 12.3509 26.5669 11.6541 26.5669 10.9313V10.4348H29.6414V10.9313C29.6414 11.6367 29.5543 12.3161 29.3801 12.9693C28.5963 15.9654 26.1401 18.2909 23.083 18.883V21.9139C23.083 25.3717 25.8962 28.1938 29.3539 28.1938C32.8117 28.1938 35.6249 25.3806 35.6338 21.9318C34.5451 21.3657 33.7874 20.2421 33.7874 18.9269C33.7874 17.0543 35.3029 15.5389 37.1754 15.5389C39.048 15.5389 40.5635 17.0544 40.5635 18.9269L40.5631 18.9264Z" fill="url(#paint5_linear_6125_82)"/>
<defs>
<linearGradient id="paint0_linear_6125_82" x1="5.86133" y1="24.5961" x2="57.6761" y2="25.1042" gradientUnits="userSpaceOnUse">
<stop stop-color="#0499AB"/>
<stop offset="1" stop-color="#06646F" stop-opacity="0.6"/>
</linearGradient>
<linearGradient id="paint1_linear_6125_82" x1="0" y1="51.9313" x2="65.6403" y2="57.9338" gradientUnits="userSpaceOnUse">
<stop stop-color="#0499AB"/>
<stop offset="1" stop-color="#06646F" stop-opacity="0.6"/>
</linearGradient>
<linearGradient id="paint2_linear_6125_82" x1="0" y1="43.9403" x2="66.0469" y2="47.0054" gradientUnits="userSpaceOnUse">
<stop stop-color="#0499AB"/>
<stop offset="1" stop-color="#06646F" stop-opacity="0.6"/>
</linearGradient>
<linearGradient id="paint3_linear_6125_82" x1="13.8242" y1="3.91062" x2="21.0728" y2="3.94902" gradientUnits="userSpaceOnUse">
<stop stop-color="#0499AB"/>
<stop offset="1" stop-color="#06646F" stop-opacity="0.6"/>
</linearGradient>
<linearGradient id="paint4_linear_6125_82" x1="23.3418" y1="3.91065" x2="30.5905" y2="3.94904" gradientUnits="userSpaceOnUse">
<stop stop-color="#0499AB"/>
<stop offset="1" stop-color="#06646F" stop-opacity="0.6"/>
</linearGradient>
<linearGradient id="paint5_linear_6125_82" x1="13.4414" y1="20.8514" x2="46.6828" y2="21.1546" gradientUnits="userSpaceOnUse">
<stop stop-color="#0499AB"/>
<stop offset="1" stop-color="#06646F" stop-opacity="0.6"/>
</linearGradient>
</defs>
</svg>
