<svg width="53" height="55" viewBox="0 0 53 55" fill="none" xmlns="http://www.w3.org/2000/svg">
<path d="M18.8046 44.0673C18.7965 44.1266 18.7695 44.1806 18.7695 44.2481V50.424C18.7695 50.8909 19.1312 51.2526 19.5982 51.2526L33.41 51.2553C33.8769 51.2553 34.2386 50.8936 34.2386 50.4267V44.2508C34.2386 44.1914 34.2116 44.1293 34.2035 44.07L18.8046 44.0673Z" fill="url(#paint0_linear_6125_204)"/>
<path d="M44.8723 45.3202H8.13029C3.64685 45.3202 0.00269923 41.6762 0.00269923 37.1926L0 8.12759C0 3.64415 3.64394 0 8.12759 0H44.8724C49.3559 0 53 3.64394 53 8.12759V37.1926C53.0027 41.676 49.356 45.3202 44.8723 45.3202ZM8.13029 1.66808C4.57272 1.66808 1.66829 4.56975 1.66829 8.13008V37.1951C1.66829 40.7526 4.56187 43.6571 8.13029 43.6571H44.8751C48.4327 43.6571 51.3371 40.7554 51.3371 37.1951L51.3344 8.12731C51.3344 4.56975 48.4327 1.66532 44.8724 1.66532L8.13029 1.66808Z" fill="url(#paint1_linear_6125_204)"/>
<path d="M35.458 54.9265H17.554C16.0857 54.9265 14.8926 53.7253 14.8926 52.2489C14.8926 50.7805 16.0857 49.5874 17.554 49.5874H35.4607C36.9291 49.5874 38.1222 50.7805 38.1222 52.2489C38.1195 53.7253 36.9263 54.9265 35.458 54.9265ZM17.554 51.2475C17.0007 51.2475 16.5526 51.6955 16.5526 52.2489C16.5526 52.8103 17.0007 53.2692 17.554 53.2692H35.4607C36.0141 53.2692 36.4621 52.8103 36.4621 52.2489C36.4621 51.6955 36.0141 51.2475 35.4607 51.2475H17.554Z" fill="url(#paint2_linear_6125_204)"/>
<path d="M29.0577 41.1414H23.8482C23.3893 41.1414 23.0195 40.7689 23.0195 40.3128C23.0195 39.8539 23.392 39.4841 23.8482 39.4841H29.0577C29.5166 39.4841 29.8864 39.8566 29.8864 40.3128C29.8864 40.7689 29.5166 41.1414 29.0577 41.1414Z" fill="url(#paint3_linear_6125_204)"/>
<path d="M36.3823 18.7705C33.4375 18.7705 30.2658 17.985 28.668 17.5342V19.7719C30.4899 20.6437 33.1001 21.3428 34.6279 21.5075C36.7602 21.7504 38.2718 21.3941 39.1032 20.4709C39.6998 19.8069 39.8644 18.9243 39.8806 18.2333C39.6566 18.3196 39.4406 18.406 39.1815 18.4762C38.3259 18.684 37.3676 18.7705 36.3823 18.7705Z" fill="url(#paint4_linear_6125_204)"/>
<path d="M14.6582 26.4148C14.3721 26.2259 14.113 26.0099 13.8809 25.7751C14.1481 27.2516 14.607 28.7038 15.4005 29.6971C15.719 30.0939 16.3075 30.38 16.9904 30.4475C17.7597 30.5339 18.51 30.3341 19.004 29.9292C20.3158 28.8414 21.7168 27.5107 23.2013 25.2488L20.583 26.3285C18.1915 27.3811 16.186 27.4162 14.6582 26.4148Z" fill="url(#paint5_linear_6125_204)"/>
<path d="M18.6497 23.157C18.1585 23.2083 17.6915 23.2353 17.2516 23.2353C15.9289 23.2353 14.8411 22.968 13.9531 22.4849C14.2284 23.4512 14.7035 24.4554 15.5672 25.0168C16.5957 25.6916 18.064 25.6133 19.9211 24.7847L24.4207 22.9195V21.5807C22.5205 22.3878 20.1532 22.9924 18.6497 23.157Z" fill="url(#paint6_linear_6125_204)"/>
<path d="M18.466 21.5074C19.9938 21.3346 22.604 20.6355 24.4259 19.7637V17.526C22.828 17.9849 19.6483 18.7704 16.7033 18.7704C15.7181 18.7704 14.7679 18.684 13.9042 18.468C13.645 18.4087 13.4291 18.3115 13.2051 18.2359C13.2213 18.935 13.3859 19.8068 13.9825 20.4736C14.8111 21.394 16.3147 21.7395 18.466 21.5074Z" fill="url(#paint7_linear_6125_204)"/>
<path d="M28.6688 15.7905C30.2937 16.2737 35.4762 17.6746 38.7747 16.8432C39.3874 16.6866 40.1405 16.3951 40.3024 15.866C40.459 15.364 40.1216 14.6838 39.8004 14.1979C38.4777 14.7674 36.3724 14.9672 34.1077 14.9672C32.2506 14.9672 30.3152 14.8376 28.666 14.6918L28.6688 15.7905Z" fill="url(#paint8_linear_6125_204)"/>
<path d="M12.7824 15.877C12.947 16.4033 13.6974 16.6975 14.3101 16.8541C17.6194 17.6828 22.8102 16.2765 24.4243 15.7906V14.6947C22.7751 14.8513 20.8398 14.9808 18.9746 14.9808C16.7127 14.9808 14.5965 14.7811 13.2819 14.2115C12.9661 14.692 12.6285 15.3668 12.7824 15.877Z" fill="url(#paint9_linear_6125_204)"/>
<path d="M32.4956 26.309L29.9043 25.2374C31.3997 27.4994 32.7979 28.8301 34.1016 29.9179C34.5848 30.3228 35.346 30.5225 36.1152 30.4361C36.7901 30.3659 37.3839 30.0825 37.7051 29.6858C38.4906 28.6924 38.9576 27.2402 39.2248 25.7638C38.9926 25.9959 38.7416 26.2118 38.4474 26.4035C36.9088 27.4157 34.906 27.3807 32.4956 26.309Z" fill="url(#paint10_linear_6125_204)"/>
<path d="M44.894 4.46453H8.10629C6.11157 4.46453 4.47852 6.09758 4.47852 8.0923V33.3056C4.47852 35.3193 6.11157 36.9496 8.10629 36.9496H44.9022C46.9159 36.9496 48.5462 35.3165 48.5462 33.3056V8.10266C48.5381 6.09716 46.9157 4.46453 44.894 4.46453ZM41.9059 16.3519C41.8195 16.638 41.6738 16.8971 41.4902 17.1292C41.5766 17.7501 41.636 18.9431 41.1879 20.1362C41.2473 21.2672 41.474 27.5915 38.9934 30.7169C38.3969 31.4672 37.4036 31.9693 36.2726 32.0908C36.0998 32.107 35.9271 32.1178 35.7543 32.1178C34.7178 32.1178 33.7407 31.7885 33.0254 31.1947C31.6596 30.0556 30.2101 28.6736 28.6635 26.3927V28.1905C29.924 28.4226 30.8822 29.5131 30.8822 30.8087C30.8822 32.2771 29.6568 33.4783 28.1452 33.4783C27.5676 33.4783 27.0062 33.2975 26.5473 32.9681C26.0884 33.2975 25.5378 33.4783 24.9412 33.4783C23.4297 33.4783 22.2042 32.2852 22.2042 30.8087C22.2042 29.5131 23.1544 28.4334 24.4149 28.1905V26.3847C22.8682 28.6736 21.4188 30.0556 20.0449 31.1947C19.3268 31.7912 18.3525 32.1178 17.3159 32.1178C17.1432 32.1178 16.9704 32.1097 16.7977 32.0908C15.6667 31.9774 14.6734 31.4781 14.0769 30.7169C11.599 27.5803 11.823 21.2667 11.8824 20.1362C11.4424 18.9431 11.5018 17.7528 11.5801 17.1292C11.3992 16.8971 11.2508 16.638 11.1644 16.3519C10.7838 15.0913 11.4829 13.82 11.993 13.1128C11.993 13.1047 11.9768 13.0966 11.9768 13.0858C11.4937 11.7119 13.0727 10.4784 14.3009 9.67396C14.6815 9.42293 15.1997 9.5282 15.4508 9.91689C15.7018 10.2975 15.5965 10.8157 15.2079 11.0668C13.9473 11.8954 13.645 12.3543 13.5667 12.519C13.5667 12.519 13.5748 12.5271 13.5829 12.5271C13.6531 12.5865 13.6963 12.6648 13.7395 12.7349C14.776 13.3045 19.165 13.4691 23.9477 13.0642C22.9273 12.6756 22.1851 11.7416 22.1851 10.6187C22.1851 9.15033 23.4105 7.94916 24.9221 7.94916C25.5105 7.94916 26.072 8.13001 26.5281 8.45931C26.987 8.1408 27.5484 7.94916 28.126 7.94916C29.6376 7.94916 30.863 9.14225 30.863 10.6187C30.863 11.7497 30.1208 12.6836 29.1004 13.0723C33.9536 13.4772 38.402 13.2964 39.3632 12.6567C39.3983 12.6135 39.4145 12.5703 39.4496 12.5352C39.4577 12.5271 39.4766 12.519 39.4847 12.5082C39.4253 12.4218 39.1662 11.9468 37.8274 11.0749C37.4468 10.8239 37.3361 10.3056 37.5844 9.92501C37.8355 9.53632 38.3537 9.43375 38.7343 9.68208C39.9706 10.4946 41.5496 11.7281 41.0584 13.0939C41.0584 13.102 41.0422 13.1101 41.0422 13.1209C41.5848 13.82 42.2838 15.0886 41.9059 16.3519Z" fill="url(#paint11_linear_6125_204)"/>
<path d="M37.5295 25.0218C38.3582 24.4766 38.8603 23.4751 39.1545 22.4899C38.2637 22.9731 37.176 23.2403 35.8452 23.2403C35.4052 23.2403 34.9383 23.2133 34.447 23.162C32.9436 22.9973 30.5872 22.3927 28.668 21.5911V22.9299L33.1433 24.787C35.0247 25.6183 36.493 25.6885 37.5295 25.0218Z" fill="url(#paint12_linear_6125_204)"/>
<path d="M27.2866 29.6267C27.1058 29.4701 27.0113 29.2461 27.0113 29.0058V12.4217C27.0113 12.1788 27.1139 11.9548 27.2866 11.8009C27.4675 11.6444 27.7104 11.5688 27.9344 11.5931C28.5903 11.6795 29.222 11.2314 29.222 10.6078C29.222 10.0545 28.7388 9.60645 28.1504 9.60645C27.7779 9.60645 27.4323 9.78729 27.2515 10.0815C26.9492 10.5566 26.1556 10.5566 25.8533 10.0815C25.6644 9.78729 25.3189 9.60645 24.9545 9.60645C24.366 9.60645 23.8829 10.0545 23.8829 10.6078C23.8829 11.2206 24.4875 11.6714 25.1434 11.5931C25.3755 11.558 25.6265 11.6363 25.7993 11.7928C25.9801 11.9494 26.0854 12.1734 26.0854 12.4136V28.9895C26.0854 29.2324 25.9828 29.4564 25.8101 29.6103C25.6292 29.7668 25.3944 29.8424 25.1623 29.8181C24.4983 29.7317 23.8828 30.1906 23.8828 30.8034C23.8828 31.3567 24.366 31.8048 24.9544 31.8048C25.3269 31.8048 25.6616 31.6239 25.8533 31.3297C26.0098 31.0868 26.269 30.9491 26.5524 30.9491C26.8385 30.9491 27.0976 31.0949 27.2515 31.3297C27.4404 31.6239 27.7859 31.8048 28.1503 31.8048C28.7387 31.8048 29.2219 31.3567 29.2219 30.8034C29.2219 30.1906 28.5903 29.7317 27.9344 29.8181C27.7103 29.8586 27.4675 29.7832 27.2866 29.6267Z" fill="url(#paint13_linear_6125_204)"/>
<defs>
<linearGradient id="paint0_linear_6125_204" x1="18.7695" y1="47.6613" x2="37.7261" y2="47.9471" gradientUnits="userSpaceOnUse">
<stop stop-color="#0499AB"/>
<stop offset="1" stop-color="#06646F" stop-opacity="0.6"/>
</linearGradient>
<linearGradient id="paint1_linear_6125_204" x1="0" y1="22.6601" x2="64.9591" y2="23.1923" gradientUnits="userSpaceOnUse">
<stop stop-color="#0499AB"/>
<stop offset="1" stop-color="#06646F" stop-opacity="0.6"/>
</linearGradient>
<linearGradient id="paint2_linear_6125_204" x1="14.8926" y1="52.257" x2="43.3393" y2="53.1241" gradientUnits="userSpaceOnUse">
<stop stop-color="#0499AB"/>
<stop offset="1" stop-color="#06646F" stop-opacity="0.6"/>
</linearGradient>
<linearGradient id="paint3_linear_6125_204" x1="23.0195" y1="40.3128" x2="31.4293" y2="40.5569" gradientUnits="userSpaceOnUse">
<stop stop-color="#0499AB"/>
<stop offset="1" stop-color="#06646F" stop-opacity="0.6"/>
</linearGradient>
<linearGradient id="paint4_linear_6125_204" x1="28.668" y1="19.5579" x2="42.4064" y2="19.8245" gradientUnits="userSpaceOnUse">
<stop stop-color="#0499AB"/>
<stop offset="1" stop-color="#06646F" stop-opacity="0.6"/>
</linearGradient>
<linearGradient id="paint5_linear_6125_204" x1="13.8809" y1="27.8581" x2="25.3034" y2="28.001" gradientUnits="userSpaceOnUse">
<stop stop-color="#0499AB"/>
<stop offset="1" stop-color="#06646F" stop-opacity="0.6"/>
</linearGradient>
<linearGradient id="paint6_linear_6125_204" x1="13.9531" y1="23.5256" x2="26.779" y2="23.7674" gradientUnits="userSpaceOnUse">
<stop stop-color="#0499AB"/>
<stop offset="1" stop-color="#06646F" stop-opacity="0.6"/>
</linearGradient>
<linearGradient id="paint7_linear_6125_204" x1="13.2051" y1="19.5517" x2="26.9536" y2="19.8185" gradientUnits="userSpaceOnUse">
<stop stop-color="#0499AB"/>
<stop offset="1" stop-color="#06646F" stop-opacity="0.6"/>
</linearGradient>
<linearGradient id="paint8_linear_6125_204" x1="28.666" y1="15.6496" x2="42.9662" y2="16.0525" gradientUnits="userSpaceOnUse">
<stop stop-color="#0499AB"/>
<stop offset="1" stop-color="#06646F" stop-opacity="0.6"/>
</linearGradient>
<linearGradient id="paint9_linear_6125_204" x1="12.7441" y1="15.6608" x2="27.0494" y2="16.0647" gradientUnits="userSpaceOnUse">
<stop stop-color="#0499AB"/>
<stop offset="1" stop-color="#06646F" stop-opacity="0.6"/>
</linearGradient>
<linearGradient id="paint10_linear_6125_204" x1="29.9043" y1="27.8467" x2="41.3268" y2="27.9896" gradientUnits="userSpaceOnUse">
<stop stop-color="#0499AB"/>
<stop offset="1" stop-color="#06646F" stop-opacity="0.6"/>
</linearGradient>
<linearGradient id="paint11_linear_6125_204" x1="4.47852" y1="20.7068" x2="58.4885" y2="21.2201" gradientUnits="userSpaceOnUse">
<stop stop-color="#0499AB"/>
<stop offset="1" stop-color="#06646F" stop-opacity="0.6"/>
</linearGradient>
<linearGradient id="paint12_linear_6125_204" x1="28.668" y1="23.5315" x2="41.517" y2="23.7748" gradientUnits="userSpaceOnUse">
<stop stop-color="#0499AB"/>
<stop offset="1" stop-color="#06646F" stop-opacity="0.6"/>
</linearGradient>
<linearGradient id="paint13_linear_6125_204" x1="23.8828" y1="20.7056" x2="30.4271" y2="20.7166" gradientUnits="userSpaceOnUse">
<stop stop-color="#0499AB"/>
<stop offset="1" stop-color="#06646F" stop-opacity="0.6"/>
</linearGradient>
</defs>
</svg>
