<svg width="56" height="57" viewBox="0 0 56 57" fill="none" xmlns="http://www.w3.org/2000/svg">
<path d="M50.2425 19.1767C48.23 14.2242 45.92 10.8642 40.635 9.40734C39.1213 8.98734 36.9644 8.32234 35.6781 7.38172C33.3594 5.67984 34.3175 1.14734 34.3262 1.10359C34.3515 0.991529 34.3543 0.875568 34.3345 0.762411C34.3147 0.649255 34.2727 0.541145 34.2108 0.444328C34.149 0.34751 34.0686 0.263905 33.9743 0.198341C33.8799 0.132777 33.7735 0.0865546 33.6613 0.0623438C33.2806 -0.0207812 22.715 -0.0207812 22.3388 0.0623438C22.2265 0.0865546 22.1201 0.132777 22.0257 0.198341C21.9314 0.263905 21.851 0.34751 21.7892 0.444328C21.7273 0.541145 21.6853 0.649255 21.6655 0.762411C21.6457 0.875568 21.6485 0.991529 21.6737 1.10359C21.6825 1.14734 22.6144 5.69734 20.3219 7.38172C19.0356 8.32234 16.8787 8.98734 15.365 9.40734C10.08 10.8642 7.77 14.2242 5.7575 19.1767C3.99 23.5167 1.45687 29.0423 0.503125 31.1205C0.249375 31.6717 0 32.118 0 32.1311C0.004375 32.8398 -0.013125 49.9242 0.371875 50.1911C0.465649 50.2579 0.571724 50.3055 0.68398 50.3311C0.796237 50.3567 0.912454 50.3599 1.02593 50.3403C1.1394 50.3208 1.24789 50.279 1.34513 50.2174C1.44237 50.1557 1.52645 50.0754 1.5925 49.9811C1.68 49.8542 9.765 38.383 14.2406 31.8511C14.1925 31.3873 14.1444 30.9192 14.0963 30.4467C14.0223 29.7114 14.0341 28.97 14.1312 28.2373C14.2188 27.5198 14.2669 27.1217 13.6456 25.783C13.5483 25.573 13.5383 25.3329 13.618 25.1156C13.6976 24.8982 13.8602 24.7214 14.0702 24.624C14.2801 24.5265 14.5202 24.5165 14.7376 24.596C14.9549 24.6755 15.1318 24.8381 15.2294 25.048C16.0037 26.7148 15.9906 27.4455 15.8725 28.443C15.7848 29.0503 15.7745 29.6662 15.8419 30.2761C15.9556 31.453 16.0781 32.6167 16.2006 33.7673C16.8576 39.9377 17.7586 46.316 16.2495 52.4268L15.3956 56.0973H41.4794L40.2062 52.4223C40.0187 51.8137 39.8682 51.1942 39.7556 50.5673C39.6944 50.2436 39.6331 49.9155 39.5675 49.5873C39.1888 47.9273 38.9836 46.2323 38.955 44.5298C39.0556 40.8198 39.4188 37.3942 39.7994 33.7673C39.9219 32.6167 40.0444 31.453 40.1581 30.2761C40.2244 29.6536 40.223 29.0258 40.1537 28.4036C40.0794 27.5373 40.0137 26.7936 40.7619 25.0698C40.8068 24.964 40.8722 24.868 40.9543 24.7875C41.0364 24.707 41.1336 24.6436 41.2404 24.6008C41.3471 24.558 41.4613 24.5368 41.5763 24.5383C41.6912 24.5398 41.8048 24.5641 41.9104 24.6097C42.0159 24.6552 42.1115 24.7212 42.1914 24.8039C42.2714 24.8865 42.3342 24.9842 42.3763 25.0912C42.4184 25.1982 42.4389 25.3125 42.4366 25.4275C42.4344 25.5424 42.4094 25.6558 42.3631 25.7611C41.7944 27.0823 41.8337 27.4936 41.8994 28.2505C41.9736 28.9806 41.9751 29.7163 41.9037 30.4467C41.8556 30.9192 41.8075 31.3873 41.7594 31.8511C46.235 38.383 54.32 49.8542 54.4075 49.9811C54.488 50.0966 54.5954 50.1908 54.7204 50.2556C54.8454 50.3203 54.9842 50.3538 55.125 50.353C55.3 50.353 56 50.1561 56 49.9723V32.1267C56 32.0567 55.7506 31.6717 55.4969 31.1205C54.5431 29.0423 52.01 23.5167 50.2425 19.1767ZM32.4625 31.2823C33.9981 29.6592 33.3331 27.6992 30.1656 24.5142C29.8769 24.2298 29.8769 24.2298 29.9119 21.4692C29.9136 21.2385 30.0067 21.0179 30.1706 20.8555C30.3346 20.6932 30.5562 20.6024 30.7869 20.603H30.7956C30.9105 20.6041 31.0241 20.6278 31.1299 20.6728C31.2356 20.7179 31.3314 20.7833 31.4119 20.8654C31.4923 20.9474 31.5558 21.0445 31.5987 21.1512C31.6416 21.2578 31.6631 21.3718 31.6619 21.4867C31.6531 22.248 31.6444 23.088 31.6487 23.5255C33.3419 25.2405 36.8988 29.1386 33.7312 32.4855C31.8938 34.4236 28.5075 34.533 26.25 34.4717C26.2231 34.6831 26.2424 34.8978 26.3066 35.101C26.3708 35.3042 26.4784 35.491 26.6219 35.6486C26.7705 35.7579 26.8808 35.9114 26.9369 36.0871C26.9931 36.2629 26.9922 36.4519 26.9344 36.6271C26.8767 36.8023 26.765 36.9548 26.6153 37.0627C26.4657 37.1707 26.2857 37.2285 26.1012 37.228C25.9167 37.2277 25.7372 37.1679 25.5894 37.0573C24.08 35.9592 24.5569 33.6405 24.6137 33.378C24.6586 33.1795 24.7715 33.003 24.933 32.8791C25.0944 32.7552 25.2942 32.6918 25.4975 32.6998C27.265 32.7655 30.9312 32.8967 32.4625 31.2823ZM35 42.5611C35.0007 43.2251 34.7382 43.8622 34.2699 44.333C33.8016 44.8037 33.1658 45.0696 32.5019 45.0723H24.6488C24.4499 45.0744 24.2599 45.1553 24.1205 45.2971C23.9811 45.439 23.9036 45.6303 23.905 45.8292V46.048C23.9027 46.2475 23.9798 46.4399 24.1192 46.5826C24.2587 46.7254 24.4492 46.8069 24.6488 46.8092H32.2875C32.9508 46.8125 33.5858 47.0783 34.0537 47.5485C34.5215 48.0187 34.7842 48.655 34.7842 49.3183C34.7842 49.9816 34.5215 50.6179 34.0537 51.0881C33.5858 51.5583 32.9508 51.8241 32.2875 51.8273H29.9906C29.5693 51.8236 29.1615 51.9763 28.8462 52.2559C28.531 52.5356 28.3308 52.9223 28.2844 53.3411C28.251 53.7507 28.2746 54.1629 28.3544 54.5661C28.3763 54.6788 28.3756 54.7946 28.3524 54.9071C28.3293 55.0195 28.284 55.1262 28.2193 55.221C28.1546 55.3158 28.0718 55.3968 27.9755 55.4594C27.8793 55.5219 27.7716 55.5648 27.6588 55.5855C27.6057 55.5978 27.5513 55.6036 27.4969 55.603C27.293 55.6019 27.0957 55.5303 26.9386 55.4003C26.7815 55.2703 26.6742 55.09 26.635 54.8898C26.5238 54.3209 26.4929 53.7392 26.5431 53.1617C26.6333 52.3117 27.0359 51.5256 27.6729 50.9556C28.3099 50.3857 29.1359 50.0727 29.9906 50.0773H32.2875C32.4868 50.0743 32.6769 49.993 32.8168 49.851C32.9567 49.709 33.0351 49.5176 33.0351 49.3183C33.0351 49.1189 32.9567 48.9276 32.8168 48.7856C32.6769 48.6436 32.4868 48.5622 32.2875 48.5592H24.6488C23.9855 48.5555 23.3507 48.2892 22.8833 47.8186C22.4159 47.3479 22.154 46.7113 22.155 46.048V45.8292C22.1542 45.1664 22.4163 44.5303 22.8837 44.0603C23.3512 43.5904 23.9859 43.325 24.6488 43.3223H32.5019C32.601 43.3216 32.6991 43.3014 32.7904 43.2627C32.8817 43.224 32.9645 43.1677 33.034 43.097C33.1035 43.0263 33.1583 42.9426 33.1954 42.8506C33.2325 42.7586 33.251 42.6602 33.25 42.5611V42.3423C33.2523 42.1428 33.1752 41.9505 33.0358 41.8077C32.8963 41.6649 32.7058 41.5834 32.5063 41.5811L24.5525 41.568C23.7745 41.5725 23.0188 41.3082 22.4131 40.8198C20.3044 39.0917 19.18 36.8473 19.2544 34.498C19.3506 31.3217 21.4637 29.1342 23.52 27.4192C24.5175 26.5836 25.1825 25.8442 25.1825 24.9473V17.103C25.1825 16.8709 25.2747 16.6483 25.4388 16.4842C25.6029 16.3202 25.8254 16.228 26.0575 16.228C26.2896 16.228 26.5121 16.3202 26.6762 16.4842C26.8403 16.6483 26.9325 16.8709 26.9325 17.103V24.9473C26.9325 26.6142 25.83 27.7648 24.64 28.7623C22.8856 30.228 21.0787 32.0655 21.0044 34.5505C20.93 36.9698 22.5487 38.6717 23.5244 39.468C23.8184 39.6993 24.1828 39.8228 24.5569 39.818L32.5063 39.8311C33.1695 39.8348 33.8044 40.1011 34.2717 40.5717C34.7391 41.0424 35.001 41.679 35 42.3423V42.5611ZM34.5625 24.5405C34.4136 24.5403 34.2672 24.5021 34.1372 24.4296C34.0071 24.3571 33.8978 24.2526 33.8194 24.126C33.741 23.9995 33.6961 23.855 33.6891 23.7063C33.6821 23.5575 33.7132 23.4095 33.7794 23.2761L34.6544 21.5261C34.7055 21.4233 34.7764 21.3315 34.863 21.256C34.9496 21.1806 35.0502 21.1229 35.1591 21.0864C35.268 21.0498 35.383 21.0351 35.4975 21.0429C35.6121 21.0508 35.724 21.0812 35.8269 21.1323C35.9297 21.1835 36.0215 21.2544 36.0969 21.341C36.1724 21.4276 36.23 21.5282 36.2666 21.637C36.3031 21.7459 36.3179 21.8609 36.31 21.9755C36.3021 22.0901 36.2718 22.202 36.2206 22.3048L35.3456 24.0548C35.2736 24.2009 35.162 24.3239 35.0236 24.4097C34.8851 24.4956 34.7254 24.5409 34.5625 24.5405ZM38.0625 26.728H36.3125C36.0804 26.728 35.8579 26.6358 35.6938 26.4717C35.5297 26.3076 35.4375 26.085 35.4375 25.853C35.4375 25.6209 35.5297 25.3983 35.6938 25.2342C35.8579 25.0702 36.0804 24.978 36.3125 24.978H38.0625C38.2946 24.978 38.5171 25.0702 38.6812 25.2342C38.8453 25.3983 38.9375 25.6209 38.9375 25.853C38.9375 26.085 38.8453 26.3076 38.6812 26.4717C38.5171 26.6358 38.2946 26.728 38.0625 26.728Z" fill="url(#paint0_linear_6468_230)"/>
<defs>
<linearGradient id="paint0_linear_6468_230" x1="0" y1="28.0487" x2="68.6373" y2="28.5287" gradientUnits="userSpaceOnUse">
<stop stop-color="#0499AB"/>
<stop offset="1" stop-color="#06646F" stop-opacity="0.6"/>
</linearGradient>
</defs>
</svg>
