<svg width="64" height="68" viewBox="0 0 64 68" fill="none" xmlns="http://www.w3.org/2000/svg">
<path fill-rule="evenodd" clip-rule="evenodd" d="M32.5048 0C35.4325 0 37.805 2.37248 37.805 5.30025C37.805 8.22801 35.4325 10.6005 32.5048 10.6005C29.577 10.6005 27.2045 8.22801 27.2045 5.30025C27.2015 2.37545 29.577 0 32.5048 0ZM1.00065 50.0448C0.448363 50.0448 0 49.5964 0 49.0441C0 48.4918 0.448363 48.0434 1.00065 48.0434H15.8113C16.0934 48.0434 15.8261 47.6307 15.7816 47.5149C14.4781 44.1418 14.2761 40.9587 16.0013 38.4882H16.0043C18.6855 34.6727 23.3711 36.0771 26.7975 37.7993C26.9371 37.8706 27.3201 39.088 29.4521 39.86C29.6125 39.9164 29.4877 40.1777 29.6184 40.7033C29.9391 42.0009 31.1476 42.9481 32.5462 42.8709C35.3373 42.7136 36.8754 41.2497 37.8226 38.8179L38.1997 37.8469C38.2294 37.7727 38.3601 37.7282 38.461 37.6777C41.8727 36.0089 46.4273 34.7529 49.0407 38.5299C50.7391 41.0033 50.5253 44.1834 49.2159 47.5535C49.1743 47.6604 48.9605 48.0405 49.2218 48.0405H59.1006C59.1511 48.0405 59.1927 48.0167 59.2164 47.9722C59.5935 47.2922 60.318 46.832 61.1495 46.832C62.3699 46.832 63.3586 47.8208 63.3586 49.0411C63.3586 50.2615 62.3698 51.2502 61.1495 51.2502C60.318 51.2502 59.5935 50.79 59.2164 50.11C59.1927 50.0655 59.1481 50.0417 59.1006 50.0417H38.728C38.6686 50.0417 38.6182 50.0031 38.6003 49.9467L37.083 44.7504C36.8069 43.7884 35.444 43.7854 35.1649 44.7445L31.9788 55.651C31.9402 55.7787 31.7591 55.7787 31.7235 55.651L28.867 45.8764C28.5909 44.9143 27.228 44.9114 26.9489 45.8704L25.7582 49.9532C25.7403 50.0096 25.6899 50.0482 25.6305 50.0482L1.00065 50.0448ZM18.2316 52.245C18.6948 53.0615 19.0333 53.5515 19.5975 54.3472C23.5377 59.9206 28.951 65.028 32.4249 67.6049C32.4724 67.6405 32.5347 67.6405 32.5852 67.6049C36.5136 64.689 42.553 58.8427 46.4403 52.8269L46.7818 52.245C46.8353 52.1559 46.7699 52.043 46.666 52.043L37.8772 52.046V52.043C37.4437 52.043 37.0458 51.761 36.9211 51.3245L36.2471 49.0173C36.2085 48.8896 36.0274 48.8896 35.9917 49.0173L32.8086 59.9147C32.5325 60.8767 31.1696 60.8797 30.8905 59.9206L28.034 50.1368C27.9954 50.0092 27.8143 50.0092 27.7787 50.1368L27.455 51.2444C27.363 51.6987 26.9591 52.0431 26.4751 52.0431L18.3484 52.0461C18.2475 52.0461 18.1821 52.156 18.2326 52.245L18.2316 52.245ZM42.4193 27.0029L39.358 34.8689C39.3164 34.9758 39.4203 35.0827 39.5302 35.0411C40.5338 34.664 41.5553 34.373 42.5648 34.2097C42.6302 34.1978 42.6777 34.1443 42.6777 34.079V27.0506C42.6747 26.9051 42.4727 26.8663 42.4193 27.0029ZM25.6513 34.8689L22.59 27.0029C22.5365 26.8663 22.3317 26.9049 22.3317 27.0504V34.0788C22.3317 34.1441 22.3792 34.2005 22.4445 34.2094C23.454 34.3728 24.4755 34.6638 25.4821 35.0409C25.586 35.0825 25.6929 34.9758 25.6513 34.8689ZM29.455 20.842L32.3768 29.9576C32.4154 30.0823 32.5906 30.0823 32.6322 29.9576L35.554 20.842C35.7233 20.3164 36.2845 20.0284 36.807 20.1976C37.3326 20.3669 37.6206 20.9281 37.4514 21.4506L31.6821 39.4569C31.5484 39.8726 31.3733 40.3061 31.8632 40.707C32.0235 40.8406 32.2136 40.894 32.4333 40.8792C35.1324 40.7277 35.6075 39.0115 36.4953 36.7221C36.4953 36.7221 36.4953 36.7191 36.4983 36.7191L42.6774 20.8481C43.6098 18.4697 43.984 15.5657 42.1192 13.5822C40.1565 11.4978 36.6082 11.3077 33.5501 12.0827C33.4165 12.1154 33.3779 12.1421 33.2086 12.1421H31.8131V12.1391C31.7329 12.1391 31.6498 12.1302 31.5666 12.1094C28.4667 11.3136 24.8886 11.471 22.8995 13.5852C21.0259 15.5776 21.4149 18.4638 22.3413 20.8511L28.4847 36.6506C28.7282 37.2712 29.3042 37.6542 29.9308 37.9126C30.002 37.9423 30.0852 37.9037 30.1089 37.8295L31.4451 33.6605C31.454 33.6338 31.454 33.6071 31.4451 33.5804L27.5583 21.4508C27.389 20.9252 27.68 20.364 28.2026 20.1977C28.7252 20.0285 29.2887 20.3164 29.455 20.842Z" fill="url(#paint0_linear_6125_202)"/>
<defs>
<linearGradient id="paint0_linear_6125_202" x1="0" y1="33.8158" x2="77.6569" y2="34.3255" gradientUnits="userSpaceOnUse">
<stop stop-color="#0499AB"/>
<stop offset="1" stop-color="#06646F" stop-opacity="0.6"/>
</linearGradient>
</defs>
</svg>
