<svg width="47" height="52" viewBox="0 0 47 52" fill="none" xmlns="http://www.w3.org/2000/svg">
<path d="M7.66757 10.5796C5.0473 11.9123 3.02284 13.777 1.67188 15.2841L2.92982 16.2129C4.24568 14.5834 5.89934 13.204 7.79755 12.1525C7.76727 11.6292 7.72394 11.1049 7.66757 10.5796Z" fill="url(#paint0_linear_6125_194)"/>
<path d="M0.867188 32.2139L1.19336 33.5735L4.45692 33.0422C4.30833 32.5843 4.18064 32.1275 4.07385 31.6719L0.867188 32.2139Z" fill="url(#paint1_linear_6125_194)"/>
<path d="M15.3942 10.3711C15.458 9.88142 15.5382 9.39503 15.638 8.92018C14.6801 8.84737 13.7163 8.86981 12.7637 8.98712C12.8162 9.48242 12.8613 9.981 12.8985 10.4796C13.7249 10.3729 14.5604 10.3366 15.3942 10.3711Z" fill="url(#paint2_linear_6125_194)"/>
<path d="M4.29886 24.2378L0.289933 23.2595L0 24.3147L3.98754 25.2892C4.07452 24.9302 4.17938 24.58 4.29886 24.2378Z" fill="url(#paint3_linear_6125_194)"/>
<path d="M38.9265 19.0696C40.9007 18.39 42.3994 17.4063 43.6888 15.9419L42.9121 14.9526C41.5571 16.1643 39.9766 17.1477 38.2441 17.8571C38.4957 18.2622 38.7231 18.6664 38.9265 19.0696Z" fill="url(#paint4_linear_6125_194)"/>
<path d="M45.9506 22.6553C44.1052 23.204 42.121 23.2351 40.2559 22.7445C40.3623 23.193 40.4523 23.643 40.5296 24.0951L40.6383 24.1213C42.3498 24.5183 44.1499 24.4652 45.8295 23.968L46.0271 23.8808L45.9506 22.6553Z" fill="url(#paint5_linear_6125_194)"/>
<path d="M33.5396 14.1617C31.6596 14.7985 29.9245 15.7446 28.4209 16.9528C27.027 18.0613 25.8664 19.3915 24.9961 20.8783C27.4877 23.5195 28.9596 27.2362 29.3726 31.9331C30.0934 40.1312 30.4029 48.033 28.0915 51.1956C28.7658 51.2926 29.578 51.4113 29.9761 51.4766C31.0037 51.6451 32.3657 51.1782 33.6176 50.2263C35.6366 48.6913 36.8419 46.387 36.8419 44.0626C36.8419 39.5176 38.3718 36.5708 38.6279 36.1095C39.5659 32.9193 39.9292 29.9834 39.7075 27.3819C39.3065 22.6659 38.5875 18.6837 33.5396 14.1617Z" fill="url(#paint6_linear_6125_194)"/>
<path d="M28.1689 32.0207C27.7703 27.4887 26.2818 23.807 23.8632 21.3697C23.7743 21.2933 23.713 21.194 23.6876 21.0852C23.6621 20.9763 23.6738 20.863 23.7209 20.7603C23.7653 20.6637 24.8399 18.3695 27.6207 16.1294C30.0999 14.1324 34.45 11.8172 41.2145 11.9402V10.4343C39.9867 10.5149 36.6963 10.8217 29.687 11.9878C27.6113 12.3328 24.6563 11.7363 21.3091 10.3044C21.2806 10.4917 21.27 10.6809 21.2772 10.8699C21.2772 10.8809 21.2772 10.8919 21.2772 10.9029L21.256 11.7097C22.3877 12.0269 23.5828 13.0629 23.7473 14.2858C24.0061 16.2109 21.6961 17.0569 20.691 17.3313C20.5996 17.3562 20.503 17.3611 20.4092 17.3456C20.3153 17.33 20.2268 17.2945 20.151 17.2419C20.0751 17.1892 20.0141 17.121 19.9728 17.0427C19.9315 16.9645 19.9112 16.8784 19.9135 16.7917L20.0691 10.8926C20.0485 10.3111 20.1566 9.7317 20.3869 9.18895C20.6173 8.64619 20.9652 8.15111 21.4101 7.73314C21.8549 7.31516 22.3875 6.98282 22.9763 6.75586C23.5651 6.5289 24.198 6.41195 24.8375 6.41197C25.2517 6.412 25.6613 6.49098 26.0399 6.64384C26.4184 6.79669 26.7576 7.02003 27.0356 7.29945C27.3135 7.57887 27.524 7.90818 27.6535 8.26614C27.783 8.62411 27.8286 9.0028 27.7874 9.37779L27.6237 10.9485C28.2382 11.0114 28.8593 10.9973 29.4695 10.9065C30.5317 10.7298 31.5087 10.5727 32.4069 10.4329C32.6993 8.73389 32.1455 7.4119 30.7208 6.39889C30.6177 6.3256 30.5435 6.2238 30.5094 6.10883C30.4753 5.99385 30.4832 5.87191 30.5319 5.76137L32.0782 2.24398L31.4455 1.72066L29.0915 3.55465C28.8897 3.7095 28.6434 3.80864 28.3816 3.84041C28.1199 3.87218 27.8537 3.83524 27.6142 3.73396C27.3748 3.63267 27.1722 3.47125 27.0302 3.2687C26.8882 3.06615 26.8128 2.83091 26.8128 2.59066V0.262595L25.947 0L24.7181 1.95655C24.5737 2.18652 24.3702 2.38125 24.1251 2.52412C23.88 2.66699 23.6005 2.75374 23.3105 2.77696C23.0205 2.80018 22.7286 2.75919 22.4599 2.65747C22.1911 2.55576 21.9533 2.39635 21.767 2.19287L20.2224 0.506393L19.4646 0.736233L20.2788 2.66277C20.4343 3.03813 20.4333 3.45233 20.2759 3.82703C20.1185 4.20174 19.8156 4.51098 19.4246 4.69626C16.027 6.32833 16.3236 14.0761 16.4352 16.9935C16.4419 17.1674 16.448 17.3282 16.4531 17.4743C16.4578 17.61 16.407 17.7426 16.3106 17.8463C16.2142 17.95 16.079 18.0176 15.9311 18.0359L12.3962 18.4756C12.3071 18.4867 12.2164 18.4795 12.1308 18.4546C12.0451 18.4297 11.9666 18.3877 11.9011 18.3317C11.8355 18.2757 11.7845 18.2071 11.7519 18.1309C11.7192 18.0547 11.7056 17.9728 11.7121 17.8912C12.0709 13.415 11.6796 7.99854 10.759 4.44334L7.8676 5.19914C9.25227 10.3069 9.42792 15.3706 8.38935 20.2595C8.36051 20.3954 8.27633 20.5164 8.15366 20.5984C6.56628 21.943 5.50174 23.7912 5.07385 25.9472C4.63339 28.1659 4.87416 30.6696 5.77017 33.1876C6.75116 35.9131 8.86182 38.1829 11.6534 39.5144L11.7109 39.5422C15.1032 41.19 17.9616 43.618 20.0009 46.5844L22.1621 49.7307C22.6792 50.4977 23.4687 51.081 24.3999 51.3841C25.2476 51.6504 25.9296 51.5896 26.4846 51.1984C29.6585 48.9617 28.6144 37.0902 28.1689 32.0207ZM15.0907 38.5638C15.01 38.6898 14.8776 38.7813 14.7227 38.8184C14.5678 38.8555 14.403 38.8351 14.2646 38.7617C14.0383 38.6416 13.8061 38.5237 13.5744 38.4113C13.4331 38.3427 13.3275 38.2258 13.2808 38.0864C13.2341 37.947 13.2503 37.7964 13.3256 37.6677C13.401 37.5391 13.5295 37.443 13.6827 37.4006C13.836 37.3581 14.0015 37.3728 14.1428 37.4414C14.3881 37.5604 14.6338 37.6852 14.8733 37.8123C15.0117 37.8858 15.1123 38.0062 15.153 38.1471C15.1938 38.2881 15.1713 38.438 15.0907 38.5638ZM21.6673 44.4005C21.536 44.484 21.3736 44.5165 21.2158 44.491C21.0581 44.4655 20.918 44.384 20.8263 44.2645C19.6241 42.697 18.1671 41.3049 16.5051 40.1358C16.3783 40.0466 16.2957 39.9153 16.2754 39.7707C16.2551 39.6261 16.2987 39.4801 16.3967 39.3648C16.4947 39.2495 16.639 39.1743 16.7979 39.1558C16.9568 39.1374 17.1173 39.1771 17.244 39.2662C19.0027 40.5034 20.5446 41.9766 21.8168 43.6354C21.9085 43.7549 21.9442 43.9026 21.9162 44.0462C21.8882 44.1897 21.7987 44.3172 21.6673 44.4006V44.4005Z" fill="url(#paint7_linear_6125_194)"/>
<defs>
<linearGradient id="paint0_linear_6125_194" x1="1.67188" y1="13.3962" x2="9.17984" y2="13.4534" gradientUnits="userSpaceOnUse">
<stop stop-color="#0499AB"/>
<stop offset="1" stop-color="#06646F" stop-opacity="0.6"/>
</linearGradient>
<linearGradient id="paint1_linear_6125_194" x1="0.867188" y1="32.6227" x2="5.26644" y2="32.6809" gradientUnits="userSpaceOnUse">
<stop stop-color="#0499AB"/>
<stop offset="1" stop-color="#06646F" stop-opacity="0.6"/>
</linearGradient>
<linearGradient id="paint2_linear_6125_194" x1="12.7637" y1="9.67901" x2="16.2862" y2="9.72331" gradientUnits="userSpaceOnUse">
<stop stop-color="#0499AB"/>
<stop offset="1" stop-color="#06646F" stop-opacity="0.6"/>
</linearGradient>
<linearGradient id="paint3_linear_6125_194" x1="0" y1="24.2743" x2="5.26806" y2="24.3525" gradientUnits="userSpaceOnUse">
<stop stop-color="#0499AB"/>
<stop offset="1" stop-color="#06646F" stop-opacity="0.6"/>
</linearGradient>
<linearGradient id="paint4_linear_6125_194" x1="38.2441" y1="17.0111" x2="44.9173" y2="17.073" gradientUnits="userSpaceOnUse">
<stop stop-color="#0499AB"/>
<stop offset="1" stop-color="#06646F" stop-opacity="0.6"/>
</linearGradient>
<linearGradient id="paint5_linear_6125_194" x1="40.2559" y1="23.5198" x2="47.3259" y2="23.6852" gradientUnits="userSpaceOnUse">
<stop stop-color="#0499AB"/>
<stop offset="1" stop-color="#06646F" stop-opacity="0.6"/>
</linearGradient>
<linearGradient id="paint6_linear_6125_194" x1="24.9961" y1="32.8361" x2="43.1054" y2="32.8863" gradientUnits="userSpaceOnUse">
<stop stop-color="#0499AB"/>
<stop offset="1" stop-color="#06646F" stop-opacity="0.6"/>
</linearGradient>
<linearGradient id="paint7_linear_6125_194" x1="4.85938" y1="25.7732" x2="49.4196" y2="25.9934" gradientUnits="userSpaceOnUse">
<stop stop-color="#0499AB"/>
<stop offset="1" stop-color="#06646F" stop-opacity="0.6"/>
</linearGradient>
</defs>
</svg>
