<svg width="50" height="50" viewBox="0 0 50 50" fill="none" xmlns="http://www.w3.org/2000/svg">
<path fill-rule="evenodd" clip-rule="evenodd" d="M48.687 0.226041C48.9883 -0.075347 49.4747 -0.075347 49.7738 0.226041C50.0752 0.527423 50.0752 1.01378 49.7738 1.31287L42.1869 8.89974C42.1481 8.93856 42.1481 9.00477 42.1869 9.04587L42.7029 9.56187C43.292 10.1509 43.292 11.1168 42.7029 11.7058L38.705 15.7037C38.6616 15.7471 38.5886 15.7425 38.5498 15.6923C38.4105 15.5097 38.2598 15.3338 38.0931 15.1672L34.8304 11.9045C34.6637 11.7378 34.4879 11.5848 34.3053 11.4478C34.255 11.4113 34.2505 11.3382 34.2939 11.2926L38.2918 7.29467C38.8808 6.70561 39.8467 6.70561 40.4357 7.29467L40.9517 7.81068C40.9905 7.84949 41.0568 7.84949 41.0978 7.81068L48.687 0.226041ZM26.0579 46.7216C24.1833 48.5961 21.1603 47.9683 20.0281 45.8015C19.5098 44.8083 19.4664 43.6941 19.8683 42.6438C19.882 42.605 19.8751 42.5639 19.8454 42.5342L14.2721 36.9609C14.2333 36.9221 14.167 36.9221 14.1259 36.9609L6.6139 44.4729C6.57508 44.5117 6.57508 44.578 6.6139 44.6191L8.78293 46.7881C9.25099 47.2562 9.25099 48.0188 8.78293 48.4868L7.62076 49.649C7.1527 50.117 6.39009 50.117 5.92208 49.649L0.351045 44.0779C-0.117015 43.6099 -0.117015 42.8472 0.351045 42.3792L1.51322 41.2171C1.98127 40.749 2.74389 40.749 3.2119 41.2171L5.38094 43.3861C5.41976 43.4249 5.48597 43.4249 5.52707 43.3861L13.0391 35.8741C13.0779 35.8352 13.0779 35.769 13.0391 35.7279L7.46575 30.1546C7.43607 30.1249 7.39498 30.1157 7.35616 30.1317C5.99537 30.6728 4.38115 30.3943 3.2783 29.2915C1.80108 27.8143 1.80108 25.4192 3.2783 23.9397C4.75552 22.4624 7.15065 22.4624 8.63015 23.9397C9.73293 25.0424 10.0115 26.6544 9.47037 28.0152C9.45439 28.054 9.46352 28.0974 9.4932 28.1271L22.1355 40.4134C22.1629 40.4408 22.2017 40.4499 22.2382 40.4385C23.5716 40.0184 25.0488 40.3586 26.0603 41.3701C27.5353 42.8496 27.5351 45.2444 26.0579 46.7216ZM33.7429 12.994C32.3821 11.6332 30.1583 11.6332 28.7975 12.994L26.9641 14.8274C26.9253 14.8662 26.9253 14.9324 26.9641 14.9735L29.4688 17.4782C29.7702 17.7796 29.7702 18.266 29.4688 18.5651C29.1674 18.8664 28.6811 18.8664 28.382 18.5651L25.8772 16.0603C25.8384 16.0215 25.7722 16.0215 25.7311 16.0603L22.0414 19.75C22.0026 19.7888 22.0026 19.855 22.0414 19.8961L24.5461 22.4009C24.8475 22.7022 24.8475 23.1886 24.5461 23.4877C24.2448 23.7891 23.7584 23.7891 23.4593 23.4877L20.9546 20.983C20.9158 20.9442 20.8496 20.9442 20.8085 20.983L17.1188 24.6727C17.08 24.7115 17.08 24.7777 17.1188 24.8188L19.6235 27.3235C19.9249 27.6249 19.9249 28.1112 19.6235 28.4103C19.3221 28.7117 18.8358 28.7117 18.5367 28.4103L16.032 25.9056C15.9931 25.8668 15.9269 25.8668 15.8858 25.9056L12.7715 29.0199C12.7304 29.061 12.7304 29.1249 12.7715 29.166L20.9499 37.1141C20.991 37.153 21.055 37.153 21.0938 37.1141L37.0081 21.1998C38.3689 19.839 38.3689 17.6152 37.0081 16.2544L33.7429 12.994Z" fill="url(#paint0_linear_6468_266)"/>
<defs>
<linearGradient id="paint0_linear_6468_266" x1="0" y1="25" x2="61.283" y2="25.4293" gradientUnits="userSpaceOnUse">
<stop stop-color="#0499AB"/>
<stop offset="1" stop-color="#06646F" stop-opacity="0.6"/>
</linearGradient>
</defs>
</svg>
