<svg width="66" height="45" viewBox="0 0 66 45" fill="none" xmlns="http://www.w3.org/2000/svg">
<path d="M6.43438 26.7885V0.616699H0.0161583L0 44.5869H6.43438V32.8566H59.5279V44.5869H66V26.7885H6.43438Z" fill="url(#paint0_linear_6125_206)"/>
<path d="M10.6454 8.61277C12.8678 9.80175 15.6417 8.97431 16.8522 6.75591C18.0425 4.52606 17.2124 1.75019 14.9967 0.549093C12.7641 -0.649989 9.98894 0.17947 8.79255 2.4073C7.58808 4.62839 8.41956 7.40157 10.6454 8.61277Z" fill="url(#paint1_linear_6125_206)"/>
<path d="M20.2169 10.4871H8.35938V24.8511H20.2169V10.4871Z" fill="url(#paint2_linear_6125_206)"/>
<path d="M65.9983 14.7179C66.0017 12.286 64.3488 10.4803 61.5332 10.4871H22.3789V24.8511L65.999 24.8505L65.9983 14.7179Z" fill="url(#paint3_linear_6125_206)"/>
<defs>
<linearGradient id="paint0_linear_6125_206" x1="0" y1="22.6018" x2="80.8889" y2="23.4524" gradientUnits="userSpaceOnUse">
<stop stop-color="#0499AB"/>
<stop offset="1" stop-color="#06646F" stop-opacity="0.6"/>
</linearGradient>
<linearGradient id="paint1_linear_6125_206" x1="8.24023" y1="4.57791" x2="19.4616" y2="4.65652" gradientUnits="userSpaceOnUse">
<stop stop-color="#0499AB"/>
<stop offset="1" stop-color="#06646F" stop-opacity="0.6"/>
</linearGradient>
<linearGradient id="paint2_linear_6125_206" x1="8.35938" y1="17.6691" x2="22.8929" y2="17.7531" gradientUnits="userSpaceOnUse">
<stop stop-color="#0499AB"/>
<stop offset="1" stop-color="#06646F" stop-opacity="0.6"/>
</linearGradient>
<linearGradient id="paint3_linear_6125_206" x1="22.3789" y1="17.6691" x2="75.8209" y2="18.8061" gradientUnits="userSpaceOnUse">
<stop stop-color="#0499AB"/>
<stop offset="1" stop-color="#06646F" stop-opacity="0.6"/>
</linearGradient>
</defs>
</svg>
