<svg width="46" height="41" viewBox="0 0 46 41" fill="none" xmlns="http://www.w3.org/2000/svg">
<path d="M42.49 17.6123C42.4011 17.6123 42.3197 17.6345 42.2308 17.6419C41.816 14.0202 40.3422 10.5612 38.024 7.74702C38.9275 6.9323 39.4979 5.75473 39.4979 4.45121C39.4979 1.99969 37.5056 0 35.0466 0C33.2987 0 31.7952 1.00726 31.0621 2.47375C28.7068 1.44425 26.2111 0.918435 23.6187 0.918435C21.145 0.918435 18.7455 1.39984 16.4716 2.34785C15.731 1.47388 14.6349 0.92583 13.4054 0.92583C11.1835 0.92583 9.36894 2.73298 9.36894 4.96228C9.36894 5.68808 9.56151 6.36207 9.9022 6.95458C6.82116 10.28 5.0806 14.5463 4.91044 19.0934C4.82896 19.086 4.7475 19.0786 4.66603 19.0786C2.09601 19.0786 0 21.1672 0 23.7372C0 26.3072 2.09601 28.4032 4.66603 28.4032C5.39927 28.4032 6.08065 28.2329 6.70279 27.9292C7.97668 30.6177 9.86531 32.9731 12.2131 34.7947C12.1168 35.1725 12.065 35.5576 12.065 35.9575C12.065 38.6164 14.2276 40.7715 16.879 40.7715C18.6047 40.7715 20.1082 39.8605 20.9599 38.4978C21.8339 38.6237 22.7227 38.7051 23.6188 38.7051C26.8184 38.7051 29.944 37.883 32.7141 36.3277C33.3436 37.7794 34.7878 38.8015 36.4765 38.8015C38.7354 38.8015 40.5722 36.9647 40.5722 34.7132C40.5722 33.2245 39.7649 31.921 38.5724 31.2026C40.0907 29.1806 41.1943 26.855 41.8016 24.411C42.0238 24.4554 42.2534 24.4776 42.4904 24.4776C44.3864 24.4776 45.9195 22.9371 45.9195 21.0485C45.9195 19.1451 44.379 17.6119 42.4904 17.6119L42.49 17.6123ZM19.523 26.0112C19.523 27.574 18.2565 28.8405 16.6937 28.8405C15.131 28.8405 13.8645 27.574 13.8645 26.0112C13.8645 24.4559 15.131 23.182 16.6937 23.182C18.2565 23.182 19.523 24.4485 19.523 26.0112ZM13.4054 2.39999C14.8127 2.39999 15.9532 3.54799 15.9532 4.95517C15.9532 6.36236 14.8127 7.50296 13.4054 7.50296C11.9982 7.50296 10.8503 6.3624 10.8503 4.95517C10.8503 3.54055 11.9982 2.39999 13.4054 2.39999ZM4.6657 26.9151C2.9104 26.9151 1.48094 25.4857 1.48094 23.7304C1.48094 21.975 2.91035 20.5531 4.6657 20.5531C6.42104 20.5531 7.85045 21.9825 7.85045 23.7304C7.84305 25.4857 6.42104 26.9151 4.6657 26.9151ZM9.5911 16.1391C9.5911 13.7172 11.5612 11.7471 13.9831 11.7471C16.4049 11.7471 18.375 13.7172 18.375 16.1391C18.375 18.561 16.4049 20.531 13.9831 20.531C11.5612 20.5236 9.5911 18.5535 9.5911 16.1391ZM16.879 39.2915C15.0422 39.2915 13.5461 37.7954 13.5461 35.9586C13.5461 34.1219 15.0422 32.6258 16.879 32.6258C18.7157 32.6258 20.2118 34.1219 20.2118 35.9586C20.2118 37.7954 18.7157 39.2915 16.879 39.2915ZM20.2118 11.3473C20.2118 8.91806 22.1893 6.94799 24.6186 6.94799C27.0479 6.94799 29.0254 8.9255 29.0254 11.3473C29.0254 13.7766 27.0479 15.7541 24.6186 15.7541C22.1893 15.7541 20.2118 13.7766 20.2118 11.3473ZM28.2775 29.4411C26.3889 29.4411 24.8483 27.9006 24.8483 26.012C24.8483 24.1233 26.3889 22.5828 28.2775 22.5828C30.1661 22.5828 31.7066 24.1233 31.7066 26.012C31.7141 27.9006 30.1735 29.4411 28.2775 29.4411ZM35.0468 1.47473C36.6836 1.47473 38.0167 2.80787 38.0167 4.44467C38.0167 6.08146 36.6836 7.4146 35.0468 7.4146C33.41 7.4146 32.0768 6.08146 32.0768 4.44467C32.0694 2.80787 33.4026 1.47473 35.0468 1.47473ZM32.262 17.1023C32.262 15.5469 33.5285 14.273 35.0912 14.273C36.654 14.273 37.9205 15.5395 37.9205 17.1023C37.9205 18.665 36.654 19.9315 35.0912 19.9315C33.5285 19.9315 32.262 18.6576 32.262 17.1023ZM39.0834 34.7073C39.0834 36.1442 37.9132 37.3144 36.469 37.3144C35.0248 37.3144 33.8546 36.1442 33.8546 34.7073C33.8546 33.2631 35.0248 32.0929 36.469 32.0929C37.9132 32.0929 39.0834 33.2631 39.0834 34.7073ZM42.4903 22.9904C41.4164 22.9904 40.5425 22.1164 40.5425 21.0425C40.5425 19.9686 41.4164 19.0946 42.4903 19.0946C43.5643 19.0946 44.4382 19.9686 44.4382 21.0425C44.4382 22.1164 43.5643 22.9904 42.4903 22.9904Z" fill="url(#paint0_linear_6190_48)"/>
<defs>
<linearGradient id="paint0_linear_6190_48" x1="0" y1="20.3858" x2="56.2812" y2="20.8298" gradientUnits="userSpaceOnUse">
<stop stop-color="#0499AB"/>
<stop offset="1" stop-color="#06646F" stop-opacity="0.6"/>
</linearGradient>
</defs>
</svg>
