<svg width="50" height="50" viewBox="0 0 50 50" fill="none" xmlns="http://www.w3.org/2000/svg">
<path d="M25.7611 0C12.787 0 2.23251 10.5545 2.23251 23.5286C2.23251 29.4252 4.41776 34.8187 8.01609 38.9508L0.480615 46.4863C-0.160205 47.1271 -0.160205 48.1683 0.480615 48.8092C0.801014 49.1296 1.22207 49.2898 1.64306 49.2898C2.06409 49.2898 2.48515 49.1296 2.80551 48.8092L10.341 41.2737C14.4733 44.8699 19.8665 47.0552 25.7631 47.0552C38.7373 47.0552 49.2918 36.5007 49.2918 23.5265C49.2897 10.5545 38.7353 0 25.7611 0ZM25.7611 43.7711C14.6004 43.7711 5.51863 34.6894 5.51863 23.5286C5.51863 12.3663 14.6004 3.28612 25.7611 3.28612C36.9219 3.28612 46.0037 12.3679 46.0037 23.5286C46.0037 34.6894 36.9219 43.7711 25.7611 43.7711Z" fill="url(#paint0_linear_6468_275)"/>
<path d="M25.7608 18.7222C21.6408 18.7222 18.291 22.074 18.291 26.1919C18.291 30.3119 21.6429 33.6638 25.7608 33.6638C29.8807 33.6638 33.2305 30.3119 33.2305 26.1919C33.2305 22.072 29.8787 18.7222 25.7608 18.7222ZM25.7608 30.3776C23.4523 30.3776 21.5771 28.5005 21.5771 26.192C21.5771 23.8835 23.4543 22.0083 25.7608 22.0083C28.0672 22.0083 29.9444 23.8855 29.9444 26.192C29.9444 28.5005 28.0672 30.3776 25.7608 30.3776Z" fill="url(#paint1_linear_6468_275)"/>
<path d="M25.76 13.3955C20.4938 13.3955 15.6882 16.7022 13.8006 21.6213C13.4761 22.4696 13.8992 23.4184 14.7454 23.745C15.5957 24.0736 16.5425 23.6464 16.867 22.8002C18.2698 19.1403 21.8434 16.6838 25.758 16.6838C29.7342 16.6838 33.2235 19.0848 34.6489 22.8002C34.8994 23.4534 35.5218 23.8559 36.1831 23.8559C36.3782 23.8559 36.5774 23.821 36.7705 23.745C37.6167 23.4205 38.0418 22.4695 37.7153 21.6234C35.8278 16.7024 31.0237 13.396 25.7559 13.396L25.76 13.3955Z" fill="url(#paint2_linear_6468_275)"/>
<defs>
<linearGradient id="paint0_linear_6468_275" x1="0" y1="24.6449" x2="60.4152" y2="25.0682" gradientUnits="userSpaceOnUse">
<stop stop-color="#0499AB"/>
<stop offset="1" stop-color="#06646F" stop-opacity="0.6"/>
</linearGradient>
<linearGradient id="paint1_linear_6468_275" x1="18.291" y1="26.193" x2="36.6018" y2="26.3212" gradientUnits="userSpaceOnUse">
<stop stop-color="#0499AB"/>
<stop offset="1" stop-color="#06646F" stop-opacity="0.6"/>
</linearGradient>
<linearGradient id="paint2_linear_6468_275" x1="13.6914" y1="18.6257" x2="43.2652" y2="19.1037" gradientUnits="userSpaceOnUse">
<stop stop-color="#0499AB"/>
<stop offset="1" stop-color="#06646F" stop-opacity="0.6"/>
</linearGradient>
</defs>
</svg>
