<svg width="82" height="53" viewBox="0 0 82 53" fill="none" xmlns="http://www.w3.org/2000/svg">
<path d="M20.1993 34.8673C20.1349 34.8673 20.0866 34.882 20.0383 34.882C17.4449 34.882 15.3509 32.962 15.3509 30.6023C15.3509 28.2573 17.4449 26.3373 20.0383 26.3373C22.6316 26.3373 24.7257 28.2573 24.7257 30.6023C24.7257 31.8334 24.1619 32.9327 23.2437 33.7094L28.205 39.9237L33.0051 33.9146C31.942 33.1232 31.2494 31.9507 31.2494 30.6023C31.2494 28.2573 33.3434 26.3373 35.9368 26.3373C38.5301 26.3373 40.6403 28.2573 40.6403 30.6023C40.6403 32.8741 38.6913 34.7061 36.2267 34.8526L29.8158 42.8989C29.8158 43.617 29.9929 44.2913 30.299 44.9068H44.2001V28.0521C44.2001 27.246 44.9089 26.5865 45.8109 26.5865C46.6968 26.5865 47.4217 27.246 47.4217 28.0521V44.9068H56.3938V17.3237C56.3938 13.3958 53.4299 9.98091 49.2258 9.10157L41.2685 7.40148C37.7247 6.654 35.2119 3.76667 35.2119 0.45434V0H21.1981V0.45434C21.1981 3.76667 18.6852 6.654 15.1415 7.40148L7.16804 9.10157C2.98002 9.98091 0 13.3958 0 17.3237V44.9068H8.98825V28.0521C8.98825 27.246 9.71312 26.5865 10.599 26.5865C11.485 26.5865 12.2098 27.246 12.2098 28.0521V44.9068H26.8841C26.6908 44.2766 26.5942 43.6024 26.5942 42.9136L20.1993 34.8673ZM32.989 15.8728L40.2215 13.5864C41.0752 13.3226 41.9934 13.7329 42.2672 14.4951C42.5571 15.2719 42.1222 16.0926 41.2846 16.3564L34.036 18.6428C33.8589 18.6867 33.6817 18.7161 33.5045 18.7161C32.8441 18.7161 32.2158 18.335 31.9903 17.7341C31.7004 16.9573 32.1353 16.1219 32.989 15.8728ZM14.1267 14.4951C14.4166 13.7329 15.3348 13.3226 16.1723 13.5864L23.4209 15.8728C24.2585 16.1219 24.7096 16.9573 24.4197 17.7341C24.1941 18.335 23.5659 18.7161 22.8894 18.7161C22.7283 18.7161 22.5511 18.6867 22.3739 18.6428L15.1254 16.3564C14.2877 16.0926 13.8367 15.2719 14.1267 14.4951Z" fill="url(#paint0_linear_6125_126)"/>
<path d="M80.3206 35.6736H63.8744C62.9885 35.6736 62.2637 36.3331 62.2637 37.1392V47.8383H35.2829C33.06 47.8383 31.1593 46.6364 30.3055 44.907H26.8906C27.8732 48.2779 31.2559 50.7695 35.2829 50.7695H62.2637V51.2679C62.2637 52.0886 62.9885 52.7335 63.8744 52.7335H80.3206C81.2066 52.7335 81.9314 52.0886 81.9314 51.2679V37.1392C81.9314 36.3331 81.2066 35.6736 80.3206 35.6736ZM75.4238 47.765H68.7712C67.8853 47.765 67.1604 47.1054 67.1604 46.2994C67.1604 45.4933 67.8853 44.8337 68.7712 44.8337H75.4238C76.3097 44.8337 77.0346 45.4933 77.0346 46.2994C77.0346 47.1054 76.3097 47.765 75.4238 47.765ZM76.2453 42.9431H67.9658C67.0799 42.9431 66.355 42.2836 66.355 41.4775C66.355 40.6713 67.0799 40.0119 67.9658 40.0119H76.2453C77.1312 40.0119 77.8561 40.6713 77.8561 41.4775C77.8561 42.2836 77.1312 42.9431 76.2453 42.9431Z" fill="url(#paint1_linear_6125_126)"/>
<path d="M78.9745 28.8484C78.9745 28.039 78.2533 27.3828 77.3637 27.3828H66.8432C65.9536 27.3828 65.2324 28.039 65.2324 28.8484V32.7431H78.9745V28.8484Z" fill="url(#paint2_linear_6125_126)"/>
<defs>
<linearGradient id="paint0_linear_6125_126" x1="0" y1="22.4534" x2="69.118" y2="23.0615" gradientUnits="userSpaceOnUse">
<stop stop-color="#0499AB"/>
<stop offset="1" stop-color="#06646F" stop-opacity="0.6"/>
</linearGradient>
<linearGradient id="paint1_linear_6125_126" x1="26.8906" y1="44.2035" x2="94.321" y2="45.7277" gradientUnits="userSpaceOnUse">
<stop stop-color="#0499AB"/>
<stop offset="1" stop-color="#06646F" stop-opacity="0.6"/>
</linearGradient>
<linearGradient id="paint2_linear_6125_126" x1="65.2324" y1="30.063" x2="82.071" y2="30.3654" gradientUnits="userSpaceOnUse">
<stop stop-color="#0499AB"/>
<stop offset="1" stop-color="#06646F" stop-opacity="0.6"/>
</linearGradient>
</defs>
</svg>
