<svg width="46" height="46" viewBox="0 0 46 46" fill="none" xmlns="http://www.w3.org/2000/svg">
<path d="M41.0765 0H4.92918C2.21195 0 0 2.21195 0 4.92918V41.0765C0 43.7938 2.21195 46.0057 4.92918 46.0057H41.0765C43.7938 46.0057 46.0057 43.7938 46.0057 41.0765V4.92918C46.0057 2.21195 43.7938 0 41.0765 0ZM4.92918 3.28612H41.0765C41.9823 3.28612 42.7196 4.02342 42.7196 4.92918V13.1445H3.28612V4.92918C3.28612 4.02342 4.02342 3.28612 4.92918 3.28612ZM41.0765 42.7196H4.92918C4.02342 42.7196 3.28612 41.9823 3.28612 41.0765V16.4306H42.7196V41.0765C42.7196 41.9823 41.9823 42.7196 41.0765 42.7196ZM14.7875 24.6459C14.7875 26.4574 13.3129 27.932 11.5014 27.932C9.68996 27.932 8.2153 26.4574 8.2153 24.6459C8.2153 22.8344 9.68996 21.3598 11.5014 21.3598C13.3129 21.3598 14.7875 22.8344 14.7875 24.6459ZM26.289 24.6459C26.289 26.4574 24.8143 27.932 23.0029 27.932C21.1914 27.932 19.7167 26.4574 19.7167 24.6459C19.7167 22.8344 21.1914 21.3598 23.0029 21.3598C24.8143 21.3598 26.289 22.8344 26.289 24.6459ZM14.7875 34.5043C14.7875 36.3157 13.3129 37.7904 11.5014 37.7904C9.68996 37.7904 8.2153 36.3157 8.2153 34.5043C8.2153 32.6928 9.68996 31.2182 11.5014 31.2182C13.3129 31.2182 14.7875 32.6928 14.7875 34.5043ZM26.289 34.5043C26.289 36.3157 24.8143 37.7904 23.0029 37.7904C21.1914 37.7904 19.7167 36.3157 19.7167 34.5043C19.7167 32.6928 21.1914 31.2182 23.0029 31.2182C24.8143 31.2182 26.289 32.6928 26.289 34.5043ZM37.7904 24.6459C37.7904 26.4574 36.3157 27.932 34.5043 27.932C32.6928 27.932 31.2182 26.4574 31.2182 24.6459C31.2182 22.8344 32.6928 21.3598 34.5043 21.3598C36.3157 21.3598 37.7904 22.8344 37.7904 24.6459ZM37.7904 34.5043C37.7904 36.3157 36.3157 37.7904 34.5043 37.7904C32.6928 37.7904 31.2182 36.3157 31.2182 34.5043C31.2182 32.6928 32.6928 31.2182 34.5043 31.2182C36.3157 31.2182 37.7904 32.6928 37.7904 34.5043Z" fill="url(#paint0_linear_6468_269)"/>
<defs>
<linearGradient id="paint0_linear_6468_269" x1="0" y1="23.0029" x2="56.3876" y2="23.3979" gradientUnits="userSpaceOnUse">
<stop stop-color="#0499AB"/>
<stop offset="1" stop-color="#06646F" stop-opacity="0.6"/>
</linearGradient>
</defs>
</svg>
