<svg width="51" height="61" viewBox="0 0 51 61" fill="none" xmlns="http://www.w3.org/2000/svg">
<path d="M2.40561 51.4471L0 61H51L48.5944 51.4471C47.4774 47.0044 44.2312 43.5212 39.9206 42.1368L32.2499 39.6719C34.8417 37.6852 36.5608 34.5944 36.7179 31.0931C38.3701 29.5433 40.6651 26.8068 41.6338 22.8573C43.4518 15.4302 39.3417 9.52061 37.992 7.83462L40.2027 2.80145L38.6756 2.25828C34.452 0.761603 30.0219 0 25.5019 0C20.9816 0 16.5511 0.76455 12.3282 2.25828L10.801 2.80145L13.0117 7.83462C11.665 9.52023 7.55483 15.4302 9.36993 22.8573C10.3386 26.816 12.6307 29.5613 14.2917 31.1021C14.4487 34.6002 16.162 37.691 18.7509 39.6809L11.0802 42.1458C6.7693 43.5273 3.52863 47.0048 2.40643 51.4562L2.40561 51.4471ZM41.6371 53.3511H38.5625V56.4713H35.5838V53.3511H32.5092V50.3283H35.5838V47.208H38.5625V50.3283H41.6371V53.3511ZM36.1394 4.60185L33.3848 10.8748H17.6048L14.8502 4.60185C21.7237 2.50007 29.266 2.50007 36.1488 4.60185H36.1394ZM17.2408 30.5824V25.685C18.9541 24.7639 20.615 23.7426 22.2004 22.6179C23.7188 21.5433 25.179 20.3655 26.5636 19.1109C28.1634 20.9028 29.9582 22.5028 31.9042 23.8931C32.5063 24.3241 33.1259 24.7315 33.7571 25.1182V30.5735C33.7571 35.1993 30.0484 38.9634 25.4899 38.9634C20.9318 38.9634 17.2317 35.2084 17.2317 30.5826L17.2408 30.5824ZM25.499 41.986C26.488 41.986 27.4421 41.8413 28.3497 41.5993L31.3428 42.5587L25.4961 48.9438C24.0155 47.3261 21.3568 44.4243 19.6493 42.5587L22.6425 41.5993C23.55 41.8413 24.5041 41.986 25.4931 41.986H25.499Z" fill="url(#paint0_linear_6125_63)"/>
<defs>
<linearGradient id="paint0_linear_6125_63" x1="0" y1="30.5" x2="62.5098" y2="30.8661" gradientUnits="userSpaceOnUse">
<stop stop-color="#0499AB"/>
<stop offset="1" stop-color="#06646F" stop-opacity="0.6"/>
</linearGradient>
</defs>
</svg>
